<?xml version="1.0" encoding="utf-8"?>
<!-- Generated by IcoMoon.io -->
<!DOCTYPE svg PUBLIC "-//W3C//DTD SVG 1.1//EN" "http://www.w3.org/Graphics/SVG/1.1/DTD/svg11.dtd">
<svg version="1.1" xmlns="http://www.w3.org/2000/svg" xmlns:xlink="http://www.w3.org/1999/xlink" width="122" height="60" viewBox="0 0 122 60">
<path fill="#444444" d="M122.614 27.157c-0.225-0.351-0.474-0.688-0.718-1.027-0.053-0.141-0.124-0.274-0.24-0.383-0.015-0.013-0.034-0.019-0.047-0.032-5.653-7.504-16.277-12.57-25.723-17.068-5.272-2.513-10.284-4.899-14.072-7.491 0-0.058-0.002-0.116-0.002-0.174-0.006-0.544-0.448-0.981-0.992-0.981-0.169-0.011-0.334 0.043-0.472 0.122-0.414-0.199-0.928-0.088-1.217 0.296-0.332 0.437-0.246 1.059 0.193 1.389 0.169 0.129 0.343 0.257 0.518 0.384 0.019 2.464-0.004 4.892-0.041 7.297-0.306 0.564-0.632 1.093-1.076 1.528-0.354 0.347-0.399 0.902-0.103 1.301 0.263 0.349 0.707 0.465 1.112 0.332-0.013 0.555-0.022 1.116-0.038 1.669-0.308 0.322-0.617 0.662-0.922 0.947-0.369 0.343-0.42 0.907-0.124 1.313 0.227 0.309 0.606 0.448 0.964 0.388-0.009 0.298-0.022 0.594-0.032 0.893-0.019 0.015-0.039 0.034-0.058 0.049-0.337 0.296-0.435 0.782-0.236 1.181 0.060 0.122 0.146 0.217 0.242 0.304-0.084 2.428-0.182 4.834-0.278 7.215-10.436-0.926-56.524-4.513-79.252 1.77l1.057 3.821c21.024-5.813 64.455-2.758 76.62-1.747-0.191 0.157-0.379 0.309-0.568 0.471-0.343 0.289-0.448 0.772-0.255 1.178 0.191 0.405 0.619 0.628 1.069 0.553 0.373-0.066 0.735-0.165 1.103-0.264-0.034 0.821-0.066 1.627-0.098 2.454-0.006 0.006-0.011 0.011-0.019 0.019-0.351 0.373-0.358 0.949-0.023 1.333-0.073 2.207-0.142 4.421-0.188 6.666-0.499 0.563-0.945 1.069-1.301 1.479-0.322 0.373-0.322 0.93 0.004 1.303 0.322 0.369 0.866 0.437 1.275 0.18-0.047 4.339-0.039 8.726 0.139 13.221 0.011 0.285 0.142 0.547 0.366 0.727 0.178 0.146 0.401 0.223 0.626 0.223 0.052 0 0.105-0.004 0.157-0.011 9.388-1.5 18.21-8.985 26.739-17.066 3.079-2.648 6.034-5.477 8.696-8.306 2.381-2.235 4.706-4.333 6.996-6.148 0.401-0.311 0.495-0.878 0.219-1.307zM109.020 17.717c0.006-0.007 0.002-0.023 0.007-0.030 0.054 0.032 0.109 0.062 0.161 0.096-0.101 0.045-0.202 0.088-0.302 0.135 0.043-0.067 0.088-0.135 0.133-0.201zM106.719 16.339c0.126 0.071 0.251 0.143 0.377 0.214-0.287 0.118-0.576 0.231-0.859 0.36 0.163-0.188 0.321-0.383 0.482-0.576zM109.014 20.059c-0.819 2.014-1.821 3.834-2.959 5.499-3.322 1.841-6.572 4.104-9.677 6.579 3.517-3.244 6.904-6.789 9.857-10.571 0.947-0.553 1.875-1.057 2.781-1.508zM110.824 25.395c-0.499 1.232-1.093 2.43-1.764 3.602-2.106 1.11-4.448 2.449-6.902 4.031 1.928-1.785 3.72-3.741 5.286-5.972 1.119-0.609 2.25-1.166 3.381-1.661zM81.264 27.366c0.191-0.111 0.381-0.219 0.568-0.337-0.197 0.159-0.388 0.321-0.583 0.482l0.013-0.144zM81.034 31.699c0.894-0.383 1.776-0.844 2.64-1.376-0.904 0.791-1.8 1.613-2.685 2.458 0.013-0.358 0.030-0.724 0.043-1.082zM87.641 29.554c0.486-0.405 0.971-0.804 1.455-1.206 3.199-2.644 6.484-5.355 9.504-8.668 1.652-1.162 3.287-2.081 4.869-2.614-1.284 1.429-2.608 2.773-3.949 4.061-2.419 1.883-4.742 4.033-7.014 6.231-0.414 0.351-0.829 0.699-1.239 1.046-3.48 2.934-7.061 5.985-10.448 9.473 0.023-0.692 0.038-1.38 0.062-2.074 2.139-1.717 4.388-3.902 6.759-6.251zM80.914 40.434c-0.062 0.066-0.114 0.124-0.174 0.188 0.002-0.062 0.006-0.124 0.006-0.186 0.056-0.008 0.114 0.013 0.169-0.002zM90.529 37.183c-3.688 3.418-7.024 6.954-9.887 10.204 0.006-0.968 0.013-1.937 0.028-2.901 3.092-2.104 6.452-4.541 9.861-7.303zM85.033 38.947c5.141-5.295 10.335-9.874 15.214-13.436-4.757 5.104-10.144 9.645-15.214 13.436zM101.987 30.424c-2.932 2.936-6.272 5.389-9.617 7.753 3.028-2.771 6.262-5.439 9.617-7.753zM104.918 20.027c-1.414 0.833-2.82 1.742-4.209 2.711 0.036-0.034 0.069-0.067 0.105-0.099 1.423-1.102 2.873-2.1 4.358-2.942-0.088 0.111-0.171 0.219-0.253 0.332zM104.003 14.857c-0.782 0.18-1.562 0.439-2.348 0.774-0.002-0.225-0.081-0.446-0.234-0.626-0.298-0.352-0.799-0.452-1.209-0.244-2.032 1.043-4.001 2.514-5.916 4.134 0.786-0.769 1.566-1.56 2.334-2.381 0.321-0.341 0.358-0.861 0.092-1.243-0.082-0.124-0.193-0.219-0.313-0.289 0.733-0.876 1.436-1.832 2.093-2.887 1.834 0.889 3.684 1.804 5.503 2.762zM92.359 9.156c0.883 0.424 1.768 0.851 2.672 1.281 0.456 0.216 0.919 0.439 1.378 0.658-1.802 0.936-3.619 2.158-5.404 3.422 0.731-0.669 1.446-1.371 2.136-2.106 0.352-0.377 0.356-0.964 0.007-1.346-0.349-0.384-0.934-0.435-1.341-0.114-2.081 1.618-4.232 3.234-6.386 4.496 2.271-1.941 4.577-3.941 6.744-6.030 0.082-0.077 0.141-0.167 0.191-0.262zM81.829 3.542c2.516 1.607 5.447 3.127 8.559 4.654-1.858 1.048-3.75 2.216-5.593 3.375 0.638-0.705 1.284-1.378 1.933-1.956 0.392-0.351 0.444-0.949 0.112-1.361s-0.93-0.489-1.354-0.18c-0.998 0.722-2.28 1.162-3.533 1.582 0.056-0.118 0.114-0.236 0.171-0.352 0.182-0.375 0.367-0.758 0.572-1.138 0.263-0.482 0.081-1.082-0.399-1.344-0.157-0.083-0.322-0.107-0.489-0.103 0.006-1.058 0.024-2.104 0.022-3.174zM81.729 11.828c0.099-0.034 0.188-0.069 0.287-0.103-0.082 0.097-0.169 0.197-0.251 0.291-0.013 0.015-0.028 0.030-0.039 0.045 0-0.077 0.002-0.154 0.004-0.234zM81.634 15.846c0.294-0.176 0.587-0.341 0.883-0.523-0.304 0.261-0.591 0.512-0.891 0.769 0.002-0.083 0.006-0.165 0.007-0.246zM81.514 19.318c0.242-0.069 0.484-0.113 0.724-0.195-0.249 0.201-0.489 0.409-0.737 0.611 0.006-0.139 0.009-0.279 0.013-0.416zM81.397 22.517c3.349-1.108 6.579-3.399 9.705-5.634 0.853-0.609 1.687-1.204 2.511-1.768-2.145 2.188-4.551 3.851-7.046 5.574-1.748 1.207-3.536 2.449-5.25 3.896 0.028-0.686 0.056-1.374 0.081-2.068zM80.616 49.819c0.287 0.013 0.579-0.079 0.788-0.308 2.698-2.976 6.079-5.458 9.694-8.010-3.701 3.375-7.279 7.341-10.421 11.901-0.019-1.193-0.056-2.406-0.060-3.583zM80.756 57.825c-0.024-0.686-0.021-1.344-0.037-2.025 0.231 0.038 0.472-0.002 0.682-0.131l0.907-0.572c1.314-0.823 2.745-1.719 4.249-2.689-0.619 0.596-1.232 1.198-1.845 1.794-0.321 0.313-0.39 0.806-0.169 1.198 0.178 0.315 0.512 0.503 0.863 0.503 0.081 0 0.163-0.009 0.244-0.032 0.234 0.054 0.482 0.021 0.701-0.105 0.118-0.068 0.24-0.137 0.369-0.208 0.379-0.124 0.78-0.287 1.17-0.433-2.359 1.243-4.736 2.182-7.134 2.698zM91.941 50.111c4.117-3.821 8.497-7.144 12.866-10.307-4.067 4.232-8.861 7.725-12.866 10.307zM84.688 51.253c6.808-8.638 15.191-14.721 22.022-18.69-5.829 7.843-14.882 14.126-22.022 18.69zM110.481 30.488c0.446-0.231 0.876-0.45 1.297-0.658-0.448 1.014-0.964 2.006-1.536 2.972-0.801 0.495-1.603 1.016-2.407 1.558 0.966-1.247 1.854-2.541 2.647-3.872zM109.292 37.699c-0.066 0.062-0.129 0.126-0.197 0.188 0.641-0.804 1.264-1.626 1.834-2.475 1.065-0.765 2.134-1.539 3.199-2.325-1.586 1.485-3.188 3.024-4.836 4.613zM115.022 29.944c-0.278-0.148-0.607-0.281-1.003-0.337 0.188-0.476 0.36-0.956 0.517-1.442 0.124-0.375 0.009-0.786-0.285-1.046s-0.716-0.323-1.074-0.159c-0.353 0.165-0.718 0.336-1.097 0.517 0.534-1.151 0.996-2.334 1.371-3.542 0.113-0.36 0.009-0.756-0.266-1.014-0.278-0.261-0.677-0.343-1.029-0.208-0.913 0.341-1.826 0.722-2.736 1.138 0.767-1.427 1.427-2.983 2.002-4.637 3.186 2.128 6.011 4.47 8.141 7.117-1.489 1.232-2.998 2.447-4.541 3.613z"></path>
</svg>
