<?xml version="1.0" encoding="utf-8"?>
<!-- Generated by IcoMoon.io -->
<!DOCTYPE svg PUBLIC "-//W3C//DTD SVG 1.1//EN" "http://www.w3.org/Graphics/SVG/1.1/DTD/svg11.dtd">
<svg version="1.1" xmlns="http://www.w3.org/2000/svg" xmlns:xlink="http://www.w3.org/1999/xlink" width="201" height="60" viewBox="0 0 201 60">
<path fill="#444444" d="M198.555 59.092c-0.291 0-0.583-0.096-0.834-0.279-1.194-0.885-2.387-2.119-3.765-3.542-11.108-11.443-37.119-38.246-189.789-23.469-0.701 0.084-1.457-0.482-1.536-1.254-0.073-0.773 0.493-1.457 1.26-1.53 154.003-14.901 180.673 12.576 192.066 24.309 1.294 1.333 2.415 2.483 3.429 3.238 0.617 0.459 0.75 1.333 0.291 1.961-0.274 0.369-0.696 0.566-1.121 0.566z"></path>
<path fill="#444444" d="M76.217 60c-1.586 0-3.469-0.347-5.704-1.048-3.339-1.043-6.636-2.359-9.885-3.827-0.801 0.834-1.654 1.507-2.561 1.967-0.341 0.18-0.741 0.203-1.104 0.073-0.364-0.124-0.656-0.398-0.812-0.752-0.319-0.724-0.341-1.973-0.18-3.486-2.589-1.277-5.151-2.606-7.678-3.917-7.005-3.632-14.244-7.386-21.63-9.727-2.364-0.752-4.898-1.232-7.408-1.654-1.144 0.532-2.319 1.003-3.531 1.406-0.381 0.135-0.806 0.090-1.155-0.118-0.347-0.203-0.594-0.544-0.673-0.947-0.079-0.426-0.124-0.846-0.129-1.254-4.601-0.84-9.184-2.051-13.185-4.948-0.353-0.251-0.572-0.656-0.583-1.087s0.174-0.846 0.504-1.127c3.934-3.261 8.203-5.884 12.697-8.076 3.144-2.359 7.234-4.224 10.809-5.571 0.403-0.163 0.874-0.113 1.249 0.129 0.191 0.124 0.347 0.291 0.454 0.482 6.366-2.063 12.928-3.66 19.395-5.228 0.544-0.129 1.082-0.262 1.62-0.392 1.682-1.984 3.469-3.593 5.162-4.607 0.437-0.263 0.981-0.268 1.412-0.017 0.443 0.253 0.712 0.718 0.707 1.223 0 0.203-0.017 0.398-0.045 0.594 0.673-0.476 1.316-0.806 1.939-0.947 0.465-0.118 0.953 0.028 1.288 0.358 0.18 0.174 0.302 0.386 0.369 0.623 7.374-2.040 14.351-4.438 20.689-7.952 0.673-0.369 1.524-0.135 1.905 0.549 0.257 0.465 0.225 1.009-0.039 1.423 1.282-0.471 2.572-0.902 3.872-1.26 0.482-0.141 1.020 0 1.378 0.369s0.487 0.896 0.341 1.389c-2.147 7.072-2.691 15.746-3.221 24.129-0.18 2.908-0.364 5.743-0.606 8.4-0.285 3.139 0.101 6.613 0.471 9.975 0.645 5.901 1.206 10.995-1.849 13.517-1.087 0.885-2.494 1.333-4.286 1.333zM67.89 55.097c1.149 0.426 2.302 0.817 3.452 1.183 3.671 1.149 6.159 1.217 7.374 0.208 1.894-1.552 1.378-6.165 0.84-11.040-0.375-3.502-0.767-7.117-0.465-10.536 0.242-2.634 0.414-5.441 0.6-8.321 0.482-7.599 0.975-15.433 2.657-22.269-3.632 1.232-7.134 2.914-10.657 4.791 1.254 4.785 1.249 10.042 0.684 15.456-0.034 2.657-0.011 5.363 0.291 7.991 0.18 1.502 0.308 3.564 0.454 5.867 0.285 4.545 0.656 10.451 1.603 13.988 1.071-2.246 0.034-4.841-0.572-6.024-0.353-0.69-0.079-1.53 0.611-1.883 0.69-0.347 1.53-0.084 1.883 0.611 2.231 4.371 1.682 8.535-1.479 11.13-0.319 0.263-0.735 0.381-1.144 0.296-0.409-0.079-0.761-0.33-0.964-0.69-1.866-3.289-2.331-10.708-2.739-17.248-0.017-0.268-0.034-0.532-0.051-0.795-0.028 0.157-0.062 0.313-0.090 0.465-1.121 6.002-2.181 11.672-2.28 16.704 0.006 0.039 0 0.084-0.006 0.118zM62.421 52.86c0.829 0.369 1.665 0.729 2.499 1.076-0.18-1.222-0.392-2.751-0.606-4.494-0.589 1.249-1.217 2.393-1.894 3.418zM59.036 51.298c0.285 0.135 0.572 0.274 0.857 0.409 1.462-2.057 2.73-4.898 3.793-8.132-0.219-2.359-0.409-4.875-0.538-7.403-0.347 1.294-0.735 2.618-1.178 3.984-1.194 3.615-2.347 7.991-2.936 11.141zM52.127 47.841c1.423 0.735 2.858 1.468 4.303 2.186 0.941-4.813 2.756-10.384 2.88-10.742 2.108-6.467 2.886-11.79 3.788-17.955 0.011-0.079 0.023-0.152 0.034-0.231-1.939 3.609-3.238 7.628-4.596 11.796-1.671 5.117-3.384 10.401-6.411 14.946zM23.143 35.494c1.474 0.302 2.936 0.662 4.365 1.116 7.583 2.404 14.895 6.188 21.968 9.857 0.197-0.801 0.426-1.609 0.684-2.409-0.426 0.414-0.834 0.773-1.237 1.071-0.488 0.364-1.155 0.358-1.643 0.011-0.493-0.347-0.707-0.981-0.527-1.558 0.347-1.121 0.679-2.229 0.986-3.334-0.544 0.313-1.093 0.555-1.642 0.729-0.409 0.118-0.851 0.056-1.206-0.186s-0.578-0.634-0.606-1.059c-0.398-5.873 2.679-12.441 5.655-18.789 0.157-0.341 0.313-0.679 0.471-1.009-0.862 0.319-1.738 0.623-2.623 0.902-2.522 4.461-4.702 9.146-5.469 11.634-0.18 0.589-0.724 0.992-1.339 0.992-0.594 0.135-1.166-0.409-1.344-1.003-0.268-0.913-0.42-1.866-0.476-2.852-1.26 0.902-2.874 1.603-5.010 1.984-0.527 0.090-1.048-0.118-1.367-0.538-0.308-0.414-0.364-0.958-0.152-1.429-1.183 0.829-2.409 1.637-3.699 2.471-0.812 0.532-1.654 1.076-2.516 1.659-0.319 0.219-0.707 0.279-1.065 0.208-0.718 0.544-1.451 1.059-2.209 1.536zM51.521 37.052c-0.118 0.448-0.24 0.891-0.358 1.339 0.729-1.076 1.457-2.28 2.169-3.559-0.594 0.801-1.2 1.541-1.809 2.22zM54.218 18.364c-0.566 1.26-1.155 2.516-1.738 3.765-2.432 5.19-4.937 10.536-5.363 15.208 0.617-0.443 1.243-0.997 1.866-1.654 1.671-6.219 3.294-12.216 6.523-17.91-0.426 0.197-0.857 0.392-1.288 0.589zM67.733 16.744c-1.183 2.079-2.091 6.774-1.933 15.247 0.017 0.986 0.051 1.984 0.096 2.981 1.333-6.669 1.956-13.568 1.837-18.229zM17.025 34.431c0.274 0.045 0.549 0.090 0.818 0.129 0.33 0.056 0.662 0.107 0.992 0.163 1.989-0.992 3.861-2.203 5.621-3.615 0.347-1.984 1.026-4.813 2.691-7.123-1.11 0.113-2.136 0.285-3.099 0.493-1.026 1.793-2.336 3.396-3.576 4.909-1.451 1.781-2.779 3.407-3.446 5.044zM3.788 30.517c3.167 1.854 6.696 2.751 10.423 3.429 0.778-2.28 2.454-4.326 4.086-6.332 0.51-0.628 1.031-1.26 1.519-1.899-0.941 0.341-1.866 0.707-2.801 1.076-2.079 0.817-4.23 1.665-6.887 2.387-0.493 0.129-1.026-0.017-1.378-0.386s-0.476-0.908-0.324-1.395c0.011-0.039 0.022-0.073 0.039-0.113-1.603 0.997-3.167 2.074-4.674 3.232zM59.338 16.901c-2.516 3.804-4.159 7.806-5.486 11.948 2.158-3.748 4.086-8.070 5.486-11.948zM37.821 25.268c-0.443 0.891-0.857 1.781-1.266 2.651 1.305-0.656 2.203-1.553 2.942-2.651 0.18-0.885 0.409-1.781 0.69-2.679-0.062 0.011-0.124 0.023-0.186 0.028-0.471 0.679-0.941 1.299-1.412 1.826-0.257 0.285-0.516 0.561-0.767 0.823zM31.191 23.85c-1.144 0.741-2.040 1.866-2.73 3.441 0.952-1.071 1.866-2.214 2.73-3.441zM34.956 23.244c-0.471 0.756-0.958 1.491-1.457 2.198 0.684-0.566 1.356-1.166 2.006-1.821 0.079-0.152 0.152-0.302 0.231-0.454-0.257 0.028-0.516 0.056-0.778 0.079zM14.588 23.934c-0.594 0.459-1.121 0.924-1.575 1.389 1.037-0.369 2.012-0.756 2.97-1.138 2.006-0.789 3.945-1.552 6.171-2.136 0.236-0.504 0.431-1.014 0.589-1.541-2.784 1.014-5.514 2.141-8.154 3.424zM25.834 19.434c-0.090 0.673-0.231 1.316-0.42 1.944 0.521-0.079 1.059-0.146 1.626-0.203l3.615-0.336c0.118-0.011 0.24-0.023 0.358-0.034 0.958-0.42 2.057-0.707 3.311-0.817 0.443-0.006 0.817 0.113 1.11 0.392 0.656-0.073 1.316-0.146 1.967-0.231 1.189-1.944 2.544-3.731 4.181-5.117-5.289 1.305-10.598 2.691-15.746 4.399zM53.707 12.049c-1.149 1.288-2.409 3.054-3.666 5.021 0.69-0.268 1.373-0.549 2.057-0.84 0.628-1.434 1.2-2.835 1.676-4.204-0.017 0.006-0.039 0.011-0.068 0.022zM62.679 15.758c-0.011 0.262-0.034 0.533-0.056 0.806 0.544-0.784 1.133-1.547 1.759-2.28 0.409-0.476 1.082-0.623 1.654-0.353 0.068 0.034 0.135 0.073 0.197 0.113 0.713-0.752 1.547-1.2 2.505-1.356 0.214-0.039 0.414-0.022 0.611 0.034-0.084-0.724-0.191-1.446-0.324-2.169-0.981 0.538-1.967 1.088-2.959 1.643-0.919 0.516-1.843 1.031-2.773 1.541-0.174 0.645-0.381 1.322-0.611 2.023zM56.991 11.184c-0.324 1.088-0.712 2.197-1.149 3.317 0.93-0.459 1.849-0.93 2.762-1.406 0.806-1.054 1.693-2.091 2.662-3.116-1.417 0.414-2.841 0.812-4.275 1.206zM63.351 9.341c0.319 0.186 0.544 0.476 0.645 0.812 0.236-0.129 0.471-0.262 0.713-0.397 1.222-0.684 2.454-1.367 3.694-2.046 0-0.022 0-0.045 0-0.067-1.659 0.6-3.345 1.161-5.049 1.699z"></path>
</svg>
