<?xml version="1.0" encoding="utf-8"?>
<!-- Generated by IcoMoon.io -->
<!DOCTYPE svg PUBLIC "-//W3C//DTD SVG 1.1//EN" "http://www.w3.org/Graphics/SVG/1.1/DTD/svg11.dtd">
<svg version="1.1" xmlns="http://www.w3.org/2000/svg" xmlns:xlink="http://www.w3.org/1999/xlink" width="154" height="60" viewBox="0 0 154 60">
<path fill="#444444" d="M70.523 37.412c-0.088 0-0.195-0.026-0.328-0.092-0.049-0.024-0.088-0.066-0.111-0.116-0.189-0.461-0.092-0.923 0.27-1.266 0.090-0.084 0.234-0.081 0.319 0.008s0.082 0.234-0.007 0.319c-0.204 0.193-0.27 0.429-0.193 0.684 0.004 0.002 0.006 0.002 0.007 0.004 0.006-0.011 0.011-0.023 0.017-0.034 0.022-0.047 0.049-0.097 0.084-0.152 0.068-0.103 0.206-0.135 0.311-0.068s0.135 0.206 0.067 0.311c-0.026 0.039-0.045 0.077-0.060 0.111-0.079 0.156-0.18 0.291-0.377 0.291z"></path>
<path fill="#444444" d="M77.64 39.482c-0.105 0-0.216-0.015-0.334-0.047-0.069-0.019-0.126-0.069-0.15-0.137-0.079-0.204-0.092-0.414-0.041-0.624 0.030-0.122 0.152-0.193 0.272-0.167 0.122 0.030 0.195 0.152 0.167 0.272-0.021 0.083-0.023 0.165-0.008 0.246 0.225 0.026 0.42-0.045 0.536-0.208 0.084-0.118 0.107-0.263 0.051-0.343-0.064-0.094-0.244-0.114-0.482-0.052-0.126 0.030-0.244-0.045-0.274-0.163s0.043-0.244 0.163-0.274c0.6-0.15 0.861 0.084 0.966 0.236 0.163 0.24 0.141 0.583-0.058 0.859-0.152 0.212-0.431 0.403-0.808 0.403z"></path>
<path fill="#444444" d="M78.647 42.366c-0.099 0-0.191-0.067-0.217-0.169-0.082-0.313 0-0.705 0.039-0.861 0.019-0.071 0.069-0.129 0.137-0.156 0.328-0.126 0.806-0.126 1.14 0.006 0.043 0.017 0.079 0.047 0.107 0.086 0.144 0.219 0.146 0.463 0.002 0.683-0.026 0.039-0.064 0.069-0.109 0.086-0.296 0.114-0.564 0.114-0.87 0.008-0.006-0.002-0.011-0.004-0.017-0.008 0.004 0.015 0.006 0.026 0.009 0.039 0.032 0.12-0.041 0.244-0.161 0.276-0.021 0.006-0.039 0.008-0.058 0.008zM79.123 41.655c0.137 0.034 0.253 0.030 0.381-0.008 0.008-0.023 0.008-0.043 0-0.066-0.116-0.034-0.259-0.043-0.394-0.041 0 0.039 0.004 0.077 0.013 0.114z"></path>
<path fill="#444444" d="M82.453 38.415c-0.242 0-0.448-0.126-0.587-0.362-0.064-0.107-0.026-0.246 0.079-0.309s0.246-0.026 0.309 0.081c0.045 0.077 0.090 0.114 0.137 0.131 0.054-0.178-0.015-0.234-0.193-0.352-0.105-0.069-0.133-0.208-0.064-0.313s0.208-0.133 0.313-0.064c0.313 0.206 0.566 0.476 0.302 1.050-0.030 0.068-0.092 0.114-0.167 0.129-0.043 0.008-0.088 0.011-0.129 0.011z"></path>
<path fill="#444444" d="M88.624 36.589h-0.788c-0.126 0-0.225-0.101-0.225-0.225s0.101-0.225 0.225-0.225h0.788c0.126 0 0.225 0.101 0.225 0.225s-0.101 0.225-0.225 0.225z"></path>
<path fill="#444444" d="M116.873 37.029c-0.403 0-0.812-0.163-0.983-0.422-0.068-0.105-0.039-0.244 0.064-0.313s0.244-0.039 0.313 0.064c0.103 0.156 0.518 0.278 0.836 0.189 0.023-0.008 0.045-0.015 0.066-0.023 0-0.008-0.002-0.013-0.004-0.019-0.019-0.191 0.024-0.334 0.129-0.42 0.068-0.056 0.188-0.111 0.381-0.056 0.099 0.028 0.167 0.122 0.163 0.227-0.017 0.36-0.24 0.624-0.615 0.728-0.114 0.030-0.233 0.045-0.353 0.045z"></path>
<path fill="#444444" d="M93.238 40.161c-0.204 0-0.407-0.034-0.574-0.099-0.043-0.017-0.079-0.047-0.105-0.084-0.118-0.178-0.141-0.373-0.067-0.557-0.002-0.008-0.004-0.017-0.004-0.024-0.011-0.124 0.079-0.234 0.203-0.246 0.067-0.008 0.135-0.011 0.201-0.015 0.099-0.019 0.201-0.019 0.302-0.002 0.197 0.008 0.39 0.028 0.578 0.064 0.060 0.011 0.112 0.047 0.144 0.097 0.146 0.221 0.146 0.463 0 0.684-0.026 0.038-0.062 0.068-0.105 0.084-0.167 0.066-0.369 0.099-0.574 0.099zM92.906 39.667c0.199 0.056 0.467 0.056 0.664 0 0.006-0.015 0.006-0.032 0.004-0.047-0.090-0.015-0.182-0.024-0.274-0.030-0.038 0.011-0.079 0.013-0.122 0-0.011-0.004-0.021-0.006-0.032-0.008-0.064-0.002-0.131-0.002-0.197 0-0.013 0.004-0.026 0.008-0.041 0.011-0.009 0.024-0.009 0.049-0.002 0.071z"></path>
<path fill="#444444" d="M103.551 41.661c-0.15 0-0.293-0.039-0.422-0.12-0.42-0.261-0.564-0.868-0.609-1.116-0.021-0.122 0.062-0.24 0.184-0.261s0.238 0.062 0.261 0.184c0.067 0.386 0.221 0.697 0.401 0.81 0.064 0.039 0.135 0.053 0.206 0.053 0.006-0.028 0.011-0.054 0.015-0.081-0.084 0.023-0.176-0.006-0.233-0.077-0.079-0.098-0.064-0.238 0.034-0.317l0.216-0.174c0.054-0.045 0.126-0.060 0.197-0.043s0.126 0.066 0.152 0.131c0.133 0.311 0.101 0.553 0.013 0.825-0.023 0.071-0.079 0.126-0.15 0.146-0.090 0.026-0.18 0.039-0.266 0.039z"></path>
<path fill="#444444" d="M109.704 28.871c-0.247 0-0.514-0.073-0.684-0.334-0.084 0.049-0.195 0.039-0.27-0.032-0.090-0.086-0.094-0.229-0.007-0.319 0.294-0.309 0.758-0.443 1.134-0.323 0.3 0.096 0.497 0.337 0.546 0.664 0.015 0.111-0.052 0.218-0.159 0.249-0.112 0.032-0.326 0.094-0.557 0.094zM109.403 28.297c0.069 0.096 0.193 0.159 0.495 0.103-0.039-0.051-0.092-0.086-0.159-0.107-0.099-0.032-0.218-0.028-0.336 0.006z"></path>
<path fill="#444444" d="M102.767 60c-0.394 0-0.686-0.094-0.874-0.279-0.197-0.197-0.259-0.472-0.188-0.823 0.024-0.122 0.139-0.199 0.266-0.174 0.002 0 0.006 0.002 0.007 0.002 0.077-0.195 0.201-0.304 0.278-0.358 0.291-0.201 0.705-0.182 1.031 0.049 0.401 0.283 0.551 0.782 0.403 1.333-0.022 0.082-0.088 0.144-0.172 0.163-0.283 0.058-0.534 0.088-0.754 0.088zM102.411 59.507c0.203 0.056 0.506 0.054 0.874-0.008 0.066-0.429-0.152-0.639-0.257-0.712-0.171-0.12-0.384-0.139-0.516-0.047-0.152 0.105-0.189 0.351-0.107 0.673 0.009 0.032 0.011 0.064 0.006 0.094z"></path>
<path fill="#444444" d="M139.894 53.544c-0.373 0-0.669-0.124-0.883-0.371-0.081-0.094-0.071-0.236 0.022-0.319s0.236-0.071 0.319 0.023c0.054 0.062 0.129 0.129 0.249 0.172 0.15-0.178 0.338-0.277 0.529-0.277 0.002 0 0.004 0 0.006 0 0.21 0.002 0.398 0.122 0.529 0.337 0.037 0.060 0.043 0.135 0.017 0.201s-0.081 0.114-0.148 0.135c-0.232 0.068-0.446 0.099-0.639 0.099z"></path>
<path fill="#444444" d="M134.833 26.706c-0.412 0-0.825-0.023-1.239-0.071-1.464-0.167-2.955-0.371-4.395-0.566-1.138-0.156-2.276-0.311-3.414-0.45-1.521-0.187-5.559-0.686-5.694-3.315-0.126-2.411 3.178-2.863 5.006-3.099 0.037-0.032 0.086-0.051 0.141-0.051 1.577-0.015 3.156-0.006 4.733-0.013 0.724-0.004 1.397-0.208 2.046-0.405 0.476-0.144 0.969-0.296 1.476-0.362 1.23-0.163 2.332 0.3 3.397 0.75 0.193 0.081 0.384 0.163 0.578 0.238 0.405 0.163 0.853 0.302 1.326 0.452 0.816 0.255 1.659 0.521 2.441 0.943 0.66 0.214 1.084 0.703 1.159 1.361 0.113 0.984-0.581 2.231-1.582 2.837-1.853 1.155-3.896 1.751-5.974 1.751zM125.535 19.601c-0.002 0-0.004 0-0.004 0l-0.315 0.041c-1.671 0.216-4.779 0.615-4.674 2.636s3.075 2.618 5.299 2.891c1.14 0.141 2.28 0.296 3.42 0.452 1.438 0.197 2.925 0.397 4.384 0.566 2.394 0.272 4.792-0.285 6.924-1.616 0.849-0.516 1.463-1.592 1.369-2.4-0.056-0.488-0.354-0.825-0.889-1.001-0.78-0.418-1.603-0.675-2.398-0.926-0.482-0.152-0.936-0.294-1.358-0.463-0.195-0.077-0.39-0.159-0.583-0.242-1.009-0.426-2.053-0.864-3.163-0.718-0.469 0.062-0.923 0.201-1.403 0.347-0.681 0.208-1.384 0.422-2.175 0.426-1.477 0.007-2.959-0.002-4.436 0.009z"></path>
<path fill="#444444" d="M131.539 32.265c-0.508 0-1.009-0.017-1.496-0.058-1.466-0.124-3.199-0.375-5.295-0.767l-0.24-0.045c-1.431-0.266-3.054-0.564-4.103-1.438-0.021-0.017-0.039-0.039-0.053-0.064-0.349-0.626-0.403-1.489-0.45-2.252-0.026-0.429-0.051-0.834-0.126-1.127-0.182-0.716-0.030-1.772 0.116-2.794 0.090-0.622 0.174-1.211 0.172-1.663 0-0.126 0.101-0.225 0.225-0.225 0 0 0 0 0 0 0.124 0 0.225 0.101 0.225 0.225 0 0.486-0.086 1.089-0.176 1.727-0.141 0.979-0.285 1.989-0.126 2.617 0.084 0.334 0.111 0.759 0.139 1.211 0.043 0.698 0.092 1.487 0.373 2.023 0.96 0.778 2.501 1.063 3.862 1.314l0.24 0.045c2.081 0.39 3.799 0.637 5.25 0.761 1.847 0.156 3.917-0.041 5.741-0.214l0.292-0.028c0.709-0.068 1.461-0.306 2.19-0.536 0.891-0.283 1.809-0.574 2.709-0.581 0.039-0.523 0.191-1.462 0.364-2.526 0.315-1.937 0.744-4.59 0.549-5.289-0.034-0.12 0.037-0.244 0.156-0.277 0.126-0.032 0.244 0.037 0.278 0.156 0.221 0.795-0.182 3.285-0.538 5.482-0.199 1.224-0.369 2.284-0.368 2.681 0 0.062-0.024 0.12-0.069 0.163s-0.107 0.066-0.167 0.062c-0.887-0.047-1.851 0.264-2.779 0.557-0.75 0.238-1.528 0.486-2.284 0.555l-0.293 0.026c-1.365 0.131-2.869 0.274-4.324 0.274z"></path>
<path fill="#444444" d="M143.698 19.106c-1.236 0-2.19-0.049-2.49-0.090-1.725-0.231-3.096-0.611-4.438-1.228-1.457-0.669-3.261-0.66-5.006-0.654-1.104 0.004-2.244 0.009-3.278-0.159-0.011-0.002-0.021-0.004-0.030-0.008-0.069 0.021-0.146 0.008-0.204-0.039-0.724-0.576-1.013-1.095-0.885-1.584 0.277-1.065 2.567-1.436 3.934-1.659 0.21-0.034 0.392-0.064 0.533-0.090 2.149-0.412 4.172-0.448 6.311-0.486 0.437-0.007 0.877-0.015 1.324-0.026 2.306-0.058 4.464 0.534 6.999 1.442 0.638 0.227 1.553 0.459 2.439 0.684 2.025 0.512 3.278 0.851 3.523 1.331 0.049 0.096 0.062 0.197 0.037 0.294 0.002 0.311-0.137 0.594-0.409 0.844-1.284 1.176-5.548 1.427-8.361 1.427zM132.332 16.682c1.613 0 3.242 0.060 4.624 0.697 1.301 0.6 2.631 0.968 4.311 1.191 1.253 0.169 8.882 0.246 10.487-1.223 0.184-0.169 0.27-0.343 0.262-0.532-0.002-0.032 0.004-0.062 0.015-0.092-0.122-0.287-2.072-0.78-3.236-1.074-0.896-0.227-1.824-0.461-2.481-0.697-2.486-0.889-4.611-1.464-6.836-1.416-0.448 0.011-0.889 0.019-1.328 0.026-2.121 0.037-4.123 0.071-6.236 0.476-0.142 0.028-0.33 0.058-0.546 0.094-1.093 0.178-3.368 0.548-3.57 1.327-0.092 0.349 0.304 0.769 0.675 1.072 0.026-0.006 0.054-0.007 0.082-0.002 0.998 0.161 2.066 0.156 3.204 0.152 0.191-0.002 0.382-0.002 0.572-0.002z"></path>
<path fill="#444444" d="M141.911 26.445c-0.073 0-0.144-0.034-0.188-0.099-0.069-0.103-0.041-0.244 0.062-0.313 0.626-0.42 1.116-0.409 1.629-0.396 0.3 0.008 0.609 0.015 0.988-0.058 0.825-0.159 1.778-0.39 2.698-0.611 0.427-0.103 0.844-0.204 1.232-0.294l0.356-0.081c0.943-0.208 2.522-0.557 2.901-1.217 0.094-0.161 0.109-0.334 0.047-0.531-0.009-0.028-0.013-0.058-0.009-0.086 0.004-0.045 0.398-4.601 0.398-5.914 0-0.126 0.101-0.225 0.225-0.225v0c0.126 0 0.225 0.101 0.225 0.225 0.002 1.279-0.353 5.415-0.394 5.91 0.084 0.302 0.051 0.587-0.099 0.848-0.48 0.832-2.049 1.179-3.195 1.432l-0.352 0.079c-0.386 0.090-0.801 0.189-1.228 0.293-0.926 0.223-1.883 0.456-2.719 0.617-0.426 0.081-0.774 0.073-1.084 0.066-0.482-0.009-0.861-0.021-1.369 0.321-0.039 0.026-0.083 0.038-0.126 0.038z"></path>
<path fill="#444444" d="M126.536 19.387c0 0-0.002 0-0.004 0-0.124-0.002-0.223-0.103-0.223-0.227 0.008-0.542 0.171-1.001 0.362-1.532 0.212-0.587 0.452-1.254 0.523-2.205 0.009-0.124 0.124-0.216 0.242-0.208 0.124 0.009 0.218 0.118 0.208 0.242-0.077 1.013-0.328 1.708-0.547 2.323-0.176 0.493-0.33 0.919-0.336 1.384 0 0.126-0.101 0.223-0.225 0.223z"></path>
<path fill="#444444" d="M146.754 32.445c-0.092 0-0.174-0.006-0.248-0.019-0.081-0.015-0.146-0.069-0.174-0.144-0.178-0.491-0.077-1.076 0.259-1.491 0.079-0.098 0.221-0.111 0.317-0.034s0.113 0.219 0.034 0.317c-0.204 0.255-0.289 0.609-0.223 0.921 0.013 0 0.026 0 0.041 0 0.566 0 1.567-0.323 1.982-0.823 0.142-0.172 0.199-0.347 0.171-0.525-0.366-0.043-0.763-0.034-1.149-0.024-0.159 0.004-0.315 0.008-0.471 0.008v0c-0.124 0-0.225-0.101-0.225-0.225s0.101-0.227 0.225-0.227c0.152 0 0.306-0.004 0.459-0.008 0.457-0.011 0.928-0.023 1.373 0.049 0.081 0.013 0.146 0.068 0.174 0.144 0.141 0.377 0.067 0.756-0.21 1.095-0.523 0.63-1.648 0.984-2.336 0.984z"></path>
<path fill="#444444" d="M152.113 37.8c-0.244 0-0.542-0.041-0.896-0.126-0.073-0.017-0.133-0.069-0.159-0.141-0.137-0.36-0.141-0.69-0.021-0.938l-0.152-0.082c-0.081-0.045-0.127-0.133-0.116-0.223 0.047-0.403 0.287-0.523 0.426-0.557 0.504-0.135 1.206 0.428 1.519 0.877 0.248 0.352 0.298 0.675 0.141 0.906-0.129 0.189-0.373 0.285-0.739 0.285zM151.444 37.262c0.892 0.195 1.031 0.008 1.035 0 0.028-0.041 0.015-0.18-0.137-0.394-0.302-0.431-0.833-0.748-1.039-0.699-0.009 0.002-0.028 0.008-0.047 0.034l0.081 0.045c0.007 0.004 0.013 0.008 0.019 0.013 0.011-0.008 0.024-0.013 0.037-0.019 0.109-0.052 0.246-0.008 0.3 0.107 0.053 0.112 0.008 0.246-0.107 0.3-0.242 0.114-0.193 0.435-0.144 0.615z"></path>
<path fill="#444444" d="M143.64 41.167c-0.283 0-0.548-0.099-0.739-0.403-0.066-0.107-0.034-0.244 0.071-0.311s0.244-0.034 0.311 0.071c0.195 0.308 0.577 0.197 1.14-0.008 0.064-0.024 0.129-0.047 0.189-0.068-0.122-0.15-0.392-0.156-0.879-0.114l-0.098 0.009c-0.131 0.015-0.232-0.083-0.244-0.204s0.081-0.234 0.204-0.244l0.094-0.009c0.491-0.043 1.318-0.118 1.438 0.673 0.017 0.114-0.054 0.223-0.169 0.253-0.116 0.030-0.248 0.079-0.386 0.129-0.283 0.103-0.622 0.227-0.938 0.227z"></path>
<path fill="#444444" d="M149.891 44.231c-0.039 0-0.079-0.006-0.118-0.019-0.148-0.049-0.33-0.206-0.347-0.673-0.004-0.126 0.094-0.229 0.218-0.234 0.004 0 0.006 0 0.007 0 0.122 0 0.221 0.096 0.225 0.218 0.004 0.114 0.021 0.186 0.034 0.225 0.019-0.024 0.039-0.060 0.054-0.111 0.019-0.058 0.049-0.201-0.024-0.375l-0.315-0.034c-0.124-0.013-0.214-0.124-0.201-0.248s0.116-0.225 0.248-0.201l0.435 0.045c0.071 0.008 0.133 0.047 0.171 0.109 0.255 0.422 0.174 0.857-0.017 1.097-0.103 0.129-0.238 0.199-0.373 0.199z"></path>
<path fill="#444444" d="M145.751 47.177c-0.062 0-0.122-0.002-0.186-0.004l-0.116-0.004c-0.126-0.002-0.223-0.105-0.221-0.229s0.103-0.221 0.225-0.221c0.002 0 0.004 0 0.004 0h0.037c-0.019-0.111 0.047-0.221 0.157-0.255 0.219-0.068 0.403-0.060 0.549 0.019 0.084 0.047 0.201 0.142 0.257 0.337 0.034 0.118-0.034 0.244-0.15 0.279-0.204 0.064-0.382 0.077-0.557 0.077z"></path>
<path fill="#444444" d="M130.871 40.899c-0.324 0-0.654-0.066-0.842-0.409-0.060-0.111-0.021-0.246 0.088-0.306s0.248-0.019 0.306 0.088c0.103 0.184 0.3 0.191 0.731 0.161 0.129-0.008 0.259-0.023 0.388-0.015 0.124 0.002 0.223 0.105 0.221 0.231s-0.103 0.212-0.231 0.221c-0.118 0-0.232 0.008-0.349 0.015-0.101 0.008-0.208 0.015-0.315 0.015z"></path>
<path fill="#444444" d="M126.285 54.701c-0.154 0-0.306-0.043-0.439-0.129s-0.403-0.33-0.354-0.84c-0.086 0.002-0.172 0.004-0.257 0-0.126-0.002-0.225-0.103-0.223-0.227s0.103-0.223 0.225-0.223c0.034 0 0.056 0 0.082 0 0.124 0 0.249-0.004 0.373-0.006 0.369-0.008 0.75-0.019 1.131 0.047 0.079 0.015 0.142 0.068 0.172 0.141 0.167 0.426 0.094 0.821-0.195 1.056-0.148 0.12-0.332 0.182-0.516 0.182zM125.949 53.723c-0.032 0.221 0.019 0.39 0.144 0.472 0.126 0.081 0.306 0.069 0.422-0.024 0.111-0.090 0.144-0.236 0.099-0.42-0.216-0.026-0.435-0.030-0.666-0.026z"></path>
<path fill="#444444" d="M141.748 58.228c-0.171 0-0.336-0.015-0.469-0.030-0.124-0.011-0.238-0.126-0.227-0.249s0.092-0.218 0.223-0.204c0.502 0.049 0.802 0.049 0.947-0.073-0.225-0.021-0.457-0.023-0.684-0.002-0.139 0.011-0.234-0.081-0.246-0.204s0.079-0.234 0.204-0.246c0.364-0.036 0.742-0.017 1.093 0.047 0.116 0.023 0.195 0.129 0.182 0.246-0.067 0.598-0.564 0.712-1.020 0.712z"></path>
<path fill="#444444" d="M141.638 45.861c-0.216 0-0.427-0.015-0.638-0.047-0.075-0.011-0.141-0.060-0.172-0.129-0.092-0.204-0.111-0.418-0.053-0.637 0.032-0.12 0.159-0.191 0.276-0.159 0.12 0.032 0.193 0.156 0.159 0.276-0.021 0.077-0.023 0.15-0.009 0.221 0.030 0.004 0.060 0.008 0.090 0.009-0.047-0.206-0.028-0.409 0.058-0.604 0.024-0.053 0.067-0.096 0.122-0.116 0.278-0.114 0.57-0.114 0.872-0.004 0.062 0.023 0.111 0.073 0.133 0.135 0.111 0.304 0.109 0.598-0.006 0.872-0.030 0.075-0.099 0.128-0.178 0.139-0.225 0.030-0.442 0.045-0.654 0.045zM141.731 45.064c-0.019 0.081-0.019 0.163 0.004 0.249 0.009 0.034 0.009 0.066 0.004 0.097 0.114-0.004 0.232-0.011 0.353-0.023 0.021-0.103 0.019-0.21-0.009-0.322-0.122-0.030-0.238-0.030-0.351 0z"></path>
<path fill="#444444" d="M147.007 28.804c-0.548 0-1.119-0.21-1.271-0.6-0.058-0.148-0.067-0.337 0.069-0.542-0.077-0.092-0.068-0.227 0.019-0.309 0.409-0.381 1.144-0.473 2.254-0.279 0.082 0.015 0.152 0.075 0.176 0.156 0.216 0.711-0.030 1.266-0.66 1.485-0.176 0.060-0.379 0.090-0.585 0.090zM146.906 27.431c-0.015 0.011-0.032 0.023-0.049 0.030-0.544 0.236-0.744 0.467-0.701 0.578 0.084 0.219 0.767 0.429 1.29 0.247 0.358-0.124 0.495-0.39 0.411-0.793-0.394-0.060-0.703-0.075-0.951-0.062z"></path>
<path fill="#444444" d="M120.808 33.829c-0.178 0-0.347-0.036-0.497-0.107-0.255-0.12-0.441-0.336-0.534-0.621-0.039-0.118 0.024-0.246 0.142-0.285 0.118-0.041 0.246 0.024 0.285 0.143 0.056 0.169 0.158 0.289 0.3 0.356 0.159 0.075 0.366 0.083 0.579 0.023 0.041-0.152 0.032-0.294-0.028-0.422-0.094-0.201-0.317-0.367-0.608-0.457-0.118-0.038-0.186-0.163-0.148-0.281s0.163-0.189 0.281-0.148c0.418 0.129 0.731 0.377 0.881 0.696 0.127 0.27 0.129 0.572 0.008 0.877-0.023 0.058-0.071 0.103-0.129 0.126-0.176 0.068-0.36 0.103-0.533 0.103z"></path>
<path fill="#444444" d="M126.979 17.49c-0.086 0-0.171-0.051-0.206-0.135-1.498-3.418-1.14-5.473-0.724-7.854l0.058-0.341c0.034-0.191 0.064-0.388 0.096-0.583 0.291-1.813 0.619-3.866 2.719-4.556 1.768-0.579 3.686-0.158 5.543 0.251 0.572 0.126 1.112 0.244 1.639 0.332 2.346 0.386 4.372 0.72 6.144 2.749 0.458 0.315 1.989 1.901 2.136 3.092 0.067 0.546-0.15 0.973-0.63 1.236-1.273 0.699-2.859-0.032-4.256-0.679-0.512-0.236-0.994-0.459-1.408-0.583-0.962-0.289-2.098-0.439-3.3-0.598-2.873-0.379-6.111-0.806-7.642-3.399-0.253 0.684-0.377 1.463-0.499 2.229-0.032 0.199-0.064 0.396-0.098 0.589l-0.060 0.341c-0.42 2.404-0.752 4.301 0.692 7.596 0.049 0.114-0.002 0.247-0.116 0.298-0.030 0.013-0.060 0.019-0.092 0.019zM127.376 5.895c1.339 2.666 4.457 3.077 7.472 3.474 1.221 0.161 2.372 0.313 3.369 0.613 0.442 0.133 0.939 0.364 1.466 0.607 1.301 0.6 2.777 1.284 3.849 0.692 0.268-0.146 0.398-0.343 0.407-0.619 0.037-1.080-1.74-2.811-1.956-2.949-0.043-0.011-0.036-0.017-0.066-0.051-1.669-1.92-3.626-2.242-5.891-2.616-0.538-0.088-1.084-0.208-1.661-0.336-1.798-0.394-3.658-0.803-5.306-0.263-0.827 0.272-1.343 0.793-1.684 1.446z"></path>
<path fill="#444444" d="M142.813 13.697c-0.077 0-0.152-0.039-0.195-0.111-0.064-0.107-0.026-0.246 0.081-0.309 0.606-0.354 0.757-1.012 0.891-1.594 0.062-0.266 0.114-0.497 0.208-0.679 0.058-0.111 0.195-0.154 0.304-0.098s0.154 0.193 0.098 0.304c-0.068 0.131-0.118 0.345-0.171 0.574-0.141 0.602-0.33 1.427-1.104 1.881-0.034 0.022-0.073 0.032-0.112 0.032z"></path>
<path fill="#444444" d="M74.764 19.988c-0.126 0-0.247-0.028-0.345-0.111-0.238-0.201-0.193-0.551-0.135-0.996 0.039-0.3 0.084-0.639 0.049-0.975-0.060-0.576 0.294-1.579 0.671-2.64 0.352-0.999 0.756-2.132 0.647-2.582-0.261-1.093-1.138-2.334-1.986-3.534-0.797-1.129-1.622-2.295-1.957-3.373-0.163-0.022-0.337-0.019-0.519-0.013-0.103 0.004-0.206 0.007-0.311 0.006-0.126-0.002-0.223-0.105-0.221-0.229s0.082-0.219 0.229-0.221c0.098 0 0.193-0.002 0.289-0.006 0.249-0.007 0.504-0.017 0.769 0.051 0.079 0.021 0.139 0.081 0.159 0.159 0.285 1.039 1.121 2.222 1.929 3.367 0.872 1.236 1.776 2.512 2.055 3.69 0.139 0.578-0.249 1.676-0.662 2.837-0.343 0.967-0.698 1.969-0.647 2.443 0.041 0.388-0.009 0.773-0.049 1.080-0.028 0.212-0.069 0.531-0.021 0.593v0c0.002 0 0.071 0.030 0.328-0.051 1.433-0.45 2.37-2.147 2.769-3.587 0.446-1.605 0.353-3.379-0.278-5.272-0.129-0.39-0.294-0.772-0.467-1.179-0.345-0.812-0.703-1.65-0.773-2.535-0.071-0.9 0.163-1.648 0.698-2.224 1.204-1.296 3.664-1.434 5.402-1.421 0.109 0 0.201 0.079 0.219 0.186 0.017 0.094 0.038 0.189 0.060 0.285 0.092 0.022 0.186 0.041 0.281 0.058 0.114 0.021 0.193 0.126 0.184 0.24-0.019 0.247 0.296 0.673 0.549 1.014 0.188 0.251 0.364 0.488 0.456 0.701 0.101 0.232 0.189 0.478 0.278 0.72 0.101 0.277 0.195 0.542 0.308 0.78 0.549 1.172 0.889 2.464 1.093 4.191 0.172 1.449 0.249 2.627 0.253 3.817 0.002 0.469 0.071 0.812 0.152 1.209 0.038 0.188 0.077 0.381 0.111 0.596 0.004 0.023 0.006 0.045 0.007 0.067 0.090-0.604 0.197-1.202 0.304-1.791 0.263-1.472 0.534-2.994 0.531-4.494-0.006-1.626-0.452-3.131-0.842-4.262-0.043-0.122-0.090-0.249-0.137-0.379-0.319-0.861-0.714-1.929-0.111-2.813 0.741-1.086 2.509-1.408 3.799-1.644 0.171-0.032 0.332-0.060 0.48-0.090 2.252-0.446 4.419-0.728 6.441-0.84l0.105-0.006c1.266-0.069 2.841-0.159 3.981 0.632 0.919 0.638 1.384 1.74 1.794 2.711l0.075 0.174c1.343 3.163 1.976 5.88 2.014 8.691 0.233-0.604 0.356-1.374 0.454-1.989 0.030-0.186 0.056-0.356 0.084-0.508 0.126-0.682 0.079-1.483 0.034-2.256-0.022-0.386-0.043-0.767-0.045-1.127 0-0.371 0.017-0.757 0.036-1.147 0.036-0.748 0.071-1.522-0.034-2.218-0.107-0.705-0.559-1.361-0.998-1.991-0.186-0.266-0.366-0.527-0.518-0.786-0.038-0.064-0.041-0.141-0.011-0.206s0.090-0.114 0.163-0.129c2.091-0.407 4.192-0.621 6.424-0.654 0.002 0 0.004 0 0.004 0 0.124 0 0.223 0.099 0.225 0.221s-0.097 0.227-0.221 0.229c-2.091 0.032-4.063 0.223-6.023 0.585 0.105 0.159 0.216 0.321 0.33 0.484 0.467 0.675 0.951 1.373 1.073 2.182 0.111 0.741 0.073 1.538 0.038 2.308-0.017 0.383-0.036 0.759-0.036 1.125 0 0.351 0.022 0.724 0.045 1.102 0.045 0.801 0.094 1.628-0.041 2.362-0.026 0.148-0.054 0.317-0.082 0.497-0.152 0.956-0.362 2.263-0.966 2.921-0.064 0.069-0.163 0.092-0.251 0.056s-0.143-0.122-0.141-0.216c0.088-3.052-0.517-5.938-1.971-9.356l-0.075-0.174c-0.386-0.917-0.825-1.956-1.635-2.518-1.013-0.701-2.501-0.619-3.698-0.551l-0.105 0.006c-2.002 0.111-4.149 0.39-6.379 0.833-0.15 0.030-0.313 0.060-0.486 0.090-1.213 0.221-2.873 0.525-3.508 1.455-0.472 0.69-0.137 1.599 0.161 2.4 0.049 0.133 0.097 0.263 0.141 0.388 0.401 1.162 0.861 2.715 0.866 4.408 0.004 1.541-0.272 3.084-0.538 4.577-0.201 1.123-0.407 2.286-0.491 3.429-0.006 0.082-0.056 0.156-0.133 0.189s-0.165 0.023-0.231-0.028c-0.442-0.343-0.394-0.892-0.356-1.331 0.017-0.201 0.034-0.392 0.009-0.546-0.032-0.208-0.069-0.394-0.107-0.576-0.082-0.403-0.159-0.784-0.161-1.298-0.002-1.174-0.079-2.334-0.249-3.765-0.199-1.676-0.523-2.925-1.054-4.052-0.122-0.259-0.223-0.542-0.323-0.819-0.084-0.234-0.169-0.469-0.266-0.694-0.071-0.165-0.234-0.383-0.405-0.611-0.278-0.371-0.561-0.754-0.626-1.114-0.090-0.019-0.178-0.041-0.268-0.064-0.079-0.021-0.141-0.083-0.163-0.161-0.022-0.086-0.043-0.174-0.062-0.263-1.642 0-3.842 0.156-4.884 1.279-0.452 0.486-0.641 1.101-0.578 1.881 0.066 0.812 0.407 1.616 0.739 2.394 0.171 0.397 0.345 0.808 0.48 1.213 0.66 1.98 0.756 3.844 0.285 5.537-0.431 1.552-1.464 3.392-3.069 3.896-0.12 0.037-0.266 0.077-0.411 0.077z"></path>
<path fill="#444444" d="M33.030 26.608c-0.060 0-0.118-0.011-0.176-0.032-0.549-0.208-0.564-1.267-0.527-2.989 0.041-1.849-0.396-5.629-2.344-6.697-1.466-0.806-2.874 0.054-4.236 0.885-0.172 0.105-0.341 0.208-0.508 0.306-1.029 0.606-2.143 1.059-3.223 1.5-0.486 0.197-0.971 0.396-1.449 0.608-0.113 0.051-0.247 0-0.298-0.114s0-0.247 0.114-0.298c0.482-0.214 0.971-0.413 1.461-0.611 1.063-0.433 2.164-0.881 3.163-1.472 0.165-0.096 0.332-0.199 0.501-0.302 1.402-0.857 2.992-1.826 4.688-0.896 2.136 1.172 2.625 5.017 2.578 7.104-0.019 0.855-0.054 2.445 0.236 2.556 0 0.002 0.174 0.058 0.679-0.538 1.2-1.418 1.689-5.979 1.091-7.772-0.094-0.281-0.255-0.608-0.426-0.953-0.557-1.123-1.249-2.522-0.094-3.452 1.273-1.024 4.063-1.487 5.524-1.539 0.917-0.026 1.778 0.619 2.347 1.172 1.26 1.224 2.203 3.067 2.194 4.286-0.015 1.832-0.413 3.795-0.429 3.878-0.208 0.497-0.232 0.817-0.081 0.9 0.409 0.225 1.837-0.456 2.578-1.545 0.712-1.050 0.414-2.499 0.124-3.902-0.092-0.442-0.186-0.9-0.246-1.333-0.178-1.311 0.182-4.209 1.851-5.301 0.534-0.351 1.249-0.431 1.879-0.502 0.248-0.028 0.487-0.054 0.707-0.096 1.020-0.197 1.965-0.589 2.799-0.936 0.973-0.403 2.392-0.887 3.504-0.412 0.568 0.244 0.99 0.711 1.254 1.389 0.212 0.542 0.429 1.016 0.66 1.519 0.109 0.236 0.219 0.478 0.334 0.735 0.493 1.108 0.975 1.905 1.558 2.586 1.206 1.401 0.887 3.011 0.577 4.571-0.148 0.741-0.3 1.506-0.276 2.228 0.407-0.113 1.766-1.376 2.141-2.732 0.542-1.95 0.279-4.234-0.825-7.189-0.069-0.188-0.167-0.401-0.268-0.63-0.379-0.846-0.851-1.896-0.538-2.721 0.375-0.986 1.588-1.161 2.473-1.286l0.231-0.034c1.986-0.304 4.048-0.692 6.491-1.221 0.122-0.024 0.242 0.051 0.268 0.173s-0.051 0.242-0.172 0.268c-2.452 0.531-4.524 0.919-6.519 1.224l-0.234 0.034c-0.818 0.116-1.834 0.263-2.115 0.999-0.247 0.651 0.182 1.607 0.529 2.376 0.107 0.238 0.206 0.461 0.281 0.658 1.138 3.049 1.404 5.422 0.838 7.468-0.399 1.444-2.027 3.144-2.687 3.067-0.156-0.019-0.328-0.131-0.337-0.394-0.034-0.787 0.127-1.596 0.283-2.378 0.302-1.519 0.587-2.953-0.478-4.189-0.615-0.714-1.116-1.547-1.629-2.696-0.112-0.255-0.223-0.493-0.332-0.727-0.234-0.508-0.456-0.988-0.671-1.543-0.221-0.57-0.553-0.943-1.012-1.138-0.714-0.304-1.746-0.171-3.154 0.414-0.853 0.354-1.823 0.758-2.888 0.962-0.231 0.045-0.482 0.073-0.741 0.103-0.608 0.069-1.238 0.141-1.682 0.431-1.367 0.894-1.843 3.443-1.65 4.862 0.056 0.418 0.144 0.848 0.24 1.303 0.308 1.494 0.626 3.038-0.193 4.247-0.741 1.089-2.407 2.104-3.167 1.688-0.276-0.152-0.523-0.521-0.133-1.431v0c-0.004 0 0.392-1.973 0.407-3.748 0.008-1.089-0.894-2.827-2.059-3.958-0.714-0.694-1.414-1.061-2.016-1.044-1.506 0.053-4.134 0.536-5.257 1.44-0.81 0.651-0.422 1.613 0.216 2.899 0.178 0.36 0.347 0.699 0.45 1.009 0.66 1.976 0.156 6.637-1.174 8.207-0.264 0.313-0.641 0.699-1.007 0.699z"></path>
<path fill="#444444" d="M8.064 39.615c-3.943 0-7.624-0.853-8.047-4.378-0.135-1.121 0.519-3.049 4.397-5.865 0.107-0.079 0.227-0.169 0.39-0.293 4.937-3.75 8.047-5.454 9.495-5.222 2.181 0.352 3.848 3.399 4.335 5.451 0.023 0.099 0.058 0.287 0.103 0.533 0.546 3.019 0.953 3.688 1.2 3.718 0.067 0.011 0.259-0.118 0.501-0.66 0.947-2.106 0.744-5.73-0.037-7.798-0.184-0.486-0.553-0.928-0.911-1.358-0.401-0.482-0.817-0.979-0.994-1.558-0.364-1.194 0.939-1.821 1.802-2.237 0.122-0.058 0.236-0.114 0.341-0.167 0.109-0.058 0.246-0.015 0.304 0.098s0.013 0.247-0.097 0.304c-0.107 0.056-0.227 0.113-0.351 0.173-0.994 0.478-1.798 0.938-1.566 1.699 0.15 0.491 0.517 0.934 0.907 1.399 0.383 0.457 0.776 0.93 0.986 1.487 0.816 2.151 1.020 5.936 0.028 8.143-0.189 0.424-0.501 0.983-0.968 0.922-0.724-0.088-1.146-1.629-1.59-4.087-0.041-0.234-0.075-0.414-0.098-0.508-0.459-1.929-1.991-4.791-3.967-5.109-0.9-0.154-3.216 0.628-9.15 5.136-0.167 0.126-0.289 0.219-0.356 0.268-3.741 2.719-4.374 4.476-4.254 5.477 0.606 5.055 8.923 4.082 13.89 3.501 0.981-0.114 1.826-0.214 2.505-0.259 5.059-0.328 10.043-0.486 15.684-0.493 4.727-0.008 9.506-0.647 14.126-1.264 0.934-0.126 1.864-0.249 2.796-0.369 4.776-0.613 9.437-1.434 14.25-2.511 2.925-0.652 5.914-1.196 8.805-1.723 2.032-0.369 4.132-0.752 6.193-1.168 2.737-0.553 5.451-1.376 8.076-2.175 1.931-0.585 3.926-1.191 5.921-1.688 2.835-0.705 5.758-1.134 8.586-1.551 2.194-0.323 4.464-0.656 6.671-1.116 0.124-0.026 0.242 0.053 0.266 0.174s-0.052 0.242-0.174 0.266c-2.22 0.463-4.496 0.797-6.698 1.121-2.816 0.414-5.73 0.844-8.542 1.543-1.984 0.493-3.973 1.097-5.899 1.682-2.636 0.801-5.361 1.628-8.119 2.184-2.064 0.418-4.168 0.801-6.201 1.17-2.886 0.525-5.873 1.067-8.788 1.719-4.826 1.078-9.501 1.901-14.289 2.518-0.93 0.118-1.862 0.244-2.792 0.367-4.637 0.621-9.431 1.262-14.188 1.269-5.633 0.008-10.607 0.165-15.654 0.493-0.667 0.043-1.509 0.141-2.482 0.255-1.843 0.216-4.134 0.484-6.343 0.484z"></path>
<path fill="#444444" d="M104.629 14.139c-0.028 0-0.056-0.006-0.084-0.017-0.086-0.036-0.143-0.122-0.141-0.216 0.088-3.053-0.519-5.938-1.971-9.356-0.049-0.114 0.006-0.248 0.12-0.296s0.247 0.004 0.296 0.12c1.343 3.161 1.976 5.88 2.014 8.689 0.233-0.604 0.354-1.373 0.454-1.986 0.030-0.186 0.056-0.358 0.084-0.51 0.126-0.683 0.079-1.483 0.036-2.256-0.023-0.386-0.045-0.767-0.045-1.127 0-0.371 0.017-0.757 0.036-1.147 0.036-0.748 0.071-1.523-0.034-2.218-0.107-0.709-0.561-1.363-0.999-1.997-0.184-0.266-0.364-0.525-0.516-0.782-0.037-0.064-0.041-0.141-0.011-0.206s0.090-0.114 0.163-0.129c2.091-0.407 4.192-0.622 6.424-0.654 0.171-0.002 0.351-0.009 0.538-0.015 1.491-0.051 3.519-0.12 4.202 1.526 0.379 0.913 0.523 1.939 0.664 2.929 0.122 0.866 0.247 1.761 0.531 2.569 0.193 0.553 0.42 1.103 0.638 1.633 0.532 1.297 1.084 2.638 1.193 4.11 0.009 0.126-0.082 0.232-0.208 0.242-0.12 0.011-0.233-0.084-0.24-0.208-0.103-1.399-0.617-2.647-1.161-3.971-0.221-0.536-0.45-1.091-0.647-1.656-0.296-0.849-0.426-1.766-0.551-2.655-0.141-1.007-0.276-1.959-0.634-2.818-0.562-1.357-2.34-1.297-3.771-1.249-0.189 0.008-0.373 0.013-0.546 0.015-2.091 0.032-4.063 0.223-6.023 0.585 0.103 0.157 0.214 0.317 0.326 0.478 0.469 0.675 0.954 1.374 1.076 2.186 0.111 0.739 0.073 1.536 0.037 2.306-0.019 0.383-0.037 0.759-0.036 1.125 0 0.353 0.023 0.724 0.045 1.103 0.047 0.801 0.094 1.627-0.041 2.364-0.026 0.148-0.054 0.319-0.082 0.501-0.152 0.954-0.36 2.261-0.964 2.918-0.045 0.047-0.107 0.073-0.167 0.073z"></path>
<path fill="#444444" d="M92.856 27.529c-0.101 0-0.193-0.068-0.219-0.171-0.030-0.122 0.043-0.244 0.165-0.274 2.835-0.705 5.758-1.134 8.584-1.551 2.194-0.323 4.464-0.656 6.671-1.116l7.121-1.738c0.345-0.778 2.586-5.977 2.586-9.782 0-0.126 0.101-0.225 0.225-0.225s0.225 0.101 0.225 0.225c0 4.202-2.561 9.833-2.672 10.071-0.028 0.062-0.084 0.109-0.152 0.126l-7.236 1.766c-2.229 0.465-4.504 0.799-6.707 1.123-2.816 0.414-5.728 0.844-8.541 1.543-0.019 0.004-0.038 0.006-0.054 0.006z"></path>
</svg>
