<?xml version="1.0" encoding="utf-8"?>
<!-- Generated by IcoMoon.io -->
<!DOCTYPE svg PUBLIC "-//W3C//DTD SVG 1.1//EN" "http://www.w3.org/Graphics/SVG/1.1/DTD/svg11.dtd">
<svg version="1.1" xmlns="http://www.w3.org/2000/svg" xmlns:xlink="http://www.w3.org/1999/xlink" width="85" height="60" viewBox="0 0 85 60">
<path fill="#444444" d="M50.87 52.208c-0.168-0.061-0.302-0.164-0.443-0.274-0.176-0.136-0.357-0.277-0.615-0.35-0.377-0.109-0.865-0.178-1.493-0.212-0.2-0.010-0.396-0.009-0.593-0.009-0.34 0.002-0.658 0.005-0.985-0.055-0.272-0.048-1.143-0.050-1.431-0.043-0.007-0.001-0.015-0.003-0.022-0.001-1.622 0.022-3.294 0.143-4.355 1.339-0.231 0.26-0.38 0.551-0.461 0.853-0.071 0.014-0.124 0.076-0.133 0.152-0.020 0.184-0.044 0.329-0.068 0.469-0.051 0.307-0.098 0.598-0.098 1.206 0 1.049 0.054 1.694 0.173 2.091 0.097 0.32 0.406 0.538 0.706 0.748 0.178 0.125 0.346 0.242 0.454 0.369l0.033 0.039c0.318 0.376 1.239 1.469 3.21 1.469 0.148 0 0.302-0.006 0.461-0.019 2.264-0.185 4.942-1.080 5.247-1.423l0.064-0.070c0.278-0.305 0.795-0.872 0.795-1.761 0-0.179 0.012-0.443 0.027-0.755 0.078-1.66 0.102-3.173-0.36-3.626-0.010-0.064-0.051-0.116-0.111-0.138zM41.193 52.837c0.96-1.083 2.536-1.2 4.071-1.221 0.009 0.001 0.017 0.001 0.027 0.001 0.304-0.008 1.164-0.002 1.387 0.037 0.359 0.064 0.71 0.061 1.049 0.061 0.188-0.001 0.378-0.003 0.572 0.008 0.601 0.033 1.065 0.097 1.416 0.198 0.193 0.056 0.341 0.17 0.498 0.291 0.132 0.101 0.267 0.206 0.436 0.284 0.14 1.145 0.261 2.222-0.818 2.778-1.154 0.593-2.65 0.643-3.97 0.689l-0.252 0.009c-1.411 0.051-2.878 0.041-3.987-0.645-0.482-0.299-0.787-0.727-0.858-1.204-0.065-0.451 0.082-0.894 0.428-1.284zM50.993 55.955c-0.015 0.318-0.027 0.588-0.027 0.771 0 0.753-0.441 1.237-0.704 1.525l-0.066 0.073c-0.223 0.238-2.756 1.122-5.015 1.307-2.113 0.174-3.029-0.917-3.375-1.326l-0.034-0.041c-0.138-0.16-0.332-0.297-0.519-0.428-0.252-0.176-0.511-0.358-0.572-0.563-0.14-0.464-0.158-1.307-0.158-1.99 0-0.284 0.011-0.492 0.027-0.667 0.167 0.396 0.471 0.743 0.891 1.003 0.953 0.591 2.121 0.716 3.299 0.716 0.295 0 0.591-0.008 0.884-0.018l0.251-0.009c1.356-0.046 2.894-0.098 4.118-0.727 0.652-0.336 0.938-0.834 1.044-1.394 0.009 0.633-0.022 1.311-0.043 1.767z"></path>
<path fill="#444444" d="M39.53 15.887c-0.089-0.036-0.191 0.008-0.228 0.097-0.048 0.12-0.146 0.228-0.25 0.341-0.116 0.128-0.236 0.259-0.307 0.429-0.114 0.272-0.287 0.684-0.324 1.013-0.011 0.096 0.058 0.182 0.154 0.193 0.006 0.001 0.013 0.001 0.019 0.001 0.087 0 0.164-0.066 0.174-0.156 0.032-0.279 0.193-0.664 0.299-0.918 0.048-0.114 0.142-0.218 0.243-0.328 0.12-0.132 0.244-0.267 0.316-0.446 0.036-0.090-0.008-0.192-0.097-0.227z"></path>
<path fill="#444444" d="M38.882 14.576c0.036-0.026 0.088-0.046 0.143-0.066 0.079-0.029 0.168-0.062 0.244-0.128 0.073-0.063 0.080-0.174 0.017-0.246s-0.174-0.081-0.247-0.017c-0.027 0.024-0.080 0.044-0.135 0.064-0.072 0.027-0.153 0.057-0.228 0.112-0.146 0.107-0.208 0.185-0.291 0.322-0.097 0.157-0.209 0.295-0.329 0.441-0.049 0.059-0.097 0.119-0.146 0.181-0.378 0.484-0.647 1.181-0.668 1.736-0.004 0.097 0.071 0.178 0.168 0.182 0.002 0 0.005 0 0.007 0 0.093 0 0.171-0.073 0.175-0.168 0.019-0.487 0.258-1.104 0.595-1.534 0.047-0.059 0.093-0.117 0.14-0.174 0.122-0.149 0.248-0.302 0.357-0.481 0.070-0.116 0.103-0.153 0.199-0.223z"></path>
<path fill="#444444" d="M41.805 15.161l-0.169-0.043-0.029 0.002-0.040-0.117c-0.15 0.052-0.245 0.152-0.327 0.239-0.030 0.031-0.061 0.064-0.093 0.093-0.14 0.12-0.274 0.251-0.412 0.4-0.186 0.202-0.291 0.436-0.392 0.662-0.060 0.136-0.117 0.264-0.19 0.383-0.168 0.277-0.278 0.578-0.382 0.869-0.037 0.103-0.075 0.206-0.114 0.307-0.031 0.079-0.063 0.152-0.094 0.223-0.143 0.328-0.278 0.638-0.14 1.085 0.023 0.075 0.092 0.123 0.167 0.123 0.017 0 0.035-0.002 0.052-0.008 0.092-0.029 0.143-0.126 0.115-0.218-0.1-0.322-0.005-0.541 0.128-0.841 0.033-0.075 0.066-0.152 0.099-0.235 0.041-0.105 0.079-0.21 0.117-0.316 0.104-0.287 0.202-0.559 0.352-0.805 0.085-0.139 0.15-0.284 0.212-0.424 0.093-0.209 0.181-0.407 0.328-0.566 0.129-0.14 0.255-0.262 0.384-0.373 0.042-0.037 0.080-0.076 0.118-0.117 0.066-0.070 0.119-0.126 0.189-0.15 0.055-0.019 0.109-0.115 0.123-0.172z"></path>
<path fill="#444444" d="M43.032 18.142c-0.043-0.086-0.15-0.119-0.234-0.078-0.312 0.158-0.625 0.553-0.759 0.781-0.095 0.163-0.16 0.34-0.212 0.492-0.013 0.040-0.038 0.080-0.062 0.122-0.052 0.088-0.11 0.189-0.117 0.303-0.006 0.097 0.068 0.179 0.164 0.185 0.004 0.001 0.008 0.001 0.012 0.001 0.091 0 0.168-0.072 0.174-0.164 0.002-0.031 0.041-0.099 0.070-0.149 0.036-0.062 0.070-0.125 0.091-0.184 0.046-0.135 0.104-0.293 0.182-0.427 0.138-0.234 0.406-0.541 0.615-0.646 0.086-0.045 0.121-0.15 0.077-0.236z"></path>
<path fill="#444444" d="M44.708 19.065c-0.096 0.059-0.194 0.104-0.291 0.149-0.158 0.072-0.323 0.147-0.477 0.277-0.256 0.214-0.423 0.418-0.593 0.728-0.082 0.148-0.153 0.302-0.223 0.454s-0.141 0.306-0.223 0.452c-0.023 0.041-0.048 0.081-0.072 0.119-0.1 0.159-0.212 0.339-0.187 0.592 0.009 0.090 0.085 0.157 0.174 0.157 0.006 0 0.012 0 0.017-0.001 0.096-0.010 0.166-0.095 0.157-0.191-0.012-0.127 0.043-0.224 0.135-0.372 0.027-0.044 0.055-0.088 0.081-0.134 0.086-0.154 0.161-0.315 0.235-0.476 0.068-0.146 0.135-0.292 0.212-0.433 0.149-0.272 0.288-0.443 0.511-0.628 0.119-0.1 0.255-0.161 0.399-0.228 0.11-0.051 0.222-0.103 0.33-0.17 0.082-0.051 0.107-0.158 0.057-0.241-0.051-0.083-0.161-0.108-0.241-0.057z"></path>
<path fill="#444444" d="M48.85 21.729c0.086-0.043 0.122-0.147 0.080-0.234s-0.147-0.122-0.234-0.080c-0.139 0.068-0.284 0.135-0.43 0.204-0.647 0.302-1.317 0.614-1.803 1.13-0.351 0.373-0.922 1.258-0.576 1.941 0.031 0.061 0.092 0.096 0.156 0.096 0.027 0 0.054-0.006 0.079-0.019 0.086-0.043 0.121-0.148 0.077-0.234-0.237-0.47 0.192-1.197 0.52-1.544 0.439-0.469 1.078-0.766 1.695-1.053 0.148-0.070 0.295-0.138 0.436-0.208z"></path>
<path fill="#444444" d="M51.229 23.26c-0.145 0.022-0.272 0.113-0.383 0.194-0.064 0.046-0.124 0.089-0.174 0.111l-0.186 0.080c-0.39 0.164-0.792 0.334-1.137 0.573-0.354 0.247-0.558 0.562-0.773 0.894l-0.052 0.081c-0.084 0.128-0.178 0.243-0.272 0.358-0.131 0.161-0.267 0.327-0.376 0.528-0.047 0.084-0.015 0.191 0.069 0.237 0.027 0.015 0.056 0.022 0.084 0.022 0.061 0 0.121-0.033 0.153-0.091 0.094-0.172 0.214-0.319 0.341-0.475 0.101-0.125 0.203-0.25 0.293-0.387l0.053-0.082c0.205-0.316 0.382-0.59 0.68-0.797 0.314-0.218 0.7-0.381 1.073-0.539l0.189-0.081c0.086-0.037 0.164-0.093 0.24-0.149 0.080-0.058 0.17-0.122 0.231-0.132 0.095-0.013 0.161-0.103 0.147-0.198-0.015-0.094-0.093-0.161-0.199-0.147z"></path>
<path fill="#444444" d="M65.728 37.799c0.086-0.043 0.122-0.148 0.079-0.234s-0.147-0.122-0.234-0.079c-0.078 0.038-0.153 0.074-0.228 0.11-0.298 0.139-0.578 0.272-0.838 0.525-0.052 0.052-0.112 0.103-0.172 0.154-0.135 0.116-0.275 0.237-0.376 0.383-0.151 0.219-0.322 0.527-0.279 0.755 0.016 0.084 0.089 0.142 0.172 0.142 0.010 0 0.022-0.001 0.033-0.003 0.094-0.017 0.157-0.11 0.139-0.204-0.010-0.053 0.041-0.228 0.223-0.492 0.075-0.11 0.198-0.214 0.316-0.316 0.066-0.057 0.131-0.112 0.189-0.169 0.218-0.213 0.461-0.327 0.742-0.459 0.077-0.036 0.156-0.073 0.235-0.112z"></path>
<path fill="#444444" d="M68.267 38.647c-0.406-0.022-0.988 0.079-1.351 0.241-0.158 0.070-0.289 0.18-0.417 0.286-0.062 0.053-0.125 0.105-0.188 0.15-0.058 0.040-0.122 0.080-0.187 0.122-0.347 0.22-0.823 0.521-0.772 1.067 0.009 0.091 0.085 0.158 0.174 0.158 0.005 0 0.011 0 0.016-0.001 0.096-0.009 0.167-0.094 0.158-0.19-0.029-0.31 0.235-0.502 0.611-0.741 0.070-0.044 0.138-0.087 0.2-0.13 0.072-0.050 0.142-0.109 0.213-0.168 0.114-0.096 0.221-0.185 0.334-0.235 0.315-0.14 0.836-0.234 1.188-0.211 0.089-0.002 0.179-0.068 0.185-0.164s-0.068-0.179-0.164-0.185z"></path>
<path fill="#444444" d="M25.315 27.92c0.001 0 0.001 0 0.002 0 0.096 0 0.174-0.078 0.175-0.173 0.006-0.608 0.019-1.155 0.12-1.691 0.064-0.336 0.139-0.694 0.293-1.056 0.021-0.050 0.041-0.1 0.061-0.15 0.038-0.098 0.076-0.198 0.129-0.288 0.021-0.036 0.048-0.075 0.076-0.115 0.074-0.106 0.158-0.227 0.186-0.357 0.020-0.094-0.040-0.187-0.135-0.207-0.093-0.018-0.188 0.040-0.207 0.135-0.013 0.061-0.075 0.151-0.13 0.23-0.034 0.049-0.066 0.096-0.092 0.139-0.062 0.107-0.108 0.222-0.153 0.337-0.019 0.047-0.037 0.093-0.057 0.14-0.168 0.393-0.248 0.773-0.315 1.127-0.107 0.565-0.12 1.129-0.126 1.753-0.001 0.096 0.077 0.175 0.173 0.176z"></path>
<path fill="#444444" d="M27.377 27.107c0.020 0.045 0.059 0.133 0.071 0.185-0.060 0.043-0.088 0.121-0.065 0.195s0.092 0.123 0.167 0.123c0.017 0 0.035-0.003 0.052-0.009 0.079-0.024 0.14-0.078 0.172-0.149 0.070-0.154-0.012-0.339-0.078-0.488-0.016-0.036-0.031-0.067-0.036-0.086-0.029-0.148 0.044-0.453 0.126-0.618 0.068-0.136 0.138-0.283 0.171-0.442 0.022-0.104 0.064-0.185 0.118-0.288l0.041-0.080c0.066-0.133 0.12-0.272 0.172-0.41 0.042-0.11 0.083-0.218 0.133-0.324 0.041-0.087 0.003-0.192-0.084-0.233-0.087-0.040-0.191-0.002-0.233 0.085-0.052 0.113-0.097 0.23-0.142 0.347-0.048 0.128-0.097 0.256-0.158 0.379l-0.038 0.075c-0.058 0.111-0.118 0.227-0.149 0.376-0.025 0.119-0.084 0.243-0.142 0.359-0.096 0.191-0.207 0.578-0.157 0.84 0.008 0.048 0.030 0.098 0.058 0.163z"></path>
<path fill="#444444" d="M35.585 27.052c0.064 0 0.124-0.034 0.156-0.094 0.050-0.096 0.074-0.191 0.097-0.281 0.012-0.045 0.023-0.090 0.038-0.136 0.042-0.125 0.1-0.243 0.174-0.38 0.048-0.090 0.085-0.185 0.122-0.28 0.030-0.076 0.058-0.152 0.096-0.224 0.034-0.065 0.084-0.133 0.142-0.21 0.013-0.017 0.029-0.043 0.046-0.073 0.012-0.022 0.036-0.061 0.050-0.080 0.074-0.039 0.111-0.127 0.084-0.209-0.030-0.091-0.129-0.14-0.221-0.111-0.104 0.034-0.165 0.139-0.214 0.223-0.010 0.017-0.019 0.033-0.038 0.059-0.055 0.075-0.115 0.158-0.158 0.238-0.044 0.084-0.078 0.172-0.112 0.26-0.031 0.081-0.061 0.162-0.104 0.239-0.082 0.154-0.147 0.286-0.197 0.434-0.018 0.054-0.032 0.108-0.045 0.161-0.020 0.079-0.037 0.147-0.069 0.206-0.044 0.086-0.012 0.191 0.075 0.236 0.025 0.012 0.053 0.019 0.080 0.019z"></path>
<path fill="#444444" d="M34.78 26.090c0.034 0 0.069-0.010 0.099-0.031 0.146-0.101 0.156-0.312 0.163-0.481 0.001-0.038 0.002-0.073 0.006-0.097 0.017-0.105 0.019-0.115 0.066-0.193 0.012-0.017 0.026-0.037 0.041-0.059 0.059-0.080 0.132-0.179 0.14-0.293 0.008-0.096-0.064-0.182-0.16-0.19-0.093-0.013-0.18 0.062-0.188 0.158-0.006 0.024-0.050 0.084-0.074 0.117-0.022 0.030-0.042 0.058-0.058 0.083-0.078 0.126-0.091 0.182-0.113 0.322-0.006 0.035-0.008 0.083-0.010 0.136-0.003 0.061-0.008 0.189-0.012 0.209-0.079 0.055-0.099 0.164-0.044 0.244 0.034 0.050 0.089 0.076 0.144 0.076z"></path>
<path fill="#444444" d="M84.732 34.648c-0.289-0.577-1.973-1.615-2.374-1.816-0.099-0.050-0.212-0.114-0.338-0.186-0.502-0.287-1.26-0.721-2.235-0.823-1.044-0.11-1.767-0.269-2.501-0.548-0.122-0.047-0.292-0.115-0.493-0.197-0.919-0.373-2.309-0.935-2.974-0.963-0.516-0.020-1.309-0.376-2.008-0.692-0.305-0.136-0.59-0.264-0.824-0.352-0.14-0.052-0.278-0.107-0.413-0.16-0.641-0.253-1.246-0.491-1.93-0.491-0.452 0-0.578-0.064-0.738-0.144-0.111-0.057-0.239-0.121-0.468-0.174-0.531-0.124-0.944-0.295-1.4-0.515-0.198-0.096-0.439-0.1-0.725-0.017l-0.677-0.479c-0.396-0.28-1.858-0.841-2.286-0.965-0.206-0.059-0.47-0.064-0.75-0.069-0.301-0.005-0.612-0.011-0.819-0.089-0.462-0.172-1.968-0.686-2.782-0.875-0.725-0.169-2.138-0.512-2.846-0.712-0.007-0.002-0.013 0.004-0.020 0.002-0.244-0.283-0.477-0.523-0.672-0.66-0.569-0.399-2.037-2.577-2.615-3.604-0.572-1.018-1.516-2.332-2.002-2.94-0.306-0.383-1.092-1.321-1.78-1.761-0.168-0.108-0.38-0.162-0.629-0.171-0.186-0.058-0.585-0.51-0.883-0.851-0.336-0.383-0.683-0.78-1.021-1.033-0.455-0.341-1.588-1.16-2.284-1.391-0.301-0.1-0.435-0.241-0.637-0.453-0.134-0.14-0.301-0.313-0.551-0.51-0.036-0.029-0.087-0.046-0.131-0.070 0.006-0.034 0.012-0.070-0.005-0.104-0.481-1.018-2.523-1.693-3.237-1.535-0.144 0.033-0.307 0.096-0.475 0.17-0.009-0.008-0.010-0.021-0.022-0.027-0.357-0.2-0.746-0.218-1.161-0.064 0.008-0.039 0.007-0.080-0.013-0.118-0.146-0.258-0.365-0.51-0.602-0.694-0.094-0.073-0.188-0.153-0.283-0.234-0.115-0.097-0.231-0.196-0.352-0.289-0.205-0.157-0.348-0.319-0.48-0.542-0.051-0.087-0.101-0.163-0.154-0.24l-0.073-0.109c-0.097-0.147-2.959-3.577-3.591-4.29l-0.173-0.199c-0.258-0.299-0.524-0.608-0.856-0.839-0.008-0.005-0.792-0.472-1.060-0.216-0.076 0.072-0.133 0.21 0.021 0.455 0.143 0.228 0.355 0.404 0.559 0.575 0.083 0.069 0.164 0.136 0.238 0.206 0.213 0.2 0.818 0.972 0.876 1.060 0.069 0.104 0.154 0.233 0.251 0.343l0.083 0.093c0.154 0.173 0.313 0.353 0.45 0.538 0.164 0.222 0.325 0.417 0.519 0.632 0.079 0.087 0.158 0.158 0.24 0.23 0.047 0.041 0.094 0.084 0.142 0.13 0.038 0.038 0.245 0.299 0.443 0.552 0.355 0.451 0.841 1.068 1.1 1.346l0.089 0.095c0.172 0.184 0.35 0.374 0.504 0.573l0.048 0.061c0.053 0.067 0.199 0.249 0.234 0.361-0.089-0.033-0.294-0.142-0.706-0.501-0.133-0.115-0.262-0.234-0.392-0.352-0.266-0.245-0.542-0.498-0.85-0.714-0.439-0.308-1.584-1.402-1.679-1.532-0.075-0.103-0.145-0.213-0.216-0.323-0.091-0.142-0.182-0.285-0.284-0.417-0.089-0.116-0.191-0.224-0.292-0.333-0.1-0.107-0.2-0.214-0.285-0.327-0.085-0.115-0.188-0.218-0.288-0.318-0.089-0.089-0.179-0.179-0.254-0.278-0.311-0.405-0.586-0.741-0.921-1.060-0.073-0.070-0.143-0.135-0.212-0.198-0.129-0.118-0.255-0.231-0.381-0.367l-0.054-0.058c-0.921-1.007-1.227-1.187-1.429-1.15-0.267 0.048-0.356 0.182-0.384 0.285-0.065 0.242 0.155 0.463 0.253 0.548 0.201 0.174 0.371 0.421 0.517 0.675-0.067-0.060-0.13-0.122-0.182-0.181-0.194-0.222-0.351-0.345-0.59-0.507-0.061-0.041-0.119-0.085-0.177-0.129-0.114-0.086-0.231-0.174-0.364-0.244-0.233-0.122-0.4-0.061-0.535-0.009-0.055 0.020-0.107 0.040-0.165 0.048-0.079 0.012-0.133-0.029-0.246-0.128-0.051-0.045-0.104-0.090-0.161-0.128-0.159-0.104-0.336-0.255-0.491-0.389l-0.085-0.073c-0.097-0.083-0.186-0.176-0.276-0.269-0.076-0.079-0.153-0.158-0.234-0.232l-0.036-0.036c-0.065-0.068-0.177-0.181-0.348-0.158-0.121 0.015-0.195 0.094-0.244 0.146-0.013 0.015-0.034 0.037-0.030 0.038-0.062-0.005-0.116 0.023-0.151 0.070-0.103 0.139-0.137 0.275-0.102 0.405 0.065 0.238 0.332 0.352 0.568 0.452 0.084 0.036 0.164 0.068 0.22 0.105 0.112 0.072 0.21 0.171 0.313 0.276 0.054 0.055 0.108 0.11 0.164 0.161 0.107 0.098 0.22 0.188 0.334 0.277 0.095 0.075 0.189 0.149 0.279 0.229 0.040 0.036 0.095 0.079 0.157 0.128 0.134 0.105 0.489 0.385 0.482 0.51-0.004 0.057-0.087 0.122-0.16 0.181-0.029 0.023-0.057 0.045-0.082 0.068-0.007 0.006-0.679 0.68-0.58 0.965 0.072 0.203 0.309 0.241 0.466 0.266 0.042 0.006 0.081 0.012 0.109 0.021 0.080 0.026 0.159 0.049 0.237 0.072 0.23 0.066 0.446 0.129 0.644 0.27 0.062 0.044 0.127 0.087 0.194 0.132 0.188 0.125 0.382 0.254 0.534 0.415 0.153 0.163 0.299 0.347 0.439 0.525 0.065 0.083 0.131 0.165 0.198 0.247 0.228 0.279 0.459 0.569 0.672 0.847 0.066 0.086 0.146 0.17 0.225 0.251l0.053 0.055c0.079 0.084 0.168 0.151 0.255 0.217 0.048 0.037 0.096 0.072 0.14 0.111l0.276 0.246c0.439 0.394 0.893 0.802 1.415 1.112 0.184 0.11 0.35 0.211 0.507 0.316-0.382-0.2-0.776-0.4-1.187-0.572-0.093-0.038-0.187-0.076-0.282-0.115-0.237-0.096-0.482-0.194-0.701-0.308-0.125-0.065-0.256-0.124-0.387-0.182-0.169-0.075-0.343-0.153-0.499-0.245-0.253-0.148-0.528-0.275-0.795-0.397-0.366-0.168-0.745-0.343-1.058-0.57-0.304-0.223-0.655-0.395-0.989-0.553-0.138-0.065-0.265-0.136-0.395-0.21l-0.072-0.041c-0.073-0.041-0.149-0.071-0.225-0.101-0.070-0.027-0.141-0.054-0.207-0.095-0.052-0.033-0.118-0.035-0.171-0.007s-0.090 0.082-0.095 0.143c-0.027 0.38 0.122 0.626 0.281 0.886 0.031 0.051 0.064 0.105 0.096 0.161 0.243 0.425 0.527 0.556 0.935 0.638 0.875 0.177 1.711 0.661 2.52 1.129l0.384 0.221c0.547 0.309 1.063 0.702 1.564 1.082 0.336 0.255 0.682 0.519 1.037 0.756 0.655 0.439 1.384 0.777 2.012 1.049 0.548 0.238 1.083 0.509 1.669 0.841-0.203 1.796 1.24 4.197 1.518 4.475 0.090 0.090 0.272 0.287 0.513 0.546 0.196 0.212 0.425 0.459 0.671 0.724-0.713-0.181-1.898-0.459-2.464-0.459-0.188 0-0.347 0.026-0.492 0.065-0.009-0.010-0.010-0.025-0.022-0.033-0.399-0.279-1.623-0.515-2.674-0.515-0.491 0-1.161-0.060-1.809-0.118-0.702-0.062-1.365-0.122-1.785-0.105-0.388 0.015-0.642 0.163-0.826 0.371-1.447-0.168-2.533 1.112-3.119 1.805l-0.102 0.119c-0.050 0.059-0.098 0.131-0.145 0.207-0.169-0.015-0.333-0.046-0.504-0.083-0.083-0.018-0.167-0.036-0.252-0.052-0.251-0.048-0.501-0.047-0.744-0.042-0.016-0.040-0.044-0.076-0.084-0.094l-0.303-0.143c-0.375-0.179-0.728-0.348-1.139-0.477-0.263-0.083-0.497-0.216-0.744-0.357-0.266-0.151-0.542-0.308-0.858-0.399-0.552-0.158-1.164-0.309-1.817-0.452-0.561-0.122-1.060-0.275-1.619-0.496-0.346-0.138-0.706-0.154-1.055-0.171-0.195-0.009-0.38-0.017-0.562-0.047-0.299-0.047-0.605-0.117-0.9-0.185-0.215-0.049-0.429-0.098-0.644-0.14-0.54-0.105-1.098-0.214-1.679-0.247-0.522-0.030-1-0.132-1.506-0.241l-0.059-0.013c-0.419-0.090-0.855-0.11-1.275-0.129l-0.308-0.015c-0.334-0.020-0.789-0.045-1.061 0.207-0.135 0.125-0.205 0.3-0.208 0.52-0.001 0.048 0.018 0.094 0.052 0.128s0.092 0.050 0.128 0.050c0.013 0.004 0.027 0.008 0.047 0.015 0.030 0.012 0.068 0.027 0.112 0.035 0.024 0.004 0.076 0.005 0.127 0.005 0.022 0 0.045-0.001 0.064 0 0.034 0.037 0.091 0.111 0.132 0.164 0.183 0.239 0.305 0.386 0.456 0.41 0.144 0.023 0.296 0.015 0.441 0.008 0.064-0.004 0.126-0.007 0.185-0.007 0 0 0 0 0.001 0 0.256 0 2.627 0.403 3.902 0.619 0.587 0.099 1.028 0.174 1.123 0.186 0.16 0.022 0.322 0.033 0.482 0.042 0.174 0.011 0.347 0.021 0.515 0.049 0.059 0.010 0.118 0.023 0.176 0.036 0.118 0.027 0.24 0.055 0.378 0.059 0.264 0.009 2.101 0.341 2.716 1.039 0.040 0.045 0.117 0.115 0.208 0.184-0.024 0.001-0.050 0.004-0.074 0.005-0.020-0.035-0.050-0.065-0.091-0.079-0.504-0.17-0.976-0.195-1.476-0.222l-0.142-0.008c-0.35-0.020-0.678-0.11-1.026-0.204-0.218-0.060-0.437-0.119-0.662-0.161-0.299-0.057-0.602-0.082-0.896-0.105-0.311-0.026-0.633-0.051-0.94-0.116-0.781-0.165-1.409-0.263-2.039-0.32-0.311-0.027-0.607-0.104-0.921-0.184-0.281-0.072-0.572-0.146-0.873-0.182-0.192-0.023-0.378-0.027-0.56-0.030-0.349-0.005-0.682-0.010-1.012-0.175l-0.078-0.038c-0.481-0.243-1.286-0.649-1.73 0.089-0.111 0.183-0.248 0.622 0.035 0.805 0.074 0.048 0.157 0.064 0.241 0.047 0.050 0.074 0.108 0.139 0.163 0.188 0.205 0.183 0.433 0.281 0.654 0.375 0.194 0.083 0.368 0.161 0.512 0.287-0.177-0.001-0.354-0.004-0.531-0.002-0.154 0.002-0.387 0.005-0.554 0.209-0.059 0.073-0.087 0.154-0.111 0.224-0.019 0.055-0.035 0.103-0.061 0.128-0.11 0.108-0.404 0.115-0.62 0.121-0.073 0.002-0.14 0.004-0.199 0.008-0.095 0.008-0.188 0.011-0.281 0.014-0.274 0.010-0.557 0.020-0.846 0.125-0.007 0.002-0.008 0.010-0.015 0.013-0.467-0.153-0.939-0.311-1.394-0.498-0.072-0.030-0.157-0.008-0.204 0.054l-0.051 0.065c-0.179 0.225-0.425 0.533-0.345 0.874 0.093 0.4 0.554 0.555 0.891 0.645-0.15 0.153-0.323 0.37-0.237 0.621 0.090 0.266 0.417 0.375 0.632 0.447l0.083 0.028c0.053 0.019 0.112 0.036 0.165 0.055-0.002 0.012-0.014 0.021-0.013 0.034 0.001 0.038-0.004 0.085-0.008 0.135-0.014 0.186-0.031 0.398 0.078 0.542 0.098 0.132 0.286 0.197 0.452 0.254 0.048 0.017 0.093 0.032 0.127 0.047 0.172 0.078 0.346 0.159 0.521 0.241 0.245 0.114 0.49 0.23 0.731 0.335 0.146 0.065 0.299 0.122 0.454 0.179 0.209 0.078 0.425 0.158 0.612 0.255 0.023 0.012 0.043 0.029 0.064 0.045 0.043 0.034 0.096 0.076 0.169 0.108 0.022 0.009 0.041 0.022 0.061 0.032-0.247-0.010-0.498-0.008-0.743 0.001l-0.301 0.009c-0.531 0.010-1.062 0.006-1.593 0.004-0.327-0.003-0.655-0.006-0.982-0.004-0.186-0.001-0.371-0.001-0.557-0.003-0.263-0.002-0.526-0.004-0.789 0-0.066-0.001-0.138-0.002-0.209-0.006-0.124-0.006-0.253-0.012-0.382 0.004-0.069 0.008-0.135 0.025-0.2 0.042-0.061 0.016-0.122 0.033-0.188 0.036-0.070 0.004-0.13 0.049-0.154 0.115-0.024 0.065-0.006 0.139 0.044 0.186 0.002 0.002 0.004 0.004 0.005 0.005-0.013 0-0.025 0.001-0.037 0.004-0.065 0.012-0.117 0.062-0.134 0.126-0.001 0.002-0.061 0.231-0.003 0.38 0.031 0.079 0.082 0.124 0.124 0.158 0.006 0.055 0.038 0.104 0.086 0.131 0.084 0.049 0.208 0.093 0.336 0.12 0.008 0.002 0.012 0.009 0.021 0.010 0.006 0.001 0.013-0.004 0.019-0.004 0.035 0.006 0.069 0.019 0.104 0.019 0.059 0 0.114-0.013 0.165-0.035 0.322 0.012 0.64 0.080 0.97 0.147 0.389 0.079 0.782 0.168 1.213 0.157 0.47-0.001 0.85 0.026 1.275 0.104 0.134 0.025 0.273 0.006 0.41 0.024 0.098 0.012 0.196 0.043 0.3 0.076 0.094 0.030 0.189 0.061 0.287 0.079 0.114 0.022 0.23 0.025 0.346 0.029 0.102 0.004 0.204 0.005 0.305 0.026 0.251 0.050 0.467 0.080 0.702 0.096 0.394 0.027 0.806 0.103 1.204 0.177l0.221 0.041c0.228 0.041 0.461 0.059 0.688 0.076s0.44 0.034 0.649 0.071c0.192 0.036 0.383 0.083 0.575 0.131 0.168 0.041 0.337 0.084 0.507 0.118 0.122 0.024 0.242 0.055 0.362 0.088-0.782-0.017-1.562-0.054-2.328-0.089-0.94-0.043-1.912-0.087-2.867-0.098-0.754-0.009-1.505 0.026-2.236 0.061-0.702 0.032-1.429 0.065-2.141 0.061 0 0-0.001 0-0.001 0-0.079 0-0.147 0.052-0.168 0.129-0.001 0.005-0.002 0.010-0.004 0.015-0.147 0.045-0.273 0.13-0.347 0.239-0.114 0.168-0.085 0.284-0.041 0.352 0.097 0.149 0.305 0.138 0.497 0.11 0.053 0.007 0.105 0.016 0.156 0.025 0.113 0.020 0.213 0.040 0.367 0.040 0.143 0 0.288 0.001 0.431 0.002l0.275 0.002c0.002 0 0.004 0 0.006 0 0.227 0 0.452-0.015 0.678-0.030 0.259-0.018 0.503-0.036 0.749-0.029 0.188 0.006 0.376 0 0.565-0.005 0.157-0.004 0.312-0.008 0.47-0.006 0.163 0.002 0.323 0.017 0.484 0.033 0.182 0.017 0.365 0.035 0.552 0.035 0.255 0.002 0.51-0.006 0.767-0.012 0.558-0.013 1.134-0.027 1.683 0.031 0.114 0.012 0.228 0.029 0.343 0.044 0.216 0.030 0.439 0.061 0.661 0.066 0.097 0.002 0.193 0.001 0.288 0.001 0.217-0.002 0.421-0.005 0.628 0.036 0.157 0.030 0.316 0.055 0.474 0.079 0.266 0.041 0.517 0.079 0.759 0.146 0.436 0.121 0.898 0.191 1.344 0.259 0.135 0.020 0.27 0.041 0.403 0.063 0.196 0.032 0.392 0.039 0.581 0.047s0.368 0.013 0.545 0.043c0.372 0.061 0.721 0.062 1.092 0.064l0.065 0.001c0.138 0.001 0.276-0.002 0.415-0.004 0.423-0.006 0.859-0.013 1.258 0.062 0.161 0.031 0.338 0.041 0.517 0.041 0.186 0 0.375-0.011 0.551-0.021 0.114-0.007 0.225-0.013 0.329-0.016 0.014-0.001 0.022-0.012 0.035-0.016 0.17 0.358 0.5 0.91 0.878 1.202-0.819 0.399-1.68 0.905-2.702 1.596-0.344 0.232-0.671 0.468-0.901 0.797-0.213 0.304-0.317 0.661-0.409 0.975-0.001 0.005 0.002 0.009 0.001 0.013-0.192 0.171-0.446 0.394-0.697 0.616-0.893 0.785-2.004 1.763-2.278 2.064-0.552 0.608-1.097 1.275-1.344 2.042-0.125 0.389-0.116 0.743 0.009 1.028 0.012 0.080 0.017 0.147 0.020 0.206 0.014 0.298 0.048 0.506 0.586 1.343 0.718 1.119 2.47 2.671 2.544 2.736 0.032 0.029 0.073 0.044 0.116 0.044 0.004 0 0.008 0 0.011 0 0.116-0.008 2.499-0.179 4.378-1.58 0.016 0.011 0.030 0.026 0.047 0.034 0.344 0.613 0.85 0.884 1.472 1.171 0.202 0.093 0.401 0.207 0.594 0.319 0.344 0.199 0.701 0.403 1.104 0.513 0.407 0.111 0.821 0.151 1.232 0.151 0.424 0 0.845-0.043 1.253-0.096l0.442-0.057c0.868-0.11 1.766-0.224 2.631-0.443 0.881-0.224 1.608-0.625 2.265-1.046-0.002 0.079-0.005 0.157-0.009 0.235-0.025 0.425-0.054 0.907 0.378 1.31 0.685 0.64 2.101 1.621 4.341 1.621 0.311 0 0.638-0.019 0.981-0.061l0.507-0.061c2.561-0.304 5.462-0.649 6.351-1.803 0.222-0.287 0.309-0.612 0.259-0.967-0.037-0.269-0.098-0.76-0.164-1.31 4.612-0.173 6.553-2.316 6.634-2.408 0.019-0.022 0.033-0.049 0.040-0.078 0.010-0.047 0.253-1.152 0.192-2.093-0.025-0.396-0.128-1.774-0.128-1.774l-0.023 0.002c0.002-0.013 0.004-0.027 0.005-0.040 0.157 0.011 0.603 0.145 1.044 0.278 0.526 0.158 1.12 0.338 1.608 0.436 0.886 0.178 3.337 0.542 3.711 0.598 0.1 0.11 0.207 0.221 0.332 0.336 0.621 0.575 1.168 0.791 1.746 1.021 0.192 0.077 0.39 0.156 0.595 0.25 0.009 0.004 0.018 0.004 0.027 0.006 0.004 0.008 0.005 0.017 0.008 0.024 0.191 0.479 1.029 1.087 1.767 1.623 0.224 0.163 0.428 0.311 0.581 0.433 0.726 0.581 3.14 2.119 3.242 2.183 0.407 0.259 0.7 0.519 0.984 0.769 0.183 0.163 0.357 0.316 0.555 0.464 0.534 0.4 1.27 0.657 1.993 0.875 0.179 0.266 0.386 0.489 0.542 0.653 0.068 0.072 0.126 0.132 0.164 0.18 0.029 0.036 0.061 0.079 0.097 0.126 0.266 0.355 0.759 1.001 1.508 1.048 0.012 0.024 0.025 0.050 0.036 0.070 0.228 0.389 0.6 0.69 0.87 0.714 0.103 0.792 1.383 1.823 1.858 2.061 0.037 0.019 0.087 0.048 0.149 0.084 0.319 0.185 0.88 0.511 1.475 0.511 0.080 0 0.159-0.007 0.239-0.019 0.415 0.377 1.255 0.777 2.017 0.842 0.072 0.006 0.142 0.009 0.21 0.009 0.538 0 0.948-0.19 1.192-0.556 0.188-0.281 0.221-0.683 0.097-1.193-0.359-1.482-1.913-3.507-2.391-3.773-0.361-0.2-1.128-1.108-2.059-2.44-0.462-0.658-1.32-1.884-1.786-2.151-0.154-0.087-0.368-0.354-0.594-0.637-0.351-0.438-0.749-0.935-1.213-1.168-0.291-0.146-0.542-0.317-0.773-0.514 1.603 0.276 6.834 0.999 8.264 0.999 1.969 0 2.928-0.479 3.242-0.637 0.237-0.118 0.87-0.279 1.38-0.408 0.412-0.104 0.738-0.186 0.876-0.247 0.123-0.054 0.204-0.165 0.227-0.316 0.058-0.369-0.217-0.953-0.615-1.303-0.105-0.092-0.288-0.189-0.526-0.288 0.658-0.015 1.275-0.188 1.774-0.331 0.229-0.066 0.438-0.126 0.625-0.164 0.24-0.048 0.405-0.163 0.493-0.343 0.131-0.265 0.070-0.64-0.183-1.147zM34.476 12.267c-0.555-0.311-1.071-0.573-1.598-0.801-0.613-0.266-1.324-0.595-1.956-1.018-0.346-0.232-0.689-0.493-1.020-0.745-0.509-0.387-1.036-0.787-1.602-1.108l-0.381-0.219c-0.833-0.482-1.695-0.981-2.626-1.168-0.379-0.076-0.536-0.182-0.7-0.469-0.034-0.059-0.068-0.115-0.101-0.17-0.091-0.149-0.165-0.272-0.204-0.408 0.052 0.020 0.103 0.041 0.152 0.069l0.072 0.040c0.138 0.078 0.272 0.153 0.418 0.221 0.319 0.15 0.653 0.315 0.933 0.519 0.341 0.249 0.736 0.43 1.118 0.606 0.27 0.124 0.526 0.242 0.764 0.381 0.172 0.101 0.355 0.183 0.533 0.262 0.125 0.056 0.249 0.111 0.368 0.173 0.234 0.122 0.487 0.223 0.732 0.322 0.094 0.038 0.186 0.075 0.277 0.113 0.487 0.204 0.934 0.439 1.407 0.689l0.233 0.122c0.105 0.055 0.22 0.103 0.334 0.149 0.115 0.047 0.23 0.093 0.33 0.15 0.055 0.031 0.109 0.093 0.167 0.158 0.114 0.129 0.256 0.29 0.494 0.309 0.085 0.006 0.155-0.044 0.18-0.12 0.022-0.068 0.008-0.141-0.041-0.218-0.062-0.096-0.236-0.263-0.391-0.343l-0.004-0.013c-0.016-0.066-0.083-0.119-0.149-0.132-0.042-0.009-0.15-0.101-0.207-0.15-0.057-0.048-0.111-0.094-0.156-0.124-0.070-0.045-0.133-0.1-0.197-0.156-0.050-0.043-0.1-0.087-0.153-0.128-0.265-0.203-0.533-0.371-0.853-0.561-0.492-0.292-0.933-0.689-1.36-1.072l-0.278-0.249c-0.050-0.044-0.105-0.086-0.16-0.128-0.072-0.054-0.147-0.11-0.213-0.179l-0.057-0.055c-0.069-0.071-0.14-0.144-0.198-0.22-0.217-0.281-0.449-0.574-0.68-0.855-0.065-0.080-0.129-0.161-0.193-0.242-0.145-0.184-0.295-0.374-0.459-0.548-0.18-0.191-0.4-0.337-0.595-0.467-0.064-0.043-0.126-0.084-0.186-0.126-0.246-0.174-0.502-0.248-0.749-0.32-0.074-0.022-0.15-0.043-0.226-0.068-0.043-0.014-0.1-0.024-0.162-0.034-0.044-0.007-0.126-0.020-0.168-0.030 0.073-0.15 0.348-0.496 0.459-0.595 0.020-0.018 0.044-0.036 0.067-0.055 0.070-0.056 0.153-0.127 0.214-0.218 0.098 0.111 0.212 0.248 0.297 0.349 0.238 0.286 0.334 0.397 0.396 0.44s0.123 0.089 0.184 0.136c0.094 0.073 0.189 0.145 0.287 0.204 0.317 0.193 0.581 0.399 0.806 0.628 0.093 0.094 0.191 0.163 0.286 0.229 0.061 0.043 0.124 0.085 0.182 0.136 0.099 0.085 0.185 0.183 0.272 0.28 0.076 0.085 0.151 0.17 0.232 0.246 0.377 0.359 4.442 3.664 4.797 3.931 0.032 0.024 0.068 0.035 0.105 0.035 0.053 0 0.105-0.024 0.139-0.070 0.058-0.077 0.043-0.186-0.034-0.245-0.464-0.349-4.436-3.591-4.767-3.905-0.074-0.071-0.143-0.148-0.212-0.225-0.097-0.109-0.194-0.218-0.305-0.313-0.068-0.059-0.14-0.108-0.211-0.158-0.086-0.059-0.167-0.115-0.236-0.186-0.246-0.25-0.532-0.473-0.874-0.682-0.087-0.053-0.171-0.118-0.255-0.182-0.066-0.051-0.132-0.102-0.196-0.145-0.042-0.034-0.207-0.232-0.329-0.378-0.276-0.331-0.452-0.537-0.552-0.602-0.002-0.001-0.004 0-0.006-0.001-0.114-0.203-0.345-0.387-0.544-0.544-0.055-0.044-0.105-0.083-0.141-0.114-0.095-0.084-0.195-0.163-0.295-0.242-0.107-0.084-0.214-0.168-0.315-0.26-0.052-0.048-0.102-0.098-0.151-0.149-0.112-0.114-0.228-0.232-0.373-0.325-0.070-0.045-0.169-0.088-0.272-0.133-0.13-0.055-0.347-0.148-0.367-0.222-0.002-0.009 0-0.026 0.010-0.048 0.090-0.028 0.15-0.092 0.191-0.135 0.012-0.013 0.031-0.033 0.024-0.038 0.014 0.007 0.043 0.036 0.061 0.056l0.050 0.049c0.075 0.069 0.147 0.143 0.218 0.217 0.097 0.101 0.195 0.201 0.301 0.291l0.084 0.072c0.164 0.141 0.35 0.301 0.528 0.417 0.044 0.029 0.083 0.064 0.122 0.098 0.125 0.11 0.283 0.245 0.526 0.211 0.096-0.013 0.175-0.043 0.238-0.067 0.114-0.043 0.156-0.058 0.25-0.008 0.108 0.057 0.209 0.133 0.316 0.213 0.062 0.047 0.125 0.094 0.191 0.138 0.218 0.149 0.353 0.254 0.523 0.448 0.155 0.178 0.5 0.5 0.809 0.577 0.097 0.024 0.191-0.034 0.214-0.128 0.004-0.016-0.006-0.029-0.006-0.044 0.016-0.043 0.016-0.091-0.005-0.136-0.199-0.415-0.476-0.933-0.853-1.259-0.103-0.089-0.144-0.17-0.147-0.184 0 0 0.023-0.024 0.091-0.040 0.050 0.009 0.278 0.112 1.129 1.042l0.055 0.061c0.133 0.143 0.265 0.263 0.401 0.388 0.067 0.061 0.136 0.124 0.206 0.19 0.318 0.304 0.583 0.628 0.884 1.020 0.084 0.11 0.184 0.212 0.284 0.312 0.091 0.091 0.182 0.182 0.255 0.28 0.093 0.125 0.201 0.241 0.31 0.358 0.094 0.1 0.188 0.2 0.27 0.307 0.096 0.124 0.181 0.258 0.266 0.392 0.075 0.117 0.149 0.232 0.227 0.34 0.117 0.162 1.308 1.295 1.762 1.613 0.288 0.203 0.544 0.437 0.813 0.686 0.132 0.121 0.264 0.243 0.415 0.373 0.69 0.601 0.937 0.625 1.088 0.567 0.060-0.023 0.163-0.085 0.185-0.252 0.031-0.236-0.179-0.498-0.316-0.671l-0.044-0.056c-0.164-0.213-0.348-0.41-0.526-0.599l-0.089-0.094c-0.249-0.267-0.729-0.877-1.080-1.323-0.285-0.362-0.425-0.538-0.474-0.587-0.052-0.050-0.104-0.096-0.155-0.141-0.072-0.064-0.142-0.125-0.212-0.202-0.186-0.206-0.339-0.393-0.498-0.605-0.146-0.198-0.311-0.383-0.47-0.562l-0.082-0.092c-0.081-0.092-0.155-0.204-0.221-0.304-0.060-0.090-0.677-0.885-0.928-1.122-0.079-0.074-0.166-0.147-0.254-0.22-0.178-0.148-0.362-0.302-0.477-0.475 0.168 0.039 0.438 0.152 0.534 0.218 0.295 0.205 0.547 0.498 0.79 0.78l0.177 0.203c0.67 0.756 3.444 4.088 3.56 4.249l0.075 0.113c0.048 0.072 0.096 0.141 0.143 0.221 0.157 0.265 0.326 0.457 0.569 0.643 0.117 0.089 0.23 0.184 0.339 0.277 0.098 0.084 0.196 0.166 0.295 0.243 0.199 0.154 0.39 0.374 0.511 0.59 0.018 0.031 0.044 0.053 0.075 0.068-0.639 0.336-1.329 1.054-2.054 2.171-0.119 0.18-0.195 0.382-0.251 0.594zM14.682 18.108c-0.104-0.004-0.204-0.026-0.311-0.051-0.065-0.015-0.13-0.030-0.196-0.040-0.18-0.030-0.364-0.041-0.55-0.053-0.151-0.010-0.304-0.019-0.456-0.039-0.094-0.012-0.531-0.087-1.112-0.185-1.937-0.329-3.697-0.623-3.961-0.623 0 0-0.001 0-0.001 0-0.065 0-0.133 0.004-0.202 0.007-0.129 0.006-0.26 0.013-0.353 0-0.053-0.026-0.18-0.192-0.248-0.281-0.109-0.142-0.174-0.225-0.243-0.266-0.056-0.034-0.116-0.036-0.233-0.036-0.027 0-0.052 0.001-0.097-0.012 0.016-0.056 0.042-0.1 0.079-0.135 0.163-0.151 0.549-0.129 0.803-0.115l0.312 0.016c0.407 0.019 0.827 0.038 1.219 0.122l0.059 0.012c0.52 0.111 1.011 0.217 1.56 0.248 0.558 0.032 1.080 0.133 1.633 0.241 0.212 0.041 0.422 0.089 0.633 0.138 0.301 0.069 0.612 0.14 0.923 0.189 0.2 0.032 0.403 0.041 0.6 0.050 0.334 0.016 0.65 0.031 0.942 0.147 0.577 0.229 1.092 0.387 1.673 0.513 0.646 0.14 1.25 0.291 1.796 0.447 0.276 0.079 0.521 0.218 0.781 0.367 0.253 0.144 0.514 0.293 0.813 0.387 0.329 0.103 0.627 0.239 0.931 0.383-0.166 0-0.333 0-0.499-0.001-0.357-0.004-0.712-0.006-1.068-0.001-0.143 0.003-0.286-0.001-0.429-0.004-0.193-0.005-0.386-0.008-0.577 0-0.189 0.007-0.372 0.038-0.549 0.068-0.035 0.006-0.068 0.007-0.102 0.012-0.036-0.049-0.087-0.085-0.153-0.075-0.103 0.010-0.329-0.137-0.447-0.271-0.742-0.842-2.773-1.151-2.967-1.158zM6.304 19.041c-0.204-0.087-0.396-0.17-0.558-0.314-0.044-0.040-0.086-0.091-0.118-0.143 0.016-0.028 0.029-0.057 0.039-0.087 0.033-0.099 0.055-0.306-0.091-0.385-0.027-0.015-0.105-0.047-0.196 0.005 0.258-0.412 0.707-0.229 1.267 0.054l0.079 0.040c0.401 0.2 0.789 0.207 1.165 0.214 0.17 0.003 0.344 0.006 0.524 0.027 0.278 0.033 0.545 0.101 0.827 0.174 0.313 0.080 0.638 0.163 0.977 0.193 0.614 0.055 1.23 0.151 1.997 0.313 0.33 0.069 0.662 0.097 0.985 0.123 0.284 0.023 0.577 0.047 0.859 0.1 0.216 0.040 0.425 0.098 0.635 0.155 0.35 0.096 0.711 0.194 1.098 0.216l0.143 0.008c0.168 0.009 0.326 0.019 0.482 0.033-0.178 0.010-0.355 0.019-0.533 0.019l-0.697-0.003c-0.444-0.003-0.889-0.006-1.332 0.002-0.386 0.004-0.788-0.031-1.173-0.067-0.3-0.028-0.6-0.055-0.902-0.065-0.414-0.013-0.833 0.010-1.238 0.032-0.334 0.017-0.675 0.034-1.016 0.034-0.388-0.002-0.775-0.018-1.161-0.034-0.358-0.014-0.715-0.029-1.073-0.033-0.052 0-0.104 0-0.156 0-0.22-0.344-0.53-0.482-0.833-0.611zM4.336 20.701c0.097-0.004 0.195-0.008 0.295-0.014 0.053-0.005 0.115-0.006 0.181-0.008 0.289-0.007 0.649-0.016 0.858-0.222 0.084-0.083 0.118-0.182 0.145-0.263 0.016-0.047 0.031-0.091 0.052-0.117 0.054-0.066 0.129-0.078 0.286-0.080 0.377-0.003 0.76-0.001 1.138 0.004 0.354 0.005 0.709 0.019 1.063 0.033 0.39 0.016 0.781 0.032 1.173 0.034 0.343 0.006 0.697-0.016 1.037-0.035 0.397-0.021 0.81-0.044 1.207-0.031 0.295 0.010 0.588 0.037 0.881 0.064 0.394 0.036 0.803 0.078 1.211 0.068 0.441-0.006 0.883-0.004 1.324-0.002l0.699 0.003c0.403 0 0.806-0.034 1.196-0.068 0.264-0.022 0.528-0.044 0.794-0.057 0.184-0.009 0.362-0.038 0.534-0.068 0.174-0.029 0.338-0.057 0.505-0.063 0.185-0.008 0.371-0.004 0.556 0 0.147 0.002 0.295 0.005 0.442 0.004 0.353-0.005 0.706-0.002 1.060 0.001 0.309 0.002 0.619 0.006 0.929 0.003l0.2-0.004c0.261-0.006 0.509-0.011 0.753 0.036 0.083 0.015 0.163 0.033 0.243 0.050 0.131 0.029 0.267 0.054 0.407 0.073-0.366 0.831-0.581 2.090-0.593 2.458-0.085 0.004-0.167 0.007-0.266 0.013-0.223 0.014-0.45 0.065-0.676 0.133-0.237-0.137-0.465-0.288-0.692-0.439-0.581-0.387-1.182-0.787-1.915-0.933-0.58-0.117-1.179-0.188-1.759-0.258-0.405-0.049-0.81-0.098-1.21-0.161-1.044-0.165-2.108-0.109-3.137-0.055-0.451 0.024-0.901 0.048-1.351 0.054-0.849 0.009-1.715-0.005-2.553-0.018-1.505-0.026-3.060-0.052-4.587 0.065-0.010 0.001-0.016 0.011-0.026 0.013-0.2-0.070-0.399-0.136-0.598-0.202 0.065-0.004 0.129-0.010 0.196-0.012zM19.788 22.765c-0.053-0.013-0.104-0.031-0.156-0.049-0.098-0.033-0.201-0.068-0.318-0.082-0.233-0.029-0.474-0.017-0.709-0.005-0.115 0.005-0.231 0.011-0.341 0.012-0.727 0.002-1.455-0.001-2.182-0.003-0.183-0.001-0.365 0-0.547 0.001s-0.364 0.001-0.544 0.002c-0.29-0.014-0.548 0.016-0.815 0.034-0.132 0.009-0.265 0.018-0.4 0.024-0.094 0.005-0.182 0.018-0.27 0.033-0.321 0.052-0.664 0.034-1.032 0.087-0.258 0.036-0.553 0.026-0.838 0.015l-0.221-0.008c-0.089-0.002-0.173-0.015-0.258-0.028-0.107-0.016-0.213-0.031-0.327-0.033l-0.581-0.004c-0.078 0-0.173-0.008-0.276-0.015-0.312-0.023-0.655-0.040-0.904 0.063-0.089-0.037-0.179-0.072-0.267-0.111-0.242-0.106-0.485-0.208-0.729-0.311-0.117-0.050-0.232-0.101-0.348-0.15 1.048-0.008 2.025-0.005 2.962 0.008 0.012 0 0.023 0 0.034 0 0.346 0 0.684-0.065 1.011-0.129 0.325-0.064 0.631-0.123 0.944-0.124 0.108 0.006 0.225 0.004 0.338 0.007 0.301 0.010 0.611 0.018 0.916-0.037 0.347-0.064 1.852-0.382 2.005-0.427 0.093-0.027 0.186-0.061 0.28-0.095 0.169-0.061 0.329-0.118 0.489-0.14 0.032-0.004 0.059-0.020 0.083-0.039 0.257 0.035 0.514 0.072 0.773 0.103 0.573 0.068 1.165 0.14 1.732 0.254 0.665 0.132 1.211 0.496 1.789 0.881 0.154 0.102 0.312 0.198 0.468 0.296-0.244 0.106-0.481 0.24-0.711 0.395-0.008-0.009-0.009-0.022-0.019-0.028-0.33-0.21-0.705-0.316-1.031-0.398zM20.539 23.407c-0.556 0.433-1.042 0.989-1.369 1.609-0.012-0.001-0.020-0.009-0.032-0.008-0.323 0.046-0.648 0.082-0.972 0.117-0.211 0.023-0.422 0.045-0.633 0.072-0.623 0.075-1.224 0.015-1.874-0.050-1.275-0.128-2.314-0.415-3.269-0.905-0.739-0.378-1.52-0.693-2.275-0.999-0.132-0.053-0.262-0.11-0.393-0.163 0.079 0.004 0.156 0.009 0.227 0.013 0.112 0.009 0.217 0.016 0.302 0.016l0.579 0.004c0.097 0.001 0.187 0.015 0.278 0.029 0.098 0.015 0.196 0.030 0.3 0.032l0.217 0.008c0.301 0.012 0.612 0.024 0.902-0.018 0.375-0.055 0.711-0.036 1.037-0.087 0.076-0.012 0.151-0.024 0.232-0.029 0.138-0.006 0.272-0.015 0.406-0.024 0.259-0.017 0.505-0.036 0.791-0.034 0.182 0.001 0.365-0.001 0.547-0.002 0.181-0.001 0.362-0.002 0.545-0.001 0.55 0.002 1.101 0.004 1.651 0.004 0.294 0 0.585 0.002 0.89-0.012 0.22-0.010 0.447-0.020 0.65 0.004 0.080 0.010 0.161 0.037 0.246 0.066 0.061 0.020 0.121 0.041 0.183 0.057 0.28 0.070 0.572 0.156 0.836 0.302zM6.952 21.893c-0.17-0.081-0.339-0.163-0.507-0.248-0.295-0.151-0.6-0.306-0.917-0.436 1.274-0.061 2.562-0.045 3.816-0.024 0.84 0.013 1.71 0.030 2.563 0.018 0.453-0.006 0.909-0.030 1.364-0.054 0.884-0.047 1.793-0.085 2.681 0.010-0.040 0.013-0.079 0.029-0.119 0.040-0.132 0.038-1.604 0.352-1.969 0.419-0.267 0.048-0.56 0.039-0.843 0.031-0.114-0.004-0.228-0.007-0.341-0.007-0.347 0.005-0.689 0.065-1.018 0.129-0.335 0.065-0.655 0.122-0.974 0.123-1.164-0.016-2.387-0.016-3.738-0.002zM2.957 22.396l-0.091-0.031c-0.132-0.043-0.377-0.125-0.412-0.228-0.029-0.086 0.137-0.246 0.227-0.332l0.049-0.048c0.009-0.010 0.008-0.024 0.014-0.034 0.243 0.058 0.486 0.114 0.729 0.166 0.497 0.107 1.010 0.216 1.502 0.381 0.986 0.331 1.881 0.816 2.713 1.285 0.377 0.213 0.771 0.429 1.189 0.654-1.303-0.458-2.731-0.9-3.932-1.208-0.736-0.188-1.387-0.386-1.987-0.604zM6.237 24.574c-0.040-0.031-0.078-0.061-0.12-0.082-0.206-0.106-0.431-0.19-0.65-0.271-0.148-0.056-0.295-0.11-0.435-0.172-0.239-0.105-0.482-0.218-0.724-0.332-0.176-0.082-0.351-0.164-0.524-0.242-0.042-0.019-0.097-0.038-0.158-0.060-0.088-0.030-0.252-0.086-0.286-0.132-0.029-0.043-0.016-0.221-0.009-0.307 0.002-0.032 0.002-0.057 0.004-0.086 0.474 0.157 0.969 0.307 1.523 0.449 1.898 0.488 4.363 1.309 5.995 1.999 0.022 0.009 0.045 0.013 0.068 0.013 0.028 0 0.054-0.010 0.079-0.023l0.017 0.009c0.033 0.017 0.068 0.035 0.101 0.052-0.34 0.020-0.688 0.036-0.963-0.040-0.633-0.175-1.324-0.191-1.993-0.207-0.213-0.005-0.425-0.010-0.632-0.020-0.203-0.010-0.415-0.039-0.62-0.069 0 0-0.001 0-0.001 0-0.040-0.073-0.129-0.168-0.33-0.287-0.083-0.049-0.162-0.092-0.25-0.131-0.032-0.014-0.061-0.036-0.093-0.062zM0.625 25.938c-0.012 0-0.020 0.010-0.031 0.013-0.039-0.012-0.080-0.023-0.125-0.044-0.030-0.066-0.077-0.108-0.117-0.142-0.004-0.013-0.004-0.048 0-0.084 0.036-0.033 0.051-0.084 0.046-0.139 0.008 0.006 0.017 0.012 0.025 0.018 0.134 0.1 0.216 0.16 0.285 0.346 0.006 0.017 0.008 0.022 0.011 0.034-0.031 0-0.062-0.003-0.094-0.002zM18.616 29.156c-0.089 0.004-0.179 0.008-0.273 0.013-0.342 0.020-0.696 0.041-0.982-0.014-0.435-0.083-0.889-0.076-1.329-0.069-0.136 0.002-0.272 0.005-0.408 0.005l-0.065-0.001c-0.355-0.002-0.692-0.003-1.036-0.060-0.199-0.033-0.397-0.041-0.589-0.048-0.186-0.007-0.363-0.013-0.537-0.042-0.135-0.023-0.271-0.043-0.407-0.064-0.436-0.067-0.886-0.135-1.303-0.251-0.262-0.072-0.535-0.114-0.8-0.155-0.154-0.023-0.308-0.047-0.46-0.077-0.242-0.047-0.473-0.044-0.699-0.042-0.091 0.001-0.182 0.002-0.276-0.001-0.202-0.005-0.415-0.035-0.621-0.064-0.119-0.016-0.238-0.034-0.355-0.045-0.571-0.060-1.159-0.046-1.727-0.033-0.244 0.006-0.487 0.012-0.727 0.012-0.186 0-0.369-0.016-0.551-0.034-0.17-0.016-0.34-0.032-0.512-0.034-0.161-0.003-0.322 0.002-0.483 0.006-0.182 0.005-0.365 0.009-0.547 0.005-0.263-0.007-0.527 0.012-0.783 0.029-0.217 0.015-0.435 0.030-0.654 0.030-0.002 0-0.004 0-0.006 0l-0.107-0.001c0.007-0.012 0.012-0.025 0.017-0.038 0.018-0.059 0.003-0.124-0.038-0.17-0.006-0.006-0.012-0.012-0.018-0.018 0.383-0.012 0.764-0.030 1.139-0.047 0.726-0.034 1.475-0.069 2.215-0.061 0.95 0.010 1.919 0.055 2.855 0.098 1.286 0.059 2.613 0.119 3.923 0.094 0.085 0.005 0.17 0.004 0.252-0.008 0.092-0.012 0.158-0.095 0.151-0.187-0.008-0.093-0.085-0.168-0.179-0.16-0.073 0.002-0.146 0.004-0.219 0.005-0.177-0.012-0.373-0.062-0.564-0.11-0.11-0.029-0.216-0.055-0.315-0.074-0.165-0.033-0.328-0.079-0.491-0.124-0.169-0.047-0.337-0.094-0.509-0.128-0.164-0.033-0.327-0.074-0.491-0.114-0.199-0.050-0.398-0.099-0.597-0.135-0.227-0.041-0.46-0.059-0.685-0.076-0.217-0.016-0.441-0.033-0.652-0.072l-0.22-0.040c-0.408-0.075-0.83-0.154-1.244-0.181-0.221-0.015-0.417-0.042-0.655-0.090-0.126-0.026-0.248-0.030-0.365-0.033-0.097-0.002-0.194-0.005-0.29-0.023-0.084-0.016-0.165-0.042-0.245-0.068-0.114-0.036-0.233-0.074-0.363-0.090-0.129-0.017-0.263 0.003-0.39-0.020-0.449-0.082-0.849-0.117-1.342-0.11-0.389 0-0.75-0.070-1.139-0.15-0.274-0.056-0.555-0.11-0.844-0.136-0.004-0.051-0.016-0.108-0.040-0.174-0.086-0.231-0.199-0.344-0.32-0.441 0.007-0.001 0.014-0.002 0.021-0.002 0.099-0.013 0.207-0.008 0.321-0.002 0.078 0.004 0.156 0.006 0.232 0.006 0.26-0.004 0.52-0.002 0.781 0.001 0.187 0.002 0.375 0.005 0.561 0.002 0.326 0.001 0.652 0.002 0.978 0.004 0.535 0.005 1.070 0.008 1.603-0.004l0.307-0.009c0.302-0.010 0.616-0.021 0.904 0.006 0.146 0.013 0.292 0.034 0.438 0.055 0.213 0.030 0.433 0.061 0.651 0.072 0.21 0.010 0.424 0.015 0.64 0.021 0.647 0.015 1.316 0.031 1.908 0.195 0.347 0.096 0.748 0.072 1.136 0.049 0.156-0.009 0.307-0.019 0.447-0.019 0.006-0.001 0.014-0.002 0.020 0 0.020 0 0.034-0.015 0.052-0.022 0.334 0.165 0.674 0.323 1.026 0.448 0.618 0.221 1.271 0.348 1.902 0.472l0.46 0.091c0.012 0.002 0.024 0.004 0.036 0.004 0.081 0 0.154-0.057 0.171-0.14 0.019-0.094-0.041-0.186-0.136-0.206l-0.463-0.094c-0.619-0.121-1.259-0.246-1.852-0.457-0.577-0.206-1.139-0.501-1.682-0.786l-0.323-0.169c-1.208-0.626-2.132-1.122-2.996-1.609-0.847-0.477-1.759-0.97-2.773-1.312-0.51-0.172-1.034-0.283-1.54-0.392-0.308-0.066-0.617-0.132-0.924-0.212l-0.061-0.015c-0.26-0.066-0.696-0.177-0.752-0.416-0.038-0.164 0.119-0.376 0.25-0.541 0.537 0.214 1.090 0.393 1.627 0.567 0.565 0.182 1.148 0.371 1.704 0.598 0.305 0.124 0.606 0.278 0.897 0.426 0.228 0.116 0.456 0.233 0.689 0.337 0.318 0.144 0.64 0.279 0.961 0.415 0.242 0.102 0.484 0.204 0.724 0.309 0.119 0.052 0.241 0.099 0.361 0.15 0.001 0 0.001 0 0.001 0 0.319 0.135 0.637 0.269 0.959 0.399 0.748 0.303 1.522 0.615 2.247 0.986 0.996 0.51 2.074 0.81 3.408 0.943 0.657 0.066 1.278 0.129 1.938 0.048 0.209-0.026 0.419-0.049 0.629-0.072 0.27-0.029 0.54-0.059 0.81-0.094-0.031 0.075-0.072 0.149-0.098 0.225-0.475 1.387-0.453 2.866-0.299 3.553zM19.015 29.28c-0.191-0.424-0.281-2.064 0.231-3.563 0.255-0.745 0.767-1.437 1.388-1.954-0.040 0.073-0.085 0.144-0.136 0.218-0.041 0.059-0.082 0.118-0.118 0.18-0.33 0.542-0.478 1.271-0.386 1.905 0.012 0.087 0.087 0.15 0.172 0.15 0.008 0 0.017-0.001 0.025-0.002 0.096-0.013 0.162-0.103 0.148-0.198-0.079-0.548 0.054-1.204 0.339-1.673 0.034-0.055 0.070-0.109 0.108-0.162 0.086-0.125 0.174-0.253 0.233-0.407 0.013-0.036 0.025-0.089 0.037-0.148 0.010-0.048 0.030-0.15 0.022-0.156 0.033-0.015 0.050-0.044 0.068-0.073 0.214-0.133 0.435-0.236 0.657-0.323-0.078 0.113-0.15 0.231-0.216 0.347-0.068 0.121-0.136 0.242-0.215 0.352-0.304 0.419-0.52 0.807-0.591 1.34-0.074 0.556-0.047 1.155 0.082 1.83 0.016 0.084 0.089 0.142 0.171 0.142 0.011 0 0.022-0.001 0.033-0.004 0.095-0.017 0.157-0.11 0.139-0.204-0.122-0.639-0.147-1.2-0.079-1.719 0.061-0.461 0.247-0.794 0.527-1.18 0.087-0.121 0.162-0.253 0.236-0.385 0.087-0.156 0.17-0.302 0.273-0.427 0.064-0.079 0.164-0.119 0.279-0.167l0.056-0.024c0.045-0.019 0.077-0.056 0.094-0.098 0.024-0.002 0.049-0.012 0.073-0.012 0.517-0.033 0.805-0.024 0.967-0.008-0.56 0.53-0.71 1.478-0.799 2.064-0.026 0.174-0.048 0.321-0.075 0.419-0.171 0.616-0.187 1.971-0.036 2.959 0.013 0.086 0.087 0.148 0.172 0.148 0.009 0 0.018 0 0.027-0.002 0.096-0.014 0.161-0.104 0.146-0.199-0.158-1.031-0.113-2.31 0.027-2.813 0.030-0.108 0.055-0.269 0.084-0.46 0.115-0.764 0.309-2.042 1.311-2.15 0.722-0.080 2.202 0.177 3.132 0.466 0.583 0.181 1.105 0.151 1.567 0.124 0.279-0.016 0.542-0.032 0.788 0.001 0.664 0.088 3.217 0.565 3.987 0.736 0.242 0.054 0.63 0.135 1.078 0.23 0.949 0.201 2.128 0.45 2.797 0.617 0.488 0.122 1.681 0.396 2.763 0.643l-0.213 0.030c-1.793 0.254-4.251 0.601-4.95 2.543-0.185 0.513-0.203 1.007-0.109 1.47 0.003 0.686 0.067 1.049 0.131 1.396 0.041 0.227 0.081 0.441 0.104 0.746 0.001 0.015 0.004 0.033 0.005 0.048-0.228-0.77-0.461-1.444-0.644-1.728-0.072-0.128-0.153-0.246-0.228-0.353-0.011-0.015-0.024-0.030-0.040-0.041-0.394-0.285-0.732-0.414-1.108-0.433-0.006-0.15-0.010-0.297-0.026-0.446-0.023-0.213-0.012-0.445 0.029-0.606 0.029-0.115 0.059-0.232 0.091-0.35 0.016-0.060 0.026-0.118 0.036-0.176 0.012-0.073 0.022-0.135 0.047-0.197l0.043-0.099c0.053-0.122 0.108-0.248 0.134-0.404 0.018-0.107 0.020-0.213 0.021-0.319 0.001-0.057 0.001-0.114 0.005-0.172 0.007-0.097-0.065-0.181-0.161-0.188-0.094-0.006-0.18 0.066-0.187 0.161-0.005 0.066-0.005 0.131-0.006 0.195-0.001 0.087-0.001 0.175-0.016 0.263-0.019 0.114-0.061 0.21-0.11 0.322l-0.044 0.104c-0.042 0.1-0.057 0.193-0.070 0.276-0.007 0.046-0.013 0.092-0.027 0.14-0.032 0.118-0.063 0.239-0.092 0.356-0.051 0.202-0.064 0.473-0.037 0.728 0.015 0.139 0.020 0.277 0.026 0.416-0.108 0.012-0.217 0.026-0.33 0.042-0.143 0.021-0.296 0.043-0.466 0.058l-0.175 0.013c-0.241 0.018-0.468 0.035-0.715 0.096-0.181 0.044-0.365 0.060-0.561 0.076-0.073 0.006-0.146 0.012-0.219 0.020-0.658 0.068-1.254 0.165-1.773 0.291-0.493 0.119-0.967 0.325-1.424 0.523l-0.117 0.051c-0.185 0.080-0.375 0.174-0.562 0.278-0.165-0.214-0.535-0.693-0.726-0.926-0.112-0.136-0.282-0.294-0.446-0.446-0.153-0.142-0.383-0.355-0.413-0.429-0.014-0.049-0.048-0.084-0.090-0.106-0.055-0.079-0.124-0.144-0.216-0.185-0.449-0.199-1.203 0.119-1.949 0.493-0.061 0.031-0.111 0.056-0.147 0.073-0.489 0.228-0.986 0.439-1.484 0.649-0.467 0.198-0.945 0.407-1.416 0.625-0.006-0.004-0.007-0.012-0.014-0.015-0.325-0.153-0.722-0.732-0.945-1.226zM46.941 33.092c-0.289 0.54-1.696 2.239-3.422 2.643-1.807 0.422-3.402 0.070-5.010-0.364-1.278-0.344-1.519-0.681-1.663-0.883-0.040-0.055-0.075-0.102-0.114-0.141-0.153-0.16-0.757-1.756-0.818-2.551-0.025-0.323-0.068-0.556-0.11-0.782-0.016-0.091-0.033-0.182-0.048-0.278 0.608 0.988 1.675 1.748 2.547 2.117 0.9 0.381 1.916 0.583 2.937 0.583 0.001 0 0.001 0 0.001 0 1.421 0 2.779-0.397 3.822-1.116 0.922-0.636 1.482-1.539 1.627-2.479 0.062 0.363 0.105 0.789 0.105 1.292 0 0.122 0.036 0.307 0.082 0.54 0.087 0.449 0.22 1.127 0.062 1.419zM48.851 34.844c0.461 0.911-0.161 2.056-0.993 2.506-0.242 0.1-0.492 0.209-0.748 0.321-1.47 0.643-3.138 1.369-5.112 0.974-0.246-0.42-0.56-0.781-0.794-1.049-0.022-0.025-0.050-0.043-0.081-0.052-0.056-0.016-0.11-0.050-0.17-0.085-0.051-0.031-0.103-0.061-0.156-0.085-0.078-0.035-0.159-0.060-0.242-0.084-0.067-0.020-0.134-0.040-0.199-0.069l-0.112-0.050c-0.312-0.14-0.636-0.286-0.986-0.366-0.154-0.035-0.308-0.064-0.463-0.094-0.233-0.044-0.473-0.090-0.702-0.155-0.129-0.036-0.262-0.059-0.396-0.080-0.009-0.027-0.012-0.056-0.034-0.076-0.192-0.183-0.19-0.443-0.188-0.743 0.001-0.089-0.007-0.184-0.010-0.277 0.244 0.11 0.547 0.221 0.956 0.331 1.123 0.302 2.241 0.567 3.434 0.567 0.562 0 1.143-0.059 1.747-0.201 1.513-0.354 2.75-1.585 3.339-2.36 0.75 0.128 1.507 0.329 1.913 1.129zM26.524 30.975l-0.051 0.037c-0.235 0.17-0.457 0.33-0.727 0.476l-0.169 0.117c-0.488 0.333-1.208 0.834-1.123 1.493-0.016 0.033-0.030 0.066-0.024 0.105 0.036 0.214 0.094 0.461 0.155 0.717 0.097 0.41 0.197 0.834 0.216 1.173 0.016 0.292 0.079 0.693 0.156 1.070h-0.259c-0.038 0-0.079-0.002-0.118-0.004-0.093-0.004-0.189-0.008-0.277 0.004-0.251 0.031-0.52 0.031-0.778 0.031-0.031-0.263-0.13-0.543-0.373-0.805-0.36-0.389-1.691-1.557-2.441-2.209-0.096-0.13-0.223-0.249-0.387-0.351-0.007-0.005-0.015-0.008-0.023-0.012 0.047-0.022 0.101-0.047 0.168-0.078 0.181-0.084 0.385-0.18 0.489-0.219 0.137-0.051 0.265-0.126 0.389-0.198 0.079-0.046 0.157-0.091 0.235-0.129 0.128-0.061 0.26-0.115 0.392-0.169 0.107-0.043 0.214-0.087 0.32-0.135 0.048-0.022 0.098-0.043 0.148-0.062 0.080-0.033 0.161-0.065 0.237-0.105 0.064-0.033 0.132-0.058 0.199-0.083 0.104-0.039 0.212-0.080 0.316-0.147 0.102-0.065 0.184-0.135 0.269-0.207 0.047-0.040 0.094-0.081 0.146-0.121 0.036-0.028 0.070-0.058 0.104-0.086 0.034-0.030 0.068-0.061 0.112-0.091 0.405-0.287 1.219-0.928 1.42-1.528 0.061 0.059 0.13 0.123 0.208 0.196 0.156 0.144 0.316 0.293 0.413 0.411 0.18 0.22 0.523 0.662 0.696 0.886-0.010 0.009-0.023 0.014-0.034 0.023zM26.678 31.295l0.051-0.037c0.257-0.185 0.552-0.323 0.833-0.445l0.118-0.051c0.444-0.192 0.903-0.392 1.367-0.503 0.504-0.122 1.085-0.217 1.728-0.283 0.071-0.008 0.142-0.013 0.212-0.019 0.2-0.017 0.407-0.035 0.615-0.086 0.218-0.054 0.432-0.069 0.658-0.086l0.179-0.014c0.178-0.015 0.337-0.038 0.487-0.061 0.154-0.022 0.29-0.039 0.424-0.047 0.013 0.004 0.025 0.012 0.038 0.012 0.016 0 0.033-0.002 0.049-0.007 0.008-0.002 0.011-0.009 0.017-0.012 0.001 0 0.002 0 0.004 0 0.233 0 0.531 0.043 0.975 0.358 0.061 0.089 0.117 0.172 0.165 0.254 0.008 0.009 0.007 0.022 0.016 0.030 0.004 0.003 0.008 0.010 0.011 0.013 0.164 0.289 0.217 0.544 0.036 0.856-0.125 0.215-0.286 0.405-0.454 0.537-0.075 0.058-0.153 0.108-0.231 0.158-0.114 0.072-0.231 0.147-0.325 0.232-0.81 0.569-1.474 0.95-2.149 1.236-1.841 0.776-3.604 1.013-5.117 0.684-0.359-0.079-1.453-0.316-1.581-0.921-0.1-0.466 0.547-0.908 0.974-1.2 0.064-0.043 0.123-0.084 0.156-0.11 0.27-0.146 0.501-0.313 0.746-0.49zM24.925 33.84c-0.001-0.005-0.002-0.010-0.004-0.015 0.387 0.281 0.936 0.433 1.386 0.531 0.464 0.101 0.956 0.153 1.46 0.153 1.217 0 2.518-0.288 3.867-0.856 0.7-0.296 1.384-0.688 2.232-1.285 0.087-0.079 0.188-0.143 0.295-0.21 0.087-0.056 0.175-0.112 0.259-0.177 0.202-0.158 0.394-0.384 0.541-0.637 0.022-0.037 0.032-0.072 0.049-0.108 0.319 0.97 0.736 2.539 1.081 4.023 0.001 0.008 0.107 0.799-2.145 2.134-2.336 1.384-6.062 1.146-7.152 0.819-0.964-0.29-1.161-0.886-1.281-1.246-0.123-0.371-0.334-1.349-0.364-1.891-0.019-0.371-0.122-0.809-0.223-1.235zM36.432 35.183c-0.055-0.235-0.178-0.752-0.333-1.37 0.147 0.382 0.291 0.685 0.388 0.781 0.026 0.027 0.049 0.061 0.076 0.098 0.083 0.117 0.197 0.274 0.453 0.446-0.020 0.037-0.030 0.083-0.018 0.128 0.016 0.064 0.065 0.11 0.124 0.125 0.004 0.086 0.004 0.174 0.002 0.26-0.002 0.254-0.004 0.533 0.129 0.78-0.089-0.005-0.168-0.015-0.265-0.016-0.242-0.001-0.484-0.009-0.725-0.017-0.136-0.005-0.274-0.008-0.41-0.011 0.666-0.709 0.595-1.141 0.579-1.205zM44.867 32.033c-0.985 0.68-2.272 1.054-3.624 1.054h-0.001c-0.975 0-1.944-0.192-2.802-0.555-1.074-0.454-2.475-1.539-2.761-2.892 0-0.001 0-0.001 0-0.001v-0.001c-0.087-0.415-0.074-0.853 0.089-1.308 0.629-1.743 2.964-2.074 4.67-2.315l0.323-0.049 0.205 0.006c0.474 0.013 0.943 0.027 1.397 0.065 0.206 0.046 0.336 0.075 0.343 0.077 0.048 0.012 0.096-0.001 0.134-0.026 1.215 0.158 2.297 0.563 3.068 1.72 1.051 1.577 0.271 3.319-1.042 4.225zM16.289 33.282c0.195-0.28 0.482-0.486 0.81-0.707 1.052-0.711 1.932-1.228 2.768-1.627 0.545-0.26 1.112-0.499 1.66-0.732 0.492-0.209 1.002-0.424 1.496-0.654 0.038-0.018 0.091-0.044 0.156-0.077 0.352-0.177 1.29-0.646 1.651-0.486 0.058 0.026 0.093 0.068 0.112 0.138 0.101 0.363-0.613 1.066-1.325 1.57-0.048 0.034-0.091 0.072-0.135 0.11-0.028 0.024-0.056 0.049-0.086 0.072-0.058 0.045-0.11 0.089-0.161 0.133-0.073 0.062-0.143 0.124-0.23 0.179-0.074 0.047-0.16 0.080-0.252 0.114-0.080 0.030-0.159 0.061-0.235 0.1-0.067 0.034-0.138 0.062-0.209 0.091-0.054 0.022-0.108 0.044-0.161 0.068-0.102 0.045-0.205 0.088-0.308 0.13-0.138 0.057-0.276 0.112-0.41 0.177-0.086 0.041-0.173 0.091-0.26 0.142-0.116 0.068-0.226 0.132-0.335 0.172-0.11 0.041-0.325 0.141-0.515 0.23-0.15 0.070-0.283 0.133-0.327 0.147-0.038 0.010-0.065 0.037-0.088 0.067-0.293-0.104-0.622-0.16-0.993-0.16-0.31 0-0.644 0.038-0.966 0.112-0.629 0.143-1.307 0.52-1.796 0.966 0.044-0.094 0.082-0.191 0.141-0.276zM11.62 39.697c-0.003-0.017-0.019-0.025-0.026-0.039-0.113-0.29-0.029-0.623 0.015-0.76 0.227-0.703 0.744-1.335 1.27-1.913 0.26-0.286 1.41-1.298 2.25-2.036 0.772-0.679 0.984-0.866 1.051-0.943v0.001c0.432-0.483 1.19-0.924 1.844-1.073 0.781-0.179 1.56-0.114 2.064 0.174 0.086 0.075 0.213 0.185 0.365 0.317 0.061 0.094 0.098 0.195 0.108 0.307 0.070 0.861-1.336 2.088-1.937 2.611l-0.887 0.789c-0.439 0.393-0.879 0.786-1.323 1.174-0.547 0.477-1.286 1.074-2.147 1.456-0.608 0.27-1.15 0.407-1.608 0.407-0.214 0-0.412-0.030-0.591-0.090-0.238-0.080-0.369-0.217-0.445-0.372 0-0.004 0-0.006-0.001-0.010zM14.611 43.792c-0.307-0.277-1.804-1.644-2.426-2.614-0.305-0.474-0.429-0.72-0.484-0.888 0.078 0.047 0.16 0.089 0.254 0.12 0.214 0.072 0.45 0.109 0.702 0.109 0.507 0 1.095-0.147 1.749-0.438 0.904-0.401 1.669-1.019 2.235-1.513 0.445-0.388 0.886-0.783 1.326-1.176l0.884-0.787c0.668-0.584 2.028-1.773 2.054-2.786 0.745 0.652 1.701 1.502 1.987 1.81 0.4 0.431 0.322 0.914 0.179 1.372-0.070 0.223-0.399 0.809-0.69 1.326-0.195 0.348-0.38 0.676-0.48 0.883-0.114 0.235-0.422 0.509-0.849 0.888-0.421 0.373-0.946 0.838-1.542 1.49-1.662 1.816-4.421 2.157-4.899 2.203zM27.628 43.821c-0.844 0.214-1.731 0.326-2.589 0.435l-0.443 0.057c-0.766 0.1-1.582 0.163-2.349-0.045-0.36-0.098-0.682-0.283-1.021-0.478-0.199-0.115-0.406-0.233-0.621-0.333-0.602-0.278-1.051-0.518-1.344-1.080-0.009-0.016-0.022-0.027-0.034-0.039 0.187-0.158 0.37-0.325 0.54-0.51 0.584-0.639 1.101-1.097 1.517-1.464 0.045-0.040 0.084-0.075 0.127-0.114 0.119 0.298 0.316 0.461 0.893 0.577 0.446 0.089 1.48 0.134 3.075 0.134 0.779 0 1.976-0.134 2.76-0.428 0.058-0.022 0.995-0.377 1.65-0.781-0.020 0.077-0.045 0.153-0.055 0.233-0.020 0.154-0.006 0.307 0.023 0.459-0.009 0.024-0.025 0.045-0.023 0.072 0.022 0.236 0.058 0.549 0.096 0.88 0.052 0.453 0.11 0.949 0.136 1.314-0.676 0.447-1.427 0.883-2.339 1.115zM28.016 40.202c-0.744 0.279-1.888 0.407-2.637 0.407-1.958 0-2.716-0.069-3.007-0.128-0.564-0.113-0.601-0.233-0.674-0.47-0.002-0.007-0.010-0.009-0.013-0.015 0.247-0.231 0.434-0.432 0.531-0.633 0.095-0.196 0.277-0.521 0.47-0.863 0.313-0.558 0.637-1.135 0.718-1.393 0.040-0.129 0.1-0.328 0.122-0.561 0.023 0.001 0.045 0.001 0.069 0.001 0.247 0 0.501-0.004 0.747-0.034 0.071-0.009 0.147-0.005 0.222-0.002 0.045 0.002 0.089 0.004 0.132 0.004h0.336c0.053 0.23 0.107 0.433 0.151 0.568 0.13 0.393 0.373 1.123 1.51 1.466 0.48 0.144 1.401 0.272 2.491 0.272 0.344 0 0.707-0.015 1.076-0.044-0.055 0.084-0.107 0.17-0.16 0.259-0.008 0.012-0.023 0.017-0.029 0.032-0.077 0.22-1.056 0.762-2.056 1.136zM30.656 38.807l0.050-0.075c0-0.001 0-0.001 0-0.001 1.182-0.134 2.411-0.441 3.417-1.037 0.627-0.371 1.086-0.708 1.421-1.006 0.029 0.023 0.061 0.043 0.101 0.043 0.202 0.003 0.403 0.010 0.604 0.016 0.245 0.008 0.491 0.016 0.736 0.017 0.394 0.002 0.706 0.041 1.010 0.128 0.242 0.069 0.491 0.116 0.732 0.161 0.15 0.029 0.302 0.058 0.45 0.091 0.316 0.072 0.61 0.204 0.921 0.343l0.114 0.051c0.078 0.036 0.159 0.061 0.241 0.084 0.068 0.020 0.135 0.040 0.198 0.068 0.042 0.019 0.081 0.043 0.121 0.066 0.058 0.035 0.123 0.073 0.197 0.103 0.424 0.487 0.833 1.020 0.991 1.578 0.012 0.105 0.036 0.304 0.065 0.564-0.015 0.223-0.074 0.449-0.207 0.677-0.65 1.11-2.198 1.431-3.307 1.576-1.391 0.182-2.892 0.218-4.341 0.108-1.090-0.084-2.653-0.302-3.626-1.221-0.248-0.234-0.53-0.618-0.466-1.116 0.058-0.437 0.322-0.834 0.577-1.22zM42.251 44.142c-0.8 1.037-3.748 1.388-6.117 1.669l-0.507 0.061c-2.669 0.323-4.305-0.783-5.041-1.469-0.311-0.29-0.291-0.635-0.267-1.033 0.006-0.109 0.013-0.218 0.013-0.328 0-0.057-0.005-0.134-0.009-0.206 0.004-0.013-0.002-0.027-0.002-0.041-0.022-0.377-0.083-0.911-0.144-1.441-0.005-0.041-0.009-0.078-0.013-0.118 0.047 0.054 0.087 0.111 0.141 0.162 1.053 0.996 2.696 1.228 3.84 1.316 0.554 0.043 1.116 0.064 1.677 0.064 0.929 0 1.854-0.058 2.736-0.173 1.181-0.155 2.836-0.504 3.563-1.747 0.001-0.003 0.002-0.006 0.005-0.009 0.111 0.961 0.249 2.116 0.315 2.59 0.036 0.26-0.025 0.491-0.19 0.704zM48.964 39.471c-0.258 0.265-2.211 2.111-6.383 2.26-0.073-0.611-0.147-1.247-0.2-1.716 0.013-0.232-0.016-0.459-0.079-0.676-0.001-0.011-0.002-0.026-0.002-0.027-0.004-0.027-0.013-0.052-0.027-0.075-0.024-0.070-0.050-0.14-0.080-0.209 0.323 0.050 0.64 0.082 0.946 0.082 1.555 0 2.898-0.588 4.112-1.119 0.253-0.111 0.499-0.218 0.757-0.326 0.444-0.239 0.82-0.634 1.066-1.090 0.026 0.37 0.055 0.764 0.066 0.948 0.052 0.785-0.129 1.729-0.175 1.947zM52.064 36.061c-0.473-0.095-1.058-0.273-1.576-0.429-0.608-0.183-0.964-0.287-1.148-0.294-0.022-0.22-0.069-0.44-0.177-0.651-0.446-0.879-1.245-1.143-2.002-1.286 0.030-0.048 0.068-0.104 0.089-0.142 0.216-0.401 0.081-1.094-0.029-1.651-0.038-0.198-0.075-0.383-0.075-0.473 0-1.035-0.163-1.914-0.484-2.613-0.013-0.028-0.040-0.041-0.064-0.059-0.089-0.294-0.218-0.579-0.399-0.849-0.943-1.415-2.321-1.796-3.779-1.923-0.984-0.221-3.696-0.834-4.498-1.034-0.674-0.168-1.858-0.418-2.808-0.619-0.446-0.094-0.833-0.177-1.074-0.23-0.775-0.173-3.347-0.652-4.017-0.742-0.278-0.036-0.558-0.020-0.854-0.004-0.453 0.026-0.921 0.054-1.444-0.11-0.96-0.298-2.485-0.565-3.273-0.479-0.165 0.018-0.312 0.061-0.444 0.121-0.101-0.060-0.309-0.103-0.749-0.103 0.020-0.433 0.343-2.2 0.824-2.761l0.103-0.121c0.515-0.608 1.456-1.691 2.621-1.682-0.068 0.132-0.125 0.269-0.179 0.402-0.035 0.085-0.070 0.171-0.107 0.253-0.255 0.565-0.805 2.037-0.942 2.607-0.022 0.094 0.036 0.188 0.129 0.21 0.013 0.004 0.027 0.005 0.041 0.005 0.079 0 0.15-0.054 0.17-0.134 0.132-0.554 0.67-1.991 0.92-2.544 0.039-0.086 0.075-0.175 0.112-0.264 0.224-0.548 0.389-0.884 0.926-0.905 0.396-0.017 1.050 0.043 1.741 0.104 0.656 0.059 1.334 0.119 1.841 0.119 0.908 0 1.872 0.179 2.311 0.367-0.289 0.181-0.485 0.442-0.674 0.702l-0.032 0.044c-0.233 0.319-0.433 0.868-0.628 1.4-0.104 0.286-0.203 0.556-0.3 0.773-0.040 0.087-0.001 0.191 0.087 0.231 0.023 0.010 0.047 0.015 0.072 0.015 0.066 0 0.13-0.038 0.159-0.103 0.103-0.228 0.203-0.504 0.31-0.797 0.185-0.508 0.377-1.033 0.581-1.313l0.032-0.044c0.322-0.442 0.576-0.791 1.268-0.791 0.728 0 2.674 0.523 2.919 0.59 0.639 0.669 1.338 1.373 1.908 1.858 1.034 0.88 4.511 4.245 5.995 5.683l0.573 0.555c0.531 0.509 1.527 1.671 2.018 2.528 0.499 0.875 1.183 1.434 2.438 1.996 0.773 0.346 1.943 1.709 2.796 2.704 0.41 0.477 0.764 0.889 1.004 1.113 0.352 0.326 0.573 0.632 0.808 0.956 0.083 0.115 0.171 0.233 0.262 0.352-0.823-0.124-2.586-0.393-3.304-0.537zM69.79 39.66c0.397 0.199 0.769 0.663 1.098 1.073 0.258 0.323 0.481 0.601 0.693 0.722 0.397 0.228 1.292 1.503 1.681 2.058 0.568 0.813 1.606 2.222 2.168 2.535 0.363 0.202 1.879 2.138 2.221 3.548 0.1 0.412 0.084 0.72-0.048 0.918-0.202 0.304-0.563 0.434-1.081 0.392-0.916-0.078-1.847-0.662-1.963-0.925-0.179-0.401 0.075-1.201 0.188-1.476 0.036-0.089-0.006-0.192-0.096-0.228-0.089-0.037-0.191 0.006-0.228 0.095-0.047 0.112-0.433 1.097-0.197 1.71-0.502-0.003-1.003-0.297-1.289-0.463-0.069-0.040-0.126-0.073-0.168-0.094-0.511-0.256-1.722-1.313-1.671-1.876 0.059-0.651 0.6-2.454 1.82-2.509 0.096-0.005 0.171-0.086 0.166-0.182-0.005-0.094-0.081-0.167-0.174-0.167-0.002 0-0.006 0-0.008 0-1.329 0.060-1.983 1.721-2.128 2.64-0.093-0.013-0.376-0.18-0.589-0.545-0.195-0.333-0.35-0.869 0.022-1.525 0.048-0.084 0.018-0.191-0.066-0.238-0.084-0.045-0.191-0.017-0.239 0.066-0.321 0.57-0.305 1.067-0.2 1.436-0.501-0.117-0.858-0.591-1.083-0.89-0.037-0.051-0.072-0.096-0.103-0.134-0.043-0.054-0.107-0.122-0.183-0.203-0.362-0.38-0.967-1.017-0.768-1.753 0.276-1.020 2.16-1.799 2.178-1.807 0.090-0.036 0.132-0.138 0.096-0.228s-0.139-0.132-0.228-0.096c-0.084 0.035-2.063 0.853-2.384 2.040-0.098 0.36-0.045 0.693 0.074 0.991-0.577-0.186-1.137-0.406-1.546-0.714-0.188-0.14-0.357-0.291-0.534-0.446-0.294-0.259-0.597-0.528-1.028-0.802-0.103-0.065-2.5-1.592-3.212-2.162-0.157-0.125-0.367-0.277-0.594-0.443-0.632-0.458-1.495-1.085-1.649-1.47-0.467-1.166 0.248-3.361 1.032-3.75 0.086-0.043 0.122-0.147 0.079-0.234-0.042-0.087-0.148-0.122-0.233-0.079-0.903 0.447-1.552 2.429-1.321 3.748-0.129-0.055-0.258-0.111-0.382-0.16-0.547-0.217-1.063-0.423-1.638-0.954-0.4-0.368-0.646-0.71-0.884-1.039-0.234-0.324-0.475-0.658-0.854-1.007-0.227-0.21-0.573-0.615-0.977-1.084-0.924-1.077-2.074-2.416-2.918-2.794-1.18-0.528-1.818-1.048-2.277-1.851-0.53-0.926-1.553-2.103-2.079-2.607l-0.572-0.553c-1.488-1.44-4.968-4.81-6.012-5.698-0.931-0.791-2.281-2.25-3.005-3.033-0.245-0.265-0.43-0.464-0.521-0.556-0.297-0.297-2.162-3.445-1.156-4.993 0.632-0.972 1.799-2.484 2.793-2.199-0.625 0.337-1.259 0.795-1.5 0.976-0.078 0.058-0.093 0.168-0.036 0.245s0.167 0.091 0.245 0.035c0.715-0.535 1.677-1.152 2.237-1.277 0.545-0.125 2.149 0.394 2.718 1.143-0.857-0.154-2.173 0.173-3.048 0.843-1.15 0.879-1.637 2.041-2.049 3.632-0.024 0.093 0.032 0.189 0.125 0.213 0.093 0.023 0.189-0.032 0.213-0.125 0.394-1.518 0.852-2.624 1.923-3.442 1.042-0.798 2.685-1.028 3.198-0.622 0.231 0.182 0.381 0.339 0.515 0.478 0.213 0.223 0.397 0.416 0.78 0.544 0.449 0.15 1.267 0.65 2.185 1.339 0.308 0.231 0.644 0.614 0.967 0.984 0.241 0.275 0.442 0.498 0.619 0.664-0.401 0.072-0.874 0.225-1.429 0.472-0.087 0.039-0.128 0.143-0.089 0.231s0.143 0.128 0.231 0.089c0.841-0.374 1.393-0.491 1.757-0.489 0.032 0.008 0.064 0.014 0.096 0.014 0.007 0 0.010-0.006 0.017-0.008 0.172 0.015 0.299 0.057 0.385 0.111 0.644 0.412 1.4 1.316 1.696 1.685 0.479 0.599 1.408 1.892 1.97 2.893 0.504 0.896 2.037 3.241 2.72 3.719 0.507 0.355 1.372 1.566 1.887 2.288l0.245 0.34c0.125 0.172 0.308 0.36 0.518 0.557-0.449-0.016-0.936 0.136-1.355 0.27l-0.237 0.074c-0.177 0.054-0.358 0.087-0.535 0.121-0.331 0.061-0.674 0.125-1.010 0.321-0.636 0.371-1.175 0.897-1.694 1.405-0.107 0.105-0.213 0.209-0.32 0.311-0.069 0.066-0.072 0.178-0.006 0.247 0.034 0.036 0.081 0.054 0.126 0.054 0.043 0 0.087-0.016 0.121-0.048 0.108-0.103 0.215-0.208 0.323-0.313 0.505-0.494 1.027-1.005 1.626-1.354 0.283-0.165 0.581-0.221 0.898-0.279 0.185-0.035 0.376-0.070 0.572-0.13l0.242-0.076c0.543-0.175 1.219-0.392 1.657-0.154 0.032 0.017 0.066 0.013 0.099 0.010 0.012 0.010 0.022 0.019 0.033 0.029 0.548 0.484 1.116 0.985 1.348 1.416 0.199 0.372 0.477 0.636 0.745 0.893 0.272 0.259 0.509 0.495 0.643 0.805-1-0.217-2.644 0.341-3.416 1.274-0.062 0.074-0.052 0.184 0.023 0.246 0.073 0.062 0.184 0.051 0.246-0.023 0.851-1.026 2.801-1.49 3.429-1.019 0.354 0.264 0.579 0.552 0.798 0.831 0.223 0.284 0.453 0.579 0.81 0.838 0.239 0.174 0.578 0.361 0.936 0.559 0.7 0.386 1.493 0.824 1.882 1.33 0.303 0.394 0.948 1 1.57 1.587 0.674 0.633 1.369 1.287 1.585 1.627 0.478 0.752 1.016 1.249 1.745 1.613zM82.319 37.184c0.325 0.286 0.536 0.764 0.501 0.985-0.004 0.020-0.010 0.045-0.020 0.050-0.114 0.050-0.459 0.136-0.823 0.23-0.554 0.14-1.181 0.299-1.451 0.433-0.297 0.149-1.201 0.6-3.086 0.6-1.815 0-8.385-1.003-8.581-1.059-0.033-0.016-0.067-0.012-0.101-0.006-0.143-0.168-0.282-0.349-0.417-0.559-0.239-0.376-0.919-1.017-1.64-1.694-0.614-0.576-1.247-1.173-1.534-1.545-0.432-0.563-1.26-1.020-1.99-1.423-0.348-0.192-0.677-0.374-0.899-0.535-0.319-0.231-0.523-0.494-0.741-0.771-0.232-0.297-0.473-0.603-0.863-0.895-0.012-0.009-0.029-0.012-0.040-0.019 0.17 0.034 0.355 0.057 0.554 0.078 0.378 0.038 0.806 0.083 1.164 0.241l0.294 0.133c0.392 0.178 0.812 0.362 1.193 0.485-0.266 0.214-0.505 0.604-0.471 0.853 0.012 0.087 0.086 0.151 0.173 0.151 0.008 0 0.016-0.001 0.024-0.002 0.096-0.013 0.163-0.101 0.149-0.197-0.020-0.153 0.315-0.587 0.473-0.611 0.052-0.008 0.092-0.040 0.118-0.082 0.041 0.006 0.087 0.020 0.125 0.022 0.591 0.034 1.267 0.104 1.796 0.355 0.59 0.279 2.277 0.979 3.159 1.242 0.845 0.251 0.845 0.251 1.299 0.6 0.524 0.402 1.57 0.595 1.995 0.624 0.229 0.016 0.972 0.181 1.627 0.326 0.548 0.121 1.065 0.235 1.279 0.263 0.337 0.045 1.575 0.274 2.904 0.567 0.024 0.028 0.050 0.054 0.089 0.063 0.052 0.012 0.739 0.17 1.513 0.314 1.069 0.273 1.973 0.558 2.229 0.783zM84.602 35.642c-0.013 0.029-0.056 0.115-0.247 0.154-0.196 0.038-0.414 0.102-0.653 0.17-0.526 0.151-1.122 0.323-1.764 0.323-0.418 0-1.115-0.108-1.76-0.228-1.925-0.494-4.308-0.919-4.545-0.951-0.2-0.026-0.71-0.139-1.25-0.258-0.7-0.155-1.425-0.314-1.679-0.332-0.396-0.028-1.274-0.204-1.731-0.505-0.009-0.064 0.008-0.143 0.026-0.227 0.018-0.083 0.036-0.165 0.038-0.248 0.004-0.137-0.004-0.281-0.012-0.426-0.012-0.231-0.024-0.47 0.017-0.675 0.044-0.227 0.131-0.459 0.214-0.685l0.074-0.2c0.030-0.084 0.082-0.168 0.136-0.257 0.070-0.114 0.142-0.232 0.182-0.371 0.026-0.093-0.027-0.189-0.121-0.216-0.093-0.028-0.189 0.027-0.216 0.12-0.025 0.091-0.083 0.185-0.143 0.284-0.061 0.1-0.125 0.203-0.167 0.322l-0.073 0.197c-0.087 0.238-0.179 0.484-0.229 0.738-0.050 0.248-0.036 0.509-0.023 0.762 0.007 0.135 0.013 0.27 0.010 0.398-0.002 0.061-0.017 0.121-0.031 0.182-0.005 0.021-0.008 0.045-0.012 0.066-0.288-0.205-0.457-0.262-1.161-0.47-0.863-0.258-2.517-0.943-3.102-1.22l-0.001-0.262c-0.002-0.237-0.005-0.474 0.004-0.71 0.007-0.242 0.133-0.495 0.255-0.738l0.067-0.136c0.018-0.036 0.050-0.074 0.083-0.114 0.040-0.048 0.079-0.095 0.107-0.146 0.043-0.076 0.062-0.157 0.080-0.228 0.012-0.050 0.023-0.097 0.041-0.131 0.062-0.125 0.167-0.207 0.289-0.304 0.093-0.074 0.19-0.151 0.277-0.254 0.062-0.075 0.052-0.184-0.022-0.247-0.074-0.061-0.184-0.051-0.247 0.023-0.062 0.075-0.141 0.138-0.225 0.204-0.134 0.107-0.286 0.227-0.383 0.419-0.036 0.070-0.054 0.143-0.069 0.207-0.012 0.053-0.025 0.104-0.044 0.138-0.018 0.033-0.044 0.062-0.070 0.093-0.043 0.052-0.092 0.11-0.129 0.185l-0.066 0.133c-0.132 0.265-0.282 0.565-0.291 0.884-0.008 0.241-0.006 0.482-0.004 0.724v0.127c-0.509-0.169-1.074-0.231-1.582-0.26-0.415-0.024-1.105-0.337-1.661-0.59l-0.297-0.133c-0.408-0.182-0.866-0.228-1.27-0.27-0.227-0.023-0.441-0.045-0.611-0.088-0.041-0.010-0.082 0-0.118 0.017-0.165-0.364-0.441-0.635-0.713-0.894-0.248-0.237-0.505-0.482-0.679-0.805-0.26-0.486-0.852-1.007-1.425-1.513-0.413-0.365-0.805-0.71-1.007-0.988l-0.242-0.338c-0.265-0.372-0.594-0.831-0.926-1.256 0.757 0.199 1.817 0.456 2.415 0.595 0.789 0.182 2.299 0.696 2.74 0.862 0.263 0.099 0.604 0.105 0.935 0.11 0.255 0.005 0.496 0.009 0.659 0.056 0.408 0.119 1.833 0.668 2.182 0.915l0.488 0.346c-0.256 0.124-0.542 0.301-0.863 0.538-0.521 0.383-0.69 0.78-0.901 1.282-0.045 0.107-0.093 0.219-0.147 0.34-0.040 0.088-0.001 0.192 0.087 0.231 0.089 0.041 0.191 0.001 0.231-0.087 0.056-0.124 0.105-0.239 0.15-0.348 0.206-0.488 0.343-0.811 0.787-1.137 0.966-0.71 1.416-0.739 1.62-0.64 0.475 0.23 0.908 0.409 1.471 0.54 0.188 0.044 0.291 0.096 0.39 0.146 0.185 0.093 0.359 0.181 0.894 0.181 0.618 0 1.193 0.227 1.802 0.467 0.138 0.054 0.277 0.11 0.419 0.161 0.229 0.086 0.506 0.211 0.803 0.344 0.728 0.327 1.556 0.699 2.138 0.721 0.604 0.024 2.014 0.595 2.857 0.937 0.203 0.083 0.376 0.153 0.499 0.2 0.764 0.291 1.514 0.456 2.589 0.57 0.901 0.094 1.593 0.491 2.099 0.779 0.132 0.076 0.251 0.144 0.354 0.196 0.553 0.277 2.006 1.236 2.218 1.66 0.263 0.52 0.229 0.748 0.185 0.836z"></path>
<path fill="#444444" d="M29.184 19.905c-0.094 0.023-0.152 0.111-0.129 0.204-0.002 0.056-0.1 0.221-0.146 0.3-0.038 0.065-0.072 0.124-0.090 0.164-0.060 0.133-0.1 0.272-0.139 0.406-0.019 0.066-0.038 0.132-0.060 0.197-0.044 0.133-0.041 0.263-0.038 0.379 0.002 0.091 0.004 0.177-0.017 0.245-0.008 0.026-0.022 0.048-0.040 0.077-0.031 0.051-0.075 0.119-0.090 0.224-0.013 0.084-0.009 0.169-0.005 0.245 0.002 0.032 0.004 0.064 0.004 0.094 0 0.097 0.078 0.175 0.175 0.175s0.175-0.078 0.175-0.175c0-0.036-0.002-0.074-0.004-0.112-0.003-0.064-0.006-0.125 0.001-0.174 0.005-0.033 0.016-0.051 0.041-0.091 0.024-0.038 0.055-0.087 0.076-0.156 0.040-0.123 0.037-0.248 0.034-0.358-0.002-0.096-0.004-0.185 0.020-0.26 0.023-0.068 0.043-0.139 0.064-0.209 0.036-0.123 0.071-0.247 0.122-0.361 0.015-0.033 0.042-0.079 0.073-0.13 0.132-0.225 0.223-0.396 0.186-0.546-0.023-0.095-0.118-0.158-0.213-0.136z"></path>
<path fill="#444444" d="M30.225 20.772c-0.064-0.071-0.174-0.078-0.246-0.014-0.143 0.128-0.125 0.283-0.115 0.376 0.004 0.034 0.008 0.066-0.015 0.108-0.020 0.027-0.049 0.063-0.068 0.113-0.023 0.061-0.029 0.111-0.033 0.153-0.002 0.018-0.003 0.036-0.008 0.056-0.015 0.064-0.031 0.122-0.047 0.177-0.044 0.156-0.086 0.303-0.083 0.518 0.001 0.096 0.079 0.172 0.175 0.172 0.001 0 0.002 0 0.002 0 0.097-0.001 0.174-0.081 0.172-0.178-0.002-0.163 0.030-0.276 0.070-0.417 0.017-0.059 0.034-0.122 0.051-0.191 0.009-0.036 0.012-0.068 0.016-0.101 0.003-0.031 0.005-0.047 0.029-0.087 0.025-0.032 0.063-0.081 0.081-0.152 0.020-0.080 0.012-0.152 0.006-0.21-0.003-0.024-0.007-0.061-0.005-0.070 0 0 0.001-0.002 0.005-0.005 0.072-0.065 0.078-0.175 0.014-0.248z"></path>
<path fill="#444444" d="M64.62 32.074c-0.238 0.051-0.319 0.325-0.372 0.506-0.011 0.037-0.020 0.070-0.030 0.095-0.044 0.109-0.073 0.185-0.103 0.303l-0.016 0.057c-0.037 0.124-0.062 0.217-0.048 0.295 0.015 0.086 0.091 0.152 0.175 0.152 0.009 0 0.019-0.001 0.028-0.003 0.095-0.016 0.159-0.1 0.143-0.195 0.001-0.027 0.026-0.11 0.037-0.149l0.020-0.072c0.025-0.1 0.051-0.165 0.088-0.257 0.013-0.033 0.027-0.077 0.041-0.126 0.019-0.065 0.069-0.235 0.113-0.265 0.093-0.022 0.151-0.113 0.131-0.206-0.019-0.096-0.112-0.157-0.206-0.135z"></path>
<path fill="#444444" d="M66.829 33.372c0 0-0.001 0-0.001 0-0.096 0-0.174 0.078-0.175 0.174-0.002 0.247-0.078 0.455-0.165 0.696-0.025 0.069-0.050 0.139-0.074 0.21-0.052 0.156-0.074 0.308-0.070 0.494 0.001 0.050-0.013 0.111-0.029 0.178-0.023 0.1-0.048 0.203-0.032 0.31 0.013 0.087 0.087 0.149 0.173 0.149 0.009 0 0.017-0.001 0.026-0.002 0.096-0.014 0.161-0.103 0.147-0.199-0.006-0.041 0.010-0.111 0.026-0.179 0.019-0.080 0.040-0.17 0.038-0.263-0.003-0.149 0.012-0.257 0.052-0.376 0.023-0.069 0.047-0.136 0.072-0.202 0.090-0.249 0.183-0.506 0.185-0.813 0.002-0.096-0.076-0.175-0.173-0.175z"></path>
<path fill="#444444" d="M72.739 35.521c-0.204 0.162-0.263 0.422-0.315 0.65-0.016 0.072-0.032 0.142-0.053 0.204-0.024 0.073-0.068 0.156-0.114 0.244-0.11 0.209-0.233 0.446-0.204 0.674 0.012 0.089 0.086 0.153 0.174 0.153 0.007 0 0.014-0.001 0.022-0.001 0.096-0.012 0.164-0.1 0.152-0.195-0.015-0.12 0.086-0.313 0.167-0.469 0.056-0.107 0.108-0.207 0.136-0.295 0.024-0.071 0.043-0.153 0.062-0.237 0.041-0.181 0.084-0.369 0.191-0.454 0.076-0.060 0.088-0.17 0.028-0.245-0.059-0.076-0.17-0.088-0.245-0.028z"></path>
<path fill="#444444" d="M71.448 35.274c-0.022 0.050-0.058 0.097-0.091 0.144-0.055 0.077-0.118 0.164-0.151 0.267-0.017 0.054-0.027 0.108-0.037 0.163-0.008 0.043-0.015 0.087-0.030 0.132-0.022 0.065-0.033 0.126-0.043 0.186-0.007 0.040-0.013 0.079-0.026 0.121-0.007 0.022-0.024 0.050-0.043 0.080-0.044 0.073-0.105 0.172-0.090 0.304 0.010 0.089 0.085 0.155 0.174 0.155 0.006 0 0.013 0 0.020-0.001 0.096-0.011 0.164-0.097 0.154-0.193-0.001-0.012 0.028-0.059 0.041-0.082 0.027-0.044 0.058-0.095 0.078-0.156 0.018-0.057 0.028-0.112 0.037-0.168 0.008-0.043 0.014-0.086 0.030-0.133 0.021-0.061 0.033-0.122 0.043-0.182 0.008-0.040 0.013-0.080 0.026-0.117 0.016-0.050 0.058-0.109 0.103-0.17 0.048-0.066 0.094-0.134 0.126-0.204 0.040-0.087 0.001-0.191-0.087-0.231-0.087-0.038-0.192 0-0.233 0.087z"></path>
<path fill="#444444" d="M69.842 35.134c-0.072 0.122-0.072 0.217-0.073 0.286 0 0.024 0.001 0.051-0.012 0.090-0.025 0.035-0.072 0.1-0.064 0.221 0.006 0.093 0.083 0.165 0.175 0.165 0.004 0 0.008 0 0.012 0 0.096-0.007 0.169-0.087 0.162-0.184 0.019-0.026 0.050-0.070 0.065-0.145 0.010-0.056 0.012-0.102 0.012-0.145 0-0.052 0-0.070 0.024-0.111 0.049-0.084 0.021-0.191-0.062-0.239s-0.191-0.022-0.24 0.062z"></path>
</svg>
