<?xml version="1.0" encoding="utf-8"?>
<!-- Generator: Adobe Illustrator 16.0.0, SVG Export Plug-In . SVG Version: 6.00 Build 0)  -->
<!DOCTYPE svg PUBLIC "-//W3C//DTD SVG 1.1//EN" "http://www.w3.org/Graphics/SVG/1.1/DTD/svg11.dtd">
<svg version="1.1" id="Layer_1" xmlns="http://www.w3.org/2000/svg" xmlns:xlink="http://www.w3.org/1999/xlink" x="0px" y="0px"
	 width="61px" height="60px" viewBox="0 0 61 60" enable-background="new 0 0 61 60" xml:space="preserve">
<path fill="#444444" d="M30.232,60.257L30.232,60.257c-5.945,0-11.752-1.854-16.792-5.36C2.033,46.962-2.338,34.266,1.745,20.935
	C5.468,8.784,15.06-0.126,24.55-0.25l1.089-0.006c22.745,0,28.181,9.913,32.929,22.874c3.084,8.43,1.943,17.133-3.211,24.508
	c-5.662,8.097-15.291,13.131-25.127,13.131H30.232z M25.639,1.701l-1.064,0.006c-8.522,0.112-17.53,8.622-20.956,19.799
	c-3.823,12.475,0.266,24.355,10.94,31.78c4.711,3.276,10.131,5.011,15.673,5.011c9.208,0,18.22-4.711,23.521-12.294
	c4.776-6.833,5.834-14.901,2.976-22.711C52.1,10.649,47.159,1.701,25.639,1.701z"/>
<path fill="#444444" d="M24.718,48.537c-0.386,0-0.752-0.229-0.907-0.609c-0.204-0.502,0.035-1.074,0.537-1.277
	c0.337-0.137,0.566-0.383,0.88-0.721c0.141-0.152,0.286-0.307,0.447-0.461c0.596-0.568,3.198-3.102,3.98-3.982
	c0.488-0.547,1.019-1.041,1.546-1.529c0.304-0.282,0.607-0.561,0.896-0.852c1.73-1.727,5.855-5.809,6.834-6.484
	c0.562-0.389,1.547-1.378,2.266-2.102l0.617-0.615c0.387-0.38,1.008-0.37,1.386,0.014c0.378,0.386,0.37,1.007-0.017,1.386l-0.6,0.6
	c-0.857,0.863-1.834,1.842-2.545,2.332c-0.646,0.447-3.76,3.465-6.561,6.257c-0.311,0.306-0.629,0.606-0.949,0.901
	c-0.483,0.449-0.969,0.896-1.416,1.396c-0.892,1.001-3.717,3.74-4.088,4.096c-0.131,0.125-0.251,0.254-0.368,0.379
	c-0.392,0.422-0.837,0.899-1.574,1.199C24.965,48.514,24.84,48.537,24.718,48.537L24.718,48.537z"/>
<path fill="#444444" d="M42.503,31.3c-0.345,0-0.678-0.182-0.858-0.506c-0.533-0.921-7.431-8.009-8.729-9.292
	c-0.774-0.762-1.883-1.922-2.763-3.126c-0.204-0.261-1.646-1.636-2.806-2.741c-1.493-1.423-3.035-2.894-3.764-3.684
	c-0.366-0.398-0.341-1.017,0.057-1.385c0.398-0.364,1.017-0.343,1.385,0.057c0.686,0.743,2.273,2.257,3.674,3.592
	c1.967,1.875,2.794,2.673,3.035,3.002c0.802,1.097,1.834,2.175,2.56,2.888c0.082,0.082,8.334,8.41,9.069,9.739
	c0.263,0.472,0.09,1.07-0.383,1.332C42.828,31.26,42.664,31.299,42.503,31.3L42.503,31.3z"/>
</svg>
