<?xml version="1.0" encoding="utf-8"?>
<!-- Generated by IcoMoon.io -->
<!DOCTYPE svg PUBLIC "-//W3C//DTD SVG 1.1//EN" "http://www.w3.org/Graphics/SVG/1.1/DTD/svg11.dtd">
<svg version="1.1" xmlns="http://www.w3.org/2000/svg" xmlns:xlink="http://www.w3.org/1999/xlink" width="60" height="60" viewBox="0 0 60 60">
<path fill="#444444" d="M31.009 60c-4.582 0-8.981-1.007-12.381-2.837-6.334-3.407-10.943-6.769-14.346-12.998-4.573-8.368-5.439-15.765-2.809-23.981 2.152-6.726 7.498-12.932 14.297-16.601 3.109-1.678 6.804-3.396 10.627-3.413 1.106-0.004 2.177-0.047 3.212-0.088 1.069-0.043 2.078-0.083 3.098-0.083 2.764 0 4.822 0.317 6.885 1.059 7.224 2.601 13.316 7.661 16.718 13.884 5.019 9.189 5.132 22.056 0.255 29.291-2.886 4.281-5.871 8.389-10.663 11.616-3.973 2.676-9.263 4.149-14.895 4.149zM32.709 0.199c-1.014 0-2.021 0.039-3.088 0.083-1.037 0.041-2.109 0.084-3.219 0.088-3.78 0.015-7.448 1.721-10.536 3.388-6.756 3.645-12.064 9.808-14.201 16.487-2.612 8.16-1.751 15.508 2.794 23.826 3.379 6.186 7.963 9.529 14.265 12.919 3.371 1.815 7.736 2.813 12.287 2.813 5.593 0 10.843-1.461 14.782-4.116 4.762-3.208 7.736-7.299 10.609-11.563 4.839-7.179 4.723-19.954-0.264-29.085-3.379-6.18-9.433-11.207-16.612-13.793-2.038-0.733-4.078-1.046-6.818-1.046z"></path>
<path fill="#444444" d="M29.989 57.722c-1.759 0-3.399-0.21-4.877-0.626-4.682-1.318-9.24-2.775-13.528-6.090-6.624-5.119-10.618-15.581-9.092-23.82 1.224-6.608 2.908-11.672 7.517-16.496 6.191-6.484 12.585-9.398 20.73-9.448h0.137c6.626 0 13.701 2.942 18.924 7.867 2.409 2.273 5.025 5.051 6.15 8.441 0.324 0.979 0.673 1.916 1.011 2.824 1.097 2.947 2.132 5.732 2.018 9.139-0.242 7.164-3.021 14.038-7.626 18.861-5.34 5.591-13.926 9.349-21.366 9.349zM30.876 1.44h-0.137c-8.087 0.049-14.436 2.944-20.587 9.386-4.575 4.791-6.247 9.825-7.466 16.397-1.513 8.171 2.449 18.549 9.019 23.627 4.26 3.293 8.797 4.744 13.461 6.056 1.459 0.411 3.081 0.619 4.823 0.619 7.388 0 15.917-3.733 21.221-9.287 4.571-4.787 7.329-11.614 7.569-18.729 0.112-3.369-0.915-6.135-2.006-9.064-0.337-0.907-0.688-1.847-1.014-2.829-1.11-3.347-3.705-6.103-6.097-8.359-5.188-4.892-12.212-7.813-18.787-7.813z"></path>
</svg>
