<?xml version="1.0" encoding="utf-8"?>
<!-- Generated by IcoMoon.io -->
<!DOCTYPE svg PUBLIC "-//W3C//DTD SVG 1.1//EN" "http://www.w3.org/Graphics/SVG/1.1/DTD/svg11.dtd">
<svg version="1.1" xmlns="http://www.w3.org/2000/svg" xmlns:xlink="http://www.w3.org/1999/xlink" width="92" height="60" viewBox="0 0 92 60">
<path fill="#444444" d="M92.225 55.322c-0.205-0.595-0.683-1.269-1.247-1.344-0.157-0.017-0.291 0.087-0.312 0.238s0.086 0.292 0.238 0.312c0.233 0.031 0.608 0.43 0.796 0.975 0.119 0.346 0.12 0.646 0.001 0.768-0.451 0.463-1.069 0.579-1.723 0.704l-0.17 0.033c-1.133 0.22-2.218 0.545-3.267 0.859-1.409 0.422-2.74 0.82-4.197 0.997-0.46 0.055-0.928 0.123-1.4 0.191-1.161 0.167-2.36 0.338-3.494 0.338-0.017 0-0.035 0-0.053 0-0.895-0.007-1.802 0.011-2.723 0.027-1.53 0.026-3.111 0.053-4.598-0.014-2.285-0.101-4.689-0.151-7.013-0.199l-0.907-0.018c-1.117-0.023-5.046-0.153-8.727-0.85-1.031-0.196-2.154-0.205-3.24-0.214-1.525-0.013-2.966-0.025-3.976-0.539-2.154-1.096-2.606-1.899-2.606-2.379 0.001-0.743 1.076-1.286 1.593-1.548 0.324-0.164 0.502-0.255 0.46-0.489-0.022-0.12-0.169-0.232-0.291-0.245-0.125-0.010-0.242 0.060-0.287 0.173-0.038 0.019-0.083 0.041-0.133 0.067-0.616 0.312-1.896 0.96-1.897 2.042-0.001 0.938 0.951 1.877 2.91 2.873 1.125 0.573 2.63 0.586 4.223 0.6 1.061 0.009 2.158 0.018 3.141 0.204 3.723 0.706 7.691 0.837 8.819 0.861l0.907 0.018c2.321 0.047 4.722 0.097 7.001 0.199 0.701 0.030 1.422 0.041 2.146 0.041 0.83 0 1.665-0.014 2.485-0.027 0.915-0.016 1.827-0.035 2.71-0.027 1.197-0.008 2.43-0.171 3.628-0.344 0.468-0.067 0.932-0.134 1.388-0.189 1.504-0.182 2.921-0.605 4.29-1.015 1.036-0.31 2.108-0.631 3.214-0.847l0.168-0.033c0.709-0.135 1.443-0.274 2.016-0.862 0.276-0.281 0.323-0.768 0.127-1.336z"></path>
<path fill="#444444" d="M82.947 39.668c0.301 0 2.262-0.791 2.777-1.854 0.231-0.477 0.174-0.956-0.166-1.386-0.229-0.289-0.492-0.435-0.784-0.435-1.134 0-1.965 2.447-2.192 3.196l-0.085 0.281 0.351 0.198 0.099 0.001zM84.774 36.731c0.052 0 0.126 0.056 0.203 0.155 0.146 0.184 0.18 0.35 0.109 0.539-0.184 0.497-0.966 0.975-1.55 1.255 0.417-1.085 0.948-1.949 1.238-1.949z"></path>
<path fill="#444444" d="M84.34 45.236c-0.323 0.245-1.568 1.673-1.419 2.117l0.095 0.259h0.264c0 0 0 0 0.001 0 0.166 0 0.283-0.102 0.366-0.186 0.099-0.064 0.534-0.109 0.822-0.14 0.794-0.083 1.694-0.179 2.079-0.743 0.176-0.258 0.216-0.568 0.119-0.922-0.136-0.494-0.536-0.777-1.098-0.777-0.467 0-0.972 0.197-1.23 0.393zM85.957 45.816c0.056 0.204 0.003 0.281-0.016 0.31-0.193 0.282-1.007 0.368-1.547 0.425-0.102 0.011-0.2 0.021-0.293 0.032 0.222-0.296 0.481-0.602 0.687-0.758 0.134-0.102 0.48-0.242 0.784-0.242 0.321 0 0.363 0.152 0.385 0.233z"></path>
<path fill="#444444" d="M88.301 40.217h0.28c0.069 0 0.139-0.016 0.221-0.048 0.34-0.138 0.765-0.202 1.177-0.264 0.777-0.118 1.659-0.252 1.674-1.037 0.009-0.393-0.14-0.63-0.267-0.76-0.347-0.353-0.975-0.356-1.557-0.002-0.018 0.012-1.795 1.252-1.633 1.826l0.105 0.286zM90.212 38.735c0.171-0.104 0.341-0.161 0.48-0.161 0.052 0 0.124 0.009 0.164 0.049s0.059 0.12 0.057 0.228c-0.003 0.164-0.631 0.259-1.046 0.322-0.090 0.014-0.182 0.028-0.276 0.044 0.214-0.189 0.439-0.369 0.621-0.482z"></path>
<path fill="#444444" d="M45.734 37.742c0.214 0.139 0.621 0.313 1.053 0.496 0.423 0.18 0.902 0.384 1.099 0.519 0.024 0.016 0.052 0.016 0.080 0.025 0.18 1.373 1.484 6.65 1.63 7.15 0.822 2.807 2.669 7.401 4.127 7.779 0.254 0.067 0.515 0.096 0.779 0.096 0.952 0 1.931-0.381 2.725-0.743 0.879-0.4 1.826-0.997 2.734-1.724 1.13-0.904 1.391-2.073 0.774-3.474-0.133-0.302-0.267-0.578-0.396-0.841-0.438-0.894-0.785-1.601-0.722-2.721 0.009-0.153-0.108-0.284-0.261-0.293-0.168-0.020-0.284 0.108-0.293 0.261-0.072 1.266 0.322 2.068 0.777 2.997 0.126 0.256 0.257 0.525 0.387 0.82 0.517 1.174 0.323 2.069-0.613 2.817-0.874 0.699-1.779 1.271-2.618 1.653-0.932 0.424-2.133 0.878-3.134 0.614-0.904-0.235-2.649-3.693-3.735-7.4-0.394-1.344-1.62-6.723-1.642-7.192 0.016-0.129-0.060-0.256-0.188-0.298-0.046-0.016-0.091-0.014-0.135-0.006-0.25-0.164-0.69-0.352-1.159-0.552-0.39-0.166-0.794-0.338-0.969-0.45-0.493-0.319-0.975-0.537-1.594-0.785-0.646-0.261-1.265-0.652-1.863-1.030-0.541-0.342-1.101-0.695-1.696-0.966-1.115-0.505-4.897-2.81-5.125-2.961-0.129-0.084-0.299-0.048-0.384 0.078-0.006 0.007-0.006 0.016-0.010 0.024-0.070-0.166-0.154-0.332-0.276-0.508-0.703-1.014-1.368-1.809-2.091-2.505l-0.111-0.107c-0.61-0.587-1.241-1.195-1.985-1.626-0.165-0.095-0.317-0.214-0.469-0.331-0.169-0.13-0.337-0.259-0.518-0.365-0.123-0.072-0.25-0.203-0.383-0.342-0.205-0.213-0.416-0.432-0.694-0.525-0.146-0.050-0.302 0.031-0.351 0.176-0.047 0.146 0.031 0.302 0.176 0.35 0.148 0.049 0.311 0.219 0.469 0.383 0.153 0.16 0.312 0.325 0.502 0.437 0.162 0.095 0.31 0.211 0.46 0.325 0.171 0.132 0.344 0.264 0.531 0.372 0.684 0.397 1.291 0.98 1.877 1.546l0.111 0.108c0.695 0.668 1.338 1.437 2.019 2.42 0.315 0.455 0.373 0.833 0.46 1.405l0.024 0.168c0.075 0.481 0.099 0.79-0.173 0.996-0.032-0.046-0.061-0.092-0.092-0.139-0.166-0.247-0.512-0.76-0.457-0.885 0.062-0.14-0.001-0.303-0.14-0.365-0.14-0.064-0.303 0.001-0.366 0.141-0.179 0.405 0.153 0.898 0.505 1.419 0.2 0.296 0.447 0.665 0.458 0.853 0.014 0.256-0.071 0.33-0.306 0.507-0.226-0.581-0.564-1.099-0.892-1.601-0.134-0.205-0.267-0.41-0.392-0.617-0.078-0.132-0.249-0.173-0.381-0.095s-0.173 0.249-0.095 0.381c0.129 0.213 0.265 0.423 0.403 0.634 0.313 0.478 0.636 0.973 0.84 1.498 0.016 0.066-0.064 0.302-0.219 0.412-0.076 0.053-0.136 0.054-0.214 0.004-0.144-0.703-0.547-1.823-0.932-2.219-0.107-0.109-0.282-0.112-0.392-0.007-0.109 0.107-0.112 0.282-0.006 0.392 0.229 0.236 0.433 0.731 0.583 1.201-0.419-0.477-0.973-0.892-1.374-1.193-0.143-0.107-0.268-0.2-0.361-0.277-0.118-0.097-0.293-0.081-0.39 0.037s-0.081 0.293 0.037 0.39c0.098 0.081 0.231 0.18 0.382 0.293 0.753 0.564 2.152 1.613 1.624 2.389-0.307 0.452-0.972 0.594-1.583 0.672-0.2 0.026-0.404 0.032-0.607 0.038-0.552 0.016-1.123 0.034-1.622 0.4-0.269 0.197-0.674 0.253-1.008 0.139-0.218-0.075-0.504-0.255-0.631-0.695-0.035-0.122-0.071-0.216-0.103-0.298-0.062-0.161-0.088-0.228-0.062-0.413 0.019-0.137 0.043-0.28 0.067-0.426 0.072-0.446 0.153-0.95 0.143-1.396-0.020-0.983-0.328-1.839-0.627-2.666-0.148-0.412-0.301-0.838-0.417-1.276-0.097-0.361-0.211-0.713-0.324-1.062-0.254-0.78-0.494-1.517-0.518-2.317-0.020-0.673-0.127-1.281-0.244-1.946-0.062-0.355-0.007-0.586 0.050-0.63 0.021-0.016 0.106-0.024 0.277 0.055 0.13 0.060 0.29 0.010 0.359-0.118 0.168-0.304 0.239-0.284 0.583-0.187 0.127 0.035 0.264 0.074 0.414 0.093 0.137 0.021 0.265-0.066 0.303-0.199 0.033-0.115 0.064-0.163 0.064-0.176 0.056 0.014 0.176 0.095 0.25 0.146 0.126 0.086 0.256 0.174 0.4 0.216 0.151 0.042 0.3-0.042 0.344-0.189s-0.042-0.301-0.189-0.344c-0.059-0.017-0.157-0.083-0.242-0.141-0.205-0.14-0.46-0.315-0.743-0.214-0.16 0.058-0.259 0.186-0.323 0.309-0.044-0.012-0.086-0.024-0.127-0.035-0.315-0.088-0.731-0.205-1.087 0.252-0.12-0.032-0.219-0.033-0.307-0.024-0.016-0.028-0.036-0.055-0.063-0.077-1.787-1.464-3.596-2.544-5.511-3.687-0.782-0.467-1.574-0.94-2.376-1.447-0.132-0.083-0.263-0.163-0.395-0.246 0.128 0.007 0.255 0.011 0.384 0.011 0.398 0 0.81-0.036 1.292-0.126 0.366-0.067 0.696-0.203 1.015-0.335 0.115-0.047 0.231-0.095 0.349-0.14 0.525-0.198 1.080-0.352 1.618-0.501l0.528-0.149c1.292-0.37 2.542-0.748 3.654-1.289 0.112-0.055 0.223-0.128 0.334-0.197 2.531 0.25 4.129 0.949 6.18 2.147 1.099 0.641 1.968 1.511 2.512 2.514 0.344 0.634 0.417 1.053 0.262 1.373-0.049-0.035-0.088-0.077-0.136-0.143-0.064-0.087-0.141-0.196-0.283-0.312-0.199-0.164-0.369-0.365-0.549-0.578-0.16-0.188-0.318-0.375-0.5-0.543l-0.168-0.156c-0.273-0.257-0.533-0.5-0.864-0.719-0.36-0.238-0.737-0.446-1.1-0.647l-0.426-0.237c-0.887-0.503-1.958-0.924-2.866-1.127-0.142-0.031-0.338-0.086-0.557-0.146-0.593-0.163-1.316-0.354-1.77-0.349-0.001-0.098-0.050-0.192-0.143-0.242-0.136-0.073-0.303-0.021-0.375 0.113-0.086 0.162-0.178 0.325-0.27 0.49-0.336 0.598-0.683 1.216-0.864 1.885-0.293 1.093 0.445 1.623 1.118 1.963 0.252 0.128 0.506 0.249 0.758 0.37 0.693 0.331 1.348 0.644 1.959 1.077 0.219 0.154 0.433 0.331 0.648 0.508 0.521 0.429 1.059 0.873 1.72 1.077 0.258 0.080 0.516 0.114 0.776 0.114 0.708 0 1.415-0.259 2.087-0.555l0.14-0.061c0.697-0.304 1.563-0.683 2.042-1.319 0.508-0.676 0.184-1.479-0.155-2.104-0.593-1.093-1.532-2.035-2.72-2.728-1.947-1.138-3.51-1.835-5.792-2.143 0.33-0.274 0.62-0.565 0.825-0.804 0.414-0.482 0.573-0.952 0.475-1.398-0.146-0.658-0.808-0.98-0.873-1.011-0.143-0.511-0.622-0.885-1.017-1.087 0.032-0.477-0.308-0.941-0.588-1.317-0.055-0.075-0.109-0.147-0.157-0.215-0.104-0.151-0.2-0.311-0.297-0.473-0.294-0.494-0.6-1.005-1.154-1.303-0.768-0.412-1.933-0.573-2.784-0.69l-0.070-0.010c-0.193-0.366-0.416-0.71-0.675-1.014-0.889-1.044-2.049-1.566-3.354-1.536-0.153 0.004-0.273 0.132-0.269 0.285s0.113 0.265 0.285 0.269c1.449-0.050 2.375 0.706 2.916 1.341 1.031 1.21 1.52 3.078 1.217 4.648-0.28 1.453-1.212 2.174-2.524 2.809-0.138 0.067-0.196 0.232-0.129 0.37 0.047 0.099 0.146 0.156 0.25 0.156 0.041 0 0.081-0.009 0.12-0.028 1.266-0.612 2.483-1.424 2.826-3.203 0.217-1.125 0.058-2.386-0.389-3.498 0.772 0.109 1.708 0.262 2.316 0.588 0.419 0.225 0.673 0.649 0.941 1.098 0.103 0.173 0.205 0.344 0.318 0.505 0.050 0.072 0.107 0.149 0.167 0.229 0.233 0.315 0.525 0.706 0.481 0.98-0.016 0.103-0.085 0.196-0.209 0.284-0.398 0.284-0.884 0.443-1.401 0.612-0.441 0.144-0.897 0.293-1.307 0.53l-0.457 0.266c-0.74 0.434-1.44 0.845-2.264 1.143-0.144 0.052-0.218 0.211-0.166 0.355 0.041 0.113 0.147 0.183 0.26 0.183 0.032 0 0.064-0.005 0.095-0.016 0.872-0.315 1.592-0.738 2.356-1.186l0.454-0.264c0.36-0.208 0.769-0.341 1.202-0.483 0.533-0.174 1.082-0.354 1.55-0.687 0.091-0.065 0.153-0.141 0.217-0.217 0.306 0.165 0.859 0.542 0.697 1.072-0.094 0.304-0.703 0.68-1.031 0.883l-0.097 0.060c-0.289 0.18-0.587 0.334-0.883 0.488-0.465 0.241-0.945 0.49-1.388 0.833-0.582 0.452-1.19 0.721-1.979 1.007-1.34 0.486-2.698 0.718-3.919 0.671-0.955-0.037-1.815-0.305-2.726-0.589l-0.389-0.12c-0.628-0.192-1.783-0.633-2.469-1.431-0.1-0.116-0.276-0.13-0.391-0.030s-0.129 0.275-0.029 0.391c0.777 0.904 2.042 1.39 2.726 1.6l0.387 0.12c0.946 0.295 1.841 0.573 2.87 0.613 0.11 0.004 0.222 0.007 0.334 0.007 1.204 0 2.508-0.244 3.795-0.71 0.817-0.296 1.493-0.595 2.131-1.091 0.403-0.313 0.84-0.539 1.303-0.779 0.309-0.16 0.62-0.322 0.921-0.51l0.095-0.059c0.445-0.274 1.116-0.688 1.27-1.192 0.001-0.004 0.001-0.009 0.003-0.014 0.138 0.107 0.296 0.271 0.343 0.488 0.058 0.265-0.061 0.573-0.354 0.914-0.393 0.458-1.056 1.049-1.649 1.338-1.072 0.522-2.297 0.891-3.564 1.255l-0.524 0.147c-0.549 0.152-1.118 0.31-1.666 0.517-0.123 0.046-0.243 0.096-0.364 0.146-0.306 0.126-0.595 0.246-0.904 0.303-1.003 0.185-1.698 0.12-2.663-0.019-0.661-0.413-1.321-0.827-1.985-1.238-3.252-2.015-6.616-4.098-9.748-6.385-0.062-0.046-0.154-0.109-0.268-0.189-2.139-1.492-3.238-2.584-3.268-3.247-0.007-0.148 0.046-0.261 0.171-0.366 0.479-0.402 1.789 0.466 2.284 0.794l0.161 0.106c0.44 0.284 0.871 0.581 1.302 0.878 0.525 0.361 1.049 0.721 1.589 1.060 0.095 0.081 0.194 0.17 0.283 0.245 0.489 0.409 0.876 0.731 1.164 1.396 0.43 0.99 0.876 2.015 1.993 2.551 0.26 0.125 0.527 0.186 0.782 0.186 0.31 0 0.6-0.095 0.845-0.273 0.013 0.041 0.016 0.086 0.049 0.118 1.028 1.031 2.124 1.462 3.74 1.462 0.078 0 0.158-0.001 0.238-0.003 2.45-0.061 4.475-1.436 5.285-3.589 0.563-1.495 0.649-3.722-0.96-5.075-1.069-0.898-2.55-1.315-4.056-1.145-0.226 0.026-0.451 0.061-0.677 0.096-0.421 0.067-0.819 0.129-1.226 0.129-0.62 0-1.212-0.171-1.764-0.345-0.146-0.048-0.301 0.035-0.348 0.18-0.046 0.146 0.035 0.301 0.18 0.348 0.568 0.18 1.232 0.371 1.932 0.371 0.448 0 0.887-0.069 1.311-0.136 0.218-0.034 0.434-0.069 0.653-0.093 1.359-0.153 2.683 0.218 3.637 1.019 1.388 1.167 1.297 3.129 0.798 4.456-0.728 1.937-2.56 3.174-4.78 3.23-1.597 0.046-2.601-0.324-3.573-1.297-0.037-0.036-0.086-0.043-0.133-0.055 0.284-0.406 0.354-0.949 0.156-1.498-0.324-0.893-1.205-1.584-1.982-2.194-0.247-0.194-0.485-0.381-0.69-0.563-0.114-0.102-0.29-0.092-0.391 0.022-0.103 0.114-0.092 0.29 0.022 0.391 0.213 0.189 0.46 0.383 0.717 0.585 0.718 0.564 1.532 1.204 1.802 1.948 0.164 0.452 0.089 0.878-0.198 1.139-0.284 0.258-0.709 0.29-1.133 0.085-0.931-0.448-1.299-1.293-1.727-2.281-0.338-0.778-0.791-1.156-1.314-1.593-0.052-0.044-0.111-0.097-0.166-0.143 0.016-0.12-0.045-0.241-0.163-0.29-0.843-0.356-1.45-0.93-2.092-1.538-0.14-0.133-0.284-0.267-0.431-0.403-0.211-0.197-0.499-0.389-0.805-0.593-0.597-0.399-1.274-0.852-1.402-1.376-0.088-0.36 0.027-0.492 0.066-0.536 0.334-0.381 1.477-0.262 1.853-0.223 1.258 0.132 2.37-0.022 3.548-0.186l0.453-0.062c4.305-0.583 8.824-0.041 13.194 0.483 1.057 0.126 2.108 0.253 3.147 0.362 0.749 0.078 1.516 0.139 2.291 0.2 2.139 0.167 4.344 0.345 6.338 0.942 0.017 0.038 0.042 0.073 0.077 0.1 0.098 0.078 0.23 0.075 0.326 0.009 0.128 0.014 0.251-0.057 0.293-0.184 0.026-0.081 0.011-0.163-0.030-0.23 0.015-0.033 0.030-0.070 0.045-0.105 0.772 0.277 1.798 0.816 2.534 1.204 0.276 0.146 0.519 0.273 0.707 0.366 2.447 1.21 4.77 2.754 7.051 4.27 0.42 0.279 0.83 0.593 1.226 0.898 0.389 0.298 0.79 0.607 1.208 0.887 0.862 0.577 1.767 1.115 2.641 1.635l0.695 0.414c0.982 0.589 1.802 1.326 2.671 2.106 0.334 0.3 0.68 0.603 1.032 0.901-0.029 0.002-0.053 0.005-0.067 0.006-0.136-0.071-0.303-0.016-0.373 0.12s-0.016 0.303 0.12 0.373c0.055 0.029 0.126 0.045 0.266 0.045 0.134 0 0.346-0.016 0.655-0.048 0.241 0.186 0.488 0.366 0.735 0.545-0.090 0.052-0.148 0.151-0.139 0.262 0.013 0.153 0.143 0.264 0.3 0.253 0.168-0.015 0.337-0.024 0.506-0.037 0.201 0.141 0.404 0.285 0.603 0.423 0.491 0.341 0.981 0.681 1.462 1.036 0.602 0.443 1.094 0.975 1.616 1.539 0.195 0.211 0.39 0.422 0.593 0.629 1.537 1.578 3.032 3.526 4.444 5.788 0.671 1.076 1.266 2.225 1.842 3.337 0.581 1.122 1.181 2.282 1.863 3.376 0.443 0.709 0.842 1.389 1.222 2.063-0.001 0.090 0.037 0.18 0.117 0.233 0.007 0.004 0.013 0.009 0.018 0.013 0.714 1.289 1.328 2.565 1.816 3.976 0.256 0.739 0.52 1.394 1.159 1.921 0.58 0.477 1.095 0.842 1.549 1.164 0.341 0.242 0.637 0.451 0.877 0.652 1.858 1.56 3.417 2.726 5.054 3.777 0.424 0.273 0.859 0.541 1.295 0.811 1.073 0.663 2.182 1.348 3.158 2.115 0.177 0.139 0.344 0.264 0.504 0.385 0.839 0.631 1.393 1.048 1.736 2.136 0.038 0.117 0.146 0.194 0.264 0.194 0.027 0 0.055-0.004 0.083-0.013 0.146-0.046 0.227-0.201 0.18-0.348-0.397-1.257-1.074-1.767-1.931-2.411-0.157-0.118-0.322-0.242-0.495-0.378-1-0.785-2.123-1.48-3.209-2.151-0.434-0.268-0.866-0.536-1.287-0.806-1.617-1.038-3.158-2.19-4.998-3.736-0.25-0.209-0.557-0.428-0.912-0.68-0.446-0.317-0.952-0.675-1.518-1.14-0.529-0.436-0.751-0.992-0.988-1.675-0.381-1.096-0.828-2.108-1.339-3.107 0.815 0.558 1.623 1.081 2.639 1.509 0.348 0.146 0.796 0.304 1.243 0.304 0.276 0 0.553-0.061 0.805-0.222 0.657-0.42 0.813-1.263 0.879-2.030 0.092-1.054 0.021-2.123-0.047-3.156-0.041-0.616-0.083-1.254-0.089-1.874-0.005-0.457 0.006-0.913 0.016-1.37 0.020-0.933 0.042-1.897-0.067-2.853-0.352-3.099-1.71-6.017-3.931-8.436-0.934-1.017-1.95-2.052-3.191-2.561-1.166-0.477-2.339-0.212-3.473 0.045l-0.217 0.049c-2.265 0.508-4.621 0.637-6.898 0.762-0.765 0.042-1.529 0.088-2.293 0.143-0.253-0.179-0.501-0.362-0.751-0.547 0.013-0.001 0.021-0.002 0.033-0.004 0.662-0.077 1.394-0.165 1.733-0.16 0.287 0 0.512-0.086 0.637-0.256 0.077-0.105 0.149-0.285 0.061-0.553-0.075-0.226-0.257-0.341-0.389-0.426-0.064-0.040-0.142-0.090-0.181-0.095 0.020-0.013 0.092-0.029 0.139-0.038 0.11-0.024 0.236-0.052 0.348-0.131 0.18-0.127 0.27-0.313 0.25-0.509-0.024-0.236-0.211-0.463-0.476-0.578-0.207-0.090-0.396-0.12-0.564-0.147-0.289-0.046-0.434-0.069-0.571-0.352-0.068-0.14-0.054-0.186-0.054-0.187 0.018-0.044 0.218-0.114 0.314-0.149 0.298-0.106 0.749-0.267 0.824-0.768 0.011-0.072-0.007-0.146-0.050-0.205-0.301-0.412-0.535-0.432-0.814-0.332-0.025 0.009-0.052 0.020-0.083 0.025-0.108 0.019-0.193 0.064-0.261 0.1-0.057 0.030-0.093 0.049-0.123 0.050-0.31 0.010-0.438-0.2-0.499-0.328-0.16-0.338-0.108-0.371 0.008-0.444 0.048-0.030 0.113-0.052 0.179-0.078 0.242-0.092 0.692-0.263 0.619-0.777-0.071-0.502-0.598-0.503-0.88-0.504-0.095 0-0.225 0-0.268-0.017-0.211-0.083-0.39-0.404-0.476-0.558-0.071-0.128-0.090-0.277-0.051-0.389 0.025-0.073 0.075-0.124 0.149-0.155 0.077-0.031 0.2-0.050 0.319-0.069 0.264-0.041 0.539-0.083 0.68-0.3 0.052-0.080 0.104-0.215 0.057-0.39-0.052-0.248-0.185-0.365-0.288-0.42-0.256-0.138-0.553-0.023-0.751 0.053-0.129 0.050-0.196 0.114-0.242 0.162l-0.088 0.014c-0.278 0.033-0.559 0.026-0.701-0.223-0.011-0.027-0.016-0.104 0.038-0.231 0.076-0.183 0.207-0.314 0.253-0.332 0.054-0.016 0.1-0.026 0.14-0.035 0.29-0.063 0.443-0.163 0.529-0.567 0.024-0.112-0.024-0.229-0.12-0.291-0.338-0.217-0.711-0.134-1.041-0.060-0.195 0.045-0.378 0.088-0.533 0.063-0.27-0.041-0.785-0.372-0.873-0.604-0.082-0.219 0.259-0.435 0.409-0.519 0.369-0.204 0.809-0.531 0.806-0.926-0.001-0.15-0.066-0.364-0.369-0.525-0.363-0.196-0.674-0.037-0.902 0.078-0.104 0.053-0.201 0.103-0.287 0.114-0.322 0.038-0.718-0.030-0.751-0.178-0.021-0.106 0.27-0.481 0.59-0.679 0.169-0.1 0.423-0.253 0.446-0.528 0.010-0.113-0.020-0.283-0.217-0.449-0.207-0.177-0.665-0.159-0.852-0.143-0.306 0.026-0.484 0.202-0.615 0.332-0.143 0.143-0.169 0.159-0.288 0.12l-0.096-0.031c-0.253-0.081-0.576-0.185-0.774-0.347 0.057-0.042 0.108-0.078 0.161-0.1 0.062-0.027 0.131-0.048 0.2-0.069 0.096-0.030 0.194-0.061 0.284-0.102 0.188-0.085 0.388-0.297 0.407-0.538 0.013-0.174-0.070-0.335-0.229-0.438-0.51-0.333-0.931-0.059-1.133 0.073-0.035 0.023-0.065 0.044-0.091 0.057-0.075 0.033-0.15 0.084-0.226 0.137-0.050 0.035-0.119 0.083-0.152 0.092-0.139 0.041-0.485-0.183-0.651-0.29l-0.14-0.089c-0.055-0.033-0.086-0.072-0.083-0.102 0.002-0.035 0.046-0.091 0.135-0.127 0.018-0.007 0.062-0.016 0.098-0.023 0.151-0.030 0.505-0.098 0.539-0.499 0.013-0.163-0.046-0.313-0.166-0.423-0.14-0.129-0.354-0.184-0.55-0.153-0.327 0.054-0.619 0.357-0.833 0.578l-0.096 0.098c-0.095 0.094-0.171 0.203-0.242 0.309-0.151 0.225-0.188 0.256-0.31 0.237-0.394-0.058-0.607-0.183-0.608-0.272-0.002-0.159 0.259-0.476 0.366-0.481 0.001 0 0.002 0 0.003 0 0.099 0 0.191-0.052 0.239-0.139 0.302-0.524 0.061-0.829-0.019-0.909-0.233-0.232-0.64-0.244-1.014-0.027-0.089 0.052-0.177 0.085-0.265 0.12-0.092 0.036-0.183 0.072-0.277 0.12-0.122 0.060-0.228 0.131-0.332 0.2-0.159 0.106-0.294 0.198-0.477 0.243-0.328 0.081-0.76 0.048-0.855-0.126-0.021-0.039 0.091-0.186 0.154-0.27 0.2-0.267 0.291-0.423 0.31-0.785 0.007-0.146-0.1-0.272-0.244-0.29-0.185-0.023-0.378-0.007-0.608 0.046-0.29 0.068-0.385 0.172-0.488 0.311-0.021 0.028-0.044 0.060-0.078 0.098-0.050 0.057-0.104 0.105-0.157 0.152-0.089 0.081-0.177 0.162-0.256 0.263l-0.079 0.109c-0.065 0.091-0.12 0.169-0.197 0.225-0.106 0.076-0.123 0.091-0.44-0.134-0.053-0.038-0.086-0.066-0.104-0.075 0.027-0.038 0.077-0.092 0.114-0.134l0.071-0.078c0.074-0.083 0.43-0.515 0.26-0.844-0.050-0.095-0.183-0.252-0.494-0.216-0.271 0.028-0.519 0.217-0.72 0.369-0.052 0.041-0.103 0.078-0.147 0.109-0.131 0.088-0.268 0.168-0.406 0.248-0.321 0.188-0.652 0.381-0.923 0.674-0.047 0.050-0.092 0.107-0.137 0.166-0.076 0.097-0.163 0.208-0.231 0.229-0.241 0.075-0.332 0.058-0.377 0.015 0.038-0.114 0.097-0.237 0.154-0.358 0.146-0.305 0.298-0.621 0.15-0.908-0.015-0.031-0.036-0.058-0.061-0.081-0.2-0.177-0.387-0.187-0.512-0.166-0.367 0.064-0.595 0.482-0.778 0.819-0.060 0.109-0.126 0.233-0.165 0.274-0.12 0.133-0.259 0.242-0.394 0.348-0.083 0.066-0.165 0.131-0.242 0.199-0.199 0.174-0.347 0.448-0.478 0.689l-0.086 0.155c-0.111 0.192-0.245 0.36-0.387 0.538-0.071 0.089-0.142 0.178-0.214 0.274-0.096 0.129-0.177 0.26-0.256 0.392-0.102 0.167-0.198 0.325-0.326 0.471-0.157 0.177-0.299 0.536-0.448 0.923-0.061-0.014-0.126-0.033-0.182-0.041-0.151-0.022-0.293 0.080-0.317 0.231s0.080 0.293 0.231 0.316c0.017 0.002 0.040 0.010 0.058 0.013-0.005 0.012-0.010 0.021-0.015 0.033-2.050-0.614-4.286-0.794-6.454-0.963-0.769-0.061-1.532-0.12-2.276-0.198-1.036-0.109-2.084-0.234-3.139-0.361-4.404-0.528-8.958-1.074-13.335-0.482l-0.455 0.062c-1.192 0.166-2.224 0.31-3.413 0.184-0.894-0.092-1.867-0.117-2.328 0.41-0.227 0.26-0.29 0.607-0.187 1.031 0.103 0.421 0.404 0.769 0.768 1.077-0.544-0.212-1.095-0.278-1.494 0.059-0.255 0.215-0.382 0.496-0.367 0.814 0.050 1.127 1.899 2.556 3.504 3.676l0.259 0.183c3.148 2.299 6.521 4.388 9.783 6.409 0.629 0.389 1.255 0.783 1.883 1.174 0.042 0.064 0.108 0.112 0.19 0.124 0.004 0.001 0.008 0.001 0.013 0.001 0.459 0.287 0.92 0.57 1.377 0.859 0.806 0.51 1.602 0.985 2.387 1.454 1.878 1.122 3.653 2.184 5.392 3.6-0.174 0.298-0.15 0.717-0.103 0.989 0.114 0.652 0.214 1.215 0.232 1.848 0.027 0.878 0.291 1.688 0.545 2.471 0.11 0.34 0.222 0.683 0.316 1.034 0.122 0.46 0.279 0.898 0.431 1.32 0.296 0.822 0.574 1.599 0.593 2.492 0.009 0.396-0.065 0.853-0.136 1.295-0.024 0.151-0.048 0.298-0.068 0.439-0.046 0.326 0.018 0.494 0.092 0.688 0.027 0.070 0.058 0.149 0.088 0.254 0.151 0.522 0.5 0.9 0.984 1.065 0.173 0.059 0.358 0.088 0.541 0.088 0.352 0 0.701-0.106 0.973-0.304 0.361-0.264 0.822-0.279 1.311-0.294 0.222-0.007 0.445-0.014 0.661-0.042 0.733-0.095 1.54-0.277 1.971-0.91 0.139-0.205 0.202-0.412 0.215-0.616 0.075-0.016 0.142-0.055 0.183-0.123 0.027 0.004 0.052 0.013 0.078 0.013 0.166 0 0.33-0.061 0.477-0.179 0.137-0.11 0.255-0.278 0.329-0.457 0.027 0.009 0.054 0.018 0.083 0.018 0.058 0 0.117-0.018 0.168-0.056l0.084-0.064c0.292-0.217 0.593-0.441 0.562-1.006-0.009-0.163-0.075-0.335-0.169-0.516 0.605-0.412 0.505-1.074 0.429-1.562l-0.024-0.163c-0.041-0.266-0.080-0.507-0.142-0.742 0.451 0.286 4.058 2.477 5.156 2.975 0.56 0.253 1.104 0.597 1.629 0.929 0.619 0.391 1.26 0.796 1.953 1.074 0.59 0.235 1.046 0.44 1.501 0.734zM30.538 24.347c-0.558-0.172-1.054-0.581-1.532-0.976-0.227-0.187-0.451-0.372-0.68-0.533-0.651-0.46-1.358-0.798-2.041-1.125-0.25-0.119-0.499-0.239-0.748-0.365-0.43-0.217-0.685-0.428-0.801-0.673 0.042 0.002 0.085-0.002 0.126-0.021 0.075-0.020 0.364-0.004 1.479 0.522l0.077 0.036c0.284 0.132 0.556 0.298 0.844 0.474 0.274 0.167 0.559 0.339 0.854 0.482 0.398 0.192 0.742 0.457 1.105 0.738 0.205 0.158 0.41 0.317 0.627 0.464 0.143 0.096 0.293 0.185 0.444 0.273 0.274 0.161 0.533 0.313 0.736 0.509 0.052 0.051 0.096 0.129 0.143 0.213 0.012 0.021 0.027 0.044 0.040 0.067-0.228 0.007-0.454-0.016-0.673-0.084zM31.831 24.349c-0.013-0.016-0.021-0.035-0.038-0.049-0.049-0.043-0.092-0.121-0.139-0.204-0.061-0.109-0.13-0.232-0.241-0.341-0.251-0.242-0.55-0.418-0.84-0.589-0.141-0.083-0.282-0.166-0.414-0.256-0.208-0.14-0.404-0.293-0.6-0.443-0.37-0.286-0.753-0.581-1.203-0.799-0.272-0.131-0.544-0.296-0.807-0.457-0.289-0.175-0.587-0.356-0.898-0.502l-0.074-0.035c-1.048-0.495-1.588-0.649-1.895-0.541 0.007-0.037 0.011-0.072 0.021-0.11 0.012-0.041 0.029-0.081 0.041-0.122 0.031 0.026 0.066 0.047 0.108 0.058 0.938 0.24 2.259 0.947 3.133 1.415l0.098 0.052c0.121 0.064 0.238 0.124 0.354 0.183 0.266 0.135 0.518 0.262 0.765 0.43 0.291 0.196 0.589 0.381 0.887 0.567 0.229 0.142 0.457 0.284 0.683 0.431 0.127 0.083 0.259 0.162 0.39 0.241 0.276 0.165 0.538 0.321 0.751 0.514l0.106 0.1c0.1 0.097 0.217 0.205 0.35 0.296-0.179 0.062-0.359 0.115-0.538 0.158zM33.156 23.867l-0.142 0.062c-0.010 0.004-0.018 0.007-0.027 0.012-0.035-0.066-0.094-0.119-0.171-0.14-0.136-0.037-0.275-0.173-0.411-0.304l-0.118-0.114c-0.255-0.232-0.552-0.409-0.841-0.581-0.125-0.075-0.25-0.149-0.372-0.228-0.228-0.149-0.46-0.293-0.692-0.438-0.293-0.183-0.585-0.365-0.87-0.556-0.276-0.186-0.542-0.321-0.824-0.464-0.112-0.057-0.227-0.115-0.344-0.177l-0.098-0.052c-0.952-0.508-2.255-1.206-3.257-1.462-0.022-0.005-0.045-0.003-0.067-0.003 0.010-0.024 0.021-0.048 0.032-0.072 0.061 0.045 0.139 0.067 0.219 0.052 0.078-0.018 0.263 0.030 0.552 0.137 0.224 0.083 0.445 0.171 0.666 0.261l0.408 0.162c0.48 0.188 0.911 0.43 1.368 0.686 0.144 0.081 0.29 0.163 0.437 0.242s0.296 0.164 0.446 0.247c0.385 0.217 0.785 0.443 1.192 0.623 0.313 0.139 0.607 0.269 0.861 0.46 0.067 0.050 0.126 0.105 0.185 0.159 0.098 0.091 0.211 0.194 0.358 0.281l0.171 0.101c0.214 0.125 0.425 0.249 0.636 0.383 0.064 0.041 0.142 0.078 0.221 0.116 0.076 0.036 0.162 0.077 0.225 0.143 0.038 0.051 0.083 0.114 0.153 0.16 0.097 0.066 0.205 0.137 0.324 0.205-0.073 0.033-0.149 0.068-0.22 0.099zM34 23.466c-0.016-0.011-0.030-0.024-0.047-0.031-0.224-0.090-0.423-0.217-0.602-0.356-0.030-0.041-0.067-0.092-0.122-0.138-0.094-0.076-0.206-0.129-0.315-0.181-0.058-0.028-0.117-0.055-0.163-0.083-0.215-0.137-0.433-0.264-0.652-0.393l-0.169-0.1c-0.097-0.058-0.175-0.129-0.266-0.213-0.071-0.066-0.143-0.132-0.226-0.194-0.304-0.23-0.643-0.379-0.97-0.525-0.383-0.169-0.769-0.387-1.144-0.598-0.152-0.086-0.302-0.171-0.452-0.252l-0.43-0.239c-0.453-0.254-0.922-0.517-1.437-0.719l-0.405-0.161c-0.226-0.091-0.452-0.182-0.68-0.266-0.233-0.087-0.494-0.17-0.72-0.168 0.103-0.195 0.209-0.389 0.316-0.58 0.003 0.001 0.006 0.004 0.009 0.006 0.709 0.283 4.107 1.755 4.716 2.102 0.156 0.089 0.289 0.191 0.423 0.293 0.126 0.095 0.253 0.191 0.395 0.279 0.177 0.111 0.332 0.242 0.487 0.37 0.161 0.134 0.322 0.267 0.499 0.383 0.429 0.276 0.846 0.594 1.352 1.034 0.106 0.092 0.2 0.195 0.294 0.298 0.121 0.132 0.256 0.262 0.404 0.383-0.030 0.018-0.062 0.033-0.093 0.049zM34.585 23.103c-0.003-0.001-0.004-0.005-0.007-0.007-0.18-0.109-0.324-0.267-0.479-0.435-0.109-0.119-0.218-0.237-0.339-0.342-0.528-0.458-0.964-0.791-1.416-1.082-0.158-0.102-0.3-0.222-0.445-0.342-0.169-0.141-0.344-0.287-0.548-0.415-0.127-0.080-0.241-0.166-0.354-0.251-0.153-0.116-0.306-0.231-0.483-0.332-0.389-0.222-1.73-0.822-2.91-1.336 0.163 0.044 0.312 0.084 0.423 0.109 0.857 0.191 1.871 0.59 2.713 1.068l0.431 0.241c0.355 0.196 0.722 0.399 1.063 0.624 0.292 0.193 0.534 0.42 0.79 0.661l0.17 0.159c0.164 0.152 0.308 0.324 0.452 0.494 0.189 0.222 0.384 0.453 0.621 0.648 0.086 0.071 0.133 0.134 0.185 0.208 0.058 0.080 0.125 0.166 0.228 0.246-0.032 0.027-0.061 0.057-0.095 0.083zM57.483 20.099c2.299-0.126 4.678-0.256 6.989-0.774l0.219-0.049c1.097-0.249 2.135-0.485 3.142-0.072 1.136 0.465 2.101 1.451 2.992 2.422 2.14 2.332 3.45 5.142 3.788 8.124 0.106 0.92 0.084 1.865 0.064 2.78-0.010 0.463-0.021 0.925-0.016 1.388 0.006 0.635 0.049 1.281 0.090 1.905 0.067 1.012 0.137 2.058 0.047 3.071-0.055 0.634-0.171 1.322-0.626 1.613-0.433 0.275-1.048 0.078-1.534-0.126-1.123-0.473-1.956-1.049-2.923-1.716-0.166-0.114-0.337-0.232-0.511-0.351-0.406-0.726-0.833-1.456-1.309-2.22-0.671-1.076-1.266-2.225-1.842-3.338-0.581-1.122-1.181-2.282-1.863-3.376-1.433-2.296-2.953-4.274-4.517-5.881-0.2-0.204-0.391-0.412-0.582-0.619-0.516-0.558-1.048-1.134-1.693-1.608-0.485-0.358-0.98-0.701-1.475-1.045-0.015-0.010-0.030-0.021-0.045-0.031 0.534-0.035 1.069-0.065 1.605-0.095zM33.768 4.826c0.161-0.183 0.275-0.369 0.385-0.55 0.071-0.117 0.142-0.234 0.227-0.348 0.068-0.090 0.136-0.175 0.202-0.259 0.148-0.185 0.301-0.378 0.434-0.606l0.094-0.168c0.104-0.191 0.233-0.429 0.357-0.539 0.070-0.062 0.145-0.121 0.22-0.181 0.154-0.122 0.313-0.248 0.459-0.409 0.083-0.091 0.157-0.226 0.242-0.383 0.064-0.117 0.214-0.393 0.351-0.478-0.032 0.095-0.092 0.222-0.134 0.309-0.084 0.175-0.18 0.374-0.222 0.576-0.012 0.055-0.007 0.112 0.015 0.163 0.171 0.42 0.539 0.546 1.093 0.373 0.233-0.073 0.383-0.263 0.502-0.415 0.035-0.046 0.071-0.091 0.107-0.131 0.215-0.232 0.498-0.397 0.796-0.572 0.147-0.086 0.294-0.171 0.434-0.266 0.053-0.035 0.112-0.081 0.174-0.128 0.072-0.055 0.158-0.12 0.246-0.172-0.014 0.019-0.029 0.038-0.044 0.055l-0.067 0.074c-0.152 0.169-0.296 0.329-0.27 0.559 0.024 0.218 0.201 0.369 0.377 0.492 0.261 0.185 0.617 0.437 1.062 0.111 0.148-0.108 0.239-0.237 0.321-0.351l0.069-0.094c0.055-0.073 0.12-0.129 0.185-0.188 0.069-0.062 0.137-0.125 0.201-0.198 0.046-0.052 0.078-0.096 0.108-0.134 0.055-0.075 0.055-0.075 0.169-0.101 0.033-0.007 0.065-0.014 0.095-0.020-0.030 0.054-0.075 0.113-0.137 0.196-0.131 0.173-0.375 0.494-0.185 0.847 0.285 0.531 1.062 0.503 1.474 0.402 0.279-0.068 0.479-0.202 0.655-0.321 0.087-0.058 0.175-0.118 0.276-0.171 0.076-0.039 0.15-0.068 0.225-0.097 0.114-0.045 0.228-0.090 0.341-0.156 0.182-0.105 0.318-0.086 0.344-0.061 0.007 0.007 0.013 0.052-0.016 0.133-0.123 0.041-0.248 0.121-0.364 0.238-0.187 0.188-0.375 0.5-0.371 0.773 0.003 0.245 0.147 0.677 1.082 0.813 0.48 0.072 0.703-0.259 0.849-0.477 0.034-0.050 0.069-0.103 0.108-0.152-0.002 0.014-0.004 0.027-0.004 0.041-0.018 0.244 0.112 0.475 0.351 0.618l0.127 0.080c0.306 0.197 0.723 0.463 1.1 0.357 0.123-0.034 0.228-0.108 0.32-0.172 0.046-0.032 0.091-0.066 0.137-0.086 0.048-0.022 0.105-0.058 0.168-0.098 0.198-0.129 0.313-0.183 0.471-0.103-0.016 0.016-0.035 0.032-0.050 0.038-0.070 0.032-0.145 0.054-0.219 0.077-0.089 0.027-0.178 0.055-0.259 0.092-0.125 0.055-0.225 0.13-0.314 0.197-0.052 0.039-0.103 0.078-0.16 0.112-0.126 0.072-0.174 0.229-0.112 0.359 0.231 0.483 0.821 0.675 1.252 0.813l0.092 0.030c0.446 0.147 0.692-0.092 0.852-0.252 0.109-0.108 0.17-0.165 0.272-0.174 0.136-0.013 0.304-0.007 0.408 0.018-0.047 0.033-0.111 0.070-0.174 0.109-0.187 0.117-0.913 0.704-0.788 1.245 0.136 0.593 0.919 0.661 1.358 0.604 0.183-0.022 0.336-0.1 0.472-0.17 0.218-0.112 0.291-0.136 0.388-0.083 0.047 0.025 0.068 0.045 0.075 0.046-0.021 0.075-0.206 0.26-0.519 0.432-0.584 0.323-0.825 0.76-0.66 1.199 0.181 0.482 0.907 0.895 1.308 0.956 0.255 0.040 0.506-0.017 0.728-0.068-0.159 0.127-0.287 0.317-0.36 0.475-0.123 0.263-0.144 0.517-0.046 0.743 0.212 0.375 0.584 0.562 1.090 0.54-0.114 0.094-0.202 0.217-0.252 0.361-0.091 0.26-0.057 0.574 0.089 0.84 0.188 0.338 0.409 0.669 0.759 0.805 0.14 0.055 0.307 0.055 0.468 0.055 0.103 0 0.296 0.001 0.333 0.027 0.007 0.047 0.011 0.077-0.267 0.183-0.103 0.039-0.202 0.079-0.277 0.126-0.584 0.366-0.324 0.915-0.214 1.15 0.202 0.423 0.568 0.655 1.027 0.644 0.157-0.007 0.273-0.069 0.357-0.114 0.037-0.019 0.075-0.040 0.095-0.044 0.065-0.011 0.122-0.030 0.205-0.072 0.001 0 0.021 0.010 0.061 0.053-0.062 0.092-0.199 0.15-0.425 0.231-0.248 0.088-0.529 0.188-0.641 0.461-0.075 0.183-0.052 0.391 0.069 0.639 0.264 0.542 0.662 0.605 0.982 0.656 0.148 0.024 0.287 0.046 0.43 0.108 0.093 0.041 0.141 0.107 0.126 0.126-0.021 0.015-0.097 0.031-0.147 0.042-0.153 0.033-0.621 0.136-0.531 0.652 0.047 0.27 0.257 0.403 0.396 0.491 0.072 0.046 0.147 0.093 0.181 0.18-0.013 0.012-0.079 0.035-0.184 0.033-0.364 0-1.093 0.080-1.806 0.163-0.193 0.022-0.404 0.046-0.607 0.068-0.495-0.395-0.973-0.819-1.434-1.232-0.85-0.763-1.729-1.552-2.757-2.168l-0.696-0.415c-0.869-0.516-1.767-1.050-2.616-1.619-0.403-0.27-0.797-0.573-1.179-0.867-0.403-0.31-0.821-0.631-1.291-0.942-2.262-1.503-4.599-3.057-7.078-4.282-0.184-0.091-0.423-0.217-0.694-0.36-0.783-0.412-1.784-0.939-2.587-1.231 0.105-0.281 0.239-0.613 0.327-0.713z"></path>
<path fill="#444444" d="M9.807 7.581c0.482-0.548 0.376-1.253-0.276-1.841-0.035-0.031-0.075-0.052-0.117-0.063-0.021-0.020-0.047-0.037-0.076-0.050-0.366-0.162-1.224-0.539-1.647 0.349-0.239 0.502-0.076 0.999 0.484 1.476 0.293 0.248 0.652 0.421 0.989 0.421 0.239-0.001 0.463-0.087 0.644-0.293zM8.191 6.214c0.076-0.159 0.162-0.252 0.338-0.252 0.132 0 0.316 0.053 0.585 0.172 0.015 0.006 0.030 0.011 0.044 0.016 0 0 0.001 0.001 0.002 0.001 0.296 0.268 0.578 0.67 0.231 1.065-0.214 0.245-0.654-0.014-0.856-0.185-0.46-0.391-0.432-0.632-0.344-0.816z"></path>
<path fill="#444444" d="M8.245 5.026c0.274-0.098 0.491-0.043 0.792 0.033 0.124 0.031 0.253 0.064 0.391 0.087 0.15 0.026 0.294-0.077 0.319-0.228s-0.077-0.293-0.227-0.319c-0.123-0.021-0.237-0.050-0.348-0.078-0.335-0.085-0.68-0.172-1.114-0.018-0.467 0.166-0.94 0.401-1.238 0.992-0.452 0.895 0.196 1.992 1.034 2.57 0.048 0.033 0.103 0.049 0.157 0.049 0.088 0 0.174-0.042 0.229-0.12 0.086-0.126 0.055-0.298-0.072-0.385-0.536-0.369-1.179-1.218-0.853-1.863 0.2-0.396 0.492-0.564 0.93-0.72z"></path>
</svg>
