<?xml version="1.0" encoding="utf-8"?>
<!-- Generated by IcoMoon.io -->
<!DOCTYPE svg PUBLIC "-//W3C//DTD SVG 1.1//EN" "http://www.w3.org/Graphics/SVG/1.1/DTD/svg11.dtd">
<svg version="1.1" xmlns="http://www.w3.org/2000/svg" xmlns:xlink="http://www.w3.org/1999/xlink" width="82" height="60" viewBox="0 0 82 60">
<path fill="#444444" d="M81.625 15.783c-1.071-1.793-3.172-2.91-4.709-3.726-2.655-1.412-5.293-2.611-8.299-1.98 0.907-1.731 1.477-3.24 1.245-5.238-0.273-2.341-1.613-4.116-3.501-4.632-1.161-0.316-2.36-0.203-3.522-0.095-0.407 0.038-0.81 0.076-1.205 0.095-0.211 0.010-0.423 0.015-0.634 0.021-1.017 0.027-2.067 0.056-3.070 0.503-2.662 1.186-4.69 4.235-5.249 5.141-1.012 1.643-1.865 3.455-2.69 5.207-0.33 0.701-0.659 1.399-0.995 2.081-1.286 2.609-2.757 5.13-4.771 8.171-0.277 0.418-0.549 0.915-0.866 1.49-0.401 0.729-0.856 1.554-1.461 2.487-0.56 0.864-1.357 1.294-2.34 1.765-1.891 0.906-3.588 1.934-5.267 3.099 0.678-1.344 1.323-2.745 1.719-4.097 0.263-0.898 0.524-2.198-0.235-3.132-0.755-0.927-2.060-1.022-3.241-0.99-1.609 0.042-3.211 0.333-4.759 0.615-0.921 0.167-1.873 0.341-2.804 0.456-0.684 0.085-1.37 0.147-2.056 0.209-1.415 0.129-2.878 0.263-4.308 0.592-4.62 1.066-8.79 3.62-12.059 7.387-1.377 1.586-2.767 3.299-3.32 5.263-0.522 1.854 0.081 3.581 0.665 5.25l0.111 0.319c1.122 3.234 1.633 6.393 2.174 9.739 0.247 1.533 0.504 3.117 0.823 4.709 0.008 0.039 0.025 0.073 0.042 0.106-0.037 0.063-0.073 0.127-0.109 0.189-1.561-0.364-3.135-0.744-4.666-1.21l-0.129-0.039c-0.49-0.146-0.952-0.284-1.226-0.619-0.015-0.043 0.003-0.246 0.187-0.521 0.181-0.272 0.383-0.398 0.446-0.401 0.247-0.016 0.446-0.226 0.436-0.473s-0.161-0.432-0.453-0.437c-0.582 0.011-1.114 0.588-1.362 1.119-0.232 0.497-0.221 0.96 0.030 1.271 0.459 0.568 1.109 0.762 1.682 0.933l0.125 0.037c1.614 0.491 3.268 0.888 4.901 1.267 0.002 0.001 0.002 0.003 0.004 0.004 0.074 0.045 0.156 0.066 0.236 0.066 0.010 0 0.018-0.006 0.028-0.007 0.311 0.072 0.628 0.149 0.936 0.22l0.2 0.046c0.398 0.092 0.799 0.196 1.201 0.301 0.915 0.239 1.862 0.486 2.813 0.586 1.227 0.131 2.48 0.187 3.692 0.243 0.734 0.034 1.466 0.067 2.196 0.116 1.278 0.086 2.578 0.221 3.835 0.353 0.829 0.086 1.657 0.172 2.486 0.247 0.997 0.089 2.003 0.112 2.998 0.112 0.522 0 1.041-0.006 1.553-0.013 0.517-0.006 1.032-0.013 1.548-0.013 0.114 0 0.219 0.027 0.34 0.001 0.25 0 0.454-0.202 0.455-0.452s-0.201-0.456-0.452-0.457c-0.633-0.004-1.267 0.005-1.901 0.012-1.467 0.018-2.986 0.035-4.459-0.096-0.825-0.073-1.648-0.159-2.473-0.246-1.265-0.132-2.574-0.268-3.868-0.356-0.736-0.050-1.475-0.084-2.216-0.117-1.198-0.055-2.438-0.111-3.638-0.238-0.883-0.093-1.796-0.33-2.679-0.561-0.412-0.107-0.821-0.214-1.228-0.307l-0.2-0.046c-0.15-0.035-0.303-0.072-0.454-0.106 0.537-0.915 1.048-1.847 1.538-2.759 0.427-0.793 0.854-1.587 1.302-2.368 0.563-0.98 1.279-1.81 2.036-2.69 0.285-0.331 0.571-0.663 0.85-1.005 2.114-2.586 4.791-5.173 7.957-7.689 1.504-1.195 3.135-2.289 4.712-3.347 1.593-1.069 3.24-2.174 4.773-3.392 0.396-0.314 0.784-0.618 1.169-0.916 0.037 0.045 0.083 0.083 0.137 0.111 0.223 0.115 0.498 0.030 0.614-0.193l0.397-0.754c0.009-0.018 0.019-0.037 0.029-0.055 2.128-1.578 4.201-2.916 6.577-4.055 1.077-0.516 2.023-1.030 2.711-2.091 0.622-0.96 1.085-1.8 1.494-2.543 0.307-0.558 0.572-1.040 0.828-1.426 0.111-0.167 0.204-0.318 0.312-0.483 0.063-0.024 0.124-0.057 0.173-0.11 2.252-2.363 3.293-3.366 6.529-4.477 1.478-0.508 3.474-0.892 4.605 0.155 1.379 1.277 1.188 3.996 1.061 5.794l-0.015 0.206c-0.106 1.571-0.304 2.977-0.513 4.466l-0.144 1.046c-0.085 0.009-0.171 0.010-0.256 0.019-2.436 0.272-4.324 1.311-6.123 3.369-3.302 3.773-5.8 7.864-7.638 12.503-0.705 1.781-1.487 3.563-2.242 5.285-1.092 2.489-2.222 5.064-3.137 7.675-0.083 0.236 0.043 0.497 0.279 0.579 0.050 0.018 0.101 0.025 0.151 0.025 0.187 0 0.363-0.117 0.428-0.305 0.828-2.361 1.839-4.703 2.838-6.983 1.624-0.129 2.512-0.638 3.817-1.402l0.136-0.079c1.184-0.692 2.114-0.598 3.017 0.3 0.874 0.869 1.612 1.788 2.136 2.659 0.574 0.956 1.213 2.195 1.057 3.294-0.036 0.254-1.004 0.515-1.783 0.726-0.998 0.269-2.239 0.604-3.481 1.25-0.223 0.115-0.31 0.39-0.194 0.613 0.081 0.156 0.239 0.246 0.403 0.246 0.071 0 0.143-0.016 0.209-0.052 1.154-0.599 2.343-0.92 3.299-1.179 1.35-0.364 2.325-0.627 2.446-1.475 0.196-1.383-0.527-2.806-1.178-3.891-0.561-0.934-1.347-1.915-2.274-2.835-1.196-1.191-2.58-1.338-4.117-0.44l-0.138 0.081c-1.124 0.657-1.828 1.061-2.94 1.227 0.713-1.627 1.443-3.299 2.109-4.982 1.8-4.543 4.246-8.546 7.477-12.24 1.64-1.875 3.348-2.82 5.541-3.063 1.237-0.138 2.515-0.171 3.749-0.202 1.158-0.029 2.356-0.059 3.535-0.176 4.037-0.398 8.319-1.111 11.839-3.006 0.075-0.005 0.149-0.023 0.216-0.067 0.054-0.035 0.096-0.081 0.129-0.132 1.921-1.094 3.603-2.553 4.861-4.543 0.543-0.859 0.864-1.713 0.99-2.537 0.038-0.084 0.055-0.171 0.040-0.259 0.093-0.948-0.094-1.847-0.572-2.649zM32.667 31.339c-0.723 0.539-1.453 1.106-2.204 1.703-1.505 1.195-3.136 2.291-4.714 3.349-1.592 1.069-3.237 2.173-4.77 3.391-3.218 2.558-5.942 5.19-8.096 7.826-0.274 0.336-0.555 0.663-0.835 0.988-0.752 0.873-1.53 1.776-2.137 2.83-0.453 0.789-0.884 1.59-1.314 2.391-0.284 0.528-0.572 1.064-0.869 1.598-0.238-1.272-0.452-2.542-0.651-3.775-0.547-3.386-1.063-6.583-2.212-9.893l-0.112-0.32c-0.562-1.608-1.092-3.127-0.648-4.704 0.502-1.784 1.767-3.343 3.131-4.912 3.143-3.621 7.147-6.076 11.577-7.098 1.371-0.317 2.803-0.447 4.187-0.573 0.696-0.064 1.391-0.127 2.085-0.213 0.957-0.118 1.922-0.294 2.855-0.464 1.514-0.276 3.081-0.56 4.62-0.6 0.96-0.028 2.007 0.034 2.512 0.655 0.482 0.594 0.289 1.543 0.066 2.303-0.532 1.811-1.547 3.765-2.472 5.519zM68.877 11.586c0.53-0.247 1.071-0.501 1.488-0.765 2.121 0.032 4.116 0.97 6.126 2.039 1.521 0.809 3.413 1.815 4.353 3.39 0.216 0.363 0.341 0.732 0.409 1.099-0.074-0.058-0.156-0.118-0.254-0.179-0.156-0.096-0.316-0.186-0.475-0.274-0.213-0.117-0.427-0.234-0.625-0.377-0.155-0.111-0.304-0.227-0.453-0.343-0.267-0.208-0.535-0.415-0.825-0.595-0.869-0.541-2.013-1.186-3.155-1.378-0.154-0.025-0.303-0.047-0.449-0.068-0.453-0.065-0.844-0.121-1.262-0.284-1.136-0.439-2.352-0.187-3.426 0.035l-0.185 0.038c-0.944 0.194-1.819 0.438-2.674 0.749l-0.347 0.126c-0.936 0.336-1.905 0.683-2.782 1.245l-0.099 0.064c-0.889 0.568-1.806 1.156-2.611 1.838-0.878 0.744-1.563 1.693-2.224 2.611-0.224 0.309-0.445 0.617-0.671 0.911-0.038 0.050-0.063 0.096-0.095 0.146 0.016-0.36 0.023-0.729 0.016-1.109 0.776-1.184 1.555-1.85 2.538-2.683 0.35-0.296 0.719-0.609 1.112-0.967 0.855-0.779 1.854-1.681 2.877-2.531 0.331-0.275 0.642-0.573 0.953-0.871 0.376-0.361 0.731-0.702 1.121-1.003 0.365-0.283 1.001-0.578 1.619-0.864zM67.584 11.029c0.005 0.003 0.012 0.003 0.017 0.005 0.036 0.038 0.075 0.071 0.121 0.095-0.387 0.193-0.749 0.39-1.019 0.598-0.431 0.331-0.82 0.706-1.198 1.069-0.295 0.284-0.589 0.568-0.903 0.828-1.039 0.862-2.046 1.773-2.909 2.558-0.385 0.35-0.745 0.656-1.087 0.946-0.746 0.632-1.417 1.203-2.063 1.99-0.021-0.146-0.046-0.292-0.076-0.436 0.089-0.116 0.212-0.282 0.392-0.528 3.779-5.168 6.438-7.838 7.902-7.937 0.231-0.014 0.429 0.051 0.587 0.214 0.013 0.013 0.029 0.018 0.043 0.029-0.088 0.213-0.012 0.458 0.193 0.57zM67.817 9.645c-0.311-0.244-0.684-0.365-1.118-0.335-1.246 0.084-2.859 1.43-4.479 3.192 0.381-0.642 0.774-1.28 1.211-1.877 0.468-0.638 0.917-1.286 1.352-1.945l0.213-0.332c0.2-0.317 0.389-0.617 0.618-0.866 0.408-0.444 0.875-0.879 1.28-1.252 0.236-0.218 0.822-0.629 2.086-0.95 0.107 1.59-0.37 2.854-1.162 4.365zM49.288 16.905c-0.781 0.402-1.43 0.839-2.053 1.353 0.966-1.613 1.813-3.145 2.578-4.699 0.266-0.539 0.526-1.093 0.787-1.646-0.43 1.594-0.848 3.151-1.311 4.98-0.001 0.005 0 0.008-0.001 0.012zM52.070 13.173c-0.187 0.592-0.381 1.204-0.462 1.816-0.056 0.433-0.087 0.643-0.182 1.011-0.386 0.136-0.743 0.274-1.075 0.413 0.447-1.744 0.86-3.274 1.291-4.868 0.254-0.941 0.516-1.91 0.797-2.968 0.031-0.118 0.012-0.237-0.044-0.337 0.339-0.648 0.689-1.287 1.062-1.895 0.315-0.511 0.7-1.057 1.127-1.597-0.075 0.134-0.15 0.272-0.212 0.426-0.41 1.033-0.7 2.116-0.98 3.162l-1.070 3.996c-0.075 0.275-0.163 0.556-0.253 0.839zM53.37 14.269c-0.061 0.258-0.103 0.466-0.144 0.668-0.036 0.184-0.076 0.373-0.127 0.585-0.218 0.045-0.441 0.097-0.672 0.162 0.030-0.172 0.055-0.345 0.085-0.574 0.069-0.533 0.251-1.106 0.427-1.661 0.095-0.296 0.187-0.59 0.265-0.879l1.071-3.997c0.285-1.069 0.555-2.078 0.946-3.061 0.101-0.256 0.257-0.485 0.422-0.727 0.126-0.184 0.249-0.368 0.36-0.569 0.144-0.263 0.477-1.101 0.522-1.454 0.001-0.012-0.003-0.022-0.003-0.033 0.528-0.445 1.080-0.824 1.642-1.094-0.054 0.115-0.102 0.23-0.148 0.341-0.081 0.195-0.161 0.389-0.266 0.564-0.307 0.511-0.542 1.055-0.769 1.582-0.144 0.335-0.287 0.668-0.45 0.992-0.484 0.964-0.865 1.969-1.233 2.941l-0.168 0.44c-0.347 0.916-0.707 1.863-0.972 2.842l-0.213 0.776c-0.2 0.717-0.398 1.434-0.571 2.156zM54.063 15.371c0.019-0.086 0.036-0.172 0.054-0.257 0.039-0.192 0.078-0.389 0.136-0.634 0.171-0.711 0.366-1.419 0.562-2.125l0.214-0.779c0.254-0.937 0.59-1.821 0.946-2.758l0.167-0.44c0.377-0.994 0.734-1.933 1.197-2.855 0.171-0.34 0.322-0.69 0.473-1.041 0.225-0.522 0.437-1.014 0.712-1.472 0.128-0.211 0.228-0.446 0.327-0.682 0.146-0.351 0.285-0.683 0.528-0.88 0.069-0.056 0.11-0.131 0.136-0.209 0.486-0.067 0.99-0.085 1.51-0.1 0.106-0.003 0.211-0.007 0.318-0.011-0.015 0.025-0.027 0.055-0.042 0.075-0.096 0.141-0.143 0.269-0.185 0.382l-0.033 0.086c-0.051 0.125-0.138 0.248-0.232 0.38-0.055 0.077-0.109 0.155-0.158 0.233l-0.060 0.094c-0.179 0.279-0.365 0.568-0.493 0.905-0.096 0.25-0.241 0.489-0.395 0.742-0.134 0.222-0.267 0.445-0.377 0.68-0.439 0.947-1.004 2.197-1.484 3.477-0.395 1.060-0.801 2.155-1.293 3.202-0.632 1.345-1.18 2.532-1.621 3.965-0.285-0.017-0.59-0.005-0.908 0.022zM56.139 15.595c-0.085-0.032-0.176-0.055-0.265-0.079 0.418-1.329 0.94-2.463 1.541-3.743 0.509-1.082 0.923-2.196 1.323-3.272 0.468-1.251 1.024-2.481 1.457-3.413 0.095-0.206 0.213-0.398 0.329-0.591 0.168-0.277 0.341-0.563 0.467-0.89 0.095-0.248 0.247-0.486 0.407-0.737l0.063-0.097c0.043-0.067 0.088-0.132 0.134-0.196 0.113-0.16 0.24-0.341 0.331-0.564l0.044-0.115c0.034-0.090 0.053-0.139 0.084-0.185 0.050-0.073 0.097-0.164 0.146-0.258 0.037-0.072 0.099-0.193 0.126-0.218 0.067-0.048 0.112-0.114 0.144-0.184 0.153-0.014 0.303-0.021 0.457-0.035 0.284-0.026 0.57-0.053 0.856-0.073-0.104 0.156-0.193 0.317-0.276 0.468-0.064 0.118-0.127 0.236-0.196 0.343-0.155 0.239-0.322 0.467-0.488 0.694-0.233 0.317-0.473 0.644-0.683 1.004-0.929 1.592-1.719 3.275-2.482 4.904-0.255 0.543-0.51 1.087-0.771 1.628-0.227 0.474-0.545 1.096-0.89 1.771-0.67 1.316-1.419 2.786-1.856 3.837zM57.17 16.211c-0.073-0.064-0.152-0.118-0.229-0.176 0.415-1.019 1.181-2.522 1.865-3.865 0.348-0.682 0.668-1.311 0.899-1.79 0.262-0.544 0.517-1.090 0.775-1.635 0.755-1.611 1.536-3.275 2.445-4.831 0.186-0.319 0.402-0.613 0.63-0.924 0.177-0.242 0.356-0.484 0.52-0.739 0.082-0.127 0.156-0.265 0.232-0.403 0.146-0.269 0.284-0.524 0.471-0.666 0.085-0.066 0.135-0.156 0.159-0.254 0.406 0.015 0.806 0.054 1.186 0.157 0.329 0.090 0.631 0.236 0.914 0.414-0.522 0.789-1.046 1.581-1.583 2.348-0.175 0.249-0.322 0.524-0.468 0.799-0.1 0.19-0.201 0.379-0.314 0.559-0.149 0.238-0.293 0.48-0.436 0.721-0.196 0.33-0.391 0.66-0.604 0.98-1.154 1.742-2.333 3.57-3.504 5.434-0.365 0.579-0.967 1.324-1.549 2.044-0.504 0.621-1.014 1.256-1.411 1.826zM57.787 16.928c0.384-0.584 0.945-1.285 1.5-1.971 0.598-0.74 1.219-1.506 1.612-2.132 1.167-1.858 2.342-3.681 3.493-5.416 0.221-0.334 0.425-0.677 0.628-1.020 0.139-0.235 0.279-0.47 0.424-0.701 0.125-0.197 0.236-0.407 0.347-0.618 0.128-0.241 0.255-0.483 0.408-0.702 0.522-0.748 1.033-1.518 1.54-2.286 0.543 0.583 0.93 1.368 1.122 2.303-0.025 0.002-0.050-0.003-0.075 0.004-1.406 0.351-2.141 0.83-2.51 1.171-0.418 0.386-0.9 0.835-1.333 1.305-0.285 0.31-0.505 0.658-0.718 0.996l-0.2 0.316c-0.428 0.648-0.869 1.284-1.327 1.91-0.696 0.95-1.286 1.976-1.857 2.969-0.214 0.372-0.428 0.744-0.649 1.113-0.293 0.491-0.783 1.054-1.258 1.599-0.375 0.431-0.755 0.871-1.071 1.308-0.027-0.048-0.047-0.101-0.076-0.147zM64.033 28.069c-1.148 0.114-2.328 0.143-3.469 0.172-0.868 0.022-1.756 0.058-2.643 0.117l0.093-0.67 0.499-0.091c6.317-1.171 10.412-1.378 12.22-0.626-2.189 0.561-4.482 0.879-6.701 1.098zM71.918 26.64c-2.139-1.792-8.741-0.831-13.573 0.064l-0.201 0.036c0.034-0.245 0.066-0.49 0.098-0.734 4.553-2.141 14.018-3.67 16.929-0.658-1.027 0.522-2.12 0.946-3.253 1.292zM75.986 24.901c-3.221-3.769-13.118-1.846-17.613 0.054 0.021-0.191 0.043-0.383 0.063-0.577 0.002-0.001 0.004 0 0.005-0.001 0.192-0.096 0.475-0.248 0.837-0.444 2.331-1.259 7.792-4.207 12.906-4.921 3.025-0.421 7.090 0.588 8.040 1.975-1.118 1.673-2.573 2.942-4.238 3.914zM80.723 20.164c-1.539-1.631-5.767-2.459-8.664-2.054-5.276 0.739-10.838 3.74-13.213 5.022-0.117 0.064-0.214 0.115-0.314 0.169 0.003-0.041 0.007-0.081 0.010-0.122 0.391-0.177 0.558-0.49 0.686-0.758 0.066-0.14 0.13-0.272 0.228-0.4 0.232-0.303 0.459-0.617 0.688-0.933 0.63-0.873 1.282-1.777 2.075-2.449 0.759-0.643 1.65-1.213 2.514-1.766l0.099-0.064c0.79-0.507 1.669-0.821 2.598-1.155l0.352-0.126c0.813-0.295 1.646-0.528 2.547-0.713l0.186-0.038c0.996-0.206 2.026-0.419 2.911-0.076 0.515 0.2 0.997 0.269 1.462 0.337 0.14 0.020 0.283 0.040 0.429 0.065 0.997 0.167 2.089 0.795 2.825 1.252 0.263 0.164 0.505 0.353 0.747 0.541 0.158 0.123 0.317 0.247 0.479 0.363 0.227 0.164 0.472 0.299 0.716 0.435 0.146 0.080 0.292 0.161 0.435 0.249 0.23 0.143 0.326 0.258 0.458 0.417 0.075 0.092 0.169 0.195 0.28 0.304-0.098 0.538-0.298 1.046-0.534 1.502z"></path>
<path fill="#444444" d="M64.878 34.985c-1.584 0-2.642 3.521-2.93 4.6l-0.092 0.346 0.3 0.16c0.005 0.003 0.009 0.008 0.015 0.011 0.004 0.002 0.009 0.001 0.013 0.004l0.101 0.054h0.115c0.397 0 3.097-1.183 3.796-2.694 0.313-0.676 0.216-1.342-0.279-1.925-0.312-0.369-0.662-0.556-1.040-0.556zM65.419 36.965c-0.268 0.791-1.494 1.563-2.329 1.979 0.522-1.575 1.287-3.050 1.788-3.050 0.129 0 0.273 0.146 0.347 0.234 0.236 0.278 0.296 0.537 0.194 0.837z"></path>
<path fill="#444444" d="M60.709 43.326c-0.664 0-1.406 0.312-1.766 0.606-0.498 0.408-2.093 2.431-1.892 2.992l0.123 0.312 0.32 0.001c0.217 0 0.365-0.137 0.489-0.271 0.133-0.102 0.771-0.193 1.193-0.252 1.11-0.156 2.367-0.333 2.869-1.127 0.226-0.357 0.265-0.779 0.115-1.258-0.2-0.637-0.729-1.003-1.452-1.003zM61.274 45.1c-0.277 0.438-1.404 0.598-2.227 0.714-0.207 0.028-0.398 0.056-0.576 0.086 0.321-0.475 0.723-1 1.045-1.264 0.201-0.164 0.74-0.4 1.192-0.4 0.413 0 0.526 0.185 0.582 0.365 0.088 0.285 0.034 0.421-0.016 0.499z"></path>
<path fill="#444444" d="M73.729 34.489c-0.397 0-0.824 0.143-1.237 0.416-0.025 0.016-2.427 1.846-2.206 2.586l0.138 0.347h0.337c0.001 0 0.001 0 0.001 0 0.094 0 0.19-0.023 0.304-0.074 0.483-0.215 1.088-0.328 1.673-0.438 1.125-0.211 2.29-0.429 2.273-1.489-0.010-0.819-0.515-1.348-1.283-1.348zM72.572 36.431c-0.201 0.037-0.411 0.077-0.624 0.123 0.342-0.338 0.734-0.686 1.044-0.89 0.256-0.169 0.524-0.265 0.737-0.265 0.182 0 0.368 0.054 0.374 0.451 0.005 0.293-0.81 0.447-1.531 0.581z"></path>
</svg>
