<?xml version="1.0" encoding="utf-8"?>
<!-- Generated by IcoMoon.io -->
<!DOCTYPE svg PUBLIC "-//W3C//DTD SVG 1.1//EN" "http://www.w3.org/Graphics/SVG/1.1/DTD/svg11.dtd">
<svg version="1.1" xmlns="http://www.w3.org/2000/svg" xmlns:xlink="http://www.w3.org/1999/xlink" width="203" height="60" viewBox="0 0 203 60">
<path fill="#444444" d="M201.97 27.592c-1.555 0.287-3.065 0.755-4.596 1.137-2.311 0.576-4.621 1.157-6.995 1.422-2.915 0.326-5.837 0.55-8.771 0.602-0.83 0.014-1.658 0.096-2.488 0.12-3.776 0.112-7.547 0.338-11.313 0.611-2.257 0.163-4.518 0.279-6.774 0.467-3.096 0.258-6.195 0.478-9.292 0.713-5.396 0.409-10.799 0.713-16.203 0.979-2.995 0.148-5.994 0.203-8.992 0.209-2.529 0.005-5.057-0.071-7.586-0.078-1.86-0.005-3.721 0.034-5.581 0.069-2.824 0.054-5.648 0.116-8.472 0.185-0.963 0.023-1.927 0.056-2.89 0.088-3.118 0.104-6.236 0.166-9.355 0.187-2.676 0.018-5.352-0.027-8.027-0.084-2.166-0.046-4.331-0.167-6.497-0.226-1.632-0.044-3.264-0.047-4.896-0.059-2.020-0.015-4.041-0.028-6.062-0.028-1.245 0-2.49 0.009-3.734 0.045-3.266 0.093-6.531 0.21-9.795 0.361-2.194 0.102-4.385 0.254-6.58 0.334-2.596 0.095-5.191 0.241-7.787 0.283-4.417 0.072-8.833 0.162-13.248 0.355-2.529 0.111-5.058 0.228-7.581 0.42-2.295 0.175-4.589 0.374-6.867 0.716-0.171 0.026-0.339 0.069-0.56 0.114 0.214 0.244 0.477 0.336 0.714 0.457 1.773 0.905 3.648 1.544 5.555 2.093 3.682 1.059 7.409 1.947 11.181 2.603 4.617 0.803 9.089 2.154 13.593 3.39 2.92 0.802 5.806 1.713 8.579 2.944 1.645 0.73 3.22 1.585 4.626 2.724 0.809 0.656 1.498 1.412 1.997 2.335 0.125 0.23 0.113 0.384-0.098 0.548-0.327 0.255-0.641 0.528-0.952 0.803-0.157 0.139-0.291 0.148-0.458 0.014-1.602-1.284-3.513-1.856-5.457-2.338-2.574-0.639-5.225-0.908-7.792-1.58-2.371-0.62-4.744-1.227-7.15-1.701-1.338-0.264-2.677-0.523-4.020-0.785-0.027 0.123 0.059 0.121 0.107 0.141 4.772 1.957 9.588 3.798 14.568 5.166 3.321 0.913 6.681 1.653 10.114 2.013 1.051 0.111 2.107 0.176 3.161 0.257 0.281 0.022 0.542 0.067 0.631 0.386 0.086 0.305-0.061 0.516-0.299 0.683-0.16 0.009-0.321 0.019-0.481 0.028-0.812-0.067-1.626-0.124-2.437-0.201-3.529-0.338-6.987-1.056-10.406-1.972-5.549-1.486-10.889-3.562-16.194-5.737-1.982-0.813-3.937-1.702-5.95-2.429-2.214-0.8-4.487-1.437-6.725-2.176-2.683-0.886-5.358-1.795-7.919-3.006-2.055-0.972-3.851-2.363-5.782-3.536-1.143-0.694-2.030-1.661-2.401-3.006-0.006-0.107-0.013-0.214-0.019-0.321 2.465-1.952 5.144-3.57 7.896-5.077 3.852-2.11 7.857-3.921 11.724-6.002 3.011-1.62 5.947-3.365 8.592-5.547 1.551-1.279 3.101-2.555 4.823-3.6 2.472-1.5 4.947-2.993 7.422-4.489 0.184-0.111 0.37-0.216 0.508-0.387 0.054-0.003 0.107-0.006 0.161-0.009 0.117 0.225 0.224 0.458 0.355 0.674 0.127 0.209 0.133 0.353-0.11 0.484-4.17 2.253-7.616 5.442-11.074 8.607-3.116 2.851-6.52 5.305-10.088 7.547-0.544 0.342-1.091 0.685-1.602 1.073-1.819 1.379-3.825 2.403-5.947 3.227-1.061 0.412-2.097 0.889-3.072 1.482-0.575 0.35-1.122 0.737-1.479 1.33-0.23 0.382-0.342 0.782-0.168 1.224 0.247 0.626 0.467 0.725 1.13 0.633 1.59-0.222 3.181-0.447 4.778-0.609 1.745-0.176 3.497-0.284 5.247-0.416 0.241-0.018 0.449-0.004 0.379-0.368-0.043-0.226 0.113-0.4 0.34-0.487 0.192-0.074 0.392-0.079 0.593-0.090 5.712-0.303 11.421-0.649 17.136-0.894 4.15-0.178 8.286-0.534 12.43-0.794 3.17-0.199 6.284-0.814 9.362-1.607 2.513-0.648 5.022-1.318 7.585-1.749 2.085-0.351 4.176-0.688 6.296-0.71 1.752-0.018 3.505 0.045 5.258 0.066 1.298 0.016 2.596 0.023 3.894 0.031 2.007 0.013 4.014 0.026 6.022 0.034 1.017 0.004 2.035 0.013 3.051-0.006 2.516-0.049 5.032-0.12 7.549-0.17 2.529-0.050 5.059-0.112 7.589-0.122 2.743-0.011 5.486 0.030 8.229 0.051 2.489 0.019 4.978 0.030 7.466 0.067 2.622 0.039 5.244 0.11 7.866 0.157 1.953 0.035 3.907 0.054 5.86 0.079 2.167 0.028 4.335 0.059 6.503 0.080 1.378 0.014 2.757 0.016 4.135 0.017 1.766 0.002 3.533 0.002 5.3-0.004 0.736-0.002 1.472-0.022 2.209-0.034 6.308-0.109 12.607-0.453 18.904-0.829 2.741-0.164 5.484-0.296 8.228-0.394 3.332-0.119 6.665-0.198 9.997-0.271 2.208-0.049 4.417-0.061 6.625-0.081 0.896-0.008 1.793 0.010 2.69 0.016 0.022 0.374 0.044 0.748 0.066 1.123zM36.955 33.887c0.749-0.009 1.498-0.004 2.246-0.030 2.463-0.084 4.926-0.154 7.386-0.276 4.481-0.222 8.959-0.496 13.445-0.614 1.86-0.049 3.721-0.117 5.582-0.131 2.449-0.018 4.898-0.001 7.347 0.019 2.328 0.019 4.657 0.030 6.984 0.1 2.902 0.087 5.802 0.253 8.706 0.257 3.212 0.004 6.425-0.020 9.637-0.077 2.972-0.053 5.942-0.176 8.913-0.249 2.476-0.061 4.952-0.098 7.428-0.136 1.874-0.028 3.749-0.084 5.621-0.051 2.663 0.047 5.326 0.092 7.988 0.053 2.53-0.037 5.061-0.085 7.588-0.205 4.977-0.237 9.951-0.527 14.92-0.9 3.205-0.241 6.413-0.444 9.614-0.733 1.934-0.174 3.875-0.266 5.811-0.406 5.437-0.394 10.881-0.668 16.33-0.859 4.174-0.147 8.347-0.402 12.425-1.432 0.812-0.205 1.626-0.398 2.439-0.597-2.341-0.028-4.67-0.015-6.998 0.040-2.905 0.070-5.809 0.157-8.712 0.269-2.596 0.1-5.188 0.312-7.786 0.372-1.942 0.044-3.874 0.251-5.813 0.356-4.026 0.219-8.053 0.346-12.083 0.436-1.485 0.033-2.971 0.062-4.457 0.070-1.565 0.008-3.131-0.009-4.697-0.016-1.405-0.006-2.81-0.009-4.215-0.022-1.793-0.016-3.586-0.039-5.378-0.063-1.579-0.021-3.157-0.043-4.736-0.072-1.886-0.036-3.772-0.086-5.658-0.118-1.645-0.029-3.291-0.040-4.937-0.062-1.699-0.023-3.398-0.059-5.097-0.074-1.833-0.017-3.667-0.007-5.499-0.028-2.463-0.029-4.925 0.011-7.387 0.054-1.794 0.031-3.587 0.091-5.381 0.123-2.235 0.041-4.47 0.074-6.705 0.097-1.566 0.016-3.131 0.015-4.697 0.008-1.833-0.009-3.666-0.035-5.499-0.051-1.726-0.016-3.454 0.018-5.178-0.055-2.207-0.094-4.387 0.122-6.561 0.435-2.679 0.386-5.307 1.019-7.921 1.709-3.617 0.955-7.275 1.669-11.011 1.949-1.99 0.149-3.983 0.239-5.973 0.398-2.35 0.187-4.706 0.284-7.060 0.426-0.328 0.020-0.662-0.053-0.974 0.088zM56.003 53.203c-0.056-0.261-0.171-0.376-0.269-0.497-0.455-0.568-0.996-1.048-1.58-1.478-1.763-1.3-3.745-2.178-5.77-2.967-4.44-1.73-9.088-2.773-13.648-4.103-2.534-0.739-5.152-1.118-7.735-1.647-4.106-0.84-8.198-1.741-12.18-3.070-1.845-0.616-3.65-1.331-5.219-2.526-0.165-0.126-0.343-0.144-0.532-0.112-0.752 0.128-1.502 0.259-2.253 0.392-0.303 0.054-0.357 0.248-0.262 0.506 0.131 0.352 0.353 0.616 0.703 0.784 2.004 0.965 4.065 1.796 6.136 2.604 2.905 1.134 5.917 1.991 8.769 3.259 2.343 1.042 4.805 1.647 7.291 2.192 2.955 0.648 5.95 1.106 8.888 1.831 3.535 0.872 7.069 1.738 10.663 2.349 1.996 0.339 3.945 0.89 5.769 1.806 0.391 0.196 0.767 0.422 1.228 0.677zM32.124 16.971c-0.125 0.099-0.254 0.191-0.373 0.296-2.53 2.236-5.312 4.113-8.232 5.795-3.496 2.013-7.158 3.702-10.744 5.541-3.375 1.731-6.702 3.54-9.766 5.796-0.531 0.391-0.544 0.425-0.161 0.98 0.53 0.769 1.289 1.276 2.049 1.78 0.455 0.302 0.481 0.304 0.578-0.226 0.080-0.438 0.279-0.671 0.74-0.733 0.636-0.084 1.26-0.247 1.895-0.344 0.291-0.045 0.377-0.111 0.224-0.399-0.391-0.737-0.315-1.468 0.064-2.191 0.393-0.75 1.004-1.28 1.703-1.722 1.319-0.834 2.753-1.431 4.192-2.019 1.266-0.518 2.513-1.075 3.64-1.861 1.274-0.889 2.549-1.778 3.867-2.599 3.73-2.324 7.173-5.016 10.323-8.094z"></path>
</svg>
