<?xml version="1.0" encoding="utf-8"?>
<!-- Generated by IcoMoon.io -->
<!DOCTYPE svg PUBLIC "-//W3C//DTD SVG 1.1//EN" "http://www.w3.org/Graphics/SVG/1.1/DTD/svg11.dtd">
<svg version="1.1" xmlns="http://www.w3.org/2000/svg" xmlns:xlink="http://www.w3.org/1999/xlink" width="73" height="60" viewBox="0 0 73 60">
<path fill="#444444" d="M47.884 60c-0.324 0-1.014-0.291-1.571-0.836-0.184-0.058-0.636-0.324-1.614-0.902-3.112-1.843-10.401-6.159-17.689-8.1-2.633-0.701-8.777-2.134-13.262-3.178-2.619-0.611-4.689-1.093-5.261-1.243-1.020-0.268-2.449-1.598-3.255-3.028-0.467-0.827-0.949-2.066-0.592-3.276 1.354-4.605 4.684-4.528 6.887-4.474 0.506 0.011 0.941 0.023 1.275-0.026 1.404-0.206 3.429-0.413 4.095-0.478-0.551-0.724-2.719-3.497-4.676-4.963-1.487-1.117-5.859-4.676-8.631-7.547-0.086-0.019-0.171-0.039-0.249-0.064l0.045-0.148c-0.996-1.050-1.757-1.997-2.053-2.677-2.775-6.368-0.726-8.259 1.866-10.654 0.547-0.506 1.114-1.027 1.674-1.626 3.832-4.084 7.734-6.167 12.652-6.754 4.755-0.566 17.996 9.306 22.984 13.024 0.791 0.591 1.363 1.016 1.596 1.17 1.734 1.149 6.15 4.528 10.641 8.038l0.071-0.026c0.015 0.039 0.028 0.079 0.045 0.116 5.698 4.457 11.481 9.099 12.021 9.645 0.221 0.079 1.267 0.476 1.423 0.988 0.045 0.146 0.015 0.292-0.082 0.424-0.3 0.396-1.116 1.592-2.235 3.279 0.849 0.277 2.696 0.737 4.391 1.087 1.995 0.412 3.486 1.777 3.894 2.188 0.544 0.544-0.366 2.177-0.471 2.361l-0.071 0.124-0.064-0.049c-1.858 0.446-8.229-2.927-8.717-3.602-0.079-0.111-0.047-0.189-0.023-0.227l0.056-0.079 0.090 0.034c0.047 0.017 4.635 1.772 5.394 1.839 0.924 0.083 2.711 1.361 3.186 1.714 0.347-0.647 0.733-1.65 0.442-1.939-0.398-0.396-1.843-1.721-3.769-2.119-1.742-0.36-3.645-0.838-4.483-1.117-1.408 2.13-3.264 4.987-5.162 7.993-0.383 0.606-0.682 1.228-0.973 1.832-0.319 0.66-0.647 1.343-1.086 2.010-3.502 5.316-7.821 11.109-8.666 11.263-0.023 0.002-0.045 0.004-0.071 0.004zM46.566 59.061c0.561 0.514 1.179 0.716 1.346 0.69 0.606-0.109 4.451-5.006 8.503-11.154 0.431-0.654 0.756-1.327 1.071-1.982 0.294-0.609 0.596-1.239 0.988-1.856 1.884-2.981 3.726-5.82 5.132-7.948-0.009-0.004-0.019-0.008-0.028-0.011l0.096-0.231c0.023 0.009 0.047 0.019 0.073 0.028 1.14-1.721 1.974-2.944 2.278-3.345 0.051-0.068 0.064-0.131 0.043-0.201-0.082-0.272-0.645-0.578-1.088-0.758-0.047 0.683-1.164 2.274-3.311 5.278-1.8 2.516-4.039 5.649-5.993 8.918-3.63 6.066-8.049 11.698-9.109 12.568zM42.214 56.526c1.043 0.592 1.928 1.117 2.612 1.523 0.767 0.454 1.382 0.819 1.545 0.876 0.274-0.169 1.618-1.712 3.426-4.125l-0.030 0.004c-0.008-0.068-0.019-0.142-0.030-0.223-0.281 0.075-0.692 0.186-1.181 0.317-3.994 1.076-5.659 1.502-6.341 1.631zM38.595 46.029c0.038 0.225 0.077 0.45 0.122 0.675 0.244 1.228 0.662 2.415 1.067 3.563 0.201 0.572 0.409 1.163 0.591 1.746 0.219 0.703 0.467 1.297 0.709 1.871 0.322 0.771 0.628 1.502 0.849 2.443 0.647-0.083 4.607-1.149 6.559-1.674 0.503-0.135 0.924-0.249 1.206-0.322-0.171-0.996-0.555-2.715-0.956-4.519-0.769-3.441-1.266-5.728-1.174-6.186 0.017-0.084 0-0.276-0.045-0.546-0.688 0.219-1.408 0.428-2.106 0.63-1.369 0.398-2.784 0.808-4.074 1.326-0.945 0.379-1.851 0.701-2.747 0.994zM26.573 49.789c0.18 0.047 0.347 0.090 0.503 0.131 5.434 1.447 10.858 4.204 14.573 6.285-0.212-0.838-0.495-1.513-0.793-2.224-0.242-0.579-0.493-1.179-0.716-1.894-0.18-0.578-0.388-1.166-0.589-1.736-0.407-1.157-0.829-2.351-1.076-3.596-0.043-0.216-0.081-0.431-0.116-0.647-1.056 0.339-2.098 0.641-3.171 0.953-1.056 0.306-2.149 0.623-3.291 0.988-1.103 0.352-2.209 0.744-3.279 1.125l-0.098 0.036c-0.116 0.041-0.249 0.094-0.394 0.152-0.488 0.195-1.074 0.428-1.538 0.428-0.006 0-0.009 0-0.015 0 0 0 0 0 0 0zM47.76 43.001c0.054 0.332 0.073 0.559 0.051 0.671-0.088 0.439 0.581 3.439 1.172 6.083 0.441 1.971 0.857 3.84 1.001 4.791 1.62-2.181 3.585-5.021 5.477-8.184 0.983-1.643 2.036-3.249 3.069-4.762-0.219-0.868-0.424-1.56-0.641-2.291-0.096-0.324-0.193-0.656-0.296-1.016-0.058 0.034-0.118 0.069-0.18 0.103-0.251 0.144-0.529 0.311-0.827 0.489-1.478 0.883-3.501 2.094-4.973 2.346-0.735 0.126-1.481 0.547-2.205 0.958-0.54 0.304-1.095 0.619-1.65 0.814zM15.157 47.055c3.891 0.907 8.552 2.001 11.168 2.67 0.015-0.729-0.124-1.491-0.257-2.227-0.086-0.476-0.176-0.969-0.221-1.444-0.098-1.007-0.341-1.834-0.653-2.811-0.465-1.468-0.679-3.015-0.877-4.521-1.862 0.431-3.731 0.684-5.55 0.932-1.228 0.167-2.501 0.339-3.763 0.564-0.326 0.058-0.66 0.116-0.999 0.172 0.547 2.865 1.108 5.944 1.151 6.662zM26.573 49.539c0.004 0 0.009 0 0.013 0 0.414 0 1.001-0.233 1.446-0.411 0.146-0.058 0.283-0.112 0.403-0.156l0.097-0.036c1.073-0.381 2.181-0.774 3.287-1.129 1.146-0.366 2.239-0.683 3.296-0.99 1.084-0.313 2.134-0.619 3.199-0.962-0.006-0.036-0.011-0.071-0.017-0.107-0.116-0.709-0.225-1.38-0.446-2.053-0.405-1.236-0.862-2.634-1.17-4.050-0.133-0.611-0.248-1.241-0.356-1.851-0.126-0.694-0.253-1.401-0.413-2.098-3.864 0.949-7.479 1.92-10.472 2.741-0.293 0.081-0.587 0.156-0.879 0.227 0.197 1.5 0.409 3.047 0.87 4.502 0.315 0.992 0.563 1.832 0.662 2.863 0.045 0.463 0.133 0.951 0.217 1.423 0.124 0.686 0.251 1.393 0.261 2.087zM5.042 41.722c0.118 0.321 0.264 0.613 0.407 0.868 0.868 1.537 2.259 2.687 3.101 2.91 0.568 0.15 2.636 0.632 5.254 1.241 0.356 0.082 0.726 0.169 1.101 0.257-0.066-0.78-0.611-3.773-1.146-6.564-1.436 0.234-2.955 0.448-4.434 0.656-1.438 0.203-2.925 0.413-4.284 0.634zM36.154 35.64c0.161 0.705 0.289 1.416 0.416 2.115 0.111 0.608 0.223 1.236 0.356 1.841 0.306 1.403 0.761 2.796 1.164 4.024 0.227 0.694 0.343 1.404 0.456 2.091 0.004 0.023 0.008 0.047 0.011 0.069 0.879-0.287 1.77-0.604 2.694-0.975 1.301-0.521 2.723-0.934 4.097-1.333 0.707-0.204 1.436-0.416 2.132-0.639-0.21-1.125-0.731-3.18-1.172-4.92-0.551-2.171-0.921-3.656-1.014-4.301-0.309 0.062-0.619 0.124-0.924 0.184-0.709 0.141-1.419 0.281-2.128 0.435-2.057 0.448-4.102 0.924-6.084 1.41zM45.534 33.561c0.094 0.666 0.561 2.505 1.013 4.29 0.559 2.203 0.983 3.904 1.17 4.903 0.521-0.188 1.056-0.489 1.571-0.782 0.741-0.42 1.509-0.855 2.286-0.986 1.425-0.244 3.426-1.44 4.886-2.314 0.298-0.18 0.578-0.345 0.829-0.491 0.079-0.047 0.157-0.092 0.232-0.135-0.011-0.039-0.023-0.079-0.034-0.118-0.234-0.836-0.441-1.704-0.641-2.544-0.103-0.439-0.208-0.876-0.317-1.313-0.304-1.219-0.6-2.346-0.896-3.399-0.497 0.176-0.99 0.364-1.468 0.574-0.696 0.304-1.419 0.457-2.117 0.606-0.579 0.124-1.125 0.24-1.663 0.435-1.581 0.572-3.229 0.949-4.854 1.281zM63.602 38.987c1.464 0.951 6.008 3.347 7.787 3.201-0.587-0.426-2.154-1.509-2.942-1.581-0.624-0.054-3.546-1.133-4.843-1.62zM10.772 35.201c-2.072 0-4.74 0.377-5.895 4.307-0.199 0.673-0.114 1.363 0.081 1.976 1.374-0.225 2.878-0.437 4.333-0.641 1.476-0.208 2.991-0.422 4.421-0.654-0.444-2.314-0.87-4.444-0.99-4.991-0.336 0.036-0.741 0.026-1.204 0.015-0.238-0.006-0.487-0.011-0.748-0.011zM57.814 38.16c0.109 0.384 0.214 0.735 0.313 1.076 0.199 0.675 0.388 1.314 0.589 2.091 0.964-1.403 1.903-2.719 2.747-3.898 0.638-0.892 1.264-1.768 1.794-2.541-0.006 0.002-0.011 0.004-0.019 0.006-0.088 0.024-0.18 0.047-0.302 0.103-0.032 0.015-0.092 0.092-0.131 0.143-0.054 0.071-0.107 0.137-0.169 0.178-0.163 0.109-0.379 0.214-0.587 0.315-0.107 0.053-0.21 0.103-0.302 0.152-1.020 0.544-1.706 0.983-2.436 1.447-0.458 0.291-0.924 0.589-1.502 0.932zM12.971 35.164c0.129 0.593 0.549 2.696 0.988 4.984 0.339-0.056 0.675-0.112 1.003-0.172 1.268-0.227 2.541-0.399 3.773-0.568 1.819-0.248 3.692-0.501 5.55-0.934-0.113-0.849-0.229-1.725-0.39-2.572-0.219-1.157-0.529-2.314-0.827-3.433-0.223-0.832-0.452-1.693-0.643-2.55-0.107-0.474-0.217-0.951-0.334-1.425-0.801 0.118-1.603 0.225-2.404 0.309-0.643 0.067-1.299 0.105-1.933 0.141-1.074 0.062-2.184 0.124-3.251 0.334-0.231 0.045-0.465 0.122-0.694 0.197-0.3 0.097-0.611 0.199-0.924 0.232 2.134 1.796 4.32 4.748 4.344 4.779l0.129 0.176-0.219 0.021c-0.026 0.002-2.484 0.238-4.17 0.478zM22.339 28.457c0.114 0.469 0.225 0.938 0.33 1.408 0.191 0.851 0.42 1.71 0.641 2.541 0.3 1.123 0.609 2.286 0.831 3.45 0.161 0.846 0.277 1.716 0.388 2.561 0.283-0.068 0.564-0.141 0.848-0.218 2.992-0.821 6.613-1.794 10.479-2.743-0.156-0.649-0.341-1.288-0.581-1.903-0.881-2.263-1.648-4.607-2.376-6.915-1.44 0.319-2.91 0.589-4.376 0.806-1.076 0.159-2.171 0.345-3.229 0.527-0.971 0.165-1.961 0.334-2.955 0.486zM55.871 30.587c0.298 1.061 0.596 2.194 0.902 3.422 0.109 0.437 0.212 0.876 0.317 1.314 0.199 0.838 0.405 1.703 0.637 2.535 0.006 0.019 0.009 0.037 0.015 0.054 0.549-0.326 0.999-0.615 1.438-0.894 0.733-0.467 1.425-0.907 2.453-1.457 0.094-0.051 0.199-0.101 0.309-0.156 0.201-0.098 0.409-0.199 0.559-0.298 0.026-0.017 0.071-0.075 0.109-0.122 0.068-0.086 0.137-0.176 0.225-0.216 0.142-0.064 0.247-0.094 0.341-0.118 0.126-0.034 0.216-0.058 0.353-0.163 0.827-1.226 1.35-2.126 1.189-2.31v0c-0.171-0.193-1.763-1.496-4.043-3.324-1.095 0.51-2.28 0.896-3.426 1.271-0.456 0.148-0.919 0.3-1.38 0.459zM33.142 26.586c0.726 2.299 1.487 4.631 2.363 6.878 0.244 0.628 0.433 1.277 0.591 1.935 1.984-0.486 4.029-0.964 6.088-1.41 0.711-0.154 1.421-0.296 2.132-0.437 0.315-0.062 0.632-0.126 0.951-0.189 0-0.019 0-0.034 0.002-0.049 0.032-0.296-0.442-2.1-0.945-4.011-0.472-1.796-0.986-3.75-1.279-5.164-1.806 0.144-3.549 0.66-5.192 1.179-1.498 0.474-3.084 0.9-4.714 1.268zM43.299 24.122c0.296 1.427 0.819 3.413 1.267 5.117 0.596 2.265 0.966 3.694 0.954 4.072 1.605-0.328 3.229-0.701 4.783-1.264 0.553-0.201 1.134-0.324 1.695-0.443 0.686-0.146 1.397-0.298 2.070-0.591 0.489-0.214 0.994-0.405 1.5-0.585-0.172-0.609-0.345-1.194-0.519-1.761-0.444-1.446-0.855-2.747-1.401-4.024-0.137-0.321-0.296-0.645-0.448-0.956-0.186-0.379-0.377-0.769-0.54-1.172-0.101-0.079-0.201-0.158-0.302-0.236-0.444 0.122-0.795 0.249-1.106 0.364-0.681 0.247-1.221 0.444-2.269 0.444-0.009 0-0.019 0-0.028 0-0.947 0-1.899 0.259-2.82 0.51-0.855 0.233-1.742 0.474-2.634 0.514-0.067 0.002-0.135 0.006-0.203 0.009zM53.068 22.837c0.114 0.251 0.236 0.501 0.354 0.743 0.154 0.315 0.315 0.641 0.454 0.969 0.549 1.288 0.964 2.595 1.41 4.048 0.172 0.563 0.345 1.146 0.516 1.751 0.458-0.159 0.917-0.309 1.371-0.456 1.099-0.358 2.235-0.729 3.285-1.207-2.098-1.68-4.744-3.774-7.389-5.846zM11.098 28.303c0.523 0.418 0.96 0.759 1.271 0.994 0.15 0.113 0.302 0.233 0.456 0.36l-0.017-0.191c0.302-0.026 0.604-0.124 0.924-0.229 0.234-0.077 0.478-0.156 0.722-0.204 1.086-0.212 2.203-0.276 3.285-0.337 0.632-0.036 1.284-0.073 1.922-0.141 0.787-0.082 1.581-0.187 2.37-0.304-0.276-1.123-0.57-2.237-0.857-3.326-0.705-2.676-1.431-5.426-1.875-8.244-0.915 0.413-1.796 0.847-2.634 1.275-2.492 1.267-4.695 2.222-6.842 2.962 0.004 0.013 0.008 0.026 0.009 0.039 0.094 0.383 0.195 0.765 0.294 1.146 0.281 1.069 0.572 2.173 0.694 3.289 0.034 0.315 0.043 0.637 0.051 0.949 0.009 0.364 0.021 0.739 0.071 1.101 0.015 0.101 0.041 0.197 0.069 0.3 0.049 0.172 0.099 0.351 0.086 0.561zM19.536 16.575c0.443 2.829 1.172 5.597 1.881 8.286 0.289 1.099 0.585 2.22 0.863 3.353 0.999-0.152 1.995-0.321 2.974-0.488 1.059-0.18 2.154-0.367 3.234-0.527 1.455-0.216 2.91-0.484 4.337-0.799-0.146-0.463-0.289-0.924-0.433-1.382-0.371-1.187-0.756-2.415-1.148-3.619-0.737-2.259-1.363-4.594-1.892-7.056-0.694 0.101-1.354 0.161-2.016 0.189-2.796 0.118-5.419 0.99-7.802 2.042zM3.994 22.012c2.066 2.104 4.933 4.539 6.848 6.082-0.015-0.097-0.041-0.191-0.067-0.287-0.030-0.105-0.060-0.214-0.077-0.332-0.053-0.375-0.064-0.758-0.073-1.129-0.009-0.306-0.017-0.623-0.051-0.928-0.118-1.097-0.407-2.192-0.686-3.251-0.101-0.383-0.201-0.765-0.294-1.149-0.002-0.006-0.004-0.013-0.004-0.019-0.259 0.088-0.517 0.172-0.776 0.253-2.008 0.634-3.652 0.891-4.817 0.761zM29.599 14.306c0.527 2.449 1.149 4.77 1.883 7.016 0.392 1.204 0.776 2.432 1.147 3.621 0.146 0.465 0.291 0.934 0.439 1.402 1.629-0.366 3.216-0.791 4.714-1.266 1.646-0.521 3.398-1.037 5.216-1.187-0.116-0.594-0.186-1.074-0.186-1.38 0-1.766-1.656-7.847-2.061-8.976-0.122-0.092-0.253-0.189-0.392-0.291-0.079-0.058-0.157-0.118-0.24-0.18-0.825 0-1.661-0.019-2.469-0.037-0.549-0.011-1.097-0.024-1.646-0.032-1.020-0.009-1.956 0.251-2.942 0.531-0.352 0.099-0.714 0.203-1.082 0.293-0.863 0.21-1.643 0.369-2.383 0.486zM41.1 13.796c0.538 1.706 1.961 7.065 1.961 8.717 0 0.293 0.071 0.771 0.188 1.363 0.081-0.006 0.161-0.009 0.24-0.013 0.866-0.037 1.736-0.276 2.58-0.504 0.938-0.255 1.905-0.517 2.886-0.517 0.009 0 0.019 0 0.028 0 1.005 0 1.524-0.189 2.184-0.429 0.274-0.099 0.578-0.21 0.947-0.319-4.363-3.407-8.558-6.613-10.148-7.667-0.157-0.105-0.448-0.317-0.866-0.628zM3.707 21.718c1.129 0.223 2.856-0.017 5.029-0.703 0.262-0.082 0.527-0.169 0.791-0.259-0.412-1.688-0.891-3.615-1.416-5.501-0.077-0.279-0.154-0.559-0.231-0.84-0.319-1.168-0.647-2.374-1.076-3.521-0.122-0.328-0.231-0.699-0.338-1.095-2.878 1.018-5.407 1.991-5.944 2.387-0.529 1.536-0.364 3.555 1.039 6.773 0.302 0.696 1.102 1.674 2.147 2.762zM6.701 9.716c0.107 0.397 0.216 0.769 0.336 1.091 0.433 1.159 0.763 2.372 1.084 3.544 0.077 0.279 0.152 0.559 0.231 0.838 0.523 1.881 1.001 3.803 1.412 5.486 2.13-0.735 4.316-1.684 6.789-2.942 0.863-0.439 1.766-0.887 2.709-1.307-0.079-0.519-0.148-1.041-0.206-1.564-0.045-0.411-0.088-0.825-0.133-1.241-0.251-2.393-0.51-4.858-1.117-7.164-0.827 0.173-1.425 0.279-1.616 0.279-0.004 0-0.006 0-0.007 0-0.553 0-5.327 1.521-9.478 2.981zM18.047 6.403c0.611 2.321 0.87 4.792 1.121 7.191 0.043 0.416 0.086 0.831 0.133 1.241 0.054 0.497 0.12 0.992 0.195 1.487 2.389-1.050 5.019-1.918 7.83-2.036 0.649-0.028 1.296-0.088 1.974-0.186-0.287-1.354-0.544-2.745-0.774-4.185-0.051-0.319-0.096-0.639-0.139-0.96-0.143-1.029-0.276-2.001-0.632-2.955-0.058-0.154-0.118-0.306-0.18-0.458-0.161-0.399-0.33-0.812-0.413-1.251-1.176 0.285-6.276 1.511-9.114 2.111zM27.418 4.301c0.081 0.39 0.231 0.759 0.388 1.147 0.062 0.154 0.126 0.309 0.184 0.465 0.366 0.981 0.506 2.012 0.645 3.008 0.043 0.317 0.088 0.636 0.139 0.954 0.231 1.44 0.489 2.833 0.776 4.187 0.737-0.114 1.517-0.274 2.376-0.484 0.364-0.088 0.724-0.191 1.072-0.291 1.003-0.285 1.948-0.555 3.013-0.54 0.549 0.008 1.099 0.019 1.648 0.032 0.697 0.015 1.414 0.032 2.126 0.036-2.693-2.004-7.663-5.661-12.366-8.516zM5.327 6.66c-0.092 0.096-0.182 0.191-0.274 0.287-0.566 0.604-1.136 1.131-1.688 1.639-1.146 1.059-2.152 1.989-2.696 3.221 0.911-0.488 3.187-1.359 5.728-2.258-0.013-0.049-0.026-0.099-0.039-0.148-0.27-1.016-0.549-2.068-1.031-2.741zM5.529 6.514c0.508 0.711 0.795 1.785 1.071 2.824 0.011 0.043 0.022 0.086 0.034 0.129 4.172-1.468 8.951-2.979 9.547-2.979 0.002 0 0.006 0 0.008 0 0.174 0 0.742-0.103 1.551-0.272-0.047-0.169-0.094-0.336-0.144-0.501-0.128-0.424-0.298-0.879-0.476-1.361-0.463-1.245-0.986-2.657-0.894-3.859l0.247 0.019c-0.088 1.146 0.426 2.531 0.879 3.752 0.18 0.486 0.351 0.947 0.482 1.376 0.053 0.173 0.103 0.347 0.15 0.521 2.361-0.499 6.448-1.466 9.047-2.094-3.859-2.314-7.492-4.035-9.476-3.799-4.736 0.564-8.52 2.539-12.221 6.382l0.195-0.139z"></path>
</svg>
