<?xml version="1.0" encoding="utf-8"?>
<!-- Generated by IcoMoon.io -->
<!DOCTYPE svg PUBLIC "-//W3C//DTD SVG 1.1//EN" "http://www.w3.org/Graphics/SVG/1.1/DTD/svg11.dtd">
<svg version="1.1" xmlns="http://www.w3.org/2000/svg" xmlns:xlink="http://www.w3.org/1999/xlink" width="166" height="60" viewBox="0 0 166 60">
<path fill="#444444" d="M83.436 25.152c0.935-0.727 1.561-1.367 2.029-2.077 0.502-0.764 0.856-1.614 1.2-2.436l0.089-0.212c0.052-0.125-0.007-0.269-0.132-0.322-0.127-0.053-0.27 0.007-0.322 0.133l-0.090 0.212c-0.334 0.802-0.679 1.631-1.157 2.355-0.437 0.664-1.029 1.268-1.919 1.96-1.653 1.283-3.496 2.371-5.278 3.423-0.94 0.555-1.912 1.129-2.847 1.726-0.456 0.291-0.906 0.594-1.356 0.896-1.053 0.708-2.142 1.441-3.297 2.004-0.494 0.241-0.988 0.472-1.48 0.702-1.57 0.735-3.194 1.496-4.692 2.533-0.112 0.077-0.14 0.231-0.063 0.342 0.048 0.069 0.125 0.106 0.203 0.106 0.048 0 0.097-0.014 0.139-0.044 1.465-1.013 2.998-1.732 4.622-2.492 0.494-0.231 0.99-0.463 1.487-0.706 1.185-0.578 2.289-1.32 3.356-2.038 0.446-0.3 0.893-0.601 1.346-0.89 0.927-0.592 1.896-1.164 2.832-1.716 1.796-1.060 3.652-2.156 5.33-3.459z"></path>
<path fill="#444444" d="M64.324 34.821c0.035 0 0.072-0.008 0.107-0.025 1.205-0.582 2.408-1.212 3.572-1.821 0.824-0.432 1.648-0.863 2.479-1.282 0.331-0.167 0.662-0.331 0.993-0.496 1.043-0.518 2.122-1.054 3.161-1.643 0.509-0.289 1.024-0.564 1.539-0.838 0.928-0.495 1.887-1.006 2.793-1.595 0.339-0.22 0.687-0.439 1.037-0.66 1.507-0.95 3.066-1.931 4.256-3.225 0.479-0.521 0.742-1.081 1.020-1.675 0.067-0.143 0.134-0.289 0.207-0.435 0.408-0.83 1.051-1.549 1.671-2.244l0.18-0.202c0.091-0.102 0.081-0.258-0.020-0.348s-0.258-0.081-0.348 0.021l-0.179 0.201c-0.643 0.72-1.307 1.465-1.745 2.354-0.074 0.15-0.143 0.298-0.212 0.444-0.262 0.559-0.509 1.086-0.936 1.551-1.145 1.245-2.676 2.209-4.155 3.141-0.353 0.222-0.703 0.442-1.043 0.665-0.888 0.577-1.837 1.083-2.756 1.573-0.519 0.276-1.038 0.553-1.551 0.844-1.029 0.583-2.101 1.116-3.137 1.632-0.331 0.165-0.663 0.33-0.995 0.497-0.833 0.42-1.66 0.852-2.486 1.285-1.16 0.607-2.359 1.235-3.558 1.814-0.122 0.059-0.174 0.206-0.114 0.329 0.042 0.088 0.13 0.14 0.222 0.14z"></path>
<path fill="#444444" d="M64.812 33.285c0.032 0 0.065-0.006 0.097-0.020 1.308-0.557 2.591-1.217 3.832-1.856 0.652-0.336 1.304-0.672 1.962-0.995 1.021-0.501 2.006-1.077 2.96-1.634 0.502-0.294 1.004-0.587 1.515-0.872 0.583-0.326 1.175-0.634 1.767-0.943 0.94-0.489 1.912-0.995 2.833-1.567 1.056-0.654 2.051-1.473 2.929-2.196 0.58-0.477 0.999-1.048 1.347-1.546 0.408-0.584 0.899-1.131 1.591-1.774 0.1-0.093 0.106-0.248 0.013-0.348s-0.249-0.105-0.348-0.013c-0.72 0.668-1.232 1.24-1.661 1.854-0.421 0.601-0.776 1.053-1.257 1.447-0.866 0.713-1.848 1.521-2.876 2.158-0.905 0.562-1.868 1.063-2.8 1.548-0.597 0.311-1.193 0.622-1.78 0.95-0.513 0.287-1.019 0.582-1.524 0.877-0.945 0.553-1.923 1.124-2.928 1.617-0.661 0.324-1.316 0.661-1.971 0.998-1.233 0.635-2.507 1.292-3.8 1.841-0.125 0.053-0.183 0.198-0.13 0.323 0.041 0.095 0.133 0.151 0.228 0.151z"></path>
<path fill="#444444" d="M94.795 21.401c0.013 0 0.026-0.001 0.039-0.003 0.573-0.092 1.918-0.36 3.473-0.67 2.655-0.53 5.958-1.19 6.927-1.265 0.319-0.025 0.637-0.046 0.954-0.067 0.913-0.061 1.856-0.123 2.797-0.273 1.812-0.291 3.596-0.285 5.461-0.291h0.238c0.886-0 1.771-0.019 2.656-0.036 0.646-0.013 1.29-0.027 1.933-0.033 0.136-0.002 0.245-0.113 0.244-0.249s-0.098-0.251-0.249-0.243c-0.645 0.006-1.291 0.019-1.938 0.033-0.881 0.018-1.764 0.036-2.646 0.036h-0.238c-1.82 0.005-3.69 0-5.539 0.297-0.918 0.147-1.809 0.206-2.751 0.268-0.319 0.021-0.639 0.042-0.959 0.067-0.999 0.077-4.319 0.74-6.986 1.273-1.551 0.31-2.89 0.577-3.454 0.667-0.134 0.021-0.226 0.148-0.205 0.282 0.019 0.121 0.124 0.207 0.242 0.207z"></path>
<path fill="#444444" d="M134.525 42.64c-0.177-0.020-0.344-0.039-0.481-0.075-0.338-0.090-0.619-0.202-0.944-0.333l-0.056-0.022c-0.451-0.181-0.926-0.312-1.385-0.439l-0.101-0.028c-0.75-0.209-1.49-0.506-2.205-0.795l-0.557-0.223c-0.33-0.13-0.7-0.193-1.058-0.254-0.113-0.019-0.226-0.038-0.334-0.059-0.202-0.039-0.396-0.107-0.6-0.178-0.202-0.070-0.411-0.143-0.634-0.19-0.421-0.086-0.847-0.113-1.258-0.138-0.454-0.028-0.883-0.055-1.31-0.154l-0.275-0.068c-0.439-0.111-0.891-0.226-1.352-0.188-0.134 0.010-0.236 0.13-0.225 0.265s0.134 0.236 0.265 0.226c0.374-0.028 0.792 0.074 1.192 0.175l0.283 0.070c0.468 0.109 0.938 0.138 1.392 0.167 0.413 0.026 0.802 0.050 1.189 0.13 0.191 0.039 0.375 0.103 0.57 0.172 0.213 0.074 0.432 0.151 0.669 0.197 0.112 0.021 0.227 0.041 0.344 0.061 0.334 0.057 0.678 0.115 0.96 0.226l0.553 0.222c0.729 0.293 1.481 0.596 2.258 0.812l0.101 0.028c0.446 0.123 0.907 0.251 1.334 0.421l0.056 0.023c0.34 0.136 0.634 0.254 1.001 0.351 0.171 0.045 0.364 0.068 0.55 0.089 0.323 0.037 0.657 0.076 0.85 0.226 0.044 0.035 0.098 0.052 0.151 0.052 0.073 0 0.145-0.033 0.195-0.094 0.084-0.108 0.065-0.262-0.042-0.345-0.3-0.236-0.723-0.285-1.096-0.329z"></path>
<path fill="#444444" d="M166.026 46.825c-0.008-0.106-0.015-0.211-0.021-0.313-0.005-0.105-0.077-0.195-0.178-0.223-0.068-0.019-0.136-0.071-0.209-0.133 0.004-0.008 0.008-0.015 0.010-0.024 0.028-0.071 0.021-0.151-0.018-0.216-0.090-0.149-0.208-0.202-0.287-0.236-0.033-0.014-0.052-0.023-0.064-0.034-0.074-0.066-0.145-0.133-0.216-0.201-0.147-0.139-0.299-0.284-0.483-0.419-0.041-0.031-0.098-0.083-0.165-0.144-0.13-0.118-0.285-0.259-0.449-0.369 0.409-0.668 0.498-2.075 0.516-2.598 0.010-0.297 0.009-1.304-0.465-1.782-0.175-0.176-0.41-0.261-0.649-0.26-0.299 0.008-0.576 0.179-0.802 0.409-0.006-0.003-0.011-0.006-0.017-0.010-0.079-0.043-0.157-0.086-0.23-0.132-0.854-0.545-1.566-0.947-2.304-1.303-0.37-0.178-0.729-0.391-1.077-0.597-0.516-0.306-1.050-0.622-1.648-0.845-0.291-0.108-0.589-0.195-0.877-0.278-0.399-0.116-0.775-0.225-1.137-0.387-0.29-0.13-0.575-0.273-0.86-0.417-0.18-0.091-0.361-0.18-0.542-0.267-0.455-0.219-0.916-0.463-1.295-0.796 0.008-0.012 0.019-0.020 0.025-0.033 0.033-0.074 0.026-0.16-0.016-0.229-0.040-0.064-0.082-0.112-0.118-0.154-0.013-0.015-0.027-0.029-0.026-0.057 0.008-0.020 0.061-0.068 0.093-0.096 0.081-0.071 0.181-0.167 0.225-0.308 0.001 0 0.001 0 0.002 0 0.038 0.020 0.082 0.027 0.127 0.023 0.069 0.020 0.141 0.045 0.185 0.061 0.079 0.028 0.15 0.052 0.206 0.065 0.211 0.046 0.43 0.068 0.643 0.088 0.057 0.005 0.112 0.013 0.167 0.019 0.035 0.010 0.070 0.017 0.105 0.027 0.186 0.050 0.37 0.099 0.564 0.129 0.438 0.067 0.821 0.258 1.227 0.462 0.173 0.087 0.347 0.174 0.53 0.255 0.194 0.085 0.382 0.173 0.568 0.261 0.469 0.219 0.955 0.446 1.501 0.607l0.077 0.023c0.336 0.099 0.683 0.202 1.034 0.246 0.058 0.007 0.12 0.013 0.184 0.013 0.137 0 0.281-0.027 0.392-0.123 0.167-0.145 0.17-0.359 0.173-0.566 0.001-0.036 0.003-0.076 0.004-0.116 0.361 0.044 0.718 0.095 1.052 0.16 0.096 0.019 0.18 0.063 0.276 0.114 0.145 0.076 0.32 0.168 0.557 0.168 0.040 0 0.084-0.003 0.129-0.009 0.107-0.014 0.192-0.096 0.21-0.202 0.024-0.14 0.023-0.281 0.020-0.421 0.060 0.023 0.116 0.049 0.185 0.060 0.013 0.002 0.026 0.003 0.038 0.003 0.095 0 0.184-0.055 0.224-0.144 0.085-0.185 0.216-0.348 0.357-0.522 0.133-0.165 0.271-0.335 0.375-0.534 0.242-0.466 0.229-1.072 0.218-1.56l-0.002-0.075c-0.027-1.25-0.261-2.36-0.736-3.491-0.041-0.099-0.145-0.16-0.25-0.15-0.253 0.026-0.545-0.101-0.855-0.234-0.253-0.108-0.514-0.22-0.777-0.256-0.139-0.019-0.272-0.013-0.402-0.008-0.087 0.004-0.173 0.008-0.26 0.002-0.124-0.008-0.216-0.043-0.332-0.087-0.070-0.027-0.144-0.055-0.229-0.079-0.424-0.123-0.9-0.096-1.359-0.068-0.182 0.010-0.357 0.012-0.522 0.021-0.432 0-0.865 0.016-1.296 0.034-0.419 0.018-0.831 0.035-1.248 0.033l-0.453 0.002c-0.759 0.005-1.482 0-2.188-0.15 0.003-0.148 0.009-0.298 0.009-0.443 0-0.12 0.006-0.245 0.011-0.372 0.013-0.304 0.028-0.619-0.026-0.915-0.021-0.115-0.126-0.2-0.243-0.202-0.029 0-0.112-0.032-0.167-0.053-0.059-0.022-0.132-0.049-0.209-0.068 0.001-0.062 0.001-0.123 0.005-0.176 0.035-0.543 0.056-1.027 0.060-1.479 0-0.066-0.026-0.13-0.072-0.176s-0.109-0.072-0.174-0.072c-0.001 0-0.002 0-0.002 0-0.659 0.011-1.308-0.054-1.947-0.112-0.621-0.055-1.262-0.113-1.899-0.113-1.8 0.003-3.428 0.026-5.040 0.081-0.755 0.025-1.52 0.083-2.261 0.138-0.31 0.023-0.62 0.047-0.93 0.067-0.237 0.016-0.478 0.040-0.72 0.063-0.547 0.053-1.113 0.108-1.653 0.075-0.325-0.020-0.658-0.063-0.979-0.104-0.358-0.046-0.728-0.093-1.1-0.112-1.201-0.061-2.402-0.153-3.433-0.235-0.551-0.044-1.103-0.038-1.637-0.032-0.285 0.003-0.57 0.006-0.857 0.001-0.404-0.006-0.808-0.024-1.212-0.042-0.391-0.018-0.781-0.035-1.172-0.042-0.319-0.005-0.621-0.053-0.939-0.104-0.218-0.035-0.437-0.069-0.662-0.090-0.571-0.054-1.156-0.038-1.72-0.022-0.36 0.010-0.717 0.020-1.075 0.012-0.56-0.012-0.962-0.089-1.348-0.255-0.528-0.228-1.046-0.29-1.594-0.357l-0.174-0.021c-0.618-0.076-1.239-0.071-1.838-0.067-0.28 0.002-0.561 0.005-0.842-0.001-0.469-0.010-0.921-0.084-1.398-0.163-0.415-0.068-0.843-0.139-1.281-0.163-0.425-0.023-0.859-0.014-1.28-0.007-1.004 0.018-1.951 0.036-2.835-0.327-0.23-0.095-0.465-0.156-0.692-0.216-0.223-0.058-0.434-0.113-0.634-0.196-0.028-0.011-0.057-0.022-0.085-0.034 0.497-0.035 0.993-0.069 1.49-0.107 2.394-0.18 4.868-0.367 7.288-0.296 0.591 0.017 1.18 0.052 1.767 0.086 0.771 0.045 1.57 0.093 2.363 0.098 1.729 0.013 3.174-0.048 4.558-0.195 1.409-0.15 2.96-0.101 4.742 0.149 0.198 0.028 0.396 0.066 0.593 0.104 0.356 0.068 0.724 0.139 1.101 0.153 0.705 0.025 1.423 0.019 2.094 0.008 1.28-0.019 2.582-0.085 3.843-0.148 1.694-0.085 3.442-0.172 5.159-0.149 0.104 0.002 0.227-0.087 0.246-0.207 0.008-0.048 0.148-0.954 0.020-1.494 0.043-0.054 0.065-0.123 0.054-0.192-0.022-0.143-0.043-0.291-0.065-0.439-0.065-0.458-0.135-0.945-0.255-1.419 0.091 0.017 0.186 0.039 0.272 0.060 0.122 0.030 0.238 0.057 0.339 0.071 0.298 0.038 0.609 0.025 0.908 0.012 0.142-0.006 0.286-0.021 0.421-0.012 0.257 0 0.529 0.014 0.806 0.028 0.298 0.015 0.601 0.031 0.9 0.031 0.322 0 0.639-0.018 0.938-0.073 0.127-0.023 0.215-0.14 0.201-0.268-0.068-0.631-0.109-1.186-0.125-1.698-0.005-0.137-0.006-0.277-0.006-0.419-0.001-0.079-0.002-0.158-0.003-0.237 0.074 0.024 0.149 0.046 0.222 0.067 0.218 0.061 0.425 0.118 0.523 0.231 0.047 0.055 0.116 0.086 0.187 0.086 0.024 0 0.049-0.004 0.074-0.011 0.093-0.030 0.161-0.112 0.17-0.21 0-0.001 0.001-0.001 0.001-0.002 0.044-0.020 0.083-0.054 0.109-0.097l0.1-0.162c0.31-0.497 0.733-1.177 0.499-1.822-0.237-0.654-1.029-0.893-1.553-1.051l-0.049-0.014c-2.668-0.807-5.466-1.37-7.851-1.814-1.916-0.357-3.867-0.397-5.755-0.436-0.943-0.020-1.907-0.043-2.869-0.102 0.615-0.116 1.236-0.213 1.847-0.236 0.417-0.015 0.833-0.042 1.25-0.069 0.782-0.051 1.591-0.102 2.379-0.073l0.121 0.006c0.622 0.029 1.78 0.083 2.001-0.71 0.178-0.643-0.468-1.020-0.934-1.225 0.002-0.008 0.007-0.012 0.009-0.021 0.162-0.821-0.679-1.212-1.293-1.498-0.171-0.080-0.333-0.157-0.465-0.234-0.009-0.034-0.019-0.068-0.042-0.096-0.169-0.203-0.361-0.434-0.589-0.634-1.056-0.926-2.48-0.693-3.738-0.487-0.155 0.026-0.307 0.051-0.455 0.072-0.815 0.122-1.653 0.18-2.462 0.236-0.584 0.040-1.187 0.082-1.782 0.147-2.417 0.264-5.584 0.672-8.643 1.49-1.783 0.477-3.624 0.856-5.405 1.222-1.428 0.294-2.904 0.598-4.346 0.951-0.96 0.235-1.918 0.528-2.843 0.811-0.385 0.117-0.77 0.236-1.158 0.35-0.603 0.178-1.21 0.343-1.817 0.509-0.845 0.23-1.719 0.468-2.57 0.739-1.453 0.462-3.046 1.003-4.657 1.678 0.683-0.429 1.357-0.866 2.017-1.298l0.353-0.23c1.396-0.608 2.8-1.2 4.203-1.791 0.8-0.336 1.599-0.672 2.397-1.012l0.635-0.271c1.007-0.431 2.049-0.877 3.090-1.257 0.782-0.284 1.593-0.537 2.378-0.78 0.6-0.187 1.198-0.373 1.792-0.574 1.048-0.357 2.136-0.651 3.188-0.936 0.409-0.111 0.818-0.222 1.226-0.336l0.722-0.205c1.018-0.29 2.069-0.59 3.126-0.804 0.070-0.014 0.131-0.059 0.167-0.122s0.040-0.138 0.014-0.206c-0.154-0.411-0.374-0.926-0.705-1.252-0.156-0.154-0.971-0.704-1.462-0.67-0.076-0.096-0.179-0.176-0.278-0.252-0.089-0.068-0.199-0.151-0.231-0.207-0.045-0.082-0.131-0.132-0.227-0.126-0.063 0.005-0.096-0.015-0.178-0.059-0.086-0.045-0.194-0.102-0.348-0.124-0.171-0.025-0.338-0.032-0.5-0.035-0.108-0.242-0.45-0.341-0.603-0.385l-0.053-0.016c-0.86-0.262-1.573-0.276-2.18-0.043l-0.247 0.095c-0.57 0.221-1.11 0.43-1.713 0.561-0.005 0.001-0.009 0.004-0.013 0.006s-0.009 0-0.012 0.001c-1.052 0.35-8.348 3.545-10.706 4.617-2.411 1.097-8.074 3.867-9.184 4.629-0.347 0.239-0.86 0.548-1.404 0.876-1.248 0.753-2.663 1.606-3.288 2.298-0.219 0.242-0.389 0.522-0.553 0.791-0.093 0.154-0.186 0.306-0.287 0.448-0.025 0.036-2.516 3.477-6.599 6.735-0.035-0.014-0.073-0.022-0.113-0.018-1.406 0.144-2.84 0.086-4.227 0.030-0.928-0.037-1.886-0.077-2.838-0.056-0.865 0.019-1.74 0.068-2.586 0.115-1.259 0.071-2.56 0.144-3.843 0.118-2.143-0.043-4.589-0.199-6.51-1.51l-0.060-0.041c-0.88-0.602-1.712-1.169-2.761-1.474-1.091-0.318-2.247-0.362-3.343-0.129-1.114 0.237-2.182 0.653-3.006 1.169-0.536 0.336-0.88 0.747-1.11 1.182-0.176-0.047-0.399-0.192-0.601-0.329-0.182-0.123-0.37-0.25-0.552-0.326-0.088-0.036-0.189-0.073-0.298-0.112-0.608-0.218-1.069-0.419-1.003-0.831 0.011-0.067-0.007-0.136-0.049-0.191s-0.104-0.088-0.173-0.093c-0.27-0.024-0.476-0.159-0.693-0.302-0.31-0.204-0.661-0.435-1.191-0.302-0.132 0.034-0.212 0.167-0.178 0.299s0.168 0.21 0.3 0.178c0.317-0.082 0.52 0.052 0.799 0.236 0.196 0.129 0.412 0.271 0.689 0.342 0.058 0.668 0.843 0.951 1.334 1.127 0.1 0.035 0.194 0.069 0.274 0.103 0.137 0.057 0.297 0.165 0.467 0.279 0.203 0.137 0.41 0.27 0.621 0.353-0.582-0.017-1.278-0.298-1.947-0.574-0.566-0.235-1.153-0.477-1.691-0.561-0.397-0.062-0.758-0.178-1.14-0.301-0.268-0.087-0.546-0.176-0.839-0.245-0.255-0.061-0.498-0.065-0.733-0.068-0.203-0.003-0.394-0.006-0.575-0.046-0.638-0.14-1.241-0.396-1.823-0.642-0.932-0.395-1.902-0.8-3.041-0.767-0.136 0.004-0.243 0.117-0.239 0.254s0.132 0.24 0.254 0.239c1.035-0.040 1.91 0.337 2.834 0.728 0.603 0.255 1.227 0.519 1.909 0.669 0.231 0.051 0.456 0.054 0.675 0.057s0.424 0.007 0.627 0.055c0.274 0.066 0.543 0.152 0.802 0.235 0.384 0.124 0.781 0.251 1.215 0.319 0.48 0.075 1.014 0.296 1.579 0.529 0.654 0.27 1.328 0.547 1.96 0.604 0.013 0.038 0.032 0.076 0.064 0.105 0.001 0.001 0.002 0.002 0.004 0.003-0.019 0.083-0.034 0.165-0.049 0.246-0.736-0.009-1.584-0.036-2.034-0.115-0.205-0.035-0.389-0.092-0.567-0.144-0.38-0.114-0.772-0.233-1.312-0.139-0.14 0.024-0.319 0.072-0.518 0.128-0.635 0.175-1.504 0.415-1.829-0.038-0.079-0.111-0.233-0.136-0.344-0.057s-0.136 0.233-0.057 0.344c0.525 0.733 1.63 0.428 2.361 0.226 0.18-0.050 0.342-0.095 0.469-0.117 0.426-0.072 0.733 0.020 1.088 0.126 0.192 0.058 0.39 0.117 0.623 0.158 0.54 0.095 1.485 0.118 2.042 0.124-0.080 0.062-0.118 0.168-0.085 0.27 0.031 0.092 0.111 0.146 0.201 0.159-0 0.017 0.002 0.034 0 0.051-0.004 0.035-0.017 0.082-0.030 0.135-0 0.002-0.001 0.005-0.001 0.007-0.664-0.009-1.378-0.035-2.075-0.063-0.864-0.034-1.757-0.069-2.578-0.069-0.136 0-0.246 0.11-0.246 0.246s0.11 0.246 0.246 0.246c0.811 0 1.7 0.035 2.559 0.069 0.682 0.027 1.38 0.053 2.035 0.063 0.005 0.061 0.019 0.118 0.040 0.172-1.191 0.631-1.873 1.587-2.32 2.596-1.211-0.217-3.631-1.54-4.518-2.207-1.161-0.872-2.425-1.225-4.224-1.184-0.136 0.003-0.244 0.115-0.24 0.252 0.003 0.135 0.111 0.229 0.252 0.24 1.68-0.042 2.851 0.286 3.917 1.086 0.747 0.562 2.501 1.561 3.859 2.051-0.622-0.011-1.218-0.069-1.801-0.316-1.019-0.432-1.7-0.694-2.777-0.661-0.136 0.004-0.243 0.118-0.238 0.254s0.127 0.242 0.254 0.238c0.973-0.030 1.612 0.216 2.569 0.622 0.773 0.328 1.532 0.358 2.325 0.358 0.087 0 0.174-0.001 0.262-0.001h0.077c-0.041 0.121-0.080 0.241-0.117 0.362-0.758 0.038-1.967-0.116-2.842-0.275-0.684-0.123-1.407-0.086-2.107-0.049-0.452 0.023-0.879 0.045-1.298 0.028-0.458-0.019-0.901-0.050-1.338-0.080-1.046-0.071-2.033-0.14-3.14-0.060-0.135 0.010-0.238 0.128-0.228 0.263s0.13 0.24 0.263 0.228c1.071-0.077 2.042-0.010 3.071 0.060 0.441 0.031 0.889 0.061 1.351 0.080 0.441 0.019 0.9-0.005 1.344-0.029 0.672-0.035 1.368-0.071 1.994 0.042 0.189 0.034 1.632 0.29 2.692 0.29 0.088 0 0.173-0.003 0.255-0.007 0.012 0.010 0.023 0.021 0.038 0.029 0.036 0.018 0.089 0.037 0.137 0.056 0 0.015-0.005 0.029-0.004 0.044 0.001 0.013 0.008 0.025 0.012 0.038-0.003 0.004-0.005 0.010-0.009 0.014-0.433-0.005-0.884-0.015-1.354-0.028-2.124-0.059-4.532-0.124-6.33 0.517-0.429 0.153-0.849 0.446-1.255 0.73-0.306 0.215-0.596 0.417-0.855 0.534-0.179 0.081-0.338 0.14-0.489 0.197-0.319 0.12-0.62 0.233-1.001 0.5-0.138 0.097-0.294 0.237-0.459 0.387-0.305 0.277-0.724 0.656-0.977 0.661-0.136 0.003-0.244 0.115-0.241 0.251 0.002 0.134 0.112 0.241 0.246 0.241 0.001 0 0.003 0 0.005 0 0.437-0.009 0.895-0.423 1.299-0.789 0.153-0.139 0.298-0.27 0.41-0.349 0.33-0.231 0.59-0.328 0.892-0.441 0.16-0.060 0.329-0.124 0.519-0.21 0.3-0.135 0.608-0.351 0.934-0.579 0.379-0.265 0.771-0.539 1.137-0.67 1.712-0.609 4.070-0.544 6.151-0.488 0.414 0.011 0.811 0.020 1.199 0.026 0.005 0.051 0.020 0.103 0.045 0.154-1.818 0.059-3.953 0.473-6.363 1.244-0.692 0.221-1.293 0.569-1.875 0.906-0.338 0.195-0.687 0.398-1.049 0.571l-0.118 0.057c-0.772 0.367-2.21 1.051-2.313 1.971-0.015 0.135 0.082 0.257 0.217 0.272 0.009 0.001 0.019 0.001 0.028 0.001 0.124 0 0.231-0.093 0.245-0.219 0.072-0.648 1.448-1.302 2.035-1.582l0.12-0.057c0.379-0.182 0.736-0.389 1.082-0.589 0.585-0.338 1.137-0.658 1.778-0.863 2.322-0.743 4.377-1.149 6.128-1.219 0.038 0.183 0.181 0.277 0.304 0.333-0.037 0.070-0.064 0.149-0.073 0.23-0.008 0.017-0.015 0.034-0.019 0.051-2.949 0.179-6.368 1.513-8.557 2.827-0.368 0.221-0.751 0.425-1.122 0.623-0.643 0.342-1.308 0.696-1.923 1.153l-0.086 0.064c-0.759 0.561-2.028 1.5-2.113 2.471-0.012 0.135 0.088 0.255 0.224 0.267 0.007 0 0.014 0.001 0.022 0.001 0.126 0 0.234-0.097 0.245-0.225 0.066-0.75 1.314-1.674 1.915-2.118l0.086-0.064c0.586-0.435 1.205-0.765 1.862-1.114 0.376-0.2 0.765-0.407 1.144-0.635 2.177-1.306 5.595-2.632 8.494-2.763-0.002 0.064-0.002 0.131 0 0.199-0.925 0.021-2.191 0.492-3.234 0.879-0.303 0.113-0.578 0.215-0.803 0.289-1.143 0.377-2.395 0.972-3.349 1.591-0.438 0.284-0.84 0.567-1.235 0.846-0.532 0.375-1.034 0.729-1.601 1.069-0.899 0.54-1.372 1.004-2.034 1.78-0.088 0.103-0.076 0.259 0.028 0.347 0.046 0.039 0.103 0.059 0.16 0.059 0.069 0 0.138-0.030 0.187-0.087 0.639-0.749 1.068-1.169 1.913-1.677 0.583-0.35 1.092-0.708 1.632-1.089 0.39-0.275 0.787-0.554 1.22-0.834 0.921-0.598 2.131-1.172 3.236-1.537 0.23-0.076 0.511-0.18 0.82-0.295 1.020-0.379 2.394-0.886 3.226-0.843 0.028 0.037 0.048 0.076 0.085 0.111 0.069 0.064 0.145 0.104 0.222 0.137-1.237 0.131-2.986 0.62-5.223 1.466-0.554 0.21-2.391 0.981-2.8 2.082-0.047 0.128 0.018 0.269 0.145 0.317 0.029 0.010 0.057 0.015 0.086 0.015 0.1 0 0.194-0.061 0.231-0.161 0.268-0.721 1.521-1.416 2.513-1.793 2.339-0.885 4.176-1.381 5.362-1.457-0.046 0.045-0.074 0.106-0.074 0.175-0 0.106 0.067 0.195 0.161 0.23 0.046 0.049 0.104 0.098 0.179 0.147 0.001 0 0.001 0.001 0.002 0.002-0.703 0.171-1.536 0.523-2.348 0.869-0.601 0.256-1.168 0.497-1.618 0.634-0.252 0.077-0.541 0.186-0.849 0.301-0.785 0.296-1.763 0.666-2.403 0.562-0.133-0.018-0.26 0.071-0.282 0.205s0.070 0.26 0.205 0.282c0.101 0.016 0.207 0.024 0.316 0.024 0.716 0 1.571-0.322 2.338-0.61 0.298-0.112 0.577-0.217 0.82-0.292 0.474-0.145 1.054-0.391 1.667-0.652 0.865-0.368 1.754-0.744 2.442-0.881l0.010 0.042c-0.037 0.015-0.075 0.028-0.11 0.051-0.017 0.011-0.029 0.028-0.042 0.042-1.198 0.448-4.565 1.727-5.045 2.123-0.105 0.087-0.12 0.242-0.033 0.347 0.049 0.059 0.119 0.090 0.19 0.090 0.055 0 0.111-0.018 0.157-0.056 0.394-0.325 3.904-1.678 5.165-2.139 0.233 0.207 0.564 0.334 0.85 0.442 0.158 0.060 0.307 0.116 0.417 0.175 0.261 0.143 0.497 0.239 0.815 0.334 0.023 0.007 0.044 0.018 0.067 0.027-0.878 0.282-1.734 0.606-2.57 0.931-0.38 0.147-0.761 0.295-1.146 0.438-0.484 0.181-0.972 0.351-1.461 0.52-1.126 0.39-2.289 0.793-3.383 1.341-1.308 0.656-2.358 1.611-3.297 2.545-1.336 1.328-1.629 2.637-1.567 4.171-0.241 0.022-0.57-0.007-0.907-0.067-0.611-0.657-1.445-1.112-2.261-1.551-0.881-0.474-1.792-0.965-2.369-1.701-1.128-1.437-1.55-3.347-1.917-5.343-0.375-2.042-1.649-4.097-2.774-5.911l-0.249-0.403c-0.071-0.115-0.223-0.152-0.339-0.080s-0.152 0.223-0.080 0.339l0.25 0.403c1.101 1.777 2.35 3.791 2.708 5.741 0.23 1.252 0.485 2.47 0.917 3.578-0.207-0.371-0.411-0.763-0.612-1.194-0.098-0.21-0.231-0.417-0.36-0.617-0.104-0.161-0.208-0.323-0.292-0.485-0.054-0.105-0.128-0.225-0.203-0.347-0.101-0.163-0.205-0.332-0.253-0.456-0.017-0.045-0.038-0.183-0.053-0.284-0.032-0.215-0.053-0.34-0.104-0.428-0.135-0.232-0.311-0.433-0.482-0.627-0.166-0.19-0.323-0.368-0.444-0.572-0.076-0.128-0.143-0.26-0.209-0.39-0.156-0.307-0.318-0.625-0.588-0.892-0.268-0.265-0.633-0.55-0.984-0.825-0.171-0.133-0.339-0.265-0.489-0.388-0.126-0.104-0.259-0.229-0.389-0.35-0.164-0.154-0.324-0.302-0.465-0.41-0.144-0.111-0.276-0.222-0.401-0.329-0.514-0.437-0.996-0.846-1.934-0.8-0.136 0.008-0.24 0.124-0.233 0.26s0.126 0.236 0.259 0.233c0.738-0.043 1.095 0.263 1.588 0.683 0.132 0.112 0.269 0.229 0.421 0.345 0.129 0.099 0.277 0.237 0.428 0.379 0.137 0.129 0.278 0.259 0.411 0.37 0.153 0.127 0.324 0.26 0.499 0.397 0.341 0.266 0.693 0.542 0.941 0.788 0.214 0.211 0.35 0.48 0.495 0.764 0.071 0.14 0.143 0.281 0.225 0.419 0.144 0.242 0.324 0.447 0.498 0.645 0.163 0.185 0.316 0.36 0.421 0.538 0.015 0.038 0.035 0.175 0.049 0.266 0.023 0.15 0.044 0.291 0.080 0.387 0.065 0.168 0.181 0.356 0.294 0.538 0.068 0.111 0.135 0.218 0.184 0.313 0.059 0.113 0.127 0.227 0.198 0.34-0.176-0.107-0.367-0.166-0.553-0.219-0.219-0.064-0.425-0.123-0.587-0.263-0.103-0.089-0.259-0.078-0.348 0.025s-0.078 0.258 0.025 0.347c0.243 0.21 0.524 0.292 0.772 0.363 0.183 0.053 0.356 0.103 0.484 0.197 0.080 0.059 0.101 0.106 0.138 0.191 0.038 0.086 0.086 0.194 0.198 0.303 0.463 0.456 0.803 0.857 1.067 1.249 0.062 0.107 0.125 0.209 0.187 0.311 0.226 0.423 0.283 0.806 0.329 1.176 0.074 0.589 0.15 1.199 0.938 1.8 0.154 0.117 0.304 0.245 0.455 0.373 0.267 0.227 0.544 0.459 0.852 0.647-0.098-0.006-0.198-0.013-0.295-0.018-0.328-0.013-0.637-0.028-0.927-0.113-0.336-0.098-0.62-0.213-0.896-0.323-0.482-0.195-0.938-0.378-1.585-0.449-0.443-0.048-0.906-0.144-1.374-0.285-0.536-0.163-1.074-0.272-1.595-0.379-0.62-0.127-1.205-0.246-1.785-0.447-0.755-0.261-1.229-0.585-1.947-1.171-0.333-0.272-0.661-0.62-1.008-0.99-0.668-0.709-1.358-1.444-2.196-1.741-0.128-0.046-0.269 0.022-0.314 0.15s0.022 0.269 0.15 0.315c0.726 0.257 1.374 0.947 2.002 1.614 0.359 0.381 0.698 0.741 1.056 1.034 0.748 0.609 1.277 0.97 2.097 1.254 0.61 0.211 1.239 0.339 1.847 0.465 0.509 0.104 1.036 0.212 1.551 0.367 0.497 0.149 0.989 0.252 1.463 0.303 0.579 0.065 0.985 0.227 1.455 0.417 0.286 0.114 0.582 0.234 0.94 0.339 0.346 0.102 0.701 0.117 1.044 0.133 0.313 0.013 0.609 0.027 0.893 0.101 0.194 0.050 0.369 0.11 0.541 0.168 0.292 0.099 0.594 0.201 0.962 0.254 0.5 0.071 1.142 0.272 1.763 0.467 0.369 0.115 0.712 0.219 1.023 0.298 0.002 0.003 0.003 0.007 0.006 0.009-0.005 0.012-0.009 0.026-0.014 0.038-0.49-0.013-1.002-0.058-1.544-0.112-0.956-0.095-1.945-0.193-2.816-0.070-0.327 0.045-0.718 0.159-1.131 0.278-1.049 0.303-2.355 0.68-3.064 0.050-0.101-0.090-0.258-0.082-0.348 0.021-0.090 0.101-0.081 0.257 0.021 0.347 0.389 0.345 0.876 0.468 1.397 0.468 0.7 0 1.462-0.22 2.131-0.413 0.397-0.114 0.771-0.223 1.063-0.264 0.814-0.115 1.772-0.019 2.699 0.073 0.585 0.058 1.187 0.114 1.748 0.12 0.007 0.104 0.076 0.194 0.18 0.22 0.018 0.040 0.036 0.081 0.055 0.12-0.581-0.132-1.165-0.057-1.733 0.018-0.194 0.026-0.386 0.051-0.575 0.068-0.090 0.008-0.194 0.004-0.294 0.004-0.139-0.005-0.267-0.009-0.378-0.010-0.119-0.007-0.236-0.013-0.361-0.023-0.835-0.062-1.782-0.133-2.426 0.355-0.044 0.034-0.069 0.080-0.083 0.129-0.088 0.017-0.174 0.035-0.263 0.050-1.059 0.171-1.833 0.386-2.739 0.677-0.471 0.151-0.716 0.311-0.999 0.495-0.12 0.078-0.251 0.164-0.417 0.26-0.801 0.464-1.744 0.609-2.656 0.75-0.502 0.077-1.022 0.157-1.516 0.29-1.671 0.448-3.021 0.445-4.813-0.009-0.968-0.246-1.923-0.574-2.845-0.892-1.229-0.422-2.499-0.859-3.824-1.109-2.951-0.557-5.242-0.465-7.431 0.298-0.539 0.188-1.253 0.552-1.817 0.929-0.164 0.11-0.287 0.244-0.405 0.375-0.113 0.125-0.22 0.243-0.353 0.325-0.159 0.096-0.349 0.148-0.552 0.203-0.212 0.059-0.432 0.118-0.641 0.236-1.355 0.766-2.543 1.597-2.212 3.339 0.018 0.094 0.090 0.17 0.184 0.194 0.186 0.044 0.377 0.067 0.569 0.067 0.106 0 0.213-0.008 0.32-0.021 0.135-0.017 0.231-0.14 0.213-0.275s-0.14-0.231-0.276-0.214c-0.187 0.024-0.371 0.022-0.553-0.006-0.17-1.315 0.764-1.959 1.996-2.656 0.156-0.088 0.337-0.136 0.529-0.19 0.226-0.062 0.46-0.125 0.678-0.258 0.194-0.119 0.336-0.276 0.462-0.415 0.103-0.113 0.2-0.221 0.314-0.298 0.532-0.354 1.201-0.697 1.705-0.872 2.132-0.742 4.278-0.826 7.177-0.279 1.29 0.243 2.543 0.674 3.755 1.091 0.933 0.321 1.897 0.652 2.885 0.903 1.858 0.47 3.324 0.472 5.062 0.008 0.468-0.126 0.952-0.2 1.464-0.279 0.957-0.148 1.947-0.301 2.828-0.811 0.174-0.102 0.313-0.192 0.438-0.273 0.275-0.178 0.473-0.307 0.882-0.439 0.883-0.284 1.637-0.494 2.666-0.66 0.377-0.061 0.732-0.143 1.075-0.223 0.607-0.142 1.18-0.276 1.827-0.282 0.049 0 0.103 0.001 0.163 0.003 0.108 0.006 0.213 0.007 0.316 0.009 0.404 0.012 0.921 0.035 1.431 0.061 0.101 0.005 0.199 0.010 0.298 0.014-0.492 0.055-0.956 0.139-1.301 0.272-0.163 0.063-0.318 0.133-0.472 0.202-0.493 0.22-0.918 0.411-1.496 0.348-0.133-0.017-0.257 0.084-0.271 0.218s0.083 0.257 0.218 0.271c0.094 0.010 0.184 0.015 0.271 0.015 0.578 0 1.035-0.205 1.479-0.404 0.146-0.067 0.294-0.133 0.448-0.192 0.626-0.24 1.748-0.309 2.515-0.325-0.001 0.005-0.004 0.010-0.005 0.014-0.007 0.052 0.007 0.1 0.030 0.143-0.682 0.084-1.322 0.302-1.886 0.526-0.316 0.125-0.633 0.303-0.939 0.475-0.528 0.297-1.074 0.602-1.63 0.652-0.135 0.012-0.235 0.132-0.223 0.267 0.011 0.128 0.119 0.224 0.245 0.224 0.007 0 0.015 0 0.022-0.001 0.66-0.060 1.253-0.392 1.827-0.714 0.306-0.171 0.595-0.333 0.88-0.446 0.663-0.263 1.433-0.523 2.233-0.527 0.005 0.006 0.010 0.012 0.015 0.019-2.467 0.834-5.014 2.494-7.204 4.037-0.181 0.128-0.391 0.261-0.611 0.401-0.735 0.468-1.568 0.999-1.955 1.673-0.31 0.541-0.325 1.081-0.040 1.485 0.242 0.341 0.655 0.528 1.144 0.528 0.123 0 0.251-0.012 0.381-0.035 0.133-0.025 0.223-0.153 0.198-0.287s-0.153-0.219-0.287-0.198c-0.454 0.084-0.849-0.030-1.035-0.293-0.171-0.242-0.148-0.582 0.066-0.955 0.326-0.568 1.105-1.065 1.792-1.503 0.227-0.144 0.443-0.283 0.63-0.414 2.217-1.563 4.803-3.248 7.266-4.039 0.062 0.064 0.125 0.127 0.192 0.189-0.11 0.223-0.304 0.35-0.529 0.486-0.121 0.073-0.246 0.149-0.355 0.243-0.261 0.227-0.506 0.471-0.744 0.707-0.146 0.145-0.294 0.292-0.446 0.436-0.29 0.274-0.614 0.502-0.958 0.744-0.384 0.269-0.78 0.548-1.123 0.897-0.563 0.571-1.063 1.235-1.546 1.877-0.338 0.448-0.688 0.913-1.048 1.33-0.431 0.499-0.743 1.072-1.045 1.627-0.389 0.714-0.755 1.388-1.352 1.917-0.576 0.51-1.402 0.46-2.277 0.404-0.36-0.022-0.733-0.045-1.087-0.026-0.135 0.008-0.24 0.124-0.232 0.26s0.115 0.247 0.26 0.232c0.325-0.018 0.667 0.004 1.029 0.026 0.271 0.017 0.545 0.034 0.815 0.034 0.662 0 1.3-0.102 1.819-0.561 0.662-0.586 1.067-1.33 1.458-2.049 0.303-0.557 0.589-1.082 0.985-1.54 0.371-0.429 0.726-0.901 1.069-1.356 0.474-0.629 0.964-1.28 1.503-1.828 0.311-0.316 0.672-0.57 1.055-0.839 0.343-0.241 0.698-0.491 1.013-0.789 0.155-0.147 0.305-0.297 0.455-0.444 0.242-0.24 0.471-0.468 0.72-0.685 0.076-0.067 0.178-0.128 0.287-0.194 0.225-0.135 0.491-0.297 0.668-0.586 0.648 0.466 1.528 0.811 2.782 0.843 0.053 0.001 0.107 0.002 0.161 0.002 2.824 0 6.683-1.788 7.533-2.426 0.277-0.208 0.936-0.597 1.7-1.046 1.523-0.897 3.419-2.014 3.995-2.691 0.444-0.523 1.375-1.174 2.361-1.865 0.797-0.557 1.621-1.133 2.224-1.673 0.862-0.771 1.958-1.373 2.924-1.905 0.5-0.274 0.97-0.533 1.374-0.794 1.178-0.763 5.623-3.107 7.522-4.108 0.175-0.093 0.39-0.203 0.632-0.327 0.013 0.001 0.027 0.006 0.041 0.005 3.446-0.281 6.971 0.247 10.381 0.758 0.808 0.121 1.613 0.242 2.415 0.352 0.562 0.077 1.131 0.194 1.68 0.306 0.477 0.098 0.972 0.199 1.466 0.276 0.399 0.062 0.796 0.118 1.194 0.175 0.846 0.121 1.72 0.245 2.571 0.417 0.516 0.103 1.034 0.194 1.552 0.284 0.657 0.114 1.335 0.232 1.995 0.377 0.525 0.115 1.056 0.266 1.568 0.412 0.473 0.134 0.964 0.274 1.456 0.387 0.716 0.166 1.433 0.338 2.15 0.512 1.664 0.401 3.384 0.817 5.089 1.131 1.289 0.237 2.613 0.377 3.893 0.512 0.69 0.073 1.38 0.146 2.067 0.234 1.489 0.19 2.92 0.528 4.502 0.919 1.022 0.252 2.117 0.551 3.445 0.94 1.846 0.541 3.741 0.872 5.37 1.141 2.047 0.336 4.069 0.956 6.024 1.558 0.839 0.258 1.707 0.524 2.567 0.765 1.262 0.354 2.531 0.767 3.757 1.165 1.527 0.497 3.107 1.010 4.696 1.419 1.325 0.34 2.594 0.813 3.661 1.232 0.442 0.173 0.898 0.325 1.337 0.472 0.473 0.158 0.963 0.321 1.432 0.51 0.648 0.262 1.281 0.574 1.871 0.872 0.035 0.018 0.073 0.027 0.112 0.027 0.046 0 0.093-0.013 0.133-0.039 0.074-0.047 0.116-0.13 0.113-0.217-0.014-0.356-0.010-0.716-0.007-1.074 0.001-0.167 0.003-0.333 0.003-0.5 0-0.021-0.007-0.040-0.012-0.061 0.238-0.154 0.36-0.457 0.416-0.812 0.145 0.022 0.324 0.085 0.489 0.144 0.189 0.068 0.384 0.138 0.562 0.162 0.308 0.038 0.622 0.029 0.925 0.018 0.358-0.011 0.694-0.022 1.004 0.042l0.233 0.049c0.516 0.11 1.085 0.231 1.648 0.231 0.149 0 0.299-0.009 0.446-0.029 0.067-0.009 0.124-0.043 0.163-0.093 0.099 0.041 0.205 0.073 0.318 0.093 0.124 0.019 0.236-0.048 0.276-0.162 0.018-0.054 0.037-0.097 0.056-0.137 0.041-0.093 0.089-0.196 0.107-0.359 0.021-0.172 0.014-0.344 0.009-0.511-0.003-0.076-0.005-0.151-0.005-0.225 0.001-0.571-0.047-1.131-0.15-1.794 0.033 0.035 0.067 0.068 0.099 0.102 0.059 0.061 0.114 0.119 0.17 0.173 0.352 0.343 0.755 0.746 1.089 1.186 0.391 0.518 0.95 1.159 1.814 1.526l0.090 0.036c0.31 0.127 0.537 0.234 0.701 0.32 0.091 0.249 0.281 0.447 0.566 0.591 0.064 0.033 0.138 0.035 0.204 0.009 0.001-0.001 0.003-0.002 0.004-0.002 0.167 0.172 0.372 0.263 0.589 0.263 0.040 0 0.082-0.003 0.124-0.010 0.34-0.054 0.669-0.33 0.837-0.702 0.239-0.537 0.194-1.151 0.154-1.693zM35.658 43.819c-0.373-0.046-0.727-0.089-1.051-0.251-0.356-0.178-0.667-0.441-0.996-0.721-0.157-0.133-0.314-0.266-0.475-0.39-0.597-0.455-0.672-0.877-0.739-1.4 0.564 0.699 1.158 1.236 1.791 1.606 0.195 0.113 0.387 0.205 0.58 0.296 0.202 0.095 0.393 0.186 0.59 0.304 0.15 0.091 0.308 0.243 0.46 0.393 0.075 0.073 0.152 0.146 0.231 0.216-0.132-0.021-0.263-0.038-0.391-0.054zM36.617 43.682c-0.067-0.034-0.137-0.088-0.21-0.15 0.093 0.058 0.183 0.116 0.271 0.177-0.020-0.008-0.044-0.017-0.062-0.027zM38.706 44.586c0.014-0.001 0.028-0.001 0.041-0.002 0.001 0.007 0.003 0.013 0.005 0.022-0.015-0.006-0.031-0.013-0.046-0.020zM163.362 40.364c0.124-0.001 0.207 0.033 0.287 0.114 0.266 0.268 0.339 0.932 0.322 1.418-0.037 1.069-0.265 2.19-0.476 2.434-0.047-0.003-0.093 0.004-0.138 0.016-0.087-0.064-0.232-0.23-0.476-0.621-0.033-0.053-0.062-0.098-0.085-0.133-0.060-0.087-0.117-0.176-0.174-0.266 0.088 0.054 0.182 0.093 0.283 0.115-0.003 0.030-0.006 0.060-0.008 0.089-0.010 0.122 0.073 0.233 0.194 0.259 0.122 0.026 0.241-0.040 0.284-0.156 0.153-0.418 0.193-0.893 0.129-1.347 0.019-0.502-0.022-1.009-0.246-1.409-0.074-0.132-0.171-0.236-0.279-0.325 0.125-0.11 0.259-0.185 0.385-0.189zM162.509 41.253c0.067 0.056 0.125 0.133 0.151 0.168 0.177 0.244 0.296 0.551 0.349 0.876-0.006 0.123-0.015 0.247-0.026 0.369-0.016-0.012-0.033-0.024-0.049-0.035-0.059-0.043-0.126-0.093-0.153-0.124-0.108-0.124-0.2-0.226-0.299-0.32-0.064-0.331-0.053-0.692 0.027-0.934zM153.641 36.489c0.179 0.086 0.357 0.175 0.534 0.265 0.292 0.146 0.584 0.293 0.88 0.425 0.393 0.176 0.803 0.296 1.201 0.411 0.279 0.081 0.568 0.165 0.842 0.267 0.558 0.207 1.050 0.499 1.569 0.807 0.356 0.211 0.725 0.429 1.114 0.616 0.721 0.347 1.415 0.74 2.253 1.275 0.067 0.042 0.135 0.081 0.207 0.12-0.009 0.014-0.017 0.028-0.025 0.042-0.026 0.008-0.049 0.016-0.070 0.026-0.279 0.122-0.468 0.46-0.543 0.825-0.27-0.146-0.544-0.267-0.811-0.385-0.159-0.070-0.319-0.141-0.48-0.218-0.413-0.196-0.836-0.335-1.246-0.47-0.222-0.073-0.444-0.146-0.668-0.229-0.114-0.042-0.228-0.093-0.34-0.143-0.32-0.142-0.641-0.291-1.023-0.278-0.016 0-0.032 0.007-0.047 0.011-1.511-1.026-3.33-1.585-4.822-2.040-3.491-1.062-7.191-2.010-10.998-2.819-5.075-1.078-10.285-1.3-15.187-1.436-0.138 0.007-0.249 0.103-0.253 0.239s0.104 0.249 0.239 0.253c4.879 0.135 10.064 0.357 15.099 1.426 3.793 0.805 7.48 1.75 10.957 2.808 1.613 0.491 3.623 1.103 5.141 2.3 0.39 0.307 0.808 0.699 1.056 1.237-0.076-0.087-0.158-0.174-0.26-0.241-0.062-0.041-0.139-0.052-0.211-0.030s-0.128 0.076-0.155 0.146c-0.182 0.471-0.174 0.949-0.167 1.411l0.002 0.197c-0.114-0.056-0.23-0.112-0.347-0.16-0.865-0.359-1.821-0.455-2.745-0.547-0.251-0.025-0.5-0.050-0.744-0.080-0.097-0.012-0.198-0.023-0.3-0.034-0.219-0.023-0.441-0.047-0.652-0.088-0.048-0.031-0.104-0.041-0.161-0.035-0.125-0.031-0.246-0.067-0.357-0.116-0.093-0.042-0.173-0.108-0.266-0.183-0.069-0.057-0.139-0.114-0.218-0.166-0.324-0.211-0.689-0.314-1.042-0.414-0.257-0.072-0.5-0.141-0.719-0.247-0.447-0.216-0.901-0.366-1.339-0.51-0.154-0.051-0.308-0.101-0.465-0.156-0.286-0.098-0.544-0.244-0.817-0.399l-0.106-0.060c-0.524-0.294-1.119-0.513-1.817-0.671-1.022-0.232-2.056-0.272-3.057-0.312-0.697-0.028-1.418-0.056-2.12-0.15-0.313-0.042-0.575-0.188-0.852-0.341-0.234-0.13-0.475-0.264-0.762-0.347-0.402-0.116-0.812-0.194-1.208-0.269-0.468-0.089-0.952-0.18-1.406-0.335-1.012-0.344-1.975-0.432-3.038-0.503-0.607-0.041-1.215-0.073-1.823-0.106-0.827-0.045-1.681-0.091-2.518-0.158-0.677-0.055-1.371-0.193-2.042-0.327-0.347-0.069-0.694-0.138-1.039-0.197-0.223-0.038-0.447-0.073-0.67-0.109-0.622-0.098-1.264-0.201-1.88-0.356-0.259-0.066-0.518-0.134-0.776-0.203-0.563-0.15-1.145-0.304-1.728-0.422-0.331-0.067-0.665-0.118-0.999-0.169-0.423-0.065-0.86-0.132-1.279-0.231-0.349-0.084-0.699-0.202-1.038-0.317-0.362-0.122-0.736-0.248-1.121-0.338-0.298-0.069-0.602-0.119-0.905-0.169-0.44-0.072-0.854-0.14-1.259-0.267-0.531-0.167-1.198-0.411-1.64-0.819-0.225-0.207-0.429-0.428-0.645-0.662-0.239-0.26-0.488-0.53-0.766-0.775-0.39-0.344-0.492-0.624-0.66-1.087l-0.065-0.176c-0.122-0.331-0.309-0.622-0.547-0.88 1.684 0.225 3.369 0.406 5.082 0.586 0.501 0.052 0.998 0.123 1.495 0.194 0.393 0.055 0.785 0.111 1.18 0.158 0.413 0.049 0.83 0.063 1.233 0.075 0.253 0.009 0.507 0.016 0.761 0.034 0.676 0.045 1.354 0.164 2.009 0.278 0.808 0.141 1.643 0.287 2.504 0.303 0.957 0.017 1.928 0.072 2.867 0.126 0.4 0.023 0.802 0.045 1.202 0.065 0.843 0.042 1.698 0.142 2.525 0.239 0.938 0.111 1.908 0.225 2.875 0.256l0.649 0.019c1.473 0.040 2.864 0.078 4.273 0.389 1.374 0.302 2.839 0.617 4.328 0.844 0.716 0.11 1.433 0.292 2.065 0.453 0.628 0.16 1.271 0.262 1.894 0.36 0.236 0.037 0.47 0.074 0.705 0.115 0.857 0.147 1.727 0.367 2.658 0.672 0.47 0.154 0.899 0.228 1.353 0.235 0.013 0.014 0.025 0.030 0.042 0.040 0.064 0.040 0.13 0.071 0.194 0.101 0.144 0.068 0.18 0.090 0.2 0.163 0.030 0.107 0.127 0.181 0.237 0.181h0.001c0.029 0.006 0.068 0.013 0.105 0.020 0.469 0.542 1.101 0.877 1.715 1.172zM158.483 42.913c0.027 0.099 0.048 0.2 0.068 0.302-0.182-0.21-0.373-0.316-0.573-0.316-0.020 0-0.040 0.001-0.062 0.003-0.001-0.218 0.004-0.431 0.035-0.636 0.054 0.064 0.108 0.124 0.164 0.177l0.083 0.075c0.152 0.138 0.236 0.214 0.285 0.395zM152.346 30.15c-0.001 0.114 0.002 0.23 0.006 0.34 0.005 0.154 0.007 0.293 0 0.407-0.054 0.045-0.093 0.11-0.093 0.184 0 0.057 0.022 0.108 0.055 0.15-0.010 0.077-0.016 0.154-0.026 0.232-0.018 0.035-0.030 0.073-0.029 0.115 0 0.016 0.007 0.030 0.010 0.045-0.006 0.059-0.016 0.12-0.020 0.177-0.007 0.122-0.033 0.23-0.058 0.336-0.035 0.151-0.075 0.322-0.070 0.527 0.006 0.242 0.002 0.486-0.002 0.73l-0.002 0.177c-0.001 0.031-0.003 0.064-0.006 0.099-0.008 0.109-0.016 0.232 0.012 0.349 0.026 0.099 0.083 0.162 0.137 0.195-0.001 0.010-0.002 0.020-0.001 0.030-0.018 0.021-0.047 0.049-0.072 0.070-0.086 0.076-0.202 0.18-0.243 0.344-0.005 0.018-0.007 0.035-0.010 0.052-0.013 0-0.027-0.002-0.040 0-0.064-0.065-0.132-0.113-0.202-0.149 0.052-0.369-0.025-0.711-0.102-1.042l-0.035-0.153c-0.108-0.48-0.107-0.692-0.089-0.785 0.051-0.044 0.082-0.106 0.084-0.176 0.017-0.063 0.010-0.129-0.024-0.187-0.087-0.413-0.365-1.199-0.739-1.56 0.028-0.486-0.104-0.817-0.307-1.039 0.050-0.007 0.1-0.013 0.15-0.020 0.486-0.068 0.946-0.132 1.415-0.055 0.074 0.012 0.142 0.029 0.209 0.044 0.047 0.010 0.094 0.021 0.143 0.031-0.011 0.046-0.017 0.095-0.024 0.143-0.068 0.044-0.115 0.115-0.115 0.202 0 0.075 0.035 0.14 0.088 0.186zM159.938 36.148c-0.002 0.001-0.046 0.019-0.201-0-0.31-0.038-0.638-0.135-0.955-0.23l-0.077-0.023c-0.51-0.15-0.958-0.359-1.432-0.581-0.029-0.014-0.060-0.027-0.089-0.041 0.809 0.171 2.304 0.477 2.715 0.512 0.012 0.001 0.025 0.003 0.037 0.004-0.003 0.057-0.005 0.113-0.006 0.163-0 0.079-0.002 0.187 0.006 0.196zM152.744 31.816c1.025-0.018 2.115 0.018 3.257 0.112 1.132 0.093 2.255 0.103 3.309 0.106 0.027 0 0.054 0 0.080 0 0.684 0 1.348-0.015 1.967-0.151 0.133-0.030 0.216-0.161 0.188-0.294-0.030-0.133-0.158-0.217-0.294-0.188-0.594 0.131-1.244 0.139-1.94 0.139-0.236-0-0.478-0.002-0.721-0.004 0.114-0.004 0.215-0.088 0.234-0.206 0.021-0.134-0.070-0.261-0.204-0.282-1.567-0.252-3.168-0.235-4.715-0.219-0.352 0.004-0.704 0.005-1.057 0.005 0.003-0.113 0.001-0.233-0.003-0.36-0.003-0.087-0.006-0.178-0.006-0.269 0.303-0.006 0.607-0.014 0.911-0.028 0.332-0.015 0.665-0.031 0.996-0.034 0.573-0.006 1.154-0.044 1.714-0.082 0.325-0.021 0.651-0.042 0.976-0.058 0.733-0.035 1.488-0.023 2.221-0.012 0.41 0.006 0.818 0.012 1.228 0.011 0.135-0 0.245-0.111 0.245-0.247s-0.111-0.245-0.246-0.245c-0.001 0-0.001 0-0.001 0-0.406 0.001-0.811-0.005-1.218-0.011-0.738-0.011-1.502-0.023-2.251 0.012-0.329 0.016-0.657 0.037-0.986 0.059-0.554 0.036-1.127 0.074-1.687 0.080-0.338 0.004-0.675 0.019-1.013 0.034-0.281 0.013-0.561 0.020-0.841 0.026 0.010-0.032 0.018-0.066 0.032-0.090 0.085-0.029 0.153-0.093 0.168-0.183 0.026-0.155 0.036-0.324 0.049-0.49 0.738 0.145 1.488 0.151 2.217 0.146l0.449-0.002c0.42-0.004 0.844-0.016 1.27-0.034 0.423-0.017 0.856-0.033 1.273-0.034 0.176-0.006 0.361-0.010 0.552-0.022 0.418-0.024 0.85-0.050 1.192 0.049 0.071 0.021 0.133 0.045 0.193 0.067 0.135 0.051 0.275 0.104 0.472 0.117 0.104 0.007 0.21 0.003 0.315-0.001 0.106-0.005 0.212-0.010 0.315 0.003 0.197 0.027 0.417 0.121 0.649 0.221 0.295 0.126 0.597 0.256 0.908 0.274 0.408 1.020 0.611 2.029 0.635 3.158l0.002 0.076c0.010 0.431 0.021 0.968-0.163 1.322-0.081 0.155-0.197 0.299-0.321 0.451-0.11 0.136-0.222 0.275-0.318 0.432-0.057-0.028-0.115-0.064-0.177-0.103-0.060-0.036-0.118-0.073-0.18-0.106-0.314-0.167-0.652-0.285-0.971-0.387-0.525-0.168-1.061-0.263-1.58-0.354-0.684-0.121-1.331-0.235-1.961-0.503-0.126-0.053-0.269 0.005-0.323 0.13s0.005 0.27 0.13 0.323c0.682 0.291 1.387 0.415 2.068 0.535 0.502 0.089 1.022 0.181 1.515 0.339 0.292 0.093 0.599 0.201 0.874 0.346v0.159c0 0.019 0.002 0.037 0.007 0.055 0.001 0.056 0.003 0.112 0.003 0.166-0.059-0.019-0.119-0.050-0.196-0.091-0.114-0.060-0.244-0.129-0.411-0.161-0.515-0.101-1.078-0.179-1.633-0.227-0.491-0.042-2.829-0.537-3.168-0.612-0.23-0.051-0.457-0.105-0.684-0.159-0.55-0.13-1.12-0.265-1.706-0.354-0.074-0.011-0.151-0.018-0.228-0.026-0.080-0.021-0.159-0.043-0.24-0.061-0.069-0.014-0.149-0.037-0.235-0.061-0.249-0.069-0.524-0.14-0.767-0.118-0.104-0.022-0.212-0.030-0.314-0.010-0.009-0.039-0.003-0.125 0.002-0.188 0.003-0.046 0.006-0.090 0.007-0.129l0.002-0.176c0.004-0.249 0.008-0.5 0.002-0.748-0.003-0.142 0.025-0.264 0.058-0.404 0.030-0.128 0.060-0.26 0.069-0.418 0.001-0.005 0.002-0.009 0.002-0.014zM153.729 31.323c0.060-0 0.12-0 0.18-0.001 1.529-0.015 3.108-0.031 4.633 0.214 0.005 0.001 0.010 0 0.016 0.001-0.818-0.008-1.667-0.030-2.517-0.1-0.797-0.066-1.568-0.102-2.312-0.114zM152.505 26.903c0.023 0.008 0.048 0.015 0.067 0.023 0.039 0.015 0.080 0.031 0.121 0.044 0.017 0.202 0.007 0.426-0.003 0.643-0.006 0.134-0.011 0.267-0.011 0.395 0 0.156-0.003 0.314-0.007 0.47-0.025 0.028-0.045 0.060-0.055 0.098-0.020 0.073-0.001 0.146 0.039 0.204-0.007 0.128-0.012 0.257-0.027 0.377-0.084-0.008-0.167-0.027-0.262-0.049-0.077-0.018-0.156-0.036-0.24-0.050-0.542-0.090-1.061-0.017-1.564 0.053-0.13 0.018-0.26 0.036-0.391 0.052-0.082 0.010-0.145 0.060-0.183 0.126-0.278-0.113-0.56-0.142-0.718-0.159-0.782-0.080-1.671-0.064-2.717 0.051-0.77 0.084-1.55 0.227-2.304 0.364-0.881 0.162-1.781 0.324-2.682 0.398 2.499-0.58 5.058-1.165 7.598-1.659 0.256-0.050 0.513-0.097 0.769-0.144 0.464-0.085 0.928-0.17 1.387-0.271l0.115-0.023c0.262-0.052 0.587-0.117 0.803-0.331 0.165-0.164 0.231-0.384 0.263-0.611zM109.709 22.827c0.221 0.058 0.43 0.112 0.63 0.194 0.978 0.402 2.022 0.382 3.032 0.364 0.411-0.008 0.836-0.016 1.244 0.007 0.41 0.022 0.826 0.090 1.227 0.156 0.473 0.078 0.963 0.159 1.467 0.169 0.288 0.006 0.572 0.003 0.856 0.001 0.611-0.005 1.188-0.010 1.774 0.063l0.176 0.022c0.512 0.062 0.996 0.12 1.458 0.319 0.447 0.193 0.905 0.281 1.532 0.295 0.364 0.008 0.731-0.002 1.1-0.012 0.55-0.015 1.118-0.031 1.661 0.020 0.215 0.020 0.422 0.054 0.63 0.087 0.322 0.051 0.655 0.104 1.008 0.11 0.387 0.006 0.772 0.024 1.159 0.041 0.409 0.019 0.818 0.037 1.227 0.043 0.292 0.004 0.581 0.001 0.87-0.001 0.523-0.006 1.064-0.011 1.593 0.031 1.035 0.082 2.241 0.175 3.447 0.236 0.354 0.018 0.714 0.064 1.062 0.109 0.329 0.042 0.67 0.086 1.012 0.107 0.578 0.035 1.164-0.022 1.73-0.076 0.236-0.023 0.472-0.046 0.706-0.062 0.311-0.021 0.622-0.045 0.933-0.068 0.736-0.055 1.496-0.112 2.241-0.137 1.591-0.054 3.219-0.080 4.974-0.080 0.632-0.005 1.279 0.055 1.905 0.111 0.569 0.051 1.157 0.104 1.743 0.113-0.008 0.371-0.026 0.768-0.055 1.203-0.004 0.071-0.006 0.152-0.007 0.236-0.001 0.031-0.002 0.065-0.003 0.097v0c-0.080 0.091-0.091 0.229-0.021 0.321-0.019 0.133-0.055 0.252-0.124 0.32-0.112 0.11-0.356 0.159-0.553 0.198l-0.125 0.026c-0.454 0.1-0.912 0.184-1.37 0.268-0.259 0.048-0.518 0.095-0.775 0.145-2.873 0.559-5.77 1.233-8.571 1.885l-0.479 0.112c-0.083 0.019-0.141 0.079-0.169 0.152-0.571-0.047-1.154-0.133-1.721-0.219-0.44-0.067-0.877-0.133-1.311-0.182-2.42-0.271-4.837-0.557-7.255-0.843-3.5-0.414-7.12-0.841-10.687-1.217-0.141-0.018-0.257 0.084-0.27 0.219s0.084 0.257 0.218 0.271c3.565 0.375 7.182 0.802 10.682 1.216 2.418 0.286 4.837 0.571 7.257 0.843 0.427 0.048 0.859 0.113 1.292 0.179 0.715 0.109 1.455 0.221 2.178 0.253 1.384 0.056 2.767-0.194 4.103-0.438 0.746-0.136 1.516-0.277 2.269-0.359 1.011-0.11 1.867-0.127 2.614-0.050 0.764 0.078 1.076 0.323 1.081 0.881-0.241 0.018-0.502 0.008-0.755-0.002-0.148-0.005-0.295-0.011-0.435-0.011-2.288-0.002-4.707 0.122-7.872 0.42-0.134 0.013-0.235 0.133-0.222 0.268 0.012 0.128 0.119 0.223 0.245 0.223 0.008 0 0.015-0 0.023-0.001 3.064-0.288 5.43-0.418 7.639-0.418 0.199 0.001 0.397 0.004 0.602 0.012 0.292 0.011 0.589 0.014 0.878-0.013 0.204 0.135 0.486 0.757 0.605 1.192-0.237-0.010-0.5-0.079-0.754-0.145-0.168-0.044-0.333-0.087-0.489-0.114-1.143-0.201-2.31-0.188-3.436-0.174-0.317 0.004-0.632 0.006-0.95 0.007-0.135 0-0.246 0.11-0.246 0.246s0.11 0.246 0.245 0.247c0.319 0 0.638-0.003 0.956-0.007 1.104-0.014 2.247-0.027 3.345 0.166 0.142 0.025 0.295 0.065 0.449 0.105 0.264 0.069 0.551 0.141 0.837 0.156-0.009 0.246 0.041 0.537 0.11 0.836l0.031 0.137c0.056 0.238 0.11 0.467 0.109 0.691 0 0-0.001 0-0.002 0-0.428 0-0.829-0.068-1.272-0.214-0.955-0.313-1.848-0.538-2.729-0.69-0.236-0.040-0.474-0.078-0.712-0.116-0.611-0.097-1.243-0.197-1.849-0.351-0.643-0.164-1.372-0.349-2.111-0.462-1.474-0.226-2.931-0.538-4.297-0.838-1.454-0.32-2.933-0.361-4.365-0.4l-0.647-0.019c-0.946-0.030-1.905-0.143-2.833-0.252-0.835-0.098-1.698-0.2-2.558-0.242-0.4-0.020-0.8-0.043-1.199-0.066-0.944-0.053-1.919-0.108-2.886-0.126-0.822-0.015-1.638-0.158-2.429-0.296-0.667-0.117-1.358-0.237-2.061-0.285-0.259-0.017-0.519-0.026-0.778-0.034-0.393-0.013-0.798-0.026-1.189-0.072s-0.78-0.101-1.169-0.156c-0.503-0.071-1.006-0.142-1.513-0.195-2.312-0.242-4.576-0.488-6.845-0.838-2.641-0.407-12.982-1.166-15.758-1.34-0.036-0.002-0.069 0.003-0.1 0.013-0.072-0.007-0.148-0.017-0.225-0.028-0.151-0.021-0.328-0.037-0.455-0.041-0.112-0.001-0.258-0.015-0.379-0.032-0.145-0.019-0.292-0.031-0.459-0.037-0.397 0.003-0.791 0.002-1.186 0.001l-0.596-0.001c-0.197 0-0.399 0.007-0.602 0.013-0.437 0.014-0.888 0.029-1.3-0.026l-0.156-0.023c-0.186-0.028-0.372-0.052-0.551-0.071 0.246-0.156 0.48-0.33 0.682-0.535 0.002 0 0.004 0.002 0.006 0.002 0.024 0 0.049-0.003 0.073-0.010 0.172-0.054 0.482-0.151 0.897-0.282 8.004-2.53 12.494-3.778 13.387-3.702 0.426 0.035 0.858 0.001 1.277-0.031 0.282-0.022 0.569-0.055 0.853-0.045 1.145 0.001 2.275-0.093 3.387-0.186 0.361-0.030 0.719-0.056 1.078-0.083 0.026 0.012 0.052 0.022 0.082 0.024 0.445 0.038 0.794 0.155 1.282 0.357 0.232 0.094 0.468 0.156 0.698 0.216zM101.788 11.948c0.841-0.267 1.71-0.504 2.55-0.733 0.611-0.167 1.221-0.333 1.828-0.512 0.388-0.115 0.775-0.233 1.162-0.352 0.919-0.281 1.868-0.571 2.816-0.803 1.433-0.351 2.904-0.654 4.329-0.947 1.788-0.368 3.636-0.749 5.432-1.229 3.027-0.809 6.169-1.214 8.57-1.476 0.585-0.064 1.183-0.105 1.762-0.145 0.82-0.056 1.667-0.115 2.501-0.239 0.15-0.023 0.304-0.048 0.461-0.073 1.15-0.189 2.453-0.401 3.334 0.37 0.078 0.068 0.152 0.143 0.223 0.219-4.676 0.428-9.593 1.131-15.852 2.263-0.133 0.025-0.223 0.153-0.199 0.286s0.154 0.221 0.287 0.199c6.373-1.153 11.347-1.858 16.096-2.282 0.181 0.13 0.413 0.24 0.66 0.356 0.667 0.31 1.098 0.544 1.017 0.956-0.028 0.137-0.584 0.072-0.794 0.048-0.152-0.018-0.292-0.032-0.379-0.030-2.709 0.080-5.437 0.699-8.074 1.298-0.644 0.146-1.283 0.292-1.919 0.428-0.133 0.029-0.217 0.159-0.189 0.293 0.025 0.115 0.127 0.195 0.24 0.195 0.017 0 0.035-0.002 0.052-0.006 0.638-0.136 1.28-0.282 1.924-0.429 2.615-0.593 5.319-1.207 7.98-1.285 0.081-0 0.185 0.012 0.307 0.026 0.285 0.033 0.69 0.080 0.981-0.031 0.327 0.132 0.891 0.387 0.803 0.704-0.115 0.414-1.089 0.368-1.503 0.349l-0.126-0.005c-0.814-0.032-1.634 0.022-2.43 0.073-0.412 0.027-0.824 0.053-1.236 0.069-0.921 0.034-1.844 0.221-2.737 0.403-0.364 0.074-0.726 0.148-1.086 0.211-0.731 0.129-1.486 0.224-2.215 0.316-0.542 0.068-1.084 0.136-1.624 0.219-0.214 0.032-0.428 0.060-0.643 0.087-0.38 0.049-0.773 0.099-1.16 0.177-0.284 0.057-0.564 0.128-0.844 0.199-0.359 0.091-0.729 0.184-1.097 0.243-0.655 0.106-1.337 0.133-1.998 0.16-0.609 0.025-1.238 0.050-1.859 0.135-0.601 0.084-1.22 0.128-1.819 0.17-0.655 0.047-1.333 0.095-1.998 0.195-0.717 0.108-1.436 0.255-2.132 0.397-0.675 0.138-1.374 0.281-2.065 0.387-1.164 0.178-2.76 0.422-3.959 1.113-1.222 0.704-2.35 1.509-3.35 2.395-0.102 0.090-0.112 0.246-0.021 0.348 0.049 0.055 0.116 0.083 0.185 0.083 0.058 0 0.116-0.020 0.163-0.062 0.976-0.864 2.076-1.65 3.27-2.337 1.119-0.645 2.661-0.881 3.787-1.053 0.703-0.108 1.407-0.252 2.090-0.391 0.689-0.141 1.403-0.287 2.106-0.393 0.646-0.097 1.313-0.144 1.959-0.191 0.607-0.043 1.235-0.088 1.852-0.173 0.597-0.083 1.214-0.107 1.812-0.131 0.674-0.027 1.371-0.055 2.056-0.166 0.388-0.063 0.769-0.159 1.138-0.252 0.272-0.069 0.544-0.137 0.821-0.194 0.369-0.074 0.754-0.124 1.126-0.171 0.218-0.028 0.437-0.056 0.654-0.089 0.536-0.081 1.074-0.15 1.611-0.217 0.735-0.093 1.495-0.189 2.239-0.319 0.089-0.015 0.179-0.035 0.267-0.052 0.033 0.022 0.068 0.039 0.11 0.044 1.465 0.171 2.952 0.202 4.39 0.231 1.867 0.038 3.799 0.078 5.674 0.428 2.492 0.464 5.161 1.003 7.799 1.801l0.050 0.015c0.455 0.137 1.078 0.325 1.232 0.747 0.153 0.421-0.184 0.959-0.454 1.393l-0.044 0.072c-0.005 0.001-0.010 0.002-0.014 0.003-0.032 0.007-0.062 0.020-0.088 0.037-0.145-0.072-0.307-0.116-0.466-0.161-0.139-0.039-0.269-0.077-0.379-0.13-0.018-0.215-0.048-0.428-0.106-0.637-0.339-1.223-1.69-1.131-2.58-1.071l-0.187 0.012c-0.783 0.048-1.485 0.067-2.162 0.036-0.213-0.060-0.424-0.124-0.637-0.189-0.379-0.116-0.77-0.236-1.166-0.326-0.826-0.186-1.686-0.253-2.517-0.318l-0.208-0.016c-1.031-0.079-2.067 0.021-3.068 0.119-0.697 0.068-1.417 0.139-2.122 0.146-1.375 0.013-2.761 0.135-4.1 0.254-1.23 0.108-2.501 0.22-3.754 0.247-0.959 0.020-1.867 0.171-2.714 0.324-2.038 0.368-4.127 0.665-6.386 0.905-2.020 0.216-4.079 0.39-6.071 0.559l-1.172 0.1c-0.854 0.076-1.737 0.154-2.603 0.163-0.135 0.001-0.245 0.113-0.243 0.248s0.111 0.244 0.246 0.244c0.001 0 0.001 0 0.002 0 0.884-0.009 1.777-0.088 2.641-0.165l1.17-0.1c1.995-0.169 4.057-0.343 6.082-0.56 2.271-0.242 4.372-0.54 6.421-0.91 0.828-0.149 1.714-0.297 2.637-0.317 1.269-0.027 2.549-0.139 3.787-0.248 1.33-0.117 2.705-0.238 4.061-0.252 0.161-0.002 0.321-0.015 0.482-0.023 0.035 0.030 0.075 0.052 0.124 0.059 1.355 0.174 2.726 0.16 4.050 0.147l0.641-0.006c1.127-0.017 2.149 0.135 3.202 0.297 0.377 0.057 0.754 0.087 1.134 0.105 0.026 0.009 0.052 0.015 0.081 0.017 0.014 0 0.032 0 0.040 0v-0.001c0.009-0.001 0.017-0.007 0.026-0.008 0.669 0.026 1.359 0.007 2.124-0.040l0.191-0.012c1.043-0.071 1.857-0.063 2.072 0.712 0.11 0.399 0.113 0.848 0.114 1.283 0 0.146 0.001 0.29 0.006 0.433 0.014 0.459 0.048 0.952 0.103 1.499-0.468 0.054-0.991 0.027-1.499 0.002-0.286-0.014-0.566-0.029-0.832-0.029-0.124 0.003-0.292 0.007-0.441 0.013-0.279 0.012-0.566 0.025-0.823-0.009-0.085-0.011-0.184-0.035-0.288-0.061-0.173-0.042-0.362-0.086-0.542-0.093-0.117-0.333-0.267-0.651-0.473-0.936-0.749-1.042-2.021-1.021-3.142-1.004-0.155 0.002-0.307 0.004-0.456 0.004-1.755-0.007-3.39 0.035-4.998 0.128-0.764 0.044-1.544 0.066-2.3 0.086-1.171 0.031-2.382 0.063-3.57 0.184-0.271 0.028-0.541 0.067-0.81 0.107-0.282 0.042-0.564 0.084-0.848 0.11-0.512 0.047-1.042 0.051-1.555 0.055-0.243 0.002-0.487 0.004-0.729 0.010-0.791 0.020-1.586 0.101-2.354 0.179-0.785 0.080-1.597 0.163-2.395 0.178-0.608 0.011-1.219 0.006-1.832-0.001-1.52-0.016-3.089-0.033-4.61 0.233-1.078 0.188-2.185 0.321-3.255 0.45-0.698 0.085-1.395 0.168-2.092 0.267l-0.263 0.038c-0.576 0.085-1.172 0.172-1.752 0.149-0.401-0.017-0.813-0.058-1.21-0.098-0.268-0.027-0.538-0.054-0.806-0.074-0.116-0.009-0.236-0.015-0.356-0.021-0.419-0.021-0.852-0.043-1.215-0.187-0.361-0.142-0.676-0.427-0.982-0.702l-0.128-0.115c-0.034-0.031-0.076-0.051-0.12-0.058-0.133-0.024-0.283-0.154-0.428-0.28-0.123-0.107-0.251-0.218-0.397-0.293-0.317-0.161-0.459-0.264-0.679-0.554-0.27-0.358-0.643-0.437-1.002-0.515l-0.154-0.034c-0.355-0.083-1.010 0.127-2.044 0.482-0.536 0.185-1.143 0.394-1.36 0.394-0.001 0-0.003 0-0.005 0-0.122 0.009-0.248 0.106-0.25 0.242s0.106 0.248 0.242 0.251c0.315 0.010 0.871-0.193 1.532-0.42 0.609-0.21 1.528-0.524 1.773-0.469l0.162 0.035c0.31 0.067 0.554 0.12 0.714 0.332 0.279 0.367 0.488 0.511 0.848 0.695 0.092 0.047 0.192 0.133 0.298 0.226 0.168 0.147 0.357 0.311 0.589 0.376l0.081 0.072c0.338 0.304 0.687 0.619 1.131 0.794 0.439 0.173 0.913 0.197 1.371 0.221 0.116 0.006 0.231 0.012 0.344 0.020 0.265 0.020 0.529 0.047 0.794 0.073 0.404 0.041 0.823 0.082 1.239 0.099 0.627 0.026 1.246-0.066 1.843-0.153l0.261-0.038c0.693-0.098 1.387-0.182 2.081-0.266 1.077-0.13 2.19-0.265 3.281-0.455 1.477-0.258 3.024-0.241 4.52-0.225 0.619 0.007 1.235 0.013 1.847 0.001 0.818-0.015 1.639-0.099 2.435-0.18 0.759-0.077 1.544-0.157 2.317-0.176 0.239-0.006 0.48-0.008 0.721-0.010 0.523-0.004 1.064-0.008 1.596-0.057 0.294-0.028 0.584-0.070 0.874-0.113 0.262-0.039 0.523-0.078 0.787-0.104 1.171-0.119 2.372-0.151 3.535-0.182 0.758-0.020 1.542-0.041 2.315-0.086 1.599-0.093 3.221-0.133 4.968-0.127 0.151-0.001 0.307-0.002 0.466-0.004 1.050-0.017 2.135-0.034 2.735 0.8 0.145 0.202 0.259 0.424 0.353 0.659-0.039-0.082-0.121-0.139-0.218-0.14-0.179-0.002-0.339-0.017-0.499-0.033-0.185-0.018-0.373-0.015-0.584-0.035-0.58 0-1.161 0.055-1.723 0.108-0.435 0.041-0.883 0.083-1.323 0.099-0.828 0.030-1.651 0.077-2.474 0.125-1.295 0.075-2.635 0.153-3.959 0.155-0.007 0-0.013 0-0.020 0-0.675 0-1.36-0.035-2.022-0.069-0.684-0.035-1.413-0.073-2.096-0.070-0.245 0.001-0.495-0.005-0.743-0.010-0.532-0.011-1.083-0.023-1.621 0.024-0.319 0.028-0.64 0.060-0.961 0.092-0.846 0.085-1.719 0.172-2.569 0.172-0.002 0-0.003 0-0.005 0-0.136 0-0.246 0.111-0.246 0.246s0.11 0.246 0.246 0.246c0.001 0 0.003 0 0.005 0 0.873 0 1.761-0.089 2.618-0.174 0.319-0.032 0.637-0.064 0.955-0.092 0.512-0.045 1.050-0.034 1.568-0.022 0.253 0.005 0.518 0.011 0.754 0.010 0.717 0 1.392 0.035 2.069 0.069 0.667 0.035 1.358 0.070 2.046 0.070 0.007 0 0.013 0 0.021 0 1.338-0.002 2.684-0.080 3.987-0.156 0.82-0.047 1.639-0.095 2.463-0.125 0.454-0.017 0.91-0.060 1.352-0.101 0.551-0.052 1.121-0.106 1.678-0.106 0.001 0 0.002 0 0.004 0 0.194 0 0.363 0.017 0.532 0.033 0.174 0.017 0.347 0.033 0.542 0.035 0.001 0 0.002 0 0.002 0 0.135 0 0.245-0.109 0.246-0.244 0-0.028-0.007-0.053-0.014-0.077 0.030 0.077 0.060 0.154 0.086 0.234 0.001 0.012-0.002 0.023 0.001 0.035 0.005 0.023 0.016 0.041 0.027 0.061 0.157 0.516 0.238 1.077 0.317 1.628 0.008 0.050 0.014 0.099 0.021 0.148-0.42-0.025-0.842-0.074-1.253-0.124-0.184-0.021-0.368-0.043-0.551-0.063-1.392-0.151-2.739-0.157-3.875-0.144-0.744 0.009-1.486 0.008-2.229 0.009-0.954 0-1.907-0.001-2.861 0.018l-1.796 0.034c-4.54 0.084-11.402 0.212-14.896 0.493-0.135 0.010-0.236 0.13-0.225 0.265 0.010 0.129 0.117 0.227 0.244 0.227 0.007 0 0.013 0 0.020-0.001 3.478-0.279 10.332-0.407 14.866-0.491l1.796-0.034c0.95-0.019 1.899-0.018 2.851-0.018 0.746 0 1.49 0 2.235-0.009 1.121-0.012 2.451-0.007 3.817 0.141 0.183 0.020 0.365 0.041 0.546 0.063 0.425 0.050 0.862 0.095 1.302 0.12 0.059 0.183 0.055 0.703 0.007 1.133-1.662-0.014-3.341 0.070-4.971 0.152-1.256 0.063-2.555 0.128-3.826 0.147-0.664 0.010-1.375 0.017-2.068-0.008-0.339-0.012-0.671-0.076-1.025-0.144-0.206-0.039-0.412-0.079-0.618-0.108-1.823-0.256-3.415-0.306-4.863-0.151-1.365 0.145-2.797 0.206-4.502 0.193-0.78-0.006-1.572-0.052-2.338-0.097-0.593-0.035-1.186-0.069-1.782-0.087-2.443-0.072-4.934 0.115-7.34 0.298-0.812 0.061-1.624 0.122-2.433 0.174-0.533 0.034-1.068 0.078-1.605 0.123-1.091 0.091-2.218 0.184-3.313 0.184-0.013 0-0.029 0-0.040 0-0.297 0-0.596 0.024-0.885 0.046-0.417 0.033-0.811 0.063-1.198 0.032-1.258-0.111-8.357 2.073-13.576 3.723-0.14 0.044-0.264 0.083-0.378 0.119 0.049-0.109 0.090-0.223 0.119-0.346 0.106-0.436 0.129-0.88 0.151-1.31 0.021-0.421 0.041-0.818 0.133-1.207 0.265-1.131 0.656-2.59 1.339-3.844 0.663-1.215 1.585-1.9 2.633-2.607l0.489-0.331c0.51-0.345 1.006-0.681 1.506-1.006 0.037 0.022 0.078 0.041 0.121 0.041s0.085-0.011 0.122-0.033c2.663-1.533 5.556-2.544 8.035-3.333zM89.287 17.8c0.16-0.284 0.332-0.568 0.562-0.814 0.46-0.49 1.003-0.793 1.58-1.115 0.302-0.169 0.615-0.343 0.92-0.549 0.197-0.133 0.391-0.266 0.581-0.399 0.814-0.562 1.582-1.092 2.503-1.496 0.23-0.101 0.455-0.211 0.683-0.315-0.367 0.225-0.737 0.446-1.109 0.658-1.144 0.651-2.181 1.355-3.28 2.1l-0.489 0.331c-0.718 0.485-1.379 0.964-1.952 1.6zM51.187 23.139c0.002-0.011 0.006-0.025 0.008-0.034 0.019-0.077 0.035-0.145 0.040-0.196 0.010-0.090 0.007-0.172 0-0.25 0.063-0.024 0.127-0.045 0.19-0.070 0.259-0.102 0.503-0.198 0.76-0.266 1.427-0.381 3-0.646 4.547-0.767 0.135-0.010 0.237-0.13 0.226-0.265s-0.132-0.235-0.265-0.227c-1.577 0.123-3.18 0.394-4.636 0.783-0.284 0.075-0.553 0.181-0.813 0.284-0.011 0.004-0.023 0.008-0.034 0.012 0-0.006 0.003-0.010 0.003-0.015 0-0.041-0.013-0.078-0.031-0.113 0.034-0.191 0.076-0.365 0.123-0.529 0.035-0.017 0.068-0.034 0.098-0.048l0.107-0.052c0.257-0.131 0.49-0.237 0.714-0.326 0.306-0.122 0.584-0.159 0.906-0.202 0.133-0.017 0.269-0.035 0.412-0.061l0.106-0.019c0.67-0.117 1.303-0.227 1.962-0.27 0.136-0.009 0.238-0.127 0.23-0.262s-0.13-0.236-0.262-0.23c-0.685 0.045-1.361 0.163-2.014 0.277l-0.106 0.018c-0.136 0.024-0.266 0.041-0.394 0.059-0.339 0.045-0.66 0.089-1.022 0.233-0.15 0.059-0.307 0.13-0.468 0.205 0.218-0.402 0.512-0.711 0.916-0.965 0.776-0.487 1.788-0.879 2.847-1.104 1.017-0.216 2.090-0.174 3.103 0.119 0.973 0.283 1.773 0.831 2.621 1.408l0.060 0.041c2.033 1.387 4.565 1.551 6.778 1.596 1.301 0.026 2.612-0.048 3.88-0.118 0.841-0.047 1.712-0.096 2.569-0.115 0.936-0.021 1.887 0.018 2.807 0.056 1.208 0.048 2.453 0.091 3.697 0.010-0.067 0.050-0.13 0.101-0.197 0.152-1.048 0.784-2.183 1.304-3.384 1.856-0.528 0.242-1.075 0.493-1.611 0.768-0.405 0.207-0.845 0.409-1.299 0.612-0.015-0.003-0.028-0.010-0.044-0.011-4.445-0.202-8.446-0.435-12.409-1.233-0.489-0.098-0.986-0.207-1.488-0.318-3.097-0.679-6.297-1.378-9.275-0.111-0.002-0.010-0.003-0.020-0.003-0.032 0.044-0.044 0.071-0.104 0.071-0.172 0.001-0.040-0.009-0.076-0.026-0.108zM51.489 33.354c-0.139-0.076-0.304-0.138-0.479-0.204-0.020-0.008-0.040-0.015-0.061-0.023 0.267-0.022 0.521-0.076 0.786-0.223 0.119-0.066 0.162-0.216 0.096-0.335s-0.216-0.162-0.335-0.096c-0.291 0.161-0.565 0.178-0.94 0.178-0.065 0.001-0.136-0.002-0.213-0.007-0.046-0.003-0.096-0.005-0.146-0.007-0.002-0.006-0.006-0.011-0.007-0.017l-0.029-0.116c-0.043-0.175-0.078-0.295-0.162-0.408 0.087 0 0.174-0 0.261 0 0.481 0.005 0.684-0.096 1.029-0.262l0.084-0.040c0.123-0.059 0.175-0.205 0.116-0.328s-0.205-0.175-0.329-0.116l-0.086 0.041c-0.318 0.153-0.459 0.208-0.811 0.214-0.179-0.001-0.357-0-0.535 0h-0.050c0.013-0.062 0.022-0.133 0.017-0.219-0.003-0.044-0.010-0.084-0.020-0.121 0.002-0 0.004-0 0.006-0.001 0.347-0.055 0.74-0.117 0.941-0.378 0.083-0.108 0.064-0.262-0.044-0.345s-0.263-0.064-0.345 0.044c-0.082 0.106-0.411 0.158-0.629 0.193-0.127 0.020-0.246 0.040-0.343 0.066-0.038-0.014-0.075-0.028-0.108-0.038-0.088-0.030-0.17-0.057-0.215-0.098-0.017-0.015-0.027-0.035-0.038-0.054-0.005-0.020-0.016-0.036-0.026-0.054-0.031-0.090-0.031-0.207-0.024-0.369 0-0.005-0-0.010 0-0.015 0.038-0.021 0.069-0.052 0.091-0.090 0.072-0.013 0.142-0.029 0.206-0.043 0.051-0.011 0.098-0.023 0.139-0.030l0.087-0.014c0.139-0.022 0.312-0.049 0.433-0.098 0.087-0.035 0.159-0.088 0.223-0.133 0.052-0.037 0.127-0.088 0.15-0.085 0.133 0.021 0.261-0.070 0.282-0.204s-0.070-0.261-0.204-0.283c-0.227-0.035-0.395 0.084-0.516 0.171-0.046 0.033-0.089 0.064-0.121 0.076-0.068 0.028-0.223 0.052-0.325 0.068l-0.095 0.015c-0.049 0.009-0.104 0.021-0.164 0.035-0.069 0.016-0.19 0.042-0.295 0.052 0.018-0.026 0.035-0.052 0.056-0.072 0.094-0.094 0.096-0.246 0.004-0.342-0.063-0.067-0.139-0.105-0.214-0.137 0.065-0.044 0.11-0.115 0.11-0.2 0-0.001-0-0.002-0-0.004 0.039-0.050 0.072-0.108 0.082-0.182 0.014-0.106-0.011-0.189-0.049-0.256 0.294-0.051 0.754-0.075 1.129-0.061 0.134 0.003 0.25-0.1 0.256-0.236s-0.1-0.25-0.236-0.256c-0.256-0.011-0.699-0.013-1.094 0.047-0.004-0.031-0.010-0.060-0.019-0.088 0.117-0.028 0.333-0.046 0.737-0.030 0.064 0.003 0.112 0.003 0.157 0.005 0.136 0 0.246-0.111 0.246-0.247s-0.11-0.246-0.246-0.246c0 0 0 0-0 0-0.030 0.010-0.080-0.002-0.135-0.004-0.397-0.016-0.795-0.012-1.064 0.123-0.002-0.005-0.002-0.010-0.005-0.015 0.437-1.404 1.11-2.768 2.782-3.506 2.861-1.264 6.021-0.57 9.076 0.099 0.505 0.111 1.005 0.221 1.497 0.32 3.719 0.749 7.464 1.003 11.564 1.199-1.005 0.441-2.032 0.897-2.893 1.401l-0.072 0.042c-1.821 1.068-3.541 2.077-5.542 2.801-1.202 0.435-2.356 0.905-3.471 1.359-2.429 0.99-4.724 1.924-7.383 2.473-0.339 0.070-0.672 0.156-1.002 0.246-0.051-0.035-0.116-0.051-0.182-0.040-0.106 0.020-0.224-0.034-0.362-0.094-0.086-0.038-0.173-0.075-0.26-0.101-0.282-0.085-0.49-0.17-0.719-0.295zM73.704 33.031c-1.903 1.004-6.363 3.356-7.559 4.13-0.389 0.252-0.853 0.506-1.344 0.776-0.99 0.544-2.112 1.16-3.016 1.969-0.58 0.52-1.392 1.088-2.177 1.637-1.013 0.709-1.969 1.378-2.454 1.949-0.523 0.615-2.457 1.754-3.87 2.586-0.776 0.457-1.447 0.852-1.745 1.077-0.832 0.624-4.658 2.402-7.386 2.325-1.003-0.025-1.736-0.267-2.297-0.613 0.007 0.002 0.014 0.004 0.020 0.006 0.379 0.119 0.743 0.166 1.101 0.166 0.619 0 1.219-0.139 1.84-0.285 0.164-0.038 0.33-0.077 0.499-0.113 0.133-0.029 0.217-0.16 0.189-0.293s-0.16-0.217-0.293-0.189c-0.171 0.036-0.339 0.076-0.506 0.114-0.913 0.214-1.774 0.415-2.681 0.13-0.089-0.029-0.182-0.054-0.277-0.081-0.271-0.075-0.548-0.154-0.757-0.297 0.003-0.013 0.010-0.025 0.011-0.039 0.001-0.019-0.003-0.036-0.006-0.055 0.487-0.012 0.956-0.108 1.448-0.361 0.121-0.063 0.168-0.211 0.106-0.332s-0.21-0.169-0.332-0.106c-0.375 0.193-0.739 0.278-1.118 0.301 0.112-0.048 0.175-0.17 0.14-0.291-0.037-0.13-0.173-0.208-0.305-0.168-0.208 0.060-0.449 0.063-0.701 0.061-0.011-0.019-0.023-0.038-0.035-0.058l-0.022-0.037c0.432-0.11 0.895-0.315 0.997-0.795 0.028-0.133-0.057-0.264-0.19-0.292-0.132-0.025-0.264 0.057-0.292 0.19-0.054 0.256-0.43 0.378-0.766 0.45-0.063-0.123-0.121-0.248-0.175-0.374 0.079-0.039 0.197-0.084 0.36-0.133 0.086-0.026 0.163-0.050 0.222-0.074 0.324-0.134 0.649-0.253 0.974-0.372 0.315-0.115 0.631-0.231 0.944-0.36 0.24-0.098 0.479-0.191 0.717-0.282 0.466-0.179 0.947-0.365 1.421-0.594 0.4-0.194 0.824-0.357 1.234-0.514 0.334-0.128 0.668-0.257 0.996-0.402 0.124-0.056 0.18-0.201 0.125-0.325s-0.201-0.18-0.325-0.125c-0.32 0.142-0.646 0.267-0.972 0.393-0.419 0.161-0.853 0.327-1.272 0.53-0.455 0.22-0.906 0.394-1.383 0.577-0.241 0.093-0.484 0.187-0.727 0.286-0.308 0.127-0.617 0.239-0.927 0.353-0.332 0.121-0.663 0.243-0.993 0.38-0.047 0.019-0.109 0.037-0.177 0.059-0.114 0.035-0.243 0.075-0.366 0.129 0.126-0.13 0.303-0.217 0.564-0.324 0.073-0.031 0.148-0.062 0.224-0.095 0.206-0.092 0.414-0.17 0.619-0.249 0.481-0.185 0.979-0.376 1.435-0.707 1.538-1.117 3.368-1.776 5.139-2.414 0.444-0.16 0.888-0.32 1.327-0.486 0.127-0.049 0.191-0.191 0.143-0.318s-0.191-0.189-0.318-0.143c-0.436 0.166-0.878 0.325-1.32 0.484-1.802 0.649-3.667 1.321-5.262 2.479-0.403 0.294-0.849 0.464-1.322 0.646-0.213 0.082-0.428 0.165-0.642 0.259-0.072 0.032-0.143 0.062-0.212 0.090-0.138 0.057-0.277 0.116-0.409 0.189-0.025-0.043-0.061-0.080-0.109-0.102 0.052-0.364 0.195-0.664 0.542-1.021 0.375-0.385 0.91-0.622 1.428-0.85l0.406-0.184c0.498-0.228 1.061-0.487 1.565-0.536 0.135-0.013 0.234-0.133 0.221-0.269s-0.133-0.227-0.269-0.222c-0.586 0.058-1.19 0.335-1.722 0.579l-0.399 0.18c-0.561 0.247-1.14 0.503-1.582 0.957-0.195 0.199-0.334 0.391-0.439 0.582-0.081-1.717 0.313-2.801 1.415-3.898 0.91-0.905 1.925-1.829 3.171-2.453 1.065-0.534 2.213-0.932 3.323-1.317 0.492-0.171 0.984-0.341 1.472-0.523 0.387-0.145 0.769-0.293 1.151-0.441 1.466-0.567 2.85-1.103 4.371-1.417 2.704-0.558 5.019-1.501 7.47-2.499 1.111-0.453 2.26-0.921 3.453-1.352 2.043-0.74 3.783-1.76 5.624-2.84l0.072-0.042c0.878-0.515 1.953-0.986 2.992-1.441 0.771-0.338 1.5-0.657 2.162-0.996 0.527-0.269 1.068-0.518 1.592-0.758 1.172-0.538 2.384-1.094 3.474-1.909 4.652-3.482 7.539-7.472 7.567-7.511 0.107-0.151 0.206-0.313 0.305-0.476 0.153-0.25 0.311-0.509 0.499-0.717 0.575-0.637 2.018-1.507 3.177-2.206 0.549-0.331 1.068-0.645 1.428-0.892 1.089-0.748 6.71-3.497 9.108-4.587 2.35-1.068 9.611-4.249 10.657-4.597 0.629-0.139 1.18-0.351 1.763-0.577l0.245-0.094c0.501-0.192 1.108-0.174 1.861 0.055l0.061 0.018c0.056 0.016 0.188 0.054 0.255 0.093-0.090 0.080-0.347 0.183-0.769 0.306-0.072 0.021-0.133 0.039-0.174 0.053-0.79 0.27-1.611 0.496-2.405 0.713l-0.6 0.166c-2.006 0.558-4.005 1.262-5.939 1.943-0.665 0.234-1.329 0.468-1.993 0.697-0.129 0.044-0.197 0.184-0.153 0.313 0.035 0.102 0.13 0.167 0.233 0.167 0.026 0 0.053-0.004 0.080-0.013 0.666-0.229 1.331-0.463 1.997-0.698 1.926-0.678 3.918-1.38 5.907-1.934l0.599-0.165c0.802-0.22 1.631-0.447 2.436-0.723 0.035-0.012 0.089-0.028 0.151-0.046 0.423-0.124 0.814-0.256 1.011-0.469 0.193 0.001 0.362 0.008 0.534 0.033 0.070 0.010 0.121 0.037 0.187 0.072 0.077 0.041 0.168 0.090 0.292 0.108 0.080 0.091 0.18 0.167 0.278 0.24 0.046 0.035 0.113 0.086 0.157 0.127-0.002 0.001-0.005 0.003-0.008 0.005-0.275 0.173-0.656 0.282-1.026 0.387-0.218 0.063-0.432 0.124-0.623 0.196-1.093 0.415-2.182 0.845-3.27 1.274-0.603 0.237-1.205 0.475-1.81 0.711-0.126 0.049-0.19 0.193-0.139 0.319 0.037 0.098 0.131 0.157 0.229 0.157 0.030 0 0.061-0.005 0.090-0.017 0.604-0.236 1.208-0.473 1.812-0.712 1.086-0.428 2.173-0.857 3.265-1.271 0.178-0.068 0.378-0.125 0.583-0.183 0.402-0.115 0.817-0.233 1.152-0.443 0.094-0.059 0.163-0.126 0.209-0.198 0.003-0.004 0.007-0.007 0.010-0.010 0.002-0 0.005-0 0.007-0 0.215 0 0.874 0.362 1.055 0.54 0.201 0.198 0.36 0.509 0.485 0.807-0.976 0.212-1.94 0.487-2.875 0.753l-0.72 0.204c-0.407 0.114-0.815 0.225-1.222 0.335-1.059 0.287-2.154 0.584-3.217 0.945-0.589 0.2-1.184 0.385-1.779 0.57-0.791 0.245-1.608 0.5-2.401 0.788-1.054 0.384-2.102 0.833-3.115 1.267l-0.634 0.27c-0.798 0.339-1.596 0.675-2.395 1.011-1.235 0.52-2.467 1.043-3.697 1.574-0.071-0.027-0.152-0.025-0.22 0.019l-0.328 0.214c-0.035 0.016-0.072 0.031-0.109 0.047-0.649 0.283-1.29 0.585-1.931 0.888-0.612 0.289-1.224 0.578-1.844 0.85-0.964 0.423-1.751 0.967-2.584 1.542-0.191 0.131-0.382 0.263-0.577 0.395-0.288 0.195-0.592 0.364-0.885 0.528-0.583 0.325-1.186 0.662-1.699 1.207-0.318 0.34-0.527 0.719-0.729 1.086-0.172 0.313-0.403 0.604-0.646 0.913-0.441 0.557-0.898 1.133-0.994 1.861-0.1 0.752-0.468 1.491-0.794 2.145-0.14 0.281-0.273 0.547-0.376 0.796-0.081 0.195-0.155 0.397-0.23 0.603-0.249 0.684-0.507 1.391-1.12 2.056-0.66 0.714-6.516 3.42-8.717 4.402-0.124 0.056-0.18 0.201-0.125 0.326 0.041 0.092 0.131 0.146 0.225 0.146 0.033 0 0.068-0.007 0.1-0.021 0.819-0.366 8.031-3.601 8.878-4.518 0.68-0.737 0.968-1.526 1.221-2.222 0.073-0.2 0.143-0.395 0.222-0.582 0.099-0.239 0.227-0.496 0.362-0.766 0.342-0.687 0.731-1.466 0.842-2.299 0.071-0.545 0.412-1.011 0.791-1.493-0.678 1.282-1.071 2.736-1.335 3.868-0.102 0.433-0.124 0.87-0.146 1.294-0.021 0.426-0.042 0.829-0.137 1.22-0.192 0.792-0.967 1.209-1.716 1.613-0.19 0.102-0.375 0.202-0.549 0.307-1.971 1.182-5.606 3.013-8.261 4.351-1.087 0.546-1.999 1.006-2.55 1.297zM153.042 47.28c-0.011 0.036-0.015 0.075-0.009 0.114-0.032 0.337-0.113 0.605-0.294 0.626-0.233 0.032-0.574-0.167-0.847-0.323-0.076-0.044-0.149-0.086-0.215-0.121-0.489-0.258-1.061-0.551-1.668-0.771-0.841-0.306-1.72-0.536-2.57-0.758-0.569-0.148-1.159-0.302-1.725-0.476-1.348-0.416-2.949-0.889-4.608-1.252-0.133-0.030-0.265 0.055-0.294 0.188s0.055 0.265 0.188 0.294c1.641 0.36 3.23 0.83 4.568 1.241 0.577 0.178 1.171 0.333 1.746 0.483 0.839 0.219 1.706 0.445 2.526 0.744 0.577 0.21 1.132 0.495 1.606 0.745 0.061 0.033 0.128 0.071 0.198 0.112 0.283 0.163 0.623 0.351 0.961 0.381 0 0.152-0.002 0.304-0.003 0.457-0.003 0.229-0.005 0.458-0.003 0.686-0.494-0.245-1.010-0.492-1.543-0.706-0.482-0.194-0.978-0.36-1.46-0.521-0.434-0.145-0.882-0.296-1.313-0.464-1.081-0.423-2.368-0.902-3.718-1.25-1.575-0.405-3.147-0.916-4.667-1.41-1.232-0.4-2.505-0.814-3.777-1.171-0.854-0.239-1.718-0.505-2.555-0.762-1.971-0.605-4.009-1.232-6.089-1.572-1.615-0.266-3.493-0.594-5.312-1.127-1.335-0.392-2.437-0.693-3.466-0.946-1.597-0.395-3.042-0.736-4.558-0.93-0.69-0.088-1.384-0.162-2.077-0.235-1.271-0.134-2.585-0.273-3.855-0.507-1.692-0.311-3.406-0.725-5.063-1.125-0.72-0.174-1.437-0.347-2.155-0.513-0.479-0.111-0.964-0.248-1.432-0.381-0.52-0.148-1.057-0.3-1.597-0.419-0.669-0.147-1.354-0.266-2.016-0.381-0.514-0.090-1.029-0.178-1.539-0.281-0.865-0.174-1.746-0.3-2.599-0.421-0.396-0.056-0.792-0.113-1.188-0.174-0.482-0.074-0.97-0.174-1.441-0.271-0.558-0.114-1.133-0.233-1.712-0.312-0.801-0.11-1.603-0.231-2.409-0.352-3.089-0.463-6.27-0.935-9.426-0.819 0.266-0.133 0.545-0.275 0.84-0.423 2.661-1.341 6.305-3.176 8.292-4.369 0.062-0.037 0.13-0.072 0.195-0.109 0.069 0.008 0.14-0.010 0.195-0.062 0.074-0.068 0.365-0.118 1.33 0.025l0.165 0.024c0.451 0.059 0.924 0.044 1.38 0.030 0.198-0.006 0.395-0.012 0.587-0.012l0.595 0.001c0.397 0 0.794 0.002 1.19-0.001 0.142 0.005 0.267 0.017 0.391 0.033 0.143 0.019 0.284 0.036 0.447 0.036 0.126 0.006 0.256 0.018 0.384 0.036 0.14 0.020 0.285 0.040 0.432 0.040 0.049 0 0.098-0.002 0.147-0.007 3.051 0.196 12.934 0.926 15.497 1.321 0.282 0.044 0.564 0.081 0.846 0.122 0.5 0.297 0.845 0.695 1.027 1.185l0.064 0.173c0.182 0.5 0.313 0.861 0.797 1.289 0.259 0.229 0.499 0.489 0.73 0.74 0.213 0.232 0.433 0.47 0.672 0.691 0.515 0.474 1.246 0.744 1.826 0.926 0.438 0.138 0.89 0.212 1.327 0.284 0.293 0.048 0.585 0.096 0.873 0.163 0.362 0.084 0.724 0.206 1.075 0.325 0.349 0.118 0.71 0.24 1.081 0.329 0.439 0.104 0.886 0.173 1.318 0.238 0.327 0.050 0.653 0.099 0.976 0.165 0.568 0.114 1.143 0.267 1.698 0.415 0.261 0.069 0.522 0.138 0.783 0.204 0.637 0.161 1.29 0.265 1.923 0.365 0.221 0.035 0.443 0.071 0.666 0.108 0.34 0.058 0.682 0.126 1.025 0.195 0.685 0.136 1.393 0.277 2.1 0.335 0.843 0.068 1.701 0.114 2.532 0.159 0.605 0.033 1.211 0.066 1.816 0.106 1.029 0.069 1.958 0.153 2.913 0.478 0.488 0.166 0.989 0.261 1.474 0.353 0.385 0.073 0.783 0.149 1.162 0.259 0.234 0.068 0.441 0.183 0.66 0.304 0.306 0.169 0.622 0.344 1.027 0.399 0.725 0.096 1.458 0.126 2.166 0.154 0.978 0.038 1.99 0.079 2.967 0.3 0.651 0.148 1.202 0.351 1.685 0.621l0.105 0.059c0.281 0.159 0.57 0.322 0.898 0.435 0.159 0.055 0.316 0.107 0.471 0.158 0.443 0.146 0.862 0.284 1.28 0.486 0.259 0.125 0.533 0.203 0.799 0.278 0.332 0.094 0.646 0.183 0.908 0.353 0.063 0.041 0.119 0.088 0.175 0.133 0.104 0.086 0.222 0.182 0.374 0.25 0.14 0.064 0.291 0.108 0.442 0.145 0.61 0.925 0.622 1.851 0.629 2.918 0 0.091 0.010 0.226 0.022 0.387 0.023 0.255 0.058 0.728 0.033 1.134zM156.819 47.529l-0.235-0.049c-0.369-0.077-0.753-0.065-1.121-0.052-0.298 0.010-0.579 0.018-0.847-0.015-0.124-0.016-0.286-0.074-0.456-0.136-0.206-0.074-0.415-0.145-0.618-0.171 0.009-0.349-0.017-0.706-0.038-0.997-0.011-0.147-0.021-0.27-0.021-0.353-0.007-0.967-0.017-1.887-0.487-2.806 0.082 0.010 0.165 0.019 0.244 0.027 0.099 0.010 0.197 0.021 0.292 0.033 0.247 0.031 0.5 0.056 0.754 0.081 0.888 0.090 1.807 0.182 2.606 0.513 0.118 0.049 0.234 0.104 0.349 0.16 0.025 0.050 0.070 0.085 0.122 0.108 0.002 0.234 0.030 0.46 0.051 0.613l0.023 0.18c0.112 0.877 0.297 2.331 1.011 3.087-0.541 0.010-1.113-0.109-1.631-0.22zM158.844 46.523c-0.157-0.076-0.401-0.608-0.567-1.596-0.029-0.167-0.062-0.735-0.043-1.107 0.13 0.264 0.222 0.585 0.272 0.933-0.003 0.167 0.010 0.335 0.021 0.495 0.009 0.117 0.017 0.229 0.017 0.327 0 0.133 0.107 0.242 0.24 0.245 0.085 0.003 0.155-0.035 0.201-0.096 0.062 0.467-0.005 0.734-0.141 0.8zM159.241 47.497c-0.009 0.073-0.025 0.118-0.051 0.178-0.046-0.018-0.091-0.040-0.133-0.066-0.006-0.217-0.054-0.413-0.123-0.598 0.061-0.010 0.121-0.031 0.179-0.063 0.047-0.025 0.090-0.055 0.128-0.091 0.001 0.068 0.003 0.134 0.006 0.202 0.005 0.156 0.011 0.301-0.005 0.436zM164.233 46.262c-0.069-0.004-0.141 0.003-0.215 0.031-0.083 0.032-0.142 0.105-0.156 0.194-0.023 0.149-0.024 0.295-0.015 0.436-0.161 0.292-0.297 0.588-0.343 0.877-0.15-0.070-0.31-0.138-0.473-0.206l-0.083-0.034c-0.598-0.255-1.080-0.664-1.613-1.37-0.354-0.468-0.772-0.886-1.138-1.242-0.051-0.050-0.104-0.105-0.159-0.162-0.171-0.179-0.361-0.369-0.587-0.511 0-0.025-0.001-0.049-0.009-0.074-0.114-0.341-0.206-0.703-0.294-1.054-0.116-0.463-0.236-0.941-0.416-1.396-0.189-0.479-0.488-0.845-0.805-1.15 0.1 0.044 0.199 0.089 0.3 0.126 0.23 0.085 0.459 0.16 0.686 0.235 0.414 0.135 0.804 0.264 1.188 0.446 0.165 0.079 0.329 0.152 0.492 0.224 0.345 0.153 0.674 0.299 0.988 0.49 0.003 0.023 0.007 0.046 0.011 0.069 0.118 0.616 0.451 1.17 0.793 1.677l0.076 0.119c0.202 0.321 0.417 0.636 0.662 0.788 0.003 0.004 0.003 0.009 0.006 0.012 0.067 0.079 0.167 0.108 0.257 0.080 0.010 0.001 0.021 0.005 0.032 0.005 0.003 0 0.005 0 0.008 0 0.043 0 0.083-0.010 0.122-0.020 0.153 0.078 0.42 0.303 0.517 0.392 0.083 0.076 0.154 0.14 0.205 0.178 0.159 0.115 0.293 0.243 0.435 0.378 0.009 0.009 0.017 0.016 0.026 0.025-0.21 0.070-0.369 0.249-0.497 0.434zM164.849 47.392c-0.002 0.018-0.003 0.035-0.005 0.053-0.006-0.119-0.016-0.241-0.035-0.361 0.017-0.081 0.040-0.164 0.071-0.244-0.003 0.205-0.021 0.431-0.032 0.552zM165.421 48.315c-0.041 0.093-0.101 0.172-0.167 0.24 0.046-0.27 0.066-0.528 0.066-0.816 0-0.072 0.010-0.181 0.020-0.307 0.027-0.324 0.044-0.611 0.024-0.848 0.049 0.038 0.101 0.076 0.159 0.108 0.004 0.056 0.008 0.113 0.012 0.169 0.038 0.507 0.076 1.031-0.114 1.453z"></path>
</svg>
