<?xml version="1.0" encoding="utf-8"?>
<!-- Generated by IcoMoon.io -->
<!DOCTYPE svg PUBLIC "-//W3C//DTD SVG 1.1//EN" "http://www.w3.org/Graphics/SVG/1.1/DTD/svg11.dtd">
<svg version="1.1" xmlns="http://www.w3.org/2000/svg" xmlns:xlink="http://www.w3.org/1999/xlink" width="346" height="60" viewBox="0 0 346 60">
<path fill="#444444" d="M341.95 55.093c-0.305 0-0.613-0.076-0.891-0.246-142.534-85.293-284.327-43.585-338.679-21.692-0.887 0.353-1.895-0.073-2.256-0.96-0.357-0.887 0.073-1.899 0.96-2.256 54.83-22.087 197.891-64.162 341.756 21.935 0.821 0.492 1.088 1.552 0.596 2.377-0.326 0.541-0.897 0.842-1.487 0.842z"></path>
<path fill="#444444" d="M292.733 60c-0.003 0-0.007 0-0.010 0-0.475-0.003-0.929-0.201-1.251-0.544-0.548-0.582-1.012-1.279-1.4-2.069-2.855 0.215-5.714 0.295-8.524 0.187-4.38-0.194-7-1.251-8.24-3.34-1.843-3.105 0.191-7.273 2.346-11.681 1.227-2.519 2.502-5.122 3.146-7.617 0.565-2.166 1.227-4.453 1.909-6.799 1.947-6.712 3.961-13.653 4.266-19.759 0.031-0.631 0.402-1.195 0.97-1.469 0.568-0.281 1.241-0.222 1.76 0.146 0.672 0.478 1.334 0.977 1.975 1.497 0.094-0.187 0.225-0.357 0.395-0.502 0.717-0.631 1.809-0.561 2.443 0.159 3.857 4.408 8.5 8.161 13.552 11.751 0.090-0.066 0.191-0.121 0.291-0.166 0.541-0.243 1.161-0.194 1.656 0.121 0.27 0.173 0.53 0.398 0.783 0.665 0.26-0.364 0.655-0.62 1.109-0.7 0.61-0.107 1.241 0.125 1.639 0.61 1.046 1.279 1.999 3.039 2.772 5.063 0.343 0.225 0.683 0.45 1.029 0.679 4.546 3.001 9.159 6.043 13.5 9.384 0.104-0.049 0.218-0.087 0.336-0.114 0.534-0.118 1.095 0.014 1.514 0.367 2.436 2.076 5.125 4.702 6.965 7.478 2.942 3.018 5.586 6.324 7.783 10.042 0.27 0.461 0.315 1.022 0.118 1.518s-0.613 0.877-1.126 1.026c-3.93 1.14-7.807 0.856-11.588 0.253-0.097 0.208-0.208 0.409-0.326 0.617-0.256 0.43-0.683 0.728-1.178 0.818-0.489 0.1-0.998-0.031-1.39-0.347-0.807-0.641-1.577-1.317-2.304-2.027-2.058-0.374-4.047-0.683-6.043-0.759-6.4-0.243-13.15 0.658-19.662 1.535-2.242 0.301-4.519 0.606-6.799 0.866-0.312 1.161-0.697 2.086-1.168 2.571-0.333 0.347-0.783 0.541-1.251 0.541zM281.042 54.074c0.215 0.014 0.43 0.028 0.651 0.035 0.866 0.042 1.743 0.038 2.616 0.052 0.915-2.796 1.559-5.977 2.141-9.366-1.92 4.276-3.642 7.606-5.409 9.28zM288.142 11.768c-0.71 5.603-2.433 11.55-4.113 17.333-0.669 2.315-1.324 4.571-1.878 6.705-0.738 2.831-2.086 5.593-3.392 8.265-1.656 3.389-3.368 6.892-2.481 8.386 0.27 0.457 0.863 0.828 1.74 1.102-1.684-3.108-0.859-6.67 2.249-9.588 0.697-0.648 1.792-0.62 2.45 0.080 0.062 0.066 0.114 0.135 0.166 0.208 0.703-1.532 1.369-3.070 1.937-4.39 0.766-1.767 1.452-3.354 2.010-4.484 0.977-1.961 1.726-3.995 2.457-6.123 1.060-4.307 2.498-8.351 4.733-11.747-1.889-2.065-3.812-4.013-5.877-5.745zM291.874 46.905c-0.062 2.422 0.073 4.647 0.457 6.459 0.357-2.54 0.638-5.908 0.717-8.736 0.003-0.107 0.007-0.215 0.010-0.319-0.392 0.884-0.79 1.75-1.185 2.595zM297.865 33.287c-0.697 3.656-1.23 7.194-1.351 11.439-0.035 1.185-0.184 5.066-0.676 8.601 0.884-0.104 1.767-0.218 2.647-0.333-0.956-4.318-0.818-8.781-0.683-13.105 0.069-2.252 0.135-4.456 0.062-6.601zM333.495 52.785c2.609 0.409 5.153 0.651 7.669 0.305-0.523-0.787-1.074-1.552-1.643-2.301-0.156 0.194-0.353 0.353-0.579 0.468-0.565 0.281-1.251 0.232-1.767-0.128-1.913-1.338-3.379-2.623-4.792-3.864-0.114-0.1-0.225-0.201-0.34-0.298 0.686 1.923 1.376 3.884 1.452 5.818zM329.361 52.040c0.201 0.038 0.395 0.073 0.593 0.111-0.18-1.223-0.662-2.588-1.182-4.058-0.527-1.497-1.085-3.074-1.403-4.723-0.308-0.187-0.631-0.371-0.963-0.554 0.305 1.906 0.104 3.787-0.132 5.198 0.901 1.455 1.934 2.8 3.087 4.027zM305.253 49.999c-0.035 0.551-0.062 1.102-0.083 1.66-0.007 0.159-0.038 0.312-0.083 0.457 5.52-0.71 11.137-1.279 16.657-1.088 0.835 0.035 1.663 0.1 2.495 0.198-0.139-0.204-0.277-0.402-0.416-0.61-0.347-0.107-0.655-0.322-0.88-0.627l-1.518-2.020c-0.537-0.71-1.067-1.41-1.584-2.117-0.107 0.135-0.236 0.253-0.385 0.353-0.551 0.36-1.251 0.378-1.816 0.055-1.289-0.742-2.256-1.545-2.99-2.388-0.246 0.482-0.527 0.939-0.839 1.365-0.454 0.617-1.258 0.866-1.975 0.61-0.721-0.256-1.189-0.949-1.15-1.715 0.1-2.228-0.295-6.341-0.977-10.371-0.201-0.152-0.398-0.308-0.596-0.468 0.537 5.777 1.033 11.712-0.949 16.241-0.215 0.489-0.638 0.849-1.147 0.981-0.516 0.128-1.060 0.031-1.483-0.291-0.1-0.076-0.194-0.149-0.281-0.225zM305.648 44.753c0.062 0.128 0.118 0.249 0.18 0.371 0.312-1.889 0.336-4.006 0.232-6.21-0.090 1.934-0.249 3.874-0.412 5.839zM323.782 37.715c0.042 0.017 0.080 0.038 0.118 0.055l2.793 1.306c0.17 0.080 0.336 0.163 0.502 0.243 0.024-0.177 0.052-0.357 0.083-0.534-2.942-2.29-6.022-4.442-9.134-6.535 0.402 1.026 0.707 2.11 0.943 3.223 0.34 0.17 0.679 0.34 1.022 0.506 0.381-0.107 0.804-0.080 1.189 0.1 1.001 0.461 1.819 1.019 2.485 1.636zM294.882 28.699c-0.385 1.303-0.752 2.703-1.085 4.158 0.509-1.636 0.859-3.011 1.085-4.158zM304.404 24.014c0.232 0.253 0.468 0.506 0.703 0.759 0.003-0.416 0.014-0.828 0.035-1.234-0.398-0.281-0.797-0.561-1.195-0.846 0.163 0.44 0.315 0.88 0.457 1.32zM297.952 22.285c0.104 0 0.211 0.014 0.312 0.035-0.135-0.156-0.27-0.312-0.405-0.468-0.45-0.513-0.894-1.026-1.338-1.532-0.059 0.107-0.114 0.215-0.173 0.319 0.69 0.392 1.223 0.939 1.604 1.646z"></path>
</svg>
