<?xml version="1.0" encoding="utf-8"?>
<!-- Generated by IcoMoon.io -->
<!DOCTYPE svg PUBLIC "-//W3C//DTD SVG 1.1//EN" "http://www.w3.org/Graphics/SVG/1.1/DTD/svg11.dtd">
<svg version="1.1" xmlns="http://www.w3.org/2000/svg" xmlns:xlink="http://www.w3.org/1999/xlink" width="73" height="60" viewBox="0 0 73 60">
<path fill="#444444" d="M22.179 60.002c-0.754 0-1.53-0.038-2.327-0.112-7.189-0.671-14.229-4.223-17.119-8.636-4.884-7.455-2.923-19.14 4.282-25.513 4.597-4.065 12.461-2.535 18.778-1.305 3.167 0.615 5.901 1.148 7.215 0.711 4.202-1.399 7.781-6.056 11.573-10.986 1.078-1.404 2.196-2.856 3.326-4.226 4.963-6.006 14.784-10.453 19.311-9.887 1.607 0.202 2.109 0.39 2.149 0.81 0.047 0.499-0.602 0.707-2.027 1.164-0.696 0.223-1.487 0.476-2.141 0.769-0.218 0.098-0.504 0.216-0.847 0.358-3.339 1.386-12.214 5.066-16.476 13.121-0.086 0.161-0.287 0.223-0.448 0.137s-0.223-0.285-0.137-0.446c4.376-8.263 13.408-12.011 16.809-13.423 0.336-0.139 0.617-0.255 0.831-0.351 0.688-0.306 1.494-0.564 2.209-0.795 0.461-0.148 1.001-0.322 1.328-0.461-0.231-0.062-0.632-0.141-1.329-0.229-4.299-0.538-13.965 3.9-18.716 9.652-1.123 1.361-2.235 2.807-3.311 4.207-3.853 5.012-7.492 9.748-11.888 11.211-1.479 0.495-4.157-0.028-7.549-0.688-6.174-1.202-13.862-2.698-18.216 1.151-6.973 6.171-8.882 17.462-4.168 24.658 0.028 0.043 0.058 0.086 0.086 0.128 0.060 0.021 0.116 0.056 0.161 0.111 3.283 4.104 14.783 8.049 23.721 2.175 5.661-3.718 6.51-10.686 7.194-16.282 0.428-3.499 0.765-6.261 2.132-7.577 0.064-0.053 4.046-3.229 7.723-5.329 1.905-1.089 5.846-3.823 9.321-6.234 3.834-2.659 6.216-4.303 6.855-4.558 1.952-0.782 3.336-1.187 3.909-0.688 0.154 0.133 0.313 0.386 0.204 0.834-0.124 0.51-1.399 5.078-7.56 8.321-1.449 0.763-3.339 1.639-5.34 2.569-5.053 2.344-10.781 5.001-13.058 7.401-1.243 1.309-1.354 4.442-1.485 8.072-0.195 5.424-0.437 12.174-4.59 16.487-2.318 2.406-5.951 3.681-10.38 3.683zM6.795 54.456c3.407 2.503 8.222 4.318 13.118 4.776 5.28 0.495 9.602-0.703 12.169-3.371 3.977-4.131 4.215-10.742 4.406-16.052 0.135-3.763 0.253-7.013 1.665-8.503 2.364-2.492 8.152-5.177 13.258-7.547 1.995-0.924 3.876-1.798 5.31-2.552 4.798-2.526 6.799-6.15 7.228-7.894 0.023-0.098 0.021-0.165 0.004-0.178-0.114-0.099-0.66-0.229-3.174 0.778-0.658 0.262-3.63 2.325-6.778 4.511-3.487 2.419-7.44 5.162-9.371 6.266-3.632 2.076-7.575 5.22-7.614 5.252-1.176 1.132-1.517 3.926-1.913 7.161-0.699 5.734-1.571 12.868-7.487 16.757-7.031 4.616-15.609 3.347-20.822 0.596z"></path>
<path fill="#444444" d="M3.801 52.459c-0.099 0-0.199-0.045-0.264-0.131-1.333-1.776-1.896-4.003-1.654-6.491-0.21-1.772-0.188-3.694 0.099-5.542 0.532-3.42 2.164-8.22 6.906-11.668 4.273-3.109 10.453-2.398 15.904-1.77 4.421 0.508 8.599 0.988 11.044-0.615 1.254-0.823 3.024-2.486 5.074-4.412 7.046-6.624 18.847-17.717 31.867-15.441 0.789 0.174 1.237 0.353 1.236 0.746-0.004 0.488-0.617 0.643-2.393 1.016-0.311 0.066-0.632 0.135-0.938 0.204-1.209 0.276-16.716 6.367-34.204 19.483-3.201 2.4-7.266 2.361-11.567 2.316-4.397-0.047-8.947-0.090-13.014 2.453-4.909 3.066-8.351 7.648-9.21 12.253-0.064 0.341-0.113 0.675-0.146 1.007 0.298 2.331 1.001 4.202 1.789 5.276 0.109 0.148 0.077 0.354-0.071 0.463-0.146 0.107-0.354 0.077-0.461-0.071-0.043-0.060-0.086-0.118-0.127-0.18 0.122 0.199 0.253 0.39 0.394 0.578 0.109 0.146 0.079 0.352-0.066 0.463-0.058 0.043-0.127 0.064-0.197 0.064zM17.696 26.972c-3.118 0-6.090 0.495-8.417 2.188-4.558 3.315-6.127 7.939-6.641 11.237-0.154 0.988-0.229 1.952-0.24 2.871 1.281-4.271 4.609-8.383 9.152-11.224 4.23-2.644 8.88-2.595 13.371-2.552 4.185 0.041 8.143 0.081 11.164-2.184 17.576-13.181 33.231-19.318 34.451-19.599 0.309-0.071 0.632-0.139 0.949-0.206 0.514-0.109 1.162-0.244 1.564-0.368-0.103-0.030-0.234-0.064-0.399-0.099-12.681-2.211-24.328 8.732-31.286 15.274-2.158 2.027-3.862 3.63-5.164 4.485-2.646 1.734-6.939 1.241-11.481 0.718-2.28-0.263-4.693-0.54-7.022-0.54z"></path>
<path fill="#444444" d="M63.847 13.17c-0.137 0-0.266-0.086-0.313-0.225-0.058-0.172 0.034-0.36 0.206-0.418 3.977-1.346 6.094-0.801 7.358-0.474 0.459 0.118 0.795 0.204 1.014 0.148 0.039-0.022 0.023-0.159-0.159-0.384-0.487-0.606-2.002-1.631-4.594-1.631-0.184 0-0.33-0.148-0.33-0.33s0.148-0.33 0.33-0.33c3.129 0 5.314 1.521 5.443 2.571 0.043 0.362-0.163 0.656-0.531 0.746-0.388 0.096-0.808-0.011-1.341-0.15-1.193-0.309-3.191-0.825-6.977 0.459-0.036 0.011-0.071 0.017-0.107 0.017z"></path>
<path fill="#444444" d="M3.538 52.196c-0.045 0-0.090-0.009-0.135-0.028-0.167-0.073-0.242-0.27-0.167-0.437 1.695-3.818 6.812-9.564 10.526-12.534 2.852-2.28 7.598-4.059 12.188-5.781 3.874-1.451 7.534-2.822 9.281-4.269 0.141-0.116 0.349-0.097 0.465 0.045s0.098 0.349-0.043 0.465c-1.834 1.517-5.543 2.908-9.471 4.38-4.541 1.701-9.238 3.461-12.006 5.676-4.031 3.223-8.859 8.966-10.335 12.287-0.053 0.124-0.174 0.197-0.3 0.197z"></path>
<path fill="#444444" d="M5.393 52.869c-0.216 0-0.401-0.004-0.555-0.015-0.184-0.011-0.321-0.169-0.309-0.351s0.161-0.309 0.351-0.309c2.291 0.142 12.752-0.883 19.238-4.189 7.718-3.934 10.922-18.203 11.055-18.808 0.039-0.18 0.217-0.294 0.394-0.253 0.178 0.039 0.292 0.216 0.253 0.394-0.135 0.619-3.407 15.18-11.4 19.256-6.274 3.199-15.853 4.273-19.024 4.273z"></path>
<path fill="#444444" d="M4.196 52.196c-0.161 0-0.304-0.12-0.328-0.287-0.024-0.18 0.103-0.347 0.283-0.371 10.916-1.483 29.068-18.12 30.909-22.168 0.077-0.167 0.272-0.242 0.437-0.165 0.167 0.075 0.24 0.272 0.165 0.437-2.156 4.744-20.848 21.114-31.421 22.549-0.015 0.002-0.030 0.004-0.045 0.004z"></path>
</svg>
