<?xml version="1.0" encoding="utf-8"?>
<!-- Generated by IcoMoon.io -->
<!DOCTYPE svg PUBLIC "-//W3C//DTD SVG 1.1//EN" "http://www.w3.org/Graphics/SVG/1.1/DTD/svg11.dtd">
<svg version="1.1" xmlns="http://www.w3.org/2000/svg" xmlns:xlink="http://www.w3.org/1999/xlink" width="60" height="60" viewBox="0 0 60 60">
<path fill="#444444" d="M27.84 59.745c0 0-0.002 0-0.004 0-10.089 0-19.515-6.049-24.602-15.784-5.233-10.016-4.551-21.469 1.826-30.636 7.515-10.802 17.227-13.071 24.056-13.071 15.579 0 30.461 11.704 30.623 24.086 0.306 23.445-9.641 28.957-22.674 33.727-3.039 1.112-6.144 1.676-9.225 1.676zM29.117 2.197c-6.364 0-15.426 2.124-22.461 12.236-5.957 8.561-6.593 19.262-1.701 28.626 4.751 9.094 13.517 14.741 22.881 14.741 0.002 0 0.002 0 0.004 0 2.854 0 5.734-0.525 8.559-1.558 12.713-4.654 21.686-9.662 21.399-31.879-0.148-11.186-14.355-22.166-28.682-22.166z"></path>
<path fill="#444444" d="M25.054 37.727c-0.066 0-0.135-0.006-0.203-0.021l-0.309-0.062c-0.358-0.068-0.647-0.328-0.75-0.679-0.428-1.434-0.304-3.259-0.195-4.868 0.045-0.656 0.088-1.288 0.090-1.845l-0.006-4.329c0-0.214-0.023-0.478-0.047-0.765-0.105-1.29-0.236-2.897 0.774-3.786 0.405-0.352 1.016-0.313 1.372 0.090 0.354 0.405 0.315 1.016-0.090 1.372-0.279 0.244-0.163 1.641-0.12 2.166 0.030 0.345 0.053 0.66 0.053 0.917l0.006 4.335c0 0.598-0.045 1.273-0.094 1.976-0.084 1.239-0.178 2.623 0.004 3.684 0.354 0.204 0.549 0.621 0.463 1.039-0.098 0.463-0.501 0.774-0.951 0.774z"></path>
<path fill="#444444" d="M25.054 39.709c-0.034 0-0.064-0.002-0.098-0.004-0.534-0.053-0.924-0.531-0.87-1.065 0.006-0.062 0.015-0.124 0.026-0.186-0.431-0.118-0.795-0.339-1.012-0.744-0.148-0.272-0.156-0.596-0.023-0.874 0.073-0.157 0.186-0.287 0.324-0.384-0.011-0.008-0.023-0.017-0.036-0.028-0.298-0.238-0.429-0.632-0.332-1.003s0.401-0.649 0.78-0.712c0.058-0.009 0.124-0.019 0.201-0.032 0-0.036 0-0.068 0-0.103-0.090-0.024-0.18-0.051-0.272-0.077-0.463-0.142-0.75-0.6-0.677-1.078 0.045-0.3 0.227-0.551 0.476-0.694-0.045-0.124-0.066-0.263-0.056-0.403 0.023-0.326 0.204-0.604 0.467-0.763-0.011-0.405-0.024-0.808-0.039-1.213-0.283-0.227-0.424-0.604-0.338-0.973 0.045-0.199 0.148-0.367 0.287-0.497-0.094-2.732-0.184-5.544-0.094-8.357 0.011-0.409 0.281-0.765 0.669-0.892 0.388-0.122 0.816 0.004 1.067 0.326 0.143 0.184 0.409 0.311 0.746 0.473 0.283 0.137 0.57 0.276 0.838 0.459 0.218 0.148 0.401 0.366 0.594 0.6 0.092 0.109 0.244 0.291 0.307 0.341 0.084 0.062 0.263 0.135 0.435 0.203 0.255 0.103 0.506 0.21 0.726 0.351 0.399 0.253 0.763 0.523 1.116 0.787 0.797 0.6 1.427 1.073 2.396 1.226 0.403 0.064 0.714 0.369 0.799 0.758 0.784 0.308 1.577 0.604 2.381 0.898 0.255 0.094 0.514 0.178 0.765 0.264 1.266 0.426 2.574 0.863 2.859 2.042 0.263 1.076-0.536 2.057-1.164 2.7-1.164 1.196-2.554 2.543-4.352 3.444-0.589 0.561-2.008 1.663-5.518 4.007-0.701 0.467-1.684 1.024-2.619 0.836-0.18 0.229-0.459 0.369-0.761 0.369zM27.949 35.781c0.083 0.114 0.143 0.249 0.169 0.396 0.011 0.062 0.015 0.124 0.015 0.186 0.626-0.429 1.32-0.913 1.973-1.376-0.461 0.084-0.964 0.083-1.436 0.051-0.143 0.311-0.394 0.551-0.72 0.742zM32.715 32.488c0.052 0.163 0.075 0.319 0.082 0.454 0.064-0.058 0.141-0.111 0.221-0.15 0.968-0.474 1.823-1.129 2.587-1.821-0.322-0.023-0.658-0.096-1.001-0.206-0.030 0.019-0.060 0.039-0.092 0.056-0.118 0.218-0.319 0.392-0.576 0.469-0.144 0.043-0.289 0.077-0.433 0.103-0.011 0.024-0.022 0.049-0.036 0.071-0.015 0.195-0.064 0.352-0.105 0.448-0.112 0.277-0.349 0.488-0.636 0.57-0.002 0-0.009 0.002-0.015 0.004zM36.051 28.611c0.251 0.233 0.489 0.467 0.716 0.698 0.094 0.094 0.165 0.203 0.21 0.323 0.568-0.6 0.596-0.851 0.596-0.855-0.064-0.066-0.33-0.176-0.645-0.293-0.167 0.111-0.369 0.174-0.585 0.159-0.099-0.007-0.197-0.017-0.292-0.032z"></path>
</svg>
