<?xml version="1.0" encoding="utf-8"?>
<!-- Generated by IcoMoon.io -->
<!DOCTYPE svg PUBLIC "-//W3C//DTD SVG 1.1//EN" "http://www.w3.org/Graphics/SVG/1.1/DTD/svg11.dtd">
<svg version="1.1" xmlns="http://www.w3.org/2000/svg" xmlns:xlink="http://www.w3.org/1999/xlink" width="90" height="60" viewBox="0 0 90 60">
<path fill="#444444" d="M33.256 39.167c-0.017 0-0.033-0.002-0.050-0.004s-1.705-0.311-2.235-0.344c-0.098 0-0.179 0.004-0.276 0.010-0.159 0.009-0.358 0.020-0.589 0.020-1.895 0-3.558-0.836-4.943-2.484-2.021-2.407-3.174-4.727-3.276-6.54-0.548 0.932-1.478 2.148-2.902 2.687-2.795 1.057-5.8 1.214-7.342 1.214-0.164 0-0.319-0.002-0.464-0.005l-0.104-0.001c-1.681 0-4.411 0.808-4.439 0.816-0.118 0.034-0.246-0.012-0.313-0.118-0.066-0.105-0.055-0.241 0.028-0.333 0.144-0.16 3.562-3.934 5.518-4.733 1.789-0.73 3.335-1.403 4.138-2.242 0.735-0.768 2.355-1.722 3.282-2.048-0.834-0.52-3.221-1.566-4.363-1.586-0.424-0.008-0.888-0.046-1.337-0.084-0.507-0.043-1.030-0.086-1.503-0.086-0.78 0-1.278 0.119-1.566 0.374-0.892 0.79-1.685 1.232-1.719 1.25-0.085 0.046-0.188 0.046-0.273-0.003s-0.137-0.138-0.138-0.235c-0.001-0.038-0.020-3.809 3.458-5.395 1.242-0.565 2.509-0.853 3.767-0.853 0.696 0 1.261 0.089 1.658 0.181-0.363-0.705-0.961-1.878-1.253-2.511-0.51-1.103-2.667-5.509-3.9-6.902-0.403-0.456-0.868-1.093-1.36-1.767-1.083-1.486-2.432-3.334-3.683-3.963-1.585-0.797-2.958-1.041-4.129-0.73-1.052 0.282-2.602 0.605-2.617 0.609-0.086 0.017-0.173-0.006-0.237-0.062s-0.101-0.14-0.096-0.226l0.101-1.658c0.006-0.087 0.051-0.167 0.125-0.215 0.074-0.049 1.842-1.201 3.486-1.201 0.268 0 0.522 0.032 0.755 0.093 1.529 0.405 4.784 1.802 7.284 4.471 2.395 2.555 3.356 3.808 4.709 6.668 1.353 2.862 2.092 4.127 2.911 5.346 0.355 0.528 0.642 1.056 0.919 1.566 0.365 0.672 0.71 1.306 1.141 1.792 0.299 0.338 0.768 0.993 1.264 1.685 0.628 0.876 1.679 2.343 1.964 2.463 0.219 0.069 0.418-0.31 0.449-0.402 0.656-1.269 2.076-4.832 2.111-5.209 0.023-0.393 2.007-6.838 3.787-8.686 1.388-1.441 3.376-2.459 6.076-3.112 1.818-0.44 2.683-1.696 2.863-2.144 0.143-0.355 0.36-0.407 0.477-0.407 0.129 0 0.253 0.063 0.348 0.178 0.235 0.283 0.309 0.88 0.188 1.523-0.053 0.282-0.546 2.772-1.517 3.236-0.951 0.455-4.792 2.608-5.685 3.985-0.979 1.509-1.377 3.066-0.836 7.391 0.552 4.411-1.009 6.243-2.018 6.63-0.682 0.261-2.723 0.473-3.416 0.54-0.051 0.688-0.111 2.869 0.992 4.583 1.488 2.312 3.206 4.462 3.829 4.793 0.836 0.444 1.2 1.778 1.215 1.835 0.024 0.092 0 0.189-0.064 0.259-0.052 0.058-0.126 0.090-0.203 0.090zM30.934 38.264c0.006 0 0.066 0.002 0.071 0.002 0.383 0.024 1.279 0.173 1.833 0.268-0.162-0.388-0.433-0.873-0.79-1.063-0.827-0.438-2.656-2.838-4.036-4.982-1.432-2.226-1.071-5.054-1.055-5.173 0.017-0.128 0.121-0.227 0.25-0.238 0.765-0.067 2.885-0.293 3.496-0.527 0.094-0.036 2.305-0.945 1.668-6.045-0.562-4.494-0.131-6.139 0.921-7.761 1.141-1.758 5.864-4.161 5.911-4.183 0.467-0.223 0.983-1.619 1.212-2.839 0.077-0.413 0.049-0.715 0.003-0.893-0.314 0.676-1.323 1.928-3.206 2.384-2.596 0.627-4.495 1.595-5.807 2.958-1.645 1.707-3.595 7.967-3.634 8.339-0.030 0.495-1.537 4.196-2.156 5.388-0.083 0.254-0.385 0.75-0.884 0.75v0c-0.080 0-0.162-0.013-0.243-0.039-0.387-0.122-1.010-0.946-2.244-2.667-0.488-0.681-0.948-1.324-1.229-1.641-0.473-0.533-0.832-1.195-1.212-1.895-0.271-0.499-0.552-1.015-0.892-1.522-0.833-1.24-1.584-2.525-2.952-5.418-1.321-2.792-2.264-4.020-4.612-6.526-2.415-2.578-5.55-3.925-7.022-4.315-0.186-0.049-0.393-0.074-0.614-0.074-1.254 0-2.66 0.792-3.066 1.038l-0.070 1.153c0.518-0.112 1.499-0.329 2.233-0.525 1.302-0.347 2.81-0.089 4.519 0.771 1.371 0.69 2.705 2.518 3.881 4.131 0.484 0.663 0.941 1.29 1.327 1.726 1.472 1.664 3.964 6.984 3.988 7.036 0.422 0.912 1.53 3.044 1.541 3.066 0.054 0.103 0.037 0.229-0.042 0.314-0.079 0.086-0.202 0.114-0.31 0.068-0.008-0.003-0.815-0.334-2.096-0.334-1.178 0-2.369 0.27-3.538 0.803-2.409 1.098-2.967 3.349-3.096 4.365 0.302-0.202 0.726-0.507 1.171-0.9 0.395-0.35 1.009-0.513 1.932-0.513 0.495 0 1.031 0.045 1.549 0.088 0.461 0.039 0.896 0.075 1.301 0.082 1.325 0.023 5.115 1.555 5.155 2.229 0.009 0.151-0.087 0.318-0.321 0.35-0.647 0.089-2.598 1.191-3.363 1.99-0.878 0.917-2.48 1.617-4.328 2.371-1.349 0.551-3.556 2.738-4.654 3.884 0.978-0.247 2.514-0.582 3.65-0.582l0.116 0.001c0.142 0.003 0.292 0.005 0.452 0.005 1.504 0 4.434-0.153 7.147-1.179 1.84-0.696 2.794-2.722 3.108-3.387 0.127-0.267 0.184-0.388 0.373-0.388 0.082 0 0.163 0.038 0.215 0.101 0.096 0.116 0.084 0.187-0.001 0.65-0.314 1.721 0.845 4.353 3.102 7.041 1.275 1.517 2.795 2.287 4.519 2.287 0.219 0 0.407-0.011 0.557-0.019 0.11-0.007 0.201-0.012 0.271-0.012z"></path>
<path fill="#444444" d="M25.858 22.907c-0.023 0-0.047-0.003-0.070-0.009-0.148-0.039-0.236-0.19-0.197-0.337 0.115-0.435-0.139-2.137-0.308-3.264-0.073-0.491-0.139-0.937-0.177-1.262-0.070-0.61 0.111-1.503 0.302-2.448 0.201-0.994 0.409-2.022 0.355-2.807-0.071-1.028-0.744-1.717-1.119-2.026-0.24 0.51-0.721 1.569-0.963 2.338-0.277 0.877-0.904 1.363-1.567 1.878-0.229 0.178-0.47 0.364-0.712 0.579-0.857 0.759-0.946 1.133-0.956 2.406-0.001 0.152-0.125 0.275-0.277 0.275-0.001 0-0.001 0-0.002 0-0.153-0.001-0.276-0.126-0.275-0.278 0.009-1.318 0.111-1.903 1.141-2.816 0.252-0.222 0.501-0.417 0.74-0.601 0.645-0.5 1.154-0.895 1.378-1.607 0.341-1.084 1.104-2.648 1.136-2.713 0.034-0.070 0.096-0.122 0.17-0.144s0.155-0.012 0.221 0.029c0.062 0.037 1.515 0.936 1.634 2.644 0.060 0.859-0.156 1.924-0.365 2.955-0.183 0.901-0.355 1.753-0.295 2.275 0.037 0.32 0.103 0.76 0.175 1.243 0.249 1.667 0.428 2.982 0.295 3.486-0.032 0.123-0.144 0.205-0.267 0.205z"></path>
<path fill="#444444" d="M23.122 25.458c-0.034 0-0.069-0.006-0.103-0.020-0.357-0.143-0.74-0.596-1.269-1.223-0.177-0.21-0.368-0.436-0.574-0.668-0.41-0.464-1.255-1.461-2.042-2.39-0.688-0.812-1.332-1.571-1.601-1.875-0.101-0.115-0.091-0.289 0.024-0.391s0.289-0.091 0.391 0.024c0.27 0.305 0.917 1.068 1.608 1.883 0.785 0.926 1.626 1.919 2.035 2.381 0.208 0.235 0.402 0.465 0.582 0.678 0.423 0.501 0.823 0.975 1.052 1.067 0.142 0.057 0.211 0.218 0.154 0.36-0.043 0.108-0.147 0.174-0.257 0.174z"></path>
<path fill="#444444" d="M34.551 30.222c-0.175 0-0.342-0.015-0.495-0.050-0.781-0.182-2.208-0.823-2.854-1.553-0.595-0.673-1.024-1.592-1.042-1.631-0.064-0.138-0.004-0.303 0.135-0.367s0.303-0.004 0.367 0.135c0.004 0.009 0.414 0.886 0.954 1.497 0.515 0.582 1.765 1.195 2.565 1.381 0.702 0.162 2.027-0.259 2.422-0.487 0.316-0.184 0.842-1.219 0.932-1.66 0.043-0.3-0.896-1.729-1.732-2.518-0.681-0.642-1.731-0.974-2.747-1.294l-0.201-0.064c-0.145-0.046-0.226-0.202-0.18-0.347s0.202-0.226 0.347-0.18l0.2 0.063c1.025 0.323 2.187 0.69 2.96 1.419 0.63 0.595 2.034 2.343 1.894 3.032-0.105 0.517-0.683 1.729-1.196 2.027-0.341 0.198-1.436 0.599-2.331 0.599z"></path>
<path fill="#444444" d="M40.718 31.531c-0.119 0-0.229-0.077-0.265-0.196-0.044-0.147 0.039-0.3 0.185-0.345 0.011-0.003 1.101-0.333 1.638-0.561 0.407-0.172 0.958-1.153 1.222-1.624l0.115-0.204c0.119-0.207-0.302-1.006-0.756-1.582l-0.749-0.703c-0.684-0.646-1.727-1.203-2.791-1.491-0.869-0.235-1.609 0.047-2.324 0.319l-0.114 0.044c-0.143 0.054-0.302-0.018-0.357-0.161s0.018-0.303 0.161-0.357l0.113-0.043c0.76-0.289 1.621-0.617 2.665-0.336 1.148 0.31 2.28 0.917 3.027 1.622l0.776 0.734c0.308 0.385 1.196 1.592 0.829 2.23l-0.113 0.199c-0.46 0.819-0.953 1.637-1.489 1.864-0.565 0.239-1.648 0.567-1.694 0.58-0.027 0.008-0.053 0.012-0.080 0.012z"></path>
<path fill="#444444" d="M38.674 36.010c-0.834 0-1.775-0.132-2.157-0.354-0.536-0.311-1.682-1.18-1.73-1.216-0.122-0.092-0.145-0.266-0.053-0.388 0.092-0.121 0.266-0.145 0.388-0.053 0.012 0.009 1.167 0.885 1.673 1.178 0.463 0.269 2.28 0.376 2.9 0.172 0.595-0.196 1.243-0.743 1.351-1.522 0.103-0.751-0.562-2.086-1.248-2.863-0.625-0.707-2.131-1.211-2.935-1.261-0.152-0.009-0.268-0.141-0.259-0.293s0.141-0.265 0.293-0.259c0.902 0.056 2.557 0.59 3.314 1.446 0.66 0.746 1.525 2.265 1.382 3.305-0.14 1.015-0.967 1.721-1.725 1.971-0.282 0.094-0.721 0.136-1.194 0.136z"></path>
<path fill="#444444" d="M27.363 29.917c-0.129 0-0.245-0.091-0.271-0.222-0.030-0.15 0.067-0.295 0.217-0.325 0.227-0.045 0.873-0.193 1.122-0.327 0.282-0.152 0.709-0.636 0.816-0.924 0.062-0.167 0.007-0.363-0.056-0.59-0.031-0.111-0.061-0.222-0.081-0.333-0.027-0.15 0.074-0.294 0.224-0.32 0.15-0.028 0.294 0.074 0.32 0.224 0.017 0.093 0.043 0.186 0.069 0.279 0.078 0.28 0.167 0.597 0.041 0.932-0.153 0.411-0.674 1.003-1.072 1.218-0.368 0.198-1.185 0.365-1.277 0.382-0.018 0.004-0.036 0.006-0.054 0.006z"></path>
<path fill="#444444" d="M32.264 35.834c-0.014 0-0.027 0-0.040-0.001-0.438-0.025-1.779-0.38-2.264-0.842-0.11-0.105-0.115-0.281-0.009-0.391s0.281-0.114 0.391-0.009c0.339 0.324 1.506 0.666 1.913 0.689 0.22 0.009 0.892-0.227 1.634-0.583 0.202-0.097 0.487-0.519 0.739-0.891l0.145-0.214c0.212-0.309 0.173-0.88-0.113-1.651-0.153-0.411-0.724-1.005-1.182-1.483-0.172-0.179-0.334-0.347-0.465-0.496-0.101-0.115-0.091-0.289 0.024-0.391s0.289-0.091 0.391 0.024c0.127 0.144 0.284 0.307 0.45 0.48 0.52 0.541 1.109 1.155 1.302 1.673 0.357 0.961 0.373 1.688 0.050 2.157l-0.143 0.21c-0.319 0.472-0.621 0.917-0.958 1.079-0.406 0.195-1.383 0.637-1.865 0.637z"></path>
<path fill="#444444" d="M35.523 41.372c-0.551 0-1.273-0.168-1.738-0.376-0.586-0.261-1.616-1.063-1.854-1.332l-0.827-0.934 0.414-0.366 0.827 0.934c0.203 0.229 1.175 0.975 1.664 1.192 0.485 0.216 1.367 0.396 1.78 0.305l0.251-0.053c0.35-0.071 0.626-0.127 0.808-0.289 0.231-0.205 0.749-1.075 0.909-1.527 0.035-0.101 0.108-0.53-0.445-1.833-0.185-0.435-0.847-1.165-1.202-1.558l-0.169-0.188c-0.101-0.114-0.091-0.289 0.024-0.39 0.114-0.102 0.289-0.092 0.391 0.024l0.164 0.183c0.403 0.445 1.079 1.191 1.301 1.712 0.452 1.065 0.606 1.816 0.458 2.235-0.179 0.506-0.738 1.467-1.064 1.757-0.293 0.26-0.667 0.336-1.063 0.417l-0.242 0.051c-0.112 0.024-0.244 0.035-0.387 0.035z"></path>
<path fill="#444444" d="M41.843 40.944c-0.129 0-0.278-0.030-0.48-0.111l-0.298-0.116c-0.68-0.262-1.707-0.657-2.214-1.231-0.544-0.614-0.859-1.042-0.872-1.060-0.090-0.123-0.064-0.297 0.059-0.387 0.123-0.091 0.296-0.064 0.387 0.059 0.003 0.004 0.314 0.427 0.84 1.021 0.417 0.472 1.369 0.838 1.999 1.080 0.114 0.044 0.217 0.084 0.307 0.12 0.242 0.098 0.297 0.081 0.459 0.033 0.163-0.048 0.394-0.111 0.807-0.105 0.456 0.011 0.51-0.034 0.586-0.102 0.068-0.060 0.162-0.143 0.342-0.219 0.222-0.095 0.487-0.567 0.674-1.203 0.097-0.329 0.030-0.658-0.299-1.471-0.221-0.543-0.393-0.706-0.771-1.064-0.133-0.127-0.287-0.272-0.47-0.46-0.717-0.735-1.043-0.957-1.549-1.202-0.138-0.067-0.195-0.232-0.128-0.37s0.232-0.195 0.37-0.128c0.623 0.303 1.005 0.598 1.704 1.314 0.176 0.181 0.325 0.322 0.454 0.444 0.397 0.377 0.637 0.604 0.903 1.257 0.345 0.848 0.472 1.315 0.317 1.836-0.174 0.59-0.487 1.341-0.988 1.555-0.099 0.042-0.141 0.079-0.194 0.126-0.204 0.18-0.38 0.255-0.964 0.24-0.332-0.007-0.496 0.040-0.638 0.082-0.116 0.034-0.221 0.060-0.342 0.060z"></path>
<path fill="#444444" d="M43.974 35.911c-0.317 0-0.564-0.034-0.73-0.141-0.128-0.082-0.166-0.253-0.084-0.382 0.082-0.129 0.253-0.167 0.382-0.084 0.141 0.090 0.786 0.044 1.096 0.022 0.172-0.012 0.328-0.023 0.448-0.025 0.185-0.003 0.426-0.133 0.658-0.259 0.211-0.114 0.411-0.222 0.611-0.264 0.191-0.039 0.471-0.512 0.565-0.871 0.047-0.18-0.117-0.71-0.215-1.026-0.040-0.129-0.077-0.248-0.104-0.349-0.045-0.169-0.249-0.598-1.099-1.559-0.393-0.443-1.242-0.852-1.75-1.095-0.103-0.049-0.194-0.093-0.267-0.13-0.137-0.069-0.191-0.235-0.122-0.372s0.236-0.19 0.372-0.122c0.071 0.036 0.159 0.078 0.257 0.126 0.58 0.279 1.458 0.7 1.924 1.228 0.716 0.809 1.115 1.392 1.22 1.783 0.025 0.095 0.060 0.207 0.098 0.328 0.174 0.565 0.302 1.023 0.221 1.331-0.082 0.314-0.42 1.156-0.988 1.273-0.122 0.025-0.294 0.118-0.46 0.209-0.278 0.15-0.593 0.32-0.914 0.325-0.112 0.001-0.257 0.012-0.416 0.023-0.263 0.017-0.499 0.032-0.705 0.032z"></path>
<path fill="#444444" d="M36.853 44.748c-0.086 0-0.168-0.012-0.241-0.036-0.354-0.121-2.169-0.963-2.478-1.224-0.225-0.191-1.43-1.304-1.736-1.975-0.2-0.442-0.176-0.892-0.158-1.221 0.008-0.145 0.016-0.296-0.003-0.368-0.039-0.148 0.048-0.299 0.196-0.339 0.146-0.035 0.299 0.049 0.339 0.196 0.042 0.157 0.033 0.334 0.022 0.541-0.017 0.303-0.035 0.645 0.11 0.963 0.224 0.492 1.228 1.475 1.59 1.783 0.216 0.184 1.922 0.994 2.297 1.122 0.149 0.052 0.648-0.132 0.946-0.241 0.233-0.085 0.453-0.165 0.638-0.206 0.352-0.077 0.944-0.662 1.197-1.031 0.147-0.215 0.231-0.882 0.19-1.517-0.030-0.473-0.207-0.946-0.461-1.233-0.101-0.115-0.091-0.289 0.024-0.39s0.289-0.091 0.391 0.024c0.336 0.381 0.561 0.966 0.599 1.564 0.032 0.492 0.007 1.439-0.286 1.866-0.233 0.34-0.944 1.129-1.535 1.258-0.148 0.033-0.351 0.106-0.567 0.185-0.392 0.143-0.768 0.281-1.073 0.281z"></path>
<path fill="#444444" d="M27.733 39.593c-0.629 0-1.413-0.373-2.176-0.736l-0.37-0.175c-1.075-0.498-1.808-2.176-2.049-2.727-0.221-0.508-0.112-1.456 0.125-1.987-0.207-0.115-0.497-0.286-0.734-0.468-0.415-0.318-0.695-0.634-1.153-1.299-0.359-0.521-0.445-0.87-0.513-1.151-0.021-0.085-0.040-0.166-0.069-0.247-0.049-0.144 0.028-0.302 0.172-0.351s0.302 0.028 0.351 0.172c0.033 0.097 0.058 0.194 0.082 0.295 0.064 0.261 0.13 0.531 0.432 0.969 0.426 0.617 0.668 0.892 1.035 1.174s0.905 0.551 0.91 0.553c0.082 0.040 0.139 0.12 0.151 0.211s-0.022 0.183-0.091 0.243c-0.15 0.15-0.395 1.197-0.191 1.664 0.59 1.351 1.187 2.174 1.774 2.446l0.375 0.177c0.782 0.372 1.669 0.791 2.135 0.658 0.601-0.173 1.23-0.604 1.236-0.609 0.126-0.089 0.298-0.056 0.385 0.070s0.055 0.298-0.071 0.385c-0.029 0.020-0.71 0.487-1.397 0.685-0.108 0.033-0.226 0.047-0.349 0.047z"></path>
<path fill="#444444" d="M32.142 44.781c-0.367 0-0.675-0.074-0.944-0.138-0.183-0.044-0.356-0.085-0.518-0.096-0.672-0.045-1.756-0.517-2.307-0.912-0.612-0.439-1.361-1.563-1.674-2.183-0.334-0.664-0.514-2.070-0.238-2.504 0.082-0.128 0.253-0.167 0.382-0.085s0.167 0.252 0.085 0.381c-0.101 0.179-0.060 1.312 0.265 1.958 0.338 0.671 1.039 1.65 1.502 1.983 0.48 0.344 1.468 0.772 2.022 0.81 0.209 0.014 0.403 0.061 0.61 0.11 0.428 0.103 0.87 0.21 1.497 0.017 1.049-0.32 1.383-0.708 1.44-0.783 0.092-0.122 0.265-0.147 0.387-0.054s0.146 0.266 0.054 0.387c-0.134 0.177-0.57 0.627-1.719 0.979-0.313 0.096-0.592 0.13-0.843 0.13z"></path>
<path fill="#444444" d="M38.918 48.926c-0.365 0-0.807-0.087-1.264-0.178-0.335-0.066-0.651-0.129-0.889-0.144-0.848-0.054-2.965-1.419-3.313-1.741-0.426-0.395-1.125-1.757-1.279-2.116-0.060-0.141 0.005-0.303 0.145-0.364 0.139-0.060 0.303 0.005 0.363 0.145 0.184 0.428 0.839 1.644 1.146 1.929 0.335 0.31 2.328 1.554 2.972 1.595 0.274 0.018 0.608 0.084 0.961 0.153 0.496 0.098 1.245 0.247 1.457 0.12 0.323-0.196 0.873-0.733 1.168-1.023 0.104-0.102 0.185-0.181 0.23-0.22 0.058-0.051 0.147-0.279 0.188-0.478 0.030-0.15 0.177-0.246 0.326-0.216 0.15 0.030 0.246 0.176 0.216 0.326-0.027 0.132-0.132 0.578-0.363 0.782-0.040 0.035-0.115 0.108-0.21 0.201-0.333 0.326-0.891 0.872-1.269 1.1-0.153 0.093-0.354 0.128-0.586 0.128z"></path>
<path fill="#444444" d="M42.726 47.195c-0.258 0-0.562-0.009-0.92-0.031-0.492-0.031-1.335-0.691-1.674-0.973-0.52-0.433-1.519-1.565-1.752-1.985-0.074-0.133-0.025-0.302 0.108-0.376 0.134-0.073 0.302-0.026 0.376 0.108 0.198 0.357 1.167 1.45 1.621 1.828 0.65 0.541 1.17 0.834 1.349 0.845 1.648 0.1 1.99-0.081 2.041-0.118 0.389-0.28 0.812-0.611 0.917-1.008 0.148-0.562 0.198-1.86-0.015-2.15-0.091-0.123-0.064-0.296 0.059-0.387 0.122-0.090 0.295-0.065 0.387 0.059 0.409 0.557 0.22 2.179 0.104 2.618-0.152 0.574-0.663 0.98-1.129 1.316-0.158 0.116-0.485 0.253-1.473 0.253z"></path>
<path fill="#444444" d="M46.255 43.588c-0.281 0-0.535-0.024-0.697-0.060-0.557-0.128-1.328-0.71-1.552-0.886-0.439-0.346-1.294-1.444-1.499-1.927-0.060-0.141 0.006-0.303 0.146-0.362s0.303 0.006 0.363 0.147c0.157 0.368 0.939 1.399 1.332 1.709 0.426 0.334 1.003 0.705 1.334 0.781 0.384 0.087 1.312 0.063 1.643-0.131 0.396-0.23 0.698-0.576 0.831-0.951 0.155-0.439 0.203-0.775 0.169-1.2-0.038-0.485-0.377-1.951-0.496-2.15-0.079-0.13-0.038-0.301 0.091-0.381 0.127-0.079 0.297-0.041 0.378 0.087 0.198 0.316 0.542 1.935 0.578 2.4 0.040 0.502-0.017 0.916-0.198 1.428-0.176 0.496-0.568 0.951-1.074 1.244-0.318 0.185-0.873 0.252-1.35 0.252z"></path>
<path fill="#444444" d="M39.966 24.777c-0.1 0-0.196-0.054-0.246-0.149-0.070-0.135-0.018-0.302 0.117-0.373 0.003-0.001 0.289-0.153 0.431-0.377 0.13-0.205 0.242-0.722 0.085-1.227-0.159-0.51-0.572-1.33-0.931-1.736-0.345-0.39-1.147-0.969-1.792-1.211-0.598-0.222-1.095-0.335-2.018-0.295-0.869 0.038-2.207 0.542-2.62 0.85-0.122 0.091-0.295 0.066-0.387-0.056s-0.066-0.296 0.056-0.387c0.533-0.397 1.988-0.918 2.927-0.959 1.013-0.046 1.586 0.087 2.236 0.329 0.746 0.279 1.626 0.924 2.013 1.362 0.425 0.48 0.865 1.362 1.045 1.938 0.2 0.642 0.078 1.335-0.145 1.688-0.22 0.347-0.601 0.551-0.645 0.573-0.040 0.022-0.084 0.032-0.126 0.032z"></path>
<path fill="#444444" d="M34.319 19.484c-0.027 0-0.055-0.004-0.082-0.012-0.146-0.046-0.227-0.201-0.182-0.346 0.003-0.009 0.268-0.863 0.319-1.264 0.045-0.363-0.192-1.297-0.479-1.887-0.282-0.579-0.949-1.185-1.205-1.309-0.137-0.067-0.195-0.232-0.128-0.37s0.231-0.195 0.37-0.128c0.373 0.181 1.128 0.881 1.461 1.564 0.303 0.622 0.595 1.677 0.53 2.198-0.056 0.45-0.328 1.323-0.339 1.36-0.037 0.118-0.145 0.194-0.264 0.194z"></path>
<path fill="#444444" d="M40.165 21.458c-0.094 0-0.186-0.048-0.238-0.135-0.078-0.131-0.035-0.301 0.096-0.38 0.007-0.004 0.65-0.388 0.948-0.652 0.212-0.187 0.496-1.194 0.462-1.816-0.028-0.516-0.572-1.349-1.052-2.085l-0.068-0.104c-0.426-0.653-2.454-1.021-3.401-0.97-0.706 0.037-1.666 0.517-2.181 0.774l-0.176 0.087c-0.138 0.067-0.303 0.010-0.37-0.127s-0.010-0.303 0.127-0.37l0.172-0.085c0.59-0.295 1.579-0.789 2.4-0.832 0.852-0.040 3.262 0.253 3.893 1.221l0.068 0.104c0.543 0.832 1.104 1.694 1.141 2.356 0.035 0.633-0.227 1.89-0.647 2.261-0.337 0.299-1.004 0.697-1.032 0.713-0.045 0.027-0.094 0.039-0.142 0.039z"></path>
<path fill="#444444" d="M36.973 15.301c-0.126 0-0.239-0.086-0.269-0.214-0.021-0.090-0.099-0.36-0.205-0.526-0.152-0.24-0.538-0.725-1.021-1.030-0.515-0.325-1.296-0.401-1.813-0.365-0.157 0.010-0.284-0.105-0.295-0.257s0.105-0.284 0.257-0.295c0.627-0.041 1.518 0.053 2.146 0.449 0.53 0.334 0.973 0.855 1.192 1.2 0.176 0.275 0.267 0.656 0.277 0.698 0.034 0.149-0.058 0.297-0.206 0.332-0.021 0.005-0.043 0.008-0.063 0.008z"></path>
<path fill="#444444" d="M44.394 28.458c-0.206 0-0.404-0.037-0.58-0.129-0.136-0.071-0.188-0.238-0.116-0.373s0.238-0.187 0.373-0.116c0.4 0.209 1.188-0.119 1.659-0.315 0.090-0.038 0.173-0.072 0.245-0.1 0.342-0.134 0.48-0.401 0.713-0.9l0.091-0.193c0.193-0.402 0.045-1.123-0.416-2.032-0.271-0.534-1.003-0.973-1.648-1.361-0.274-0.165-0.533-0.321-0.749-0.477-0.474-0.346-1.756-0.344-2.6-0.339-0.297 0.002-0.556 0.001-0.739-0.011-0.153-0.010-0.268-0.142-0.258-0.294s0.142-0.26 0.294-0.258c0.174 0.012 0.419 0.011 0.7 0.010 0.971-0.004 2.307-0.007 2.928 0.446 0.195 0.142 0.444 0.292 0.707 0.45 0.709 0.426 1.513 0.908 1.856 1.585 0.556 1.097 0.698 1.945 0.421 2.521l-0.088 0.188c-0.231 0.494-0.449 0.961-1.014 1.181-0.070 0.027-0.148 0.060-0.233 0.095-0.429 0.179-1.017 0.424-1.548 0.424z"></path>
<path fill="#444444" d="M46.792 24.571c-0.096 0-0.189-0.050-0.24-0.138-0.076-0.132-0.031-0.302 0.102-0.378 0.001-0.001 0.16-0.095 0.266-0.235 0.054-0.074 0.090-0.392-0.048-1.479-0.118-0.929-1.193-1.853-1.992-2.467-0.826-0.634-2.305-0.446-2.861-0.376l-0.105 0.013c-0.152 0.020-0.289-0.090-0.308-0.242s0.090-0.289 0.242-0.308l0.101-0.013c0.619-0.078 2.262-0.288 3.268 0.486 0.952 0.732 2.062 1.716 2.203 2.837 0.148 1.166 0.133 1.623-0.059 1.88-0.173 0.23-0.406 0.368-0.432 0.383-0.044 0.024-0.091 0.037-0.138 0.037z"></path>
<path fill="#444444" d="M49.295 33.421c-0.646 0-1.871-0.076-2.147-0.215-0.136-0.069-0.191-0.235-0.122-0.372s0.236-0.19 0.372-0.122c0.188 0.079 1.538 0.188 2.126 0.15 0.278-0.017 0.513-0.289 0.741-0.552 0.105-0.122 0.205-0.236 0.303-0.322 0.221-0.196 0.255-0.779 0.085-1.485-0.184-0.762-0.636-1.32-1.083-1.825-0.444-0.502-1.873-1.031-2.734-1.221-0.149-0.033-0.243-0.18-0.211-0.33s0.178-0.242 0.33-0.211c0.863 0.19 2.448 0.736 3.030 1.395 0.494 0.558 0.993 1.176 1.207 2.063 0.231 0.958 0.139 1.679-0.256 2.029-0.081 0.072-0.163 0.168-0.251 0.269-0.274 0.317-0.615 0.712-1.127 0.743-0.069 0.004-0.158 0.007-0.262 0.007z"></path>
<path fill="#444444" d="M49.434 28.196c-0.067 0-0.134-0.024-0.188-0.073-0.112-0.103-0.12-0.278-0.017-0.391 0.003-0.003 0.279-0.309 0.411-0.7 0.033-0.098 0.066-0.183 0.098-0.261 0.107-0.269 0.167-0.418 0.054-0.875-0.146-0.588-0.503-1.221-0.911-1.613-0.316-0.304-1.071-0.511-1.619-0.596-0.151-0.023-0.255-0.164-0.231-0.315s0.169-0.253 0.315-0.231c0.32 0.049 1.403 0.249 1.919 0.744 0.484 0.466 0.891 1.186 1.064 1.878 0.155 0.63 0.048 0.9-0.078 1.213-0.028 0.070-0.058 0.145-0.087 0.232-0.17 0.505-0.514 0.881-0.528 0.897-0.055 0.060-0.129 0.090-0.203 0.090z"></path>
<path fill="#444444" d="M49.078 38.61c-0.082 0-0.162-0.008-0.238-0.023-0.553-0.113-1.319-0.27-1.903-0.702-0.481-0.355-1.777-1.469-2.13-2.12-0.073-0.134-0.023-0.302 0.111-0.375 0.133-0.072 0.302-0.024 0.375 0.111 0.263 0.484 1.361 1.487 1.972 1.938 0.486 0.359 1.181 0.501 1.641 0.595 0.408 0.083 1.073-0.2 1.559-0.407l0.085-0.037c0.357-0.152 0.627-1.079 0.674-1.852 0.034-0.568-0.191-0.893-0.594-1.418l-0.236-0.312c-0.253-0.336-0.405-0.541-0.612-0.723-0.115-0.101-0.126-0.276-0.025-0.39s0.276-0.127 0.39-0.025c0.25 0.22 0.425 0.453 0.689 0.805l0.233 0.309c0.388 0.507 0.755 0.986 0.706 1.788-0.012 0.199-0.143 1.959-1.009 2.328l-0.085 0.036c-0.501 0.214-1.107 0.474-1.605 0.474z"></path>
<path fill="#444444" d="M29.489 12.878c-0.061 0-0.123-0.020-0.174-0.061-0.346-0.281-0.738-0.351-1.192-0.433l-0.137-0.025c-0.428-0.080-1.206 0.137-1.614 0.384-0.13 0.080-0.3 0.038-0.38-0.093s-0.038-0.3 0.093-0.38c0.503-0.305 1.411-0.565 2.002-0.455l0.134 0.024c0.484 0.087 0.985 0.178 1.441 0.547 0.119 0.096 0.137 0.271 0.041 0.389-0.054 0.069-0.134 0.103-0.215 0.103z"></path>
<path fill="#444444" d="M14.995 28.454c-0.107 0-0.21-0.063-0.255-0.168-0.002-0.004-0.059-0.139-0.202-0.438-0.105-0.219-0.054-0.455 0-0.704 0.056-0.259 0.12-0.552 0.015-0.869-0.169-0.514-0.023-0.877 0.105-1.197 0.071-0.178 0.139-0.345 0.15-0.535 0.039-0.636 0.129-0.815 0.347-1.247 0.069-0.136 0.247-0.216 0.383-0.146 0.137 0.069 0.204 0.211 0.135 0.347 0 0-0.024 0.048-0.024 0.048-0.203 0.401-0.257 0.508-0.289 1.032-0.018 0.279-0.109 0.507-0.19 0.707-0.116 0.288-0.199 0.496-0.093 0.817 0.152 0.46 0.064 0.865 0 1.16-0.028 0.127-0.065 0.299-0.041 0.348 0.152 0.318 0.212 0.459 0.212 0.459 0.060 0.141-0.006 0.303-0.146 0.363-0.035 0.015-0.072 0.022-0.108 0.022z"></path>
<path fill="#444444" d="M21.623 37.497c-0.48 0-1.487-0.34-2.294-1.040-0.761-0.659-0.948-1.033-1.29-1.712l-0.131-0.258c-0.427-0.835-0.225-1.363-0.064-1.787 0.023-0.061 0.046-0.121 0.067-0.181 0.049-0.144 0.207-0.221 0.351-0.173 0.144 0.049 0.222 0.206 0.173 0.351-0.023 0.066-0.048 0.133-0.074 0.2-0.148 0.387-0.276 0.722 0.039 1.338l0.132 0.261c0.33 0.656 0.48 0.956 1.158 1.543 0.765 0.662 1.723 0.938 1.96 0.904 0.284-0.035 1.508-0.531 1.653-0.625 0.115-0.101 0.282-0.082 0.382 0.032s0.081 0.296-0.033 0.397c-0.18 0.159-1.59 0.703-1.933 0.746-0.029 0.003-0.061 0.004-0.097 0.004z"></path>
<path fill="#444444" d="M20.113 38.582c-0.668 0-1.407-0.065-1.743-0.245-0.653-0.349-1.743-1.31-2.324-2.183-0.603-0.906-0.755-2.378-0.733-2.91 0.007-0.152 0.136-0.265 0.288-0.265 0.153 0.007 0.271 0.136 0.264 0.288-0.022 0.513 0.148 1.839 0.64 2.579 0.527 0.793 1.543 1.691 2.125 2.002 0.474 0.255 2.283 0.188 2.547 0.107 0.136-0.068 0.292-0.010 0.361 0.126s0.004 0.308-0.132 0.377c-0.137 0.070-0.687 0.123-1.294 0.123z"></path>
<path fill="#444444" d="M25.448 43.049c-0.147 0-0.271-0.009-0.36-0.029-0.49-0.107-2.169-0.95-2.645-1.488-0.46-0.521-1.274-2.326-1.319-2.926-0.046-0.599 0.163-1.209 0.294-1.475 0.067-0.137 0.232-0.195 0.37-0.126 0.137 0.067 0.194 0.233 0.126 0.37-0.099 0.201-0.276 0.708-0.239 1.189 0.036 0.478 0.809 2.179 1.182 2.602 0.359 0.406 1.912 1.219 2.349 1.315 0.419 0.091 1.923-0.161 2.135-0.295 0.128-0.080 0.3-0.044 0.382 0.083 0.082 0.128 0.048 0.297-0.079 0.38-0.305 0.2-1.499 0.401-2.196 0.401z"></path>
<path fill="#444444" d="M24.586 44.115c-0.427 0-1.002-0.148-1.72-0.333l-0.548-0.139c-1.31-0.325-2.3-1.538-2.572-1.902-0.371-0.496-1.141-2.838-1.070-3.431 0.018-0.152 0.16-0.263 0.308-0.242 0.152 0.018 0.26 0.155 0.242 0.308-0.051 0.422 0.642 2.605 0.963 3.033 0.174 0.233 1.102 1.408 2.262 1.696l0.553 0.141c0.756 0.194 1.535 0.394 1.799 0.285 0.273-0.115 0.967-0.681 1.34-1.011 0.114-0.101 0.29-0.091 0.391 0.024s0.091 0.289-0.024 0.391c-0.106 0.093-1.045 0.918-1.491 1.106-0.122 0.052-0.267 0.074-0.433 0.074z"></path>
<path fill="#444444" d="M31.206 47.569c-0.167 0-0.326-0.017-0.472-0.058-0.192-0.052-0.49-0.088-0.806-0.126-0.75-0.091-1.683-0.203-2.212-0.634-0.687-0.561-2.347-2.345-2.578-3.013-0.050-0.145 0.027-0.302 0.171-0.352s0.302 0.027 0.352 0.171c0.178 0.516 1.721 2.207 2.405 2.765 0.405 0.33 1.25 0.432 1.929 0.514 0.351 0.042 0.654 0.079 0.885 0.142 0.468 0.127 1.335-0.070 2.319-0.527 0.139-0.065 0.303-0.004 0.367 0.134 0.064 0.139 0.004 0.303-0.134 0.367-0.538 0.25-1.459 0.616-2.224 0.616z"></path>
<path fill="#444444" d="M70.007 56.608v0c-0.527 0-0.905-0.259-1.384-0.586-0.179-0.123-0.379-0.26-0.614-0.401-0.93-0.56-0.988-1.39-1.040-2.122-0.019-0.265-0.037-0.516-0.094-0.743-0.195-0.785 0.512-1.897 1.079-2.79 0.17-0.267 0.316-0.498 0.396-0.657 0.47-0.943 1.37-1.95 2.484-1.95 0.824 0 2.347 1.102 2.715 1.965 0.303 0.709-0.173 1.74-0.632 2.737-0.134 0.291-0.266 0.577-0.372 0.843-0.126 0.314-0.215 0.69-0.309 1.087-0.231 0.969-0.492 2.067-1.41 2.436-0.303 0.123-0.571 0.183-0.819 0.183zM70.835 47.911c-1.113 0-1.852 1.369-1.99 1.644-0.091 0.184-0.245 0.427-0.424 0.707-0.456 0.719-1.147 1.805-1.009 2.36 0.068 0.274 0.089 0.561 0.108 0.838 0.048 0.684 0.090 1.276 0.773 1.687 0.245 0.148 0.454 0.291 0.641 0.419 0.43 0.294 0.715 0.49 1.072 0.49v0c0.176 0 0.377-0.046 0.614-0.142 0.653-0.263 0.869-1.171 1.078-2.050 0.095-0.399 0.194-0.812 0.334-1.164 0.11-0.274 0.245-0.569 0.384-0.87 0.39-0.845 0.832-1.804 0.625-2.288-0.292-0.688-1.658-1.63-2.205-1.63z"></path>
<path fill="#444444" d="M82.443 56.217c-0.001 0-0.001 0 0 0-0.175 0-0.359-0.021-0.546-0.063-1.052-0.236-2.218-1.581-3.069-2.563l-0.108-0.126c-0.023-0.028-2.338-2.767-1.705-3.724 0.819-1.238 1.7-2.385 2.587-2.385 0.44 0 1.419 0.366 5.106 3.222 1.331 1.030 0.628 2.348 0.115 3.31-0.14 0.263-0.273 0.512-0.363 0.74-0.522 1.312-1.385 1.587-2.017 1.587zM79.601 47.911c-0.712 0-1.739 1.552-2.126 2.136-0.205 0.31 0.665 1.909 1.661 3.055l0.109 0.126c0.755 0.871 1.897 2.189 2.772 2.385 0.886 0.199 1.535-0.202 1.927-1.188 0.102-0.257 0.242-0.519 0.39-0.796 0.601-1.128 0.93-1.92 0.035-2.613-3.489-2.703-4.484-3.107-4.767-3.107z"></path>
<path fill="#444444" d="M80.247 44.991c-0.378 0-0.842-0.039-1.070-0.342-0.335-0.444-0.601-2.081-0.311-2.37l0.337-0.338c0.881-0.886 1.642-1.65 2.795-2.067 0.309-0.111 0.546-0.216 0.746-0.304 0.621-0.273 0.998-0.416 1.898-0.148 1.117 0.333 2.141 0.689 2.423 1.389 0.055 0.136 0.139 0.293 0.228 0.462 0.292 0.552 0.656 1.238 0.45 1.848-0.051 0.153-0.076 0.299-0.1 0.436-0.081 0.463-0.173 0.988-1.113 1.195-0.45 0.1-1.115 0.146-2.091 0.146-0.419 0-0.842-0.008-1.232-0.015-0.329-0.007-0.634-0.012-0.89-0.012-0.335 0-0.708 0.032-1.070 0.062-0.358 0.029-0.696 0.058-1 0.058zM79.3 42.627c-0.040 0.287 0.084 1.378 0.319 1.689 0.022 0.029 0.131 0.122 0.628 0.122 0.281 0 0.607-0.028 0.954-0.057 0.373-0.032 0.758-0.064 1.117-0.064 0.261 0 0.568 0.006 0.901 0.012 0.386 0.008 0.806 0.015 1.221 0.015 0.935 0 1.562-0.042 1.972-0.133 0.578-0.127 0.611-0.323 0.687-0.75 0.028-0.155 0.058-0.33 0.121-0.517 0.128-0.384-0.173-0.955-0.416-1.413-0.1-0.188-0.191-0.363-0.252-0.514-0.19-0.471-1.166-0.797-2.068-1.066-0.721-0.215-0.937-0.132-1.517 0.123-0.21 0.092-0.458 0.201-0.781 0.318-1.036 0.374-1.756 1.098-2.591 1.937l-0.296 0.297z"></path>
<path fill="#444444" d="M64.821 48.068c-0.497 0-0.845-0.106-1.066-0.325-0.114-0.114-0.252-0.233-0.398-0.357-0.603-0.517-1.353-1.161-1.135-2.033 0.061-0.244 0.116-0.58 0.173-0.935 0.165-1.019 0.336-2.073 0.821-2.459 0.545-0.435 2.046-0.97 2.722-0.97 0.081 0 0.15 0.008 0.212 0.023 0.471 0.117 3.015 1.363 3.638 2.234 0.124 0.172 0.334 0.31 0.557 0.456 0.632 0.414 1.498 0.982 0.469 2.754-0.391 0.673-1.483 1.096-3.246 1.257-0.334 0.030-0.709 0.094-1.106 0.162-0.566 0.096-1.152 0.196-1.642 0.196zM65.94 41.542c-0.506 0-1.893 0.464-2.377 0.849-0.318 0.253-0.492 1.329-0.62 2.115-0.059 0.367-0.116 0.713-0.182 0.98-0.136 0.541 0.445 1.039 0.958 1.479 0.156 0.134 0.305 0.262 0.428 0.385 0.075 0.075 0.252 0.164 0.674 0.164 0.443 0 1.005-0.096 1.549-0.189 0.39-0.066 0.793-0.134 1.149-0.167 1.507-0.137 2.534-0.496 2.817-0.983 0.766-1.318 0.321-1.61-0.293-2.013-0.255-0.168-0.519-0.34-0.703-0.596-0.52-0.726-2.926-1.92-3.323-2.018-0.006-0.002-0.028-0.006-0.078-0.006z"></path>
<path fill="#444444" d="M79.175 47.819c-0.153 0-0.277-0.124-0.277-0.277 0-1.586 0.506-2.871 0.659-3.043 0.101-0.113 0.276-0.125 0.391-0.022 0.114 0.102 0.124 0.277 0.022 0.391-0.051 0.081-0.519 1.188-0.519 2.675 0.001 0.153-0.123 0.277-0.276 0.277z"></path>
<path fill="#444444" d="M85.866 51.016c-0.206 0-0.419-0.004-0.635-0.009-0.206-0.004-0.411-0.009-0.608-0.009-0.153 0-0.277-0.124-0.277-0.277s0.124-0.277 0.277-0.277c0.2 0 0.409 0.004 0.62 0.009 0.708 0.014 1.592 0.034 1.87-0.176 0.329-0.25 0.887-1.69 0.887-2.463 0-0.801-0.235-1.577-0.585-1.93l-0.112-0.115c-0.419-0.432-0.894-0.922-1.794-0.922-0.153 0-0.277-0.124-0.277-0.277s0.124-0.277 0.277-0.277c1.135 0 1.745 0.63 2.192 1.090l0.108 0.111c0.549 0.555 0.745 1.596 0.745 2.319 0 0.853-0.572 2.5-1.106 2.904-0.33 0.25-0.913 0.298-1.581 0.298z"></path>
<path fill="#444444" d="M77.154 50.883c-0.106 0-0.207-0.061-0.253-0.164-0.194-0.435-0.319-0.514-0.494-0.622-0.097-0.061-0.207-0.129-0.332-0.25-0.212-0.204-0.421-0.24-0.799-0.304-0.087-0.014-0.179-0.030-0.279-0.049-0.561-0.109-1.076 0.191-1.336 0.378-0.125 0.088-0.297 0.061-0.386-0.062s-0.061-0.297 0.062-0.386c0.574-0.414 1.202-0.582 1.764-0.473 0.095 0.018 0.184 0.034 0.267 0.048 0.422 0.071 0.756 0.128 1.091 0.45 0.083 0.081 0.157 0.126 0.242 0.179 0.26 0.162 0.462 0.319 0.705 0.866 0.062 0.139-0.001 0.303-0.141 0.365-0.035 0.017-0.074 0.024-0.112 0.024z"></path>
<path fill="#444444" d="M78.316 59.008c-0.373 0-0.734-0.051-1.081-0.2-0.828-0.356-1.174-0.657-1.174-1.6 0-0.771 0-2.817 0.113-3.953 0.248-2.492 0.737-2.492 0.946-2.492 0.153 0 0.277 0.124 0.277 0.277 0 0.137-0.1 0.25-0.23 0.273-0.087 0.099-0.303 0.602-0.443 1.997-0.11 1.108-0.11 3.135-0.11 3.898 0 0.635 0.11 0.778 0.839 1.092 0.565 0.242 1.219 0.153 1.978 0.051 0.184-0.025 0.372-0.050 0.564-0.072 0.515-0.058 0.65-0.232 0.855-0.497 0.141-0.181 0.3-0.387 0.587-0.58 0.423-0.283 0.451-0.522 0.499-0.918 0.014-0.116 0.029-0.237 0.054-0.363 0.030-0.15 0.178-0.248 0.325-0.217 0.15 0.030 0.247 0.175 0.217 0.325-0.022 0.111-0.034 0.219-0.047 0.321-0.053 0.437-0.107 0.889-0.741 1.313-0.212 0.142-0.331 0.295-0.457 0.458-0.237 0.307-0.483 0.625-1.231 0.708-0.188 0.021-0.371 0.046-0.551 0.070-0.409 0.055-0.807 0.11-1.191 0.11z"></path>
<path fill="#444444" d="M70.719 44.503c-0.071 0-0.142-0.027-0.196-0.081-0.107-0.108-0.107-0.283 0.001-0.391 0.157-0.156 0.366-0.246 0.569-0.333 0.331-0.141 0.643-0.274 0.818-0.678 0.061-0.144 0.123-0.269 0.179-0.384 0.238-0.483 0.336-0.683-0.055-1.385-0.148-0.264-0.271-0.54-0.391-0.806-0.341-0.762-0.636-1.42-1.354-1.634l-0.34-0.103c-1.007-0.306-2.153-0.653-2.795-0.561-0.777 0.111-1.729 0.642-1.905 1.257-0.034 0.117-0.072 0.242-0.111 0.369-0.1 0.321-0.364 1.176-0.232 1.29 0.15 0.030 0.257 0.179 0.227 0.329s-0.16 0.254-0.315 0.22c-0.17-0.034-0.305-0.127-0.39-0.271-0.233-0.391-0.032-1.042 0.182-1.732 0.038-0.124 0.076-0.244 0.108-0.357 0.272-0.947 1.543-1.535 2.359-1.652 0.77-0.112 1.92 0.241 3.034 0.579l0.337 0.102c0.961 0.287 1.337 1.126 1.701 1.938 0.115 0.256 0.233 0.52 0.368 0.764 0.507 0.911 0.365 1.296 0.068 1.898-0.053 0.107-0.11 0.224-0.168 0.358-0.261 0.608-0.751 0.817-1.109 0.969-0.169 0.072-0.314 0.133-0.396 0.215-0.053 0.053-0.124 0.080-0.195 0.080z"></path>
<path fill="#444444" d="M79.048 42.599c-0.034 0-0.069-0.007-0.102-0.019-0.098-0.039-0.194-0.071-0.283-0.101-0.422-0.143-0.901-0.304-0.901-1.049 0-0.682 0.33-2.088 0.948-2.951 0.728-1.016 1.722-1.685 2.66-1.788l0.281-0.033c0.962-0.116 2.054-0.246 2.76 0.574 0.613 0.713 1.216 1.736 1.070 2.467-0.030 0.15-0.179 0.246-0.326 0.217-0.15-0.030-0.247-0.175-0.217-0.326 0.087-0.435-0.293-1.237-0.947-1.997-0.515-0.597-1.371-0.495-2.275-0.386l-0.287 0.034c-0.783 0.087-1.632 0.67-2.271 1.56-0.523 0.73-0.844 2.023-0.844 2.629 0 0.335 0.1 0.381 0.525 0.525 0.098 0.033 0.201 0.069 0.31 0.111 0.142 0.057 0.211 0.218 0.155 0.359-0.043 0.108-0.148 0.174-0.257 0.174z"></path>
<path fill="#444444" d="M72.859 42.157c-0.057 0.001-0.115-0.006-0.173-0.017-0.15-0.030-0.247-0.176-0.217-0.326s0.179-0.246 0.326-0.217c0.097 0.020 0.151-0.006 0.187-0.032 0.113-0.078 0.271-0.31 0.381-0.975 0.113-0.679-0.47-2.428-0.661-3.002-0.291-0.873-1.293-1.727-1.896-2.089-0.376-0.227-1.499 0.054-2.309 0.459-0.565 0.282-1.101 0.979-1.433 1.865-0.054 0.143-0.215 0.217-0.356 0.162-0.143-0.054-0.216-0.213-0.162-0.356 0.385-1.028 1.006-1.817 1.703-2.165 0.019-0.010 1.957-0.968 2.842-0.438 0.579 0.348 1.771 1.295 2.136 2.389 0.565 1.697 0.776 2.705 0.682 3.268-0.117 0.706-0.311 1.132-0.612 1.34-0.131 0.091-0.279 0.137-0.437 0.137z"></path>
<path fill="#444444" d="M77.915 41.691c-0.071 0-0.141-0.027-0.195-0.081-0.020-0.020-0.496-0.502-0.738-1.228-0.174-0.526 0.189-1.91 0.682-3.665 0.136-0.486 0.256-0.911 0.316-1.186 0.299-1.347 1.627-1.2 2.423-1.11 1.144 0.127 2.436 1.354 2.892 2.153 0.076 0.133 0.029 0.302-0.103 0.378-0.132 0.074-0.301 0.030-0.378-0.103-0.398-0.698-1.558-1.776-2.472-1.878-1.080-0.121-1.66-0.049-1.821 0.68-0.063 0.281-0.185 0.717-0.325 1.215-0.288 1.026-0.824 2.935-0.689 3.341 0.199 0.597 0.6 1.007 0.604 1.011 0.107 0.108 0.107 0.284-0.001 0.391-0.053 0.054-0.124 0.081-0.195 0.081z"></path>
<path fill="#444444" d="M74.526 41.866c-0.446 0-0.98-0.099-1.287-0.508-0.091-0.123-0.066-0.296 0.056-0.387s0.295-0.067 0.387 0.056c0.245 0.329 0.909 0.329 1.399 0.231 0.231-0.091 0.545-1.268 0.663-1.711 0.1-0.375 0.179-0.67 0.26-0.833 0.188-0.378 0.418-2.223 0.418-2.905 0-0.46-0.79-1.067-1.523-1.436-0.473-0.237-1.112-0.22-1.787-0.204-0.181 0.005-0.364 0.009-0.546 0.009-0.631 0-0.908 0.396-1.202 0.815-0.048 0.068-0.094 0.134-0.141 0.196-0.092 0.123-0.266 0.147-0.387 0.056s-0.147-0.265-0.056-0.387c0.043-0.058 0.086-0.119 0.131-0.182 0.311-0.443 0.736-1.050 1.654-1.050 0.178 0 0.356-0.004 0.532-0.009 0.745-0.018 1.452-0.037 2.049 0.263 0.429 0.216 1.828 0.993 1.828 1.93 0 0.619-0.211 2.62-0.476 3.152-0.056 0.113-0.139 0.426-0.22 0.729-0.312 1.17-0.573 2.007-1.089 2.11-0.129 0.026-0.379 0.066-0.665 0.066z"></path>
<path fill="#444444" d="M75.429 41.577c-0.13 0-0.246-0.093-0.271-0.226-0.028-0.15 0.071-0.294 0.221-0.323 0.182-0.034 0.463-0.201 0.71-0.349 0.454-0.27 0.883-0.527 1.211-0.32 0.129 0.081 0.169 0.252 0.088 0.381-0.081 0.131-0.252 0.169-0.381 0.088-0.092-0.027-0.428 0.204-0.635 0.327-0.301 0.179-0.612 0.365-0.891 0.417-0.017 0.003-0.034 0.005-0.051 0.005z"></path>
<path fill="#444444" d="M74.699 58.513c-0.954 0-2.256-0.409-2.448-0.472-1.036-0.335-1.829-1.029-1.972-1.726-0.032-0.149 0.065-0.295 0.215-0.326 0.144-0.033 0.295 0.064 0.326 0.215 0.087 0.422 0.665 1.008 1.602 1.311 1.227 0.397 2.492 0.564 2.767 0.365 0.407-0.297 0.722-0.701 0.725-0.704 0.094-0.122 0.268-0.143 0.388-0.050 0.121 0.094 0.143 0.267 0.050 0.388-0.014 0.019-0.364 0.469-0.837 0.814-0.186 0.136-0.48 0.186-0.816 0.186z"></path>
<path fill="#444444" d="M66.357 53.623c-0.667 0-1.564-0.273-2.503-0.588-0.91-0.305-1.31-1.68-1.581-2.986-0.020-0.098-0.037-0.176-0.050-0.229-0.147-0.591 0.611-2.256 1.073-2.722 0.108-0.109 0.283-0.108 0.391-0.001 0.108 0.108 0.108 0.283 0.001 0.391-0.418 0.421-1.004 1.896-0.929 2.198 0.014 0.058 0.033 0.144 0.055 0.251 0.12 0.576 0.484 2.328 1.211 2.572 0.682 0.228 2.488 0.832 2.811 0.425 0.096-0.12 0.271-0.139 0.389-0.044 0.12 0.096 0.139 0.269 0.044 0.389-0.195 0.246-0.513 0.344-0.913 0.344z"></path>
<path fill="#444444" d="M87.233 45.436c-0.101 0-0.198-0.055-0.247-0.15-0.069-0.136-0.017-0.302 0.119-0.372 0.024-0.012 0.252-0.127 0.694-0.241 0.237-0.061 0.333-0.458 0.416-0.808l0.020-0.081c0.053-0.216-0.052-0.331-0.619-0.681-0.13-0.081-0.17-0.251-0.090-0.381 0.081-0.131 0.251-0.169 0.381-0.090 0.503 0.311 1.024 0.632 0.865 1.283l-0.019 0.080c-0.108 0.451-0.257 1.071-0.817 1.214-0.382 0.098-0.577 0.196-0.579 0.196-0.040 0.019-0.083 0.029-0.125 0.029z"></path>
<path fill="#444444" d="M84.64 56.909c-0.789 0-1.782-0.405-2.143-0.768-0.107-0.108-0.107-0.283 0.001-0.391 0.108-0.107 0.283-0.108 0.391 0.001 0.242 0.243 1.084 0.605 1.751 0.605 0.001 0 0.001 0 0.001 0 0.255 0 0.443-0.054 0.543-0.154 0.809-0.813 2.383-2.712 2.383-3.295 0-0.212 0.029-0.467 0.059-0.736 0.071-0.626 0.169-1.484-0.195-1.589-0.251-0.072-0.289-0.219-0.278-0.328 0.026-0.242 0.256-0.258 0.408-0.268 0.268-0.018 0.982-0.068 1.146-0.454 0.361-0.848 0.723-2.833 0.455-3.372-0.297-0.596-1.123-1.123-1.132-1.128-0.129-0.081-0.168-0.252-0.086-0.381s0.252-0.169 0.381-0.086c0.039 0.024 0.966 0.613 1.332 1.349 0.4 0.804-0.11 3.058-0.442 3.835-0.204 0.479-0.704 0.659-1.126 0.734 0.231 0.457 0.152 1.154 0.084 1.751-0.029 0.253-0.056 0.492-0.056 0.673 0 1.063-2.519 3.66-2.544 3.685-0.209 0.211-0.524 0.318-0.936 0.318 0.002-0.001 0.001-0.001 0.001-0.001z"></path>
<path fill="#444444" d="M62.4 49.408c-0.097 0-0.191-0.051-0.242-0.142-0.053-0.094-0.516-0.933-0.62-1.4-0.117-0.52 0.194-1.798 0.427-2.189 0.079-0.132 0.248-0.174 0.38-0.096s0.174 0.248 0.096 0.38c-0.17 0.284-0.443 1.427-0.362 1.786 0.074 0.33 0.431 1.014 0.563 1.25 0.075 0.133 0.027 0.302-0.106 0.377-0.043 0.023-0.090 0.034-0.136 0.034z"></path>
<path fill="#444444" d="M68.477 57.93c-1.035 0-1.948-0.715-2.833-1.409l-0.278-0.217c-1.081-0.837-1.675-2.827-1.675-3.335 0-0.153 0.124-0.277 0.277-0.277s0.277 0.124 0.277 0.277c0 0.379 0.532 2.179 1.46 2.898l0.281 0.219c0.901 0.705 1.758 1.368 2.657 1.283 1.031-0.102 1.87-0.719 1.878-0.725 0.122-0.092 0.295-0.067 0.387 0.056s0.066 0.295-0.056 0.387c-0.039 0.029-0.971 0.715-2.154 0.833-0.075 0.007-0.148 0.011-0.221 0.011z"></path>
<path fill="#444444" d="M72.212 59.281c-1.076 0-3.766-0.778-3.966-1.34-0.051-0.144 0.024-0.302 0.168-0.354 0.144-0.054 0.303 0.024 0.354 0.168 0.189 0.199 2.261 0.973 3.433 0.973 0.808-0.038 2.24-0.247 2.591-0.643 0.101-0.115 0.276-0.126 0.391-0.023 0.114 0.102 0.125 0.276 0.023 0.391-0.619 0.698-2.752 0.817-2.993 0.828v0z"></path>
<path fill="#444444" d="M80.886 59.357c-0.808 0-1.658-0.173-2.21-0.558-0.126-0.087-0.156-0.26-0.069-0.385s0.26-0.155 0.385-0.069c0.678 0.472 2.13 0.608 3.108 0.291 0.956-0.311 1.999-1.353 2.297-1.935 0.070-0.136 0.237-0.189 0.373-0.12s0.19 0.237 0.12 0.373c-0.349 0.68-1.514 1.85-2.619 2.209-0.39 0.127-0.879 0.195-1.385 0.195z"></path>
<path fill="#444444" d="M76.331 60c-0.832 0-1.798-0.18-3.274-0.771-0.142-0.057-0.211-0.218-0.154-0.359 0.057-0.142 0.219-0.21 0.359-0.154 1.78 0.713 2.726 0.795 3.672 0.699s2.352-0.785 2.366-0.792c0.135-0.068 0.303-0.012 0.37 0.126 0.067 0.137 0.012 0.303-0.126 0.37-0.061 0.030-1.51 0.74-2.555 0.846-0.215 0.022-0.432 0.035-0.66 0.035z"></path>
<path fill="#444444" d="M70.912 47.706c-0.125 0-0.237-0.084-0.268-0.21-0.029-0.117-0.32-0.356-0.444-0.458-0.209-0.172-0.39-0.32-0.283-0.545 0.104-0.221 0.36-0.17 0.444-0.152 0.139 0.028 0.233 0.156 0.221 0.294 0.291 0.241 0.534 0.464 0.6 0.728 0.037 0.148-0.054 0.298-0.202 0.335-0.022 0.006-0.045 0.008-0.066 0.008z"></path>
<path fill="#444444" d="M78.718 34.936c-0.084 0-0.167-0.038-0.221-0.111-0.134-0.179-0.665-0.359-1.404-0.339-0.672 0.012-1.070 0.17-1.124 0.248-0.086 0.125-0.258 0.159-0.384 0.073s-0.16-0.253-0.076-0.38c0.277-0.415 1.16-0.484 1.527-0.494 0.341-0.010 1.487 0.003 1.905 0.56 0.091 0.122 0.066 0.295-0.056 0.387-0.050 0.038-0.108 0.055-0.166 0.055z"></path>
</svg>
