<?xml version="1.0" encoding="utf-8"?>
<!-- Generated by IcoMoon.io -->
<!DOCTYPE svg PUBLIC "-//W3C//DTD SVG 1.1//EN" "http://www.w3.org/Graphics/SVG/1.1/DTD/svg11.dtd">
<svg version="1.1" xmlns="http://www.w3.org/2000/svg" xmlns:xlink="http://www.w3.org/1999/xlink" width="88" height="60" viewBox="0 0 88 60">
<path fill="#444444" d="M87.574 37.379c-0.485-0.366-0.556-0.548-0.554-0.624 0-0.116 0.166-0.294 0.492-0.528 0.531-0.383 0.852-0.939 0.852-1.488 0-0.471-0.232-0.898-0.654-1.203-0.158-0.113-0.316-0.215-0.469-0.312-0.726-0.458-0.917-0.619-0.526-1.255 0.815-1.32 0.485-1.842-0.62-2.583l-0.318-0.208c-0.658-0.423-0.658-0.423-0.359-1.434 0.137-0.464 0.089-0.877-0.145-1.225-0.388-0.579-1.253-0.933-2.646-1.083-0.067-0.007-0.11-0.018-0.131-0.018 0.063-0.22 0.593-0.726 0.798-0.923 0.334-0.32 0.458-0.439 0.446-0.572l0.025-0.094c0.116-0.398 0.423-1.452-0.247-1.977-0.804-0.631-2.561-0.124-5.532 1.588-0.409 0.236-0.788 0.476-1.151 0.716-0.091-0.784-1.269-2.155-3.471-4.544-0.531-0.578-1.028-1.116-1.397-1.545-0.931-1.089-2.769-1.713-4.546-2.318-0.305-0.103-0.605-0.205-0.894-0.308 0.023-0.202 0.133-0.77 0.674-1.606 0.719-1.115 3.295-3.359 3.32-3.381 0.033-0.028 0.037-0.071 0.054-0.107 0.328-0.214 0.605-0.419 0.798-0.614 1.538-1.55 2.824-5.975 2.886-6.191 0.008-0.042 0.186-1.052-0.654-1.495-0.719-0.378-1.547 0.080-2.277 0.483l-0.267 0.146c-0.216 0.114-0.377 0.154-0.481 0.12-0.178-0.062-0.352-0.401-0.498-0.726-0.309-0.685-1.074-1.45-1.771-1.491-0.371-0.031-0.69 0.156-0.9 0.504-0.178 0.295-0.328 0.31-0.377 0.315-0.176 0.022-0.516-0.103-1.105-0.759-0.239-0.266-0.415-0.441-0.656-0.443-0.249 0.029-0.382 0.156-0.569 0.358-0.154 0.165-0.365 0.391-0.717 0.661-0.931 0.716-1.352 0.543-2.001-0.156-0.4-0.433-0.836-0.846-1.294-0.758-0.433 0.084-0.658 0.561-0.79 0.912-0.203 0.546-0.452 1.138-0.794 1.253-0.199 0.063-0.473-0.012-0.817-0.233-0.771-0.496-1.319-0.645-1.771-0.481-0.148 0.054-0.276 0.152-0.398 0.272-0.077-0.178-0.193-0.281-0.305-0.331-0.692-0.308-1.86 0.834-2.202 1.191-0.373 0.39-0.529 0.416-0.533 0.424-0.012-0.014-0.106-0.133-0.124-0.641-0.035-1.044-0.073-2.124-1.275-2.607-1.004-0.4-2.254 1.319-3.836 3.496-0.419 0.576-0.846 1.163-1.269 1.708-1.754 2.252-2.288 6.496-2.363 7.172-0.329 0.428-0.91 1.013-1.227 1.024-0.39 0.005-1.304-0.641-1.861-1.108-0.007-0.006-0.018-0.003-0.026-0.008-0.287-4.262-1.419-6.23-1.486-6.343-0.022-0.036-0.052-0.068-0.086-0.093-0.051-0.035-0.506-0.342-1.005-0.342-0.451 0-0.804 0.253-0.994 0.711-0.115 0.276-0.191 0.557-0.258 0.804-0.060 0.224-0.171 0.638-0.253 0.638-0.026 0-0.128-0.012-0.358-0.167-0.266-0.18-0.546-0.41-0.819-0.632-0.598-0.49-1.114-0.912-1.543-0.912-0.142 0-0.484 0.052-0.608 0.528-0.051 0.191-0.092 0.421-0.136 0.661-0.109 0.608-0.26 1.44-0.602 1.44-0.063 0-0.139-0.020-0.227-0.061-0.203-0.093-0.421-0.207-0.638-0.323-0.184-0.097-0.363-0.189-0.539-0.274 0.147-0.066 0.222-0.232 0.163-0.382-0.076-0.194-0.778-1.909-1.775-1.865-0.908 0.031-1.395 0.712-1.825 1.313l-0.099 0.137c-0.115 0.159-0.223 0.334-0.325 0.501-0.096 0.158-0.233 0.381-0.326 0.484-0.088-0.126-0.213-0.364-0.333-0.597-0.386-0.744-0.824-1.585-1.411-1.682-0.816-0.139-1.424 0.59-2.064 1.36-0.299 0.357-0.563 0.533-0.806 0.537-0.232 0.009-0.506-0.158-0.795-0.483-0.494-0.55-1.026-0.767-1.46-0.593-0.239 0.096-0.636 0.395-0.604 1.309 0.025 0.738-0.249 1.258-0.457 1.349-0.028 0.013-0.089 0.038-0.201-0.073-0.825-0.823-1.493-1.161-1.978-1.008-0.328 0.103-0.537 0.399-0.622 0.877-0.095 0.536-0.077 1.093-0.063 1.539 0.007 0.216 0.016 0.492-0.001 0.651-0.014-0.008-0.029-0.017-0.046-0.028-0.711-0.465-2.419-1.245-3.153-0.678-0.403 0.311-0.211 0.74-0.085 1.024 0.155 0.347 0.288 0.648-0.024 1.038-0.37 0.462-1.091 0.563-1.616 0.636-0.467 0.065-0.949 0.132-0.933 0.562-0.007 0.021-0.059 0.077-0.093 0.113-0.197 0.211-0.527 0.567-0.263 1.441 0.179 0.59 0.402 1.325 0.218 1.582-0.063 0.088-0.201 0.136-0.412 0.144-0.733 0.025-1.741 0.135-2.026 0.776-0.186 0.419-0.023 0.924 0.498 1.544 1.187 1.413 6.684 4.915 11.201 4.914 0.65 0 1.279-0.073 1.872-0.234 0.057-0.015 0.091-0.060 0.128-0.099-0.141 0.884-0.797 2.306-1.832 3.194-1.138 0.975-1.741 2.643-1.933 3.361-0.415-0.872-0.849-1.665-1.235-2.225-1.065-1.551-2.483-2.995-3.080-3.579 0.108-0.127 0.096-0.316-0.030-0.426-0.334-0.291-0.834-0.659-1.318-0.513-0.564 0.173-0.753 0.891-0.993 1.8-0.074 0.279-0.152 0.576-0.246 0.872-0.188 0.59-0.348 0.729-0.427 0.759-0.136 0.055-0.417-0.111-0.71-0.284-0.18-0.105-0.374-0.22-0.586-0.32-0.272-0.128-0.58-0.234-0.811-0.054-0.265 0.206-0.194 0.562-0.088 1.1 0.069 0.351 0.155 0.788 0.172 1.275s-0.025 0.783-0.126 0.88c-0.112 0.109-0.465 0.088-0.916 0.060l-0.425-0.023c-0.813-0.036-1.257 0.078-1.477 0.387-0.234 0.327-0.115 0.755 0.032 1.129 0.111 0.282 0.002 0.713-0.259 1.027-0.171 0.204-0.547 0.525-1.161 0.409-0.404-0.081-0.701-0.004-0.887 0.228-0.413 0.511-0.027 1.52 0.519 2.785l0.033 0.076c0.067 0.156 0.086 0.28 0.052 0.333-0.135 0.205-0.955 0.209-1.615 0.213-0.254 0.001-0.519 0.003-0.782 0.012-0.39 0.014-0.856 0.075-1.009 0.429-0.187 0.435 0.238 0.916 0.881 1.644 0.194 0.221 0.409 0.462 0.622 0.724 0.13 0.158 0.231 0.285 0.301 0.383-0.012 0.001-0.023 0.002-0.034 0.002-0.363 0.025-0.971 0.068-1.672 0.403-0.532 0.255-0.792 0.586-0.772 0.986 0.053 1.041 2.159 1.813 2.25 1.846 0.085 0.030 0.131 0.058 0.15 0.062-0.090 0.186-0.675 0.588-1.069 0.859-0.21 0.145-0.431 0.296-0.646 0.452-0.753 0.554-0.75 1.106-0.681 1.385 0.148 0.604 0.822 1.052 1.8 1.202 0.146 0.021 0.316 0.031 0.508 0.031 0.886 0 2.238-0.215 3.761-0.455 1.584-0.252 3.38-0.536 4.793-0.585 2.711-0.096 5.182-2.802 5.856-3.604 0.038 0.977-0.152 2.216-0.411 3.004-0.528 1.616-0.009 4.929 1.181 7.543 0.978 2.147 2.193 3.546 3.253 3.741 0.090 0.017 0.178 0.024 0.266 0.024 0.371 0 0.716-0.148 1.010-0.438 0.677-0.667 0.671-1.344 0.666-1.792-0.004-0.397-0.004-0.397 0.239-0.405 0.338-0.018 0.561 0.091 0.774 0.19 0.474 0.222 0.879 0.323 1.466-0.519 0.416-0.597 0.374-1.076 0.347-1.392-0.028-0.325-0.033-0.383 0.43-0.534 0.413-0.133 0.8-0.11 1.141-0.090 0.613 0.039 1.312 0.079 1.499-1.065 0.038-0.24 0.063-0.444 0.084-0.618 0.081-0.687 0.081-0.687 1.032-0.72 0.671-0.023 1.169-0.11 1.416-0.456 0.273-0.382 0.137-0.923-0.102-1.706-0.291-0.958-0.291-0.958 0.728-1.348l0.398-0.153c0.752-0.294 1.209-0.544 1.328-0.949 0.121-0.415-0.152-0.791-0.565-1.362l-0.068-0.093c-0.156-0.214-0.332-0.455-0.334-0.524 0.037-0.105 0.475-0.367 0.939-0.646l0.259-0.156c0.59-0.355 0.892-0.704 0.953-1.102 0.085-0.554-0.316-1.007-0.78-1.532-0.036-0.040-0.074-0.089-0.11-0.131 0.72-0.107 2.498 0.5 3.651 1.023 0.040 0.018 0.084 0.026 0.126 0.026 0.115 0 0.226-0.066 0.276-0.178 0.070-0.153 0.002-0.333-0.151-0.402-0.544-0.246-3.284-1.437-4.317-0.987-0.063-0.102-0.084-0.165-0.085-0.165 0.059-0.103 0.527-0.218 0.839-0.294 0.483-0.118 1.083-0.266 1.6-0.569 0.481-0.28 0.555-0.588 0.531-0.802 0.325 0.906 0.726 1.61 1.353 1.934 0.235 0.121 0.473 0.183 0.706 0.183 1.164 0 1.88-1.473 2.204-2.352 0.005-0.014 0.010-0.025 0.015-0.037 0.074 0.061 0.174 0.164 0.248 0.239 0.135 0.138 0.286 0.289 0.458 0.414-0.139-0.026-0.281 0.029-0.338 0.163-0.137 0.324-2.036 2.327-3.464 3.176-0.145 0.086-0.191 0.272-0.105 0.416 0.057 0.096 0.158 0.148 0.261 0.148 0.053 0 0.106-0.014 0.155-0.042 1.477-0.878 3.505-2.958 3.715-3.467 0.048-0.114 0.001-0.227-0.080-0.311 0.158 0.091 0.329 0.159 0.527 0.159 0 0 0 0 0.001 0 0.825-0.029 1.384-0.869 1.834-1.544l0.174-0.258c0.063-0.091 0.168-0.185 0.475-0.185 0.228 0 0.498 0.052 0.785 0.105 0.32 0.061 0.653 0.122 0.972 0.122 0.003 0 0.079-0.001 0.083-0.001 1.125-0.039 1.191-0.518 1.319-1.47l0.019-0.138c0.024-0.176 0.041-0.353 0.058-0.526 0.103-1.095 0.23-1.174 0.751-0.972 0.428 0.167 0.853 0.254 1.228 0.254 0.977 0 1.58-0.57 1.615-1.525 0.035-0.987 0.498-1.372 1.449-1.323l0.097 0.003c0.188 0 0.354-0.040 0.5-0.103 0.018 0.030 0.020 0.067 0.048 0.090 0.127 0.109 0.318 0.095 0.427-0.032 0.241-0.28 0.577-0.54 0.66-0.549 0 0 0.054 0.063 0.062 0.318 0.016 0.471-0.067 0.854-0.143 1.192-0.128 0.586-0.263 1.193 0.541 1.536 0.409 0.173 1.043 0.114 1.713 0.054 0.423-0.038 1.134-0.104 1.247-0.029 0 0 0.006 0.078-0.128 0.283-0.239 0.366-0.506 0.704-0.741 1.002-0.516 0.656-0.892 1.13-0.732 1.58 0.139 0.386 0.612 0.49 0.769 0.525 0.479 0.105 1.030 0.075 1.518 0.048 0.311-0.018 0.753-0.053 0.856-0.044 0 0.005-0.004 0.127-0.284 0.49-0.352 0.454-0.749 0.83-1.101 1.162-0.558 0.527-0.962 0.907-0.848 1.343 0.099 0.383 0.568 0.548 0.962 0.651 1.294 0.33 2.215 0.838 2.291 1.265 0.046 0.268-0.274 0.547-0.551 0.737-0.996 0.674-2.217 0.937-3.293 1.169-0.707 0.153-1.375 0.297-1.907 0.54-1.223 0.561-4.22 1.796-5.581 1.12-1.407-0.692-4.435-1.489-5.405-0.29-0.559 0.687-0.492 1.007-0.325 1.514 0.086 0.265 0.194 0.593 0.215 1.156 0.017 0.48 0.117 4.782-1.401 8.037-1.29 2.77-2.283 4.289-2.688 4.643-0.054-0.179-0.109-0.437-0.167-0.706-0.25-1.161-0.468-2.003-1.005-2.237-0.151-0.064-0.392-0.108-0.686 0.066-0.152 0.089-0.317 0.196-0.49 0.309-0.531 0.344-1.33 0.863-1.66 0.718-0.13-0.059-0.188-0.271-0.214-0.439-0.156-1.020-0.521-1.662-1.055-1.853-0.278-0.098-0.725-0.116-1.264 0.365-0.463 0.414-0.621 0.37-0.637 0.362-0.022-0.009-0.222-0.111-0.312-1.028-0.063-0.649-0.221-1.039-0.51-1.269-0.37-0.294-0.842-0.231-1.387-0.157l-0.217 0.028c-0.195 0.022-0.292-0.035-0.347-0.082-0.338-0.287-0.37-1.202-0.394-1.87-0.006-0.164-0.141-0.293-0.304-0.293-0.003 0-0.007 0-0.011 0.001-0.168 0.005-0.299 0.147-0.292 0.314 0.029 0.824 0.065 1.851 0.607 2.311 0.221 0.188 0.495 0.262 0.817 0.223l0.223-0.029c0.424-0.058 0.76-0.103 0.929 0.030 0.144 0.114 0.239 0.401 0.283 0.853 0.088 0.908 0.303 1.381 0.695 1.535 0.46 0.18 0.94-0.187 1.264-0.477 0.174-0.158 0.429-0.325 0.654-0.247 0.299 0.107 0.546 0.62 0.661 1.373 0.071 0.46 0.261 0.764 0.565 0.901 0.626 0.279 1.481-0.274 2.237-0.762 0.166-0.107 0.325-0.21 0.47-0.295 0.087-0.053 0.121-0.037 0.134-0.032 0.294 0.128 0.528 1.221 0.655 1.808 0.084 0.394 0.157 0.734 0.247 0.949 0.080 0.191 0.233 0.305 0.42 0.309 0.002 0 0.004 0 0.007 0 0.839 0 2.442-3.171 3.324-5.065 1.578-3.384 1.474-7.821 1.457-8.316-0.022-0.649-0.151-1.037-0.244-1.323-0.127-0.388-0.157-0.48 0.22-0.942 0.592-0.732 3.039-0.35 4.664 0.452 1.541 0.755 4.484-0.372 6.103-1.115 0.473-0.216 1.107-0.353 1.781-0.498 1.13-0.244 2.413-0.52 3.506-1.261 0.618-0.419 0.892-0.871 0.809-1.342-0.166-0.957-1.787-1.507-2.737-1.75-0.431-0.109-0.516-0.204-0.524-0.204 0.010-0.131 0.396-0.493 0.676-0.759 0.348-0.329 0.782-0.739 1.164-1.232 0.274-0.357 0.531-0.768 0.352-1.111-0.201-0.383-0.747-0.351-1.439-0.315-0.446 0.026-0.952 0.056-1.352-0.033-0.284-0.063-0.326-0.136-0.326-0.137-0.048-0.133 0.379-0.675 0.637-0.998 0.241-0.309 0.518-0.657 0.771-1.046 0.089-0.138 0.361-0.556 0.15-0.907-0.257-0.427-0.95-0.362-1.833-0.283-0.541 0.051-1.155 0.106-1.421-0.008-0.32-0.137-0.322-0.225-0.186-0.846 0.075-0.336 0.158-0.757 0.152-1.264 0.336-0.23 1.261-0.867 1.789-1.262 0.164-0.123 0.251-0.301 0.243-0.499-0.029-0.647-1.184-1.442-1.638-1.73-0.006-0.381-0.233-0.804-0.651-1.151-0.077-0.064-0.145-0.121-0.199-0.171 0.174-0.011 0.401-0.019 0.637-0.027 0.328-0.011 0.817-0.084 1.279-0.228 0.002 0.124 0.060 0.243 0.184 0.285 0.046 0.015 4.639 1.585 7.652 3.005 1.593 0.752 2.629 1.935 3.243 2.857-0.065 0.058-0.108 0.135-0.105 0.229 0.008 0.218 0.164 0.443 0.498 0.454 0.008 0.001 0.014 0.001 0.020 0.001 0.218 0.4 0.318 0.664 0.32 0.672 0.004 0.009 0.012 0.013 0.018 0.021-0.152-0.022-0.299 0.062-0.338 0.213-0.044 0.162 0.054 0.328 0.216 0.37 0.786 0.205 1.453 0.283 2.012 0.283 0.411 0 0.761-0.045 1.061-0.109 0.060 0.059 0.139 0.095 0.237 0.088 0.124-0.011 0.203-0.106 0.239-0.22 0.63-0.225 0.915-0.527 0.939-0.553 0.11-0.123 0.101-0.313-0.021-0.425-0.12-0.112-0.313-0.105-0.427 0.015-0.004 0.004-0.145 0.138-0.433 0.276 0.071-0.739 0.363-2.122 1.458-3.736 0.063-0.015 0.122-0.039 0.166-0.090 0.056-0.064 0.075-0.147 0.065-0.23 0.508-0.692 1.168-1.417 2.020-2.146 0 0 0.002-0.001 0.002-0.002 0.755-0.648 1.646-1.297 2.739-1.928 3.608-2.080 4.599-1.839 4.854-1.635 0.348 0.272 0.116 1.069 0.039 1.33-0.014 0.051-0.025 0.089-0.033 0.122-0.052 0.060-0.174 0.177-0.274 0.274-0.643 0.613-1.118 1.119-0.964 1.573 0.079 0.235 0.299 0.373 0.651 0.412 1.48 0.159 2.016 0.531 2.206 0.816 0.131 0.195 0.152 0.429 0.067 0.716-0.394 1.34-0.269 1.547 0.612 2.116l0.311 0.202c0.917 0.616 1.033 0.802 0.443 1.762-0.724 1.174 0.075 1.68 0.715 2.087 0.143 0.090 0.292 0.185 0.439 0.29 0.263 0.19 0.403 0.437 0.403 0.711 0 0.354-0.226 0.726-0.599 0.994-0.386 0.275-0.741 0.59-0.745 1.014-0.006 0.448 0.398 0.817 0.794 1.117 0.292 0.221 0.427 0.481 0.392 0.75-0.044 0.34-0.35 0.663-0.794 0.843-0.184 0.074-0.338 0.123-0.462 0.165-0.286 0.092-0.512 0.166-0.603 0.401-0.105 0.276 0.058 0.556 0.413 1.165 0.318 0.545 0.755 1.291 0.622 1.582-0.067 0.145-0.318 0.217-0.516 0.252-1.049 0.187-1.723 0.401-1.836 0.896-0.101 0.447 0.332 0.818 0.666 1.056 0.467 0.333 0.595 1.117 0.274 1.677-0.413 0.727-1.371 0.822-2.629 0.265-5.684-2.52-8.967-4.687-9.756-6.441-0.601-1.338-1.261-2.017-1.959-2.017-0.008 0-0.014 0-0.021 0.001-0.421 0.008-1.028 0.274-1.518 1.492-0.651 1.612-5.194 6.411-8.522 8.296-1.636 0.927-2.536 0.924-2.824 0.611-0.249-0.266-0.176-0.842 0.172-1.368 0.566-0.853 0.719-1.504 0.458-1.935-0.218-0.358-0.674-0.505-1.346-0.432-0.994 0.105-1.498-0.053-1.64-0.232-0.025-0.031-0.101-0.128-0.008-0.39 0.058-0.158-0.023-0.332-0.182-0.389-0.156-0.056-0.332 0.024-0.39 0.183-0.172 0.478-0.039 0.79 0.101 0.969 0.415 0.528 1.417 0.542 2.182 0.461 0.405-0.039 0.684 0.012 0.763 0.144 0.095 0.154 0.027 0.573-0.444 1.284-0.518 0.782-0.564 1.633-0.11 2.118 0.197 0.214 0.514 0.389 1.018 0.389 0.573 0 1.389-0.228 2.55-0.885 3.488-1.974 8.091-6.873 8.788-8.596 0.28-0.7 0.634-1.106 0.966-1.112 0.405-0.032 0.939 0.595 1.415 1.659 0.864 1.921 4.156 4.129 10.064 6.747 2.298 1.020 3.184-0.14 3.401-0.519 0.473-0.828 0.267-1.961-0.448-2.472-0.403-0.287-0.427-0.426-0.427-0.426s0 0-0.002 0c0.021-0.050 0.182-0.227 1.352-0.435 0.502-0.089 0.817-0.283 0.958-0.595 0.269-0.578-0.176-1.338-0.649-2.142-0.12-0.207-0.276-0.478-0.336-0.618 0.054-0.020 0.127-0.044 0.188-0.064 0.137-0.045 0.305-0.099 0.504-0.179 0.649-0.262 1.097-0.77 1.17-1.328 0.063-0.49-0.161-0.956-0.631-1.311zM66.695 13.504c-0.51 0.789-0.686 1.377-0.745 1.717-0.628-0.242-1.178-0.491-1.545-0.772-0.12-0.093-0.116-0.151-0.114-0.175 0.052-0.59 2.188-1.701 3.745-2.513 0.139-0.072 0.274-0.143 0.409-0.214-0.688 0.67-1.404 1.418-1.75 1.956zM41.047 17.302c0.061-0.018 0.116-0.047 0.157-0.101 0.299-0.394 1.944-1.712 5.125-3.28 3.042-1.498 7.24-4.606 7.282-4.638 0.135-0.1 0.164-0.29 0.063-0.424-0.101-0.137-0.29-0.163-0.425-0.063-0.041 0.030-4.196 3.107-7.189 4.58-2.588 1.275-4.216 2.403-4.955 3.069 0.072-1.211 0.085-2.317 0.047-3.303 0.512 0.394 1.343 0.961 1.862 0.921 0.748-0.026 1.585-1.117 1.745-1.336 0.031-0.044 0.052-0.095 0.058-0.149 0.004-0.047 0.485-4.681 2.246-6.945 0.428-0.549 0.859-1.141 1.282-1.723 1.078-1.483 2.54-3.51 3.12-3.29 0.794 0.319 0.858 0.992 0.894 2.065 0.016 0.43 0.085 1.020 0.508 1.181 0.429 0.165 0.887-0.245 1.196-0.568 0.757-0.79 1.373-1.101 1.51-1.060 0.002 0 0.050 0.063 0.033 0.303-0.031 0.468-0.288 0.963-0.516 1.402-0.267 0.512-0.479 0.917-0.274 1.239 0.178 0.282 0.558 0.267 0.684 0.266 0.367-0.013 0.751-0.104 1.122-0.191 0.405-0.096 0.954-0.225 1.095-0.098 0.023 0.021 0.097 0.121 0.048 0.482-0.122 0.859-0.050 1.382 0.235 1.698 0.311 0.344 0.8 0.356 1.229 0.342 0.214-0.007 0.407-0.040 0.571-0.070 0.046-0.008 0.099-0.018 0.148-0.024-0.029 0.138-0.112 0.407-0.326 0.931-0.529 1.296-0.69 1.687-0.471 2.003 0.182 0.262 0.51 0.249 1.006 0.233 0.624-0.018 1.283 0.225 1.421 0.526 0.071 0.156-0.006 0.356-0.228 0.596l-0.265 0.284c-0.599 0.637-0.994 1.059-0.885 1.522 0.091 0.376 0.494 0.565 0.79 0.673 0.62 0.228 0.854 0.454 0.865 0.58 0.010 0.095-0.116 0.277-0.494 0.503-0.504 0.3-1.771 1.22-1.581 1.868 0.031 0.107 0.15 0.353 0.577 0.353 0.018 0 0.035-0.001 0.058-0.001 0.363 0 1.157 0.37 1.19 0.671 0.002 0.025 0.033 0.623-2.83 1.147-3.156 0.575-5.657 0.658-7.388 0.462-0.56-0.168-1.134-0.29-1.723-0.361-0.344-0.123-0.606-0.265-0.782-0.422-0.795-0.706-2.127-1.213-2.976-0.846-0.45 0.196-0.706 0.614-0.72 1.177-0.001 0.061 0.030 0.108 0.061 0.156-0.348 0.011-0.696 0.022-1.031 0.022 0 0 0 0-0.001 0-0.122 0-0.233-0.003-0.349-0.005 0.015-0.037 0.044-0.069 0.041-0.111-0.046-1.169 1.056-1.963 1.989-2.424 2.002-0.988 4.057 0.798 4.077 0.817 0.128 0.11 0.318 0.099 0.429-0.026s0.101-0.317-0.025-0.428c-0.095-0.086-2.38-2.073-4.749-0.907-1.094 0.539-2.386 1.497-2.327 2.991 0.001 0.028 0.023 0.046 0.032 0.071-1.226-0.061-2.002-0.252-2.291-0.576-0.102-0.113-0.141-0.244-0.121-0.409 0.054-0.469 0.094-0.915 0.13-1.354zM48.337 19.508c-0.424 0.015-0.871 0.037-1.335 0.060-0.419 0.021-0.845 0.041-1.267 0.059 0.022-0.041 0.055-0.078 0.056-0.128 0.008-0.327 0.124-0.534 0.356-0.634 0.512-0.223 1.477 0.077 2.19 0.644zM35.416 37.029c-0.441 0.257-0.97 0.388-1.438 0.503-0.628 0.154-1.125 0.276-1.266 0.682-0.127 0.365 0.153 0.726 0.245 0.844 0.159 0.203 0.326 0.394 0.485 0.572 0.363 0.411 0.677 0.766 0.636 1.037-0.030 0.198-0.255 0.426-0.667 0.674l-0.258 0.155c-0.813 0.487-1.15 0.689-1.221 1.043-0.064 0.316 0.126 0.574 0.438 1.004l0.068 0.092c0.262 0.362 0.511 0.705 0.473 0.834-0.026 0.090-0.216 0.26-0.966 0.555l-0.393 0.151c-1.314 0.502-1.515 0.702-1.092 2.092 0.122 0.402 0.308 1.010 0.189 1.176-0.082 0.115-0.4 0.184-0.943 0.202-1.345 0.048-1.497 0.265-1.613 1.256-0.019 0.166-0.042 0.362-0.080 0.593-0.098 0.6-0.243 0.59-0.863 0.556-0.374-0.024-0.842-0.053-1.365 0.118-0.853 0.276-0.888 0.691-0.848 1.164 0.024 0.283 0.050 0.576-0.24 0.992-0.341 0.49-0.399 0.462-0.711 0.316-0.239-0.111-0.568-0.271-1.053-0.247-0.834 0.029-0.828 0.623-0.825 1.018 0.004 0.406 0.009 0.866-0.485 1.353-0.222 0.219-0.462 0.3-0.739 0.249-0.839-0.155-1.942-1.489-2.811-3.395-1.117-2.453-1.635-5.638-1.157-7.103 0.372-1.137 0.776-3.803 0.018-4.811-0.214-0.283-0.507-0.407-0.851-0.416-0.168 0.006-0.299 0.147-0.292 0.315s0.127 0.299 0.315 0.292c0.13-0.002 0.249 0.049 0.344 0.175 0.098 0.131 0.162 0.327 0.211 0.547-0.081 0.007-0.159 0.042-0.213 0.112-0.027 0.034-2.741 3.488-5.577 3.588-1.45 0.051-3.264 0.338-4.866 0.592-1.727 0.274-3.356 0.532-4.083 0.423-0.801-0.121-1.232-0.462-1.301-0.746-0.076-0.31 0.25-0.603 0.45-0.75 0.209-0.153 0.424-0.302 0.63-0.443 0.812-0.558 1.397-0.96 1.336-1.442-0.031-0.242-0.218-0.427-0.556-0.549-0.859-0.31-1.83-0.922-1.849-1.305-0.008-0.172 0.264-0.329 0.428-0.407 0.596-0.285 1.111-0.321 1.452-0.345 0.309-0.021 0.574-0.039 0.682-0.289 0.121-0.281-0.095-0.567-0.521-1.086-0.22-0.267-0.438-0.514-0.638-0.74-0.342-0.388-0.768-0.869-0.793-0.98 0.003-0.003 0.087-0.071 0.488-0.085 0.257-0.009 0.515-0.010 0.764-0.011 1.010-0.005 1.806-0.009 2.12-0.487 0.155-0.237 0.154-0.541-0.002-0.907l-0.033-0.076c-0.245-0.569-0.82-1.897-0.604-2.164 0.025-0.030 0.128-0.047 0.297-0.014 0.672 0.135 1.308-0.091 1.746-0.615 0.407-0.487 0.55-1.146 0.358-1.636-0.154-0.394-0.131-0.516-0.104-0.555 0.029-0.040 0.182-0.17 0.956-0.133l0.415 0.023c0.623 0.037 1.072 0.066 1.376-0.231 0.244-0.238 0.334-0.625 0.309-1.337-0.019-0.535-0.109-0.999-0.183-1.371-0.028-0.145-0.062-0.312-0.076-0.432 0.033 0.013 0.073 0.030 0.121 0.053 0.194 0.091 0.372 0.196 0.536 0.293 0.424 0.25 0.825 0.483 1.236 0.328 0.335-0.127 0.578-0.481 0.788-1.141 0.098-0.306 0.179-0.612 0.255-0.902 0.161-0.61 0.343-1.3 0.584-1.374 0.049-0.015 0.174-0.019 0.428 0.149-0.073 0.12-0.071 0.274 0.035 0.373 0.020 0.018 1.973 1.849 3.286 3.76 1.345 1.959 2.888 5.991 2.804 7.23-0.59-0.179-1.536-0.548-2.473-1.874-0.097-0.139-0.286-0.17-0.423-0.073s-0.169 0.286-0.073 0.423c1.16 1.64 2.39 1.991 2.981 2.16 0.057 0.016 0.117 0.033 0.166 0.051 0.197 0.281 0.554 0.683 1.071 0.843 0.446 0.139 0.914 0.073 1.39-0.197 1.455-0.824 8.45-2.425 10.536-1.891 3.225 0.827 3.335 1.36 3.338 1.382-0.002 0.015-0.037 0.097-0.24 0.216zM32.466 34.844c-2.436-0.623-9.576 1.154-10.986 1.953-0.327 0.187-0.623 0.235-0.908 0.147-0.311-0.095-0.544-0.335-0.695-0.533-0.025-0.079-0.068-0.145-0.134-0.191-0.003-0.005-0.010-0.014-0.013-0.019 0.146-0.946-0.54-3.063-1.387-4.964 0.128-0.015 0.242-0.103 0.268-0.236 0.077-0.408 0.637-2.267 1.788-3.254 1.286-1.103 2.11-2.983 2.072-4.047-0.023-0.683-0.533-1.209-0.943-1.632-0.188-0.194-0.401-0.415-0.437-0.537-0.047-0.161-0.216-0.255-0.376-0.207-0.161 0.047-0.254 0.216-0.207 0.376 0.078 0.268 0.313 0.51 0.584 0.79 0.355 0.366 0.757 0.781 0.772 1.232 0 0.007-0.001 0.017-0.001 0.023-0.070-0.106-0.185-0.177-0.316-0.139-4.495 1.222-11.297-3.114-12.449-4.485-0.337-0.402-0.486-0.733-0.408-0.907 0.050-0.111 0.293-0.374 1.493-0.416 0.409-0.014 0.706-0.148 0.884-0.398 0.358-0.501 0.12-1.283-0.131-2.111-0.164-0.54-0.029-0.684 0.127-0.851 0.092-0.099 0.211-0.228 0.246-0.416 0.1-0.026 0.28-0.052 0.42-0.071 0.592-0.082 1.487-0.206 2.008-0.858 0.543-0.68 0.269-1.296 0.105-1.665-0.045-0.1-0.111-0.251-0.099-0.295 0.312-0.238 1.549 0.115 2.451 0.705 0.102 0.067 0.414 0.271 0.699 0.113 0.322-0.181 0.309-0.611 0.287-1.264-0.014-0.44-0.030-0.938 0.054-1.413 0.023-0.135 0.083-0.365 0.206-0.404 0.177-0.056 0.642 0.135 1.367 0.858 0.258 0.257 0.576 0.329 0.873 0.199 0.516-0.225 0.854-1.017 0.822-1.927-0.013-0.381 0.075-0.666 0.225-0.726 0.143-0.060 0.441 0.055 0.781 0.435 0.42 0.469 0.83 0.696 1.259 0.684 0.431-0.007 0.844-0.254 1.263-0.756 0.549-0.659 1.021-1.226 1.499-1.15 0.287 0.048 0.732 0.903 0.969 1.362 0.172 0.332 0.309 0.594 0.44 0.75 0.161 0.191 0.336 0.22 0.453 0.214 0.342-0.025 0.555-0.372 0.823-0.813 0.094-0.153 0.192-0.315 0.299-0.461l0.101-0.141c0.383-0.534 0.744-1.039 1.353-1.060 0.419-0.040 0.942 0.857 1.181 1.462-0.233-0.089-0.455-0.152-0.657-0.152-0.303 0-0.814 0.132-0.838 1.015-0.005 0.2-0.006 0.389-0.007 0.564-0.005 1.092-0.061 1.229-0.494 1.229-0.102 0-0.219-0.011-0.353-0.033-0.169-0.027-0.334-0.058-0.493-0.086-0.908-0.166-1.648-0.229-1.988 0.15-0.193 0.215-0.265 0.526-0.22 0.951l0.016 0.151c0.054 0.505 0.109 1.027 0.001 1.148-0.036 0.041-0.142 0.047-0.201 0.047-0.104 0-0.238-0.017-0.399-0.052-1.054-0.224-1.836-0.098-2.118 0.37-0.175 0.29-0.146 0.66 0.087 1.1 0.078 0.148 0.152 0.281 0.22 0.403 0.142 0.255 0.302 0.545 0.331 0.578-0.014 0.010-0.105 0.062-0.513 0.076-0.902 0.031-1.819 0.624-2.005 1.293-0.1 0.359 0.033 0.698 0.356 0.907 0.231 0.149 0.354 0.248 0.421 0.311-0.098 0.032-0.281 0.076-0.617 0.11-0.751 0.077-2.23 0.459-2.452 1.356-0.127 0.518 0.186 1.033 0.935 1.53 1.818 1.21 3.154 2.051 4.726 2.621 0.096 1.029 0.579 4.159 2.961 5.783 0.053 0.035 0.111 0.053 0.17 0.053 0.097 0 0.192-0.046 0.252-0.133 0.094-0.139 0.059-0.327-0.080-0.422-1.976-1.348-2.52-3.942-2.667-5.080 0.853 0.204 2.072 0.303 3.786 0.303 1.088 0 2.204-0.038 3.189-0.073 1.967-0.058 3.426 0.598 3.696 1.072 0.056 0.099 0.032 0.14 0.017 0.164-0.465 0.788-1.99 4.812-1.145 7.467 0.222 0.696 0.403 1.403 0.578 2.086 0.169 0.659 0.332 1.282 0.514 1.843-0.261-0.41-1.085-0.937-3.689-1.606zM55.238 26.79c0.67 0.443 1.257 0.988 1.253 1.162-0.423 0.316-1.126 0.805-1.547 1.096-0.075-0.141-0.182-0.237-0.32-0.285-0.243-0.087-0.51 0.016-0.749 0.175 0.035-0.391-0.081-0.842-0.356-1.25-0.139-0.205-0.186-0.383-0.131-0.486 0.065-0.123 0.388-0.252 0.892-0.176 0.432 0.062 0.755-0.031 0.958-0.236zM55.22 24.251c-0.966 0.034-1.292 0.046-1.404 0.365-0.106 0.315 0.191 0.563 0.605 0.907 0.354 0.294 0.485 0.621 0.427 0.779-0.044 0.116-0.218 0.135-0.318 0.135-0.052 0-0.105-0.004-0.164-0.013-0.751-0.11-1.294 0.079-1.514 0.492-0.097 0.181-0.203 0.566 0.162 1.11 0.255 0.379 0.338 0.82 0.205 1.071-0.027 0.053-0.114 0.213-0.508 0.213-0.004 0-0.006 0-0.008 0-1.296-0.077-2.042 0.588-2.089 1.906-0.023 0.623-0.361 0.94-1.008 0.94-0.303 0-0.651-0.073-1.010-0.213-0.223-0.087-0.414-0.128-0.588-0.128-0.835 0-0.919 0.892-0.987 1.609-0.016 0.164-0.031 0.333-0.055 0.5l-0.019 0.14c-0.124 0.923-0.124 0.923-0.8 0.946-0.264 0-0.568-0.058-0.861-0.111-0.302-0.058-0.612-0.115-0.898-0.115-0.448 0-0.767 0.147-0.974 0.446l-0.179 0.266c-0.372 0.56-0.836 1.256-1.357 1.275-0.205 0-0.46-0.263-0.666-0.474-0.243-0.25-0.452-0.465-0.726-0.465-0.167 0-0.396 0.083-0.541 0.478-0.169 0.458-0.785 1.954-1.634 1.954-0.137 0-0.28-0.038-0.428-0.114-0.825-0.425-1.213-1.938-1.663-3.689-0.177-0.691-0.361-1.407-0.588-2.118-0.784-2.466 0.71-6.332 1.090-6.974 0.094-0.159 0.099-0.334 0.064-0.51 0.041-0.026 0.078-0.061 0.103-0.106 0.012-0.022 1.212-2.309-1.598-4.267-0.139-0.098-0.328-0.063-0.422 0.076-0.096 0.138-0.063 0.327 0.076 0.422 1.932 1.347 1.669 2.778 1.492 3.288-0.672-0.62-2.132-1.057-3.675-1.057-0.097 0-0.195 0.001-0.295 0.005-0.98 0.034-2.090 0.073-3.167 0.073-1.821 0-3.091-0.116-3.883-0.35-0.048-0.114-0.143-0.205-0.271-0.199-0.050 0.001-0.084 0.034-0.124 0.057-1.482-0.547-2.778-1.362-4.533-2.531-0.498-0.331-0.74-0.644-0.681-0.879 0.096-0.39 0.978-0.801 1.924-0.898 0.577-0.059 1.123-0.167 1.218-0.559 0.094-0.389-0.32-0.695-0.753-0.975-0.117-0.076-0.126-0.147-0.101-0.235 0.091-0.329 0.697-0.823 1.441-0.849 0.489-0.017 0.846-0.085 1.002-0.36 0.178-0.315-0.015-0.665-0.309-1.194-0.066-0.119-0.138-0.25-0.214-0.393-0.121-0.229-0.159-0.412-0.104-0.503 0.054-0.089 0.255-0.184 0.661-0.184 0.236 0 0.516 0.032 0.811 0.095 0.604 0.128 0.95 0.069 1.178-0.183 0.29-0.323 0.235-0.839 0.151-1.619l-0.016-0.15c-0.024-0.234-0.001-0.405 0.067-0.482 0.145-0.157 0.756-0.081 1.429 0.041 0.163 0.029 0.331 0.060 0.504 0.088 0.171 0.028 0.321 0.041 0.45 0.041 1.093 0 1.096-0.891 1.101-1.834 0.001-0.171 0.001-0.354 0.007-0.549 0.012-0.425 0.144-0.425 0.231-0.425 0.311 0 0.849 0.284 1.325 0.535 0.229 0.12 0.456 0.241 0.67 0.338 0.168 0.077 0.329 0.115 0.479 0.115 0.849 0 1.043-1.075 1.199-1.94 0.040-0.223 0.078-0.436 0.126-0.614 0.012-0.045 0.023-0.069 0.025-0.076 0.216 0.006 0.758 0.45 1.155 0.775 0.287 0.235 0.583 0.477 0.863 0.666 0.274 0.185 0.496 0.271 0.698 0.271 0.548 0 0.696-0.554 0.84-1.088 0.062-0.23 0.132-0.49 0.233-0.735 0.123-0.297 0.295-0.336 0.433-0.336 0.223 0 0.474 0.122 0.602 0.198 0.268 0.508 2.089 4.315 1.184 12.217-0.004 0.032 0.009 0.060 0.007 0.092-1.081-0.892-1.717-2.157-1.724-2.173-0.074-0.152-0.257-0.214-0.406-0.141-0.151 0.073-0.214 0.255-0.141 0.406 0.042 0.088 1.068 2.172 2.87 3.023 0.041 0.020 0.086 0.029 0.13 0.029 0.004 0 0.008-0.003 0.012-0.003 0.615 0.309 1.625 0.451 3.148 0.451 0.001 0 0.001 0 0.001 0 0.91 0 1.879-0.049 2.818-0.095 0.486-0.024 0.957-0.048 1.4-0.063 0.361-0.012 0.719 0.010 1.074 0.050 0.494 0.174 1.095 0.301 1.789 0.381 1.408 0.435 2.721 1.122 3.856 1.723 0.471 0.249 0.913 0.484 1.328 0.683 0.599 0.288 0.73 0.509 0.711 0.594-0.059 0.277-1.021 0.672-1.968 0.705zM71.211 32.303c-0.547 0.126-1.334 0.158-2.399-0.065 0.089-0.080 0.141-0.191 0.097-0.311-0.012-0.033-0.105-0.275-0.288-0.636 0.5-0.262 0.998-0.819 1.081-1.592 0.099-0.918 0.524-1.183 0.728-1.31 0.029-0.019 0.058-0.036 0.085-0.055 0.235-0.030 1.12-0.018 2.051 0.015-1.113 1.772-1.327 3.256-1.354 3.953zM73.415 27.175c-0.044-0.524-0.029-1.069 0.124-1.322 0.128-0.21 0.682-0.194 1.215-0.089-0.522 0.477-0.958 0.948-1.34 1.411zM75.33 25.278c-0.545-0.159-1.876-0.457-2.31 0.261-0.334 0.55-0.235 1.629-0.148 2.213-2.536-0.103-2.625-0.006-2.763 0.122-0.265 0.164-0.879 0.548-1.010 1.76-0.060 0.553-0.401 0.875-0.599 1.019-0.065 0.048-0.122 0.075-0.18 0.104-0.62-1.022-1.777-2.477-3.7-3.385-2.698-1.272-6.631-2.655-7.525-2.965 0.35-0.182 0.62-0.425 0.688-0.742 0.097-0.46-0.255-0.886-1.043-1.266-0.407-0.196-0.844-0.427-1.306-0.672-0.67-0.355-1.406-0.738-2.182-1.086 1.632-0.005 3.552-0.192 5.63-0.571 2.322-0.423 3.411-1.015 3.324-1.808-0.081-0.757-1.261-1.204-1.789-1.212 0.15-0.243 0.611-0.709 1.253-1.091 0.56-0.333 0.824-0.696 0.788-1.081-0.041-0.44-0.454-0.797-1.261-1.094-0.379-0.139-0.409-0.242-0.409-0.243-0.033-0.145 0.394-0.6 0.738-0.966l0.269-0.287c0.502-0.545 0.458-0.987 0.332-1.262-0.278-0.611-1.178-0.895-1.992-0.879-0.174 0.006-0.367 0.013-0.471 0.002 0.027-0.208 0.247-0.743 0.516-1.402 0.415-1.017 0.475-1.362 0.276-1.607-0.184-0.23-0.481-0.177-0.767-0.127-0.139 0.024-0.305 0.055-0.485 0.061-0.439 0.015-0.654-0.025-0.759-0.142-0.147-0.163-0.176-0.569-0.085-1.206 0.067-0.476-0.012-0.808-0.239-1.015-0.377-0.344-0.992-0.198-1.644-0.044-0.342 0.081-0.697 0.165-1.004 0.175-0.062 0.002-0.101-0.001-0.131-0.004 0.031-0.137 0.174-0.408 0.28-0.613 0.145-0.277 0.305-0.598 0.423-0.936 0.075-0.034 0.137-0.093 0.164-0.178 0.143-0.456 0.313-0.715 0.52-0.789 0.247-0.091 0.653 0.046 1.236 0.421 0.512 0.328 0.947 0.426 1.336 0.299 0.597-0.198 0.896-0.877 1.172-1.615 0.184-0.487 0.322-0.527 0.338-0.529 0.112-0.011 0.359 0.17 0.734 0.574 0.775 0.839 1.551 1.198 2.814 0.225 0.392-0.301 0.632-0.558 0.79-0.728 0.044-0.047 0.091-0.097 0.128-0.134 0.040 0.031 0.103 0.095 0.202 0.206 0.396 0.44 1.002 1.022 1.615 0.958 0.336-0.032 0.618-0.236 0.84-0.605 0.118-0.197 0.239-0.227 0.344-0.21 0.429 0.025 1.026 0.63 1.253 1.133 0.249 0.554 0.479 0.922 0.856 1.051 0.274 0.092 0.579 0.044 0.96-0.159l0.274-0.15c0.597-0.329 1.273-0.702 1.702-0.477 0.439 0.232 0.344 0.817 0.346 0.817-0.012 0.045-1.298 4.463-2.725 5.904-0.527 0.532-1.881 1.238-3.192 1.919-2.48 1.292-3.994 2.139-4.069 2.998-0.016 0.189 0.031 0.465 0.35 0.71 0.715 0.548 1.919 0.957 3.194 1.391 1.621 0.551 3.457 1.176 4.28 2.138 0.373 0.434 0.873 0.978 1.412 1.561 1.2 1.299 3.429 3.719 3.338 4.222-0.060 0.101-0.033 0.21 0.023 0.302-0.339 0.244-0.66 0.487-0.954 0.732z"></path>
<path fill="#444444" d="M69.219 34.674c3.779 0 6.337-1.234 6.463-1.295 0.15-0.074 0.211-0.257 0.139-0.407-0.075-0.15-0.257-0.209-0.407-0.139-0.035 0.018-3.563 1.727-8.37 1.092-0.176-0.015-0.318 0.096-0.342 0.262-0.021 0.166 0.097 0.319 0.263 0.341 0.787 0.102 1.542 0.146 2.254 0.146z"></path>
<path fill="#444444" d="M65.272 36.974c0.054 0.104 0.16 0.163 0.269 0.163 0.048 0 0.095-0.011 0.141-0.033 5.255-2.73 9.926-0.383 9.972-0.358 0.147 0.075 0.33 0.019 0.409-0.131 0.077-0.148 0.018-0.332-0.131-0.409-0.201-0.104-4.983-2.521-10.532 0.358-0.149 0.078-0.205 0.261-0.128 0.41z"></path>
<path fill="#444444" d="M70.81 37.087c-0.792 0.055-1.491 0.515-2.078 1.37-0.095 0.139-0.062 0.327 0.077 0.422 0.054 0.036 0.112 0.054 0.172 0.054 0.097 0 0.191-0.046 0.251-0.132 0.477-0.694 1.020-1.068 1.617-1.109 1.117-0.092 2.093 0.986 2.103 0.995 0.114 0.123 0.305 0.131 0.429 0.020 0.124-0.112 0.133-0.305 0.020-0.429-0.049-0.052-1.187-1.304-2.592-1.191z"></path>
<path fill="#444444" d="M37.862 19.898c-2.459-0.991-5.789-2.689-5.823-2.706-0.146-0.076-0.332-0.018-0.408 0.133-0.076 0.149-0.017 0.332 0.133 0.408 0.033 0.017 3.387 1.727 5.871 2.728 2.318 0.935 3.199 5.313 3.207 5.357 0.028 0.145 0.155 0.245 0.297 0.245 0.019 0 0.039-0.001 0.059-0.005 0.165-0.032 0.272-0.191 0.24-0.356-0.038-0.193-0.953-4.745-3.576-5.803z"></path>
<path fill="#444444" d="M21.034 39.173c0.056 0.074 0.144 0.121 0.243 0.121 0.003 0 0.007 0 0.010 0 0.168-0.006 0.299-0.147 0.293-0.315-0.014-0.411-0.448-0.421-0.909-0.431-1.114-0.025-3.432-0.079-5.886-2.983-0.108-0.13-0.3-0.144-0.428-0.036-0.127 0.108-0.144 0.301-0.035 0.428 0.745 0.881 1.484 1.512 2.192 1.971-1.244-0.479-2.753-0.733-4.571-0.558-0.167 0.017-0.289 0.165-0.273 0.332 0.017 0.166 0.17 0.295 0.332 0.273 6.764-0.674 8.913 4.839 9.001 5.074 0.046 0.122 0.162 0.197 0.284 0.197 0.035 0 0.071-0.006 0.106-0.019 0.157-0.060 0.237-0.233 0.178-0.391-0.015-0.039-0.978-2.506-3.524-4.129 1.122 0.412 2.053 0.434 2.61 0.446 0.138 0.004 0.29 0.007 0.376 0.018z"></path>
<path fill="#444444" d="M51.645 36.535c0.133-0.101 0.158-0.291 0.058-0.425-0.103-0.134-0.29-0.158-0.425-0.059-0.016 0.012-1.506 1.128-4.312 2.046-3.070 1.004-6.185 2.215-7.586 4.98l-0.517 1.024c-0.999 1.98-2.131 4.227-2.506 4.436-0.147 0.082-0.198 0.267-0.116 0.413 0.056 0.1 0.159 0.155 0.265 0.155 0.050 0 0.101-0.012 0.148-0.038 0.512-0.286 1.337-1.887 2.751-4.693l0.516-1.022c1.296-2.556 4.284-3.713 7.234-4.677 2.911-0.951 4.427-2.091 4.49-2.139z"></path>
<path fill="#444444" d="M42.211 43.555c-0.060 0.157 0.019 0.332 0.175 0.393 0.035 0.014 0.072 0.020 0.108 0.020 0.122 0 0.237-0.074 0.283-0.194 0.572-1.499 2.284-1.247 2.359-1.236 0.16 0.025 0.32-0.087 0.347-0.252s-0.086-0.32-0.251-0.347c-0.785-0.127-2.422 0.047-3.022 1.616z"></path>
</svg>
