<?xml version="1.0" encoding="utf-8"?>
<!-- Generated by IcoMoon.io -->
<!DOCTYPE svg PUBLIC "-//W3C//DTD SVG 1.1//EN" "http://www.w3.org/Graphics/SVG/1.1/DTD/svg11.dtd">
<svg version="1.1" xmlns="http://www.w3.org/2000/svg" xmlns:xlink="http://www.w3.org/1999/xlink" width="188" height="60" viewBox="0 0 188 60">
<path fill="#444444" d="M7.941 60c-2.282 0-4.14-0.313-5.546-0.938-1.166-0.519-1.974-1.753-2.276-3.476-0.309-1.764-0.002-3.673 0.699-4.346v0c0.493-0.471 3.176-2.936 7.68-5.164 3.334-1.65 6.859-2.771 10.478-3.336 4.727-0.735 8.436-1.177 11.415-1.53 3.45-0.411 5.73-0.683 6.898-1.112 0.735-0.272 1.909-0.936 3.268-1.703 0.339-0.193 0.69-0.39 1.046-0.591v-0.15c0.004-1.288 0.013-3.686 0.645-6.135 0.952-3.692 2.94-6.011 5.904-6.898 0.613-0.219 5.901-1.586 14.162-3.664 1.806-0.454 3.806-0.816 5.927-1.196 2.323-0.418 4.723-0.853 7.157-1.455 3.009-0.746 6.049-1.631 9.268-2.569 3.527-1.027 7.172-2.089 10.937-3.006 5.642-1.374 11.357-2.754 16.875-4.073 2.689-0.641 5.424-1.072 8.068-1.489 2.426-0.383 4.718-0.742 6.877-1.245 3.437-0.799 6.606-1.738 9.401-2.565 2.719-0.804 5.066-1.5 7.202-1.95 4.811-1.012 7.478-1.47 8.171-1.399 4.455 0.471 9.789 5.518 10.989 8.057 0.493-0.127 1.659-0.699 2.886-1.301l0.983-0.48c2.477-1.204 5.316-2.494 7.588-2.923 1.097-0.208 2.809-0.482 4.725-0.598 2.955-0.182 6.714-0.004 7.793 1.883l0.218 0.377c0.917 1.588 1.421 2.464 0.454 3.849-0.317 0.454-0.803 0.975-1.528 1.641-1.573 1.44-3.945 2.929-6.345 3.981-0.585 0.257-1.166 0.585-1.729 0.904-0.958 0.542-1.862 1.054-2.649 1.119-1.138 0.094-2.961 0.182-4.723 0.268-2.032 0.098-4.534 0.219-5.049 0.323 0.135 1.551 0.062 3.156-0.362 4.714-1.575 5.784-3.945 7.342-7.382 9.060-0.808 0.405-6.242 2.040-16.614 5.001-1.967 0.563-3.906 1.301-5.961 2.083-2.342 0.892-4.764 1.815-7.492 2.58-2.987 0.838-6.18 1.523-9.561 2.246-3.311 0.709-6.739 1.442-9.966 2.336-2.636 0.731-5.25 1.637-7.777 2.514-2.492 0.863-5.070 1.757-7.599 2.453-6.227 1.714-12.156 3.103-17.385 4.329-3.876 0.908-7.221 1.691-9.994 2.443-4.941 1.339-7.714 2.078-8.25 2.201-0.677 0.276-1.534 0.439-2.522 0.396-2.196-0.107-6.403-1.386-9.983-8.723-1.515-0.195-3.487-0.366-4.972 0.021-1.159 0.304-4.119 1.519-7.252 2.807-1.080 0.443-2.196 0.902-3.294 1.346-1.275 0.516-2.604 1.138-3.891 1.74-1.753 0.821-3.266 1.528-4.239 1.779-2.479 0.637-6.801 1.2-11.563 1.506-0.626 0.041-1.228 0.060-1.804 0.060zM3.171 58.802c1.635 0.579 3.831 0.784 6.54 0.611 4.732-0.304 9.019-0.859 11.466-1.489 0.926-0.238 2.49-0.971 4.148-1.747 1.292-0.604 2.627-1.23 3.915-1.751 1.097-0.444 2.214-0.902 3.292-1.346 3.289-1.35 6.128-2.518 7.322-2.829 1.933-0.504 4.579-0.124 6.159 0.103 0.497 0.071 1.011 0.144 1.123 0.128 3.199-0.801 5.599-1.65 5.837-2.068 0.988-1.729 1.251-3.962 0.776-6.639-0.049-0.277-0.107-0.548-0.171-0.808-0.818-3.283-2.865-5.323-5.344-5.323-1.747 0-4.892 1.779-7.417 3.21-1.378 0.78-2.569 1.453-3.345 1.738-1.226 0.452-3.531 0.726-7.018 1.142-2.976 0.354-6.677 0.795-11.396 1.528-3.566 0.555-7.041 1.661-10.324 3.287-3.718 1.841-6.171 3.836-7.149 4.706 1.146 0.319 2.46 1.453 2.88 2.377 0.384 0.846 0.418 2.509-0.188 3.833-0.274 0.596-0.651 1.052-1.104 1.341zM45.587 50.824c3.424 6.812 7.329 8.010 9.377 8.109 0.908 0.045 1.712-0.112 2.334-0.371v-0.002c0.002 0 0.004 0 0.008 0 0.581-0.244 1.005-0.576 1.211-0.917 1.363-2.241 2.271-5.338 2.623-8.961 0.073-0.761 0.158-1.487 0.238-2.188 0.343-3 0.639-5.589-0.066-8.559-0.090-0.377-0.501-1.208-0.863-1.939-0.317-0.639-0.617-1.245-0.728-1.59-3.467-10.744-9.615-9.825-11.415-9.287-2.779 0.829-4.646 3.024-5.55 6.529-0.592 2.297-0.622 4.566-0.626 5.859 2.214-1.219 4.586-2.394 6.103-2.394 2.734 0 4.976 2.194 5.854 5.724 0.069 0.272 0.127 0.555 0.178 0.846 0.495 2.801 0.212 5.153-0.838 6.99-0.448 0.788-4.056 1.789-6.165 2.318-0.182 0.047-0.517 0-1.328-0.116-0.112-0.017-0.229-0.034-0.351-0.051zM1.112 51.697c-0.465 0.566-0.759 2.162-0.473 3.795 0.152 0.876 0.6 2.417 1.883 3.045 0.671-0.238 1.063-0.829 1.275-1.296 0.536-1.172 0.514-2.674 0.188-3.396-0.396-0.868-1.877-2.064-2.871-2.151zM51.251 24.317c3.806 0.435 7.043 3.939 8.976 9.928 0.099 0.308 0.403 0.923 0.697 1.519 0.392 0.793 0.799 1.614 0.902 2.049 0.726 3.058 0.426 5.693 0.075 8.741-0.081 0.697-0.163 1.421-0.236 2.179-0.36 3.701-1.294 6.877-2.698 9.184-0.054 0.090-0.122 0.18-0.199 0.268 1.17-0.309 3.225-0.859 6.804-1.83 2.781-0.752 6.131-1.538 10.011-2.447 5.226-1.226 11.151-2.614 17.366-4.324 2.511-0.692 5.081-1.583 7.566-2.443 2.537-0.879 5.16-1.787 7.811-2.524 3.242-0.898 6.675-1.633 9.994-2.344 3.373-0.722 6.559-1.404 9.529-2.239 2.706-0.758 5.117-1.676 7.448-2.565 2.064-0.788 4.014-1.53 6.004-2.098 10.194-2.91 15.754-4.582 16.522-4.967 3.309-1.654 5.591-3.154 7.11-8.726 1.316-4.832-0.825-10.011-1.974-12.791l-0.18-0.435c-0.969-2.37-6.249-7.459-10.639-7.922-0.424-0.045-2.162 0.161-8.008 1.391-2.115 0.444-4.453 1.136-7.161 1.939-2.803 0.831-5.979 1.77-9.431 2.572-2.177 0.506-4.479 0.868-6.915 1.253-2.636 0.414-5.361 0.844-8.031 1.481-5.518 1.316-11.231 2.698-16.871 4.073-3.752 0.913-7.393 1.974-10.914 3-3.225 0.939-6.27 1.826-9.289 2.574-2.449 0.607-4.86 1.042-7.191 1.462-2.111 0.381-4.104 0.741-5.891 1.191-4.849 1.217-8.728 2.207-11.192 2.85zM163.391 8.552l0.054 0.135c0.713 1.725 1.929 4.669 2.306 7.899 0.529-0.096 1.817-0.171 5.076-0.33 1.759-0.084 3.576-0.174 4.706-0.266 0.671-0.056 1.526-0.54 2.434-1.054 0.574-0.324 1.168-0.662 1.777-0.928 2.349-1.029 4.665-2.481 6.199-3.885 0.698-0.639 1.159-1.134 1.453-1.554 0.778-1.112 0.411-1.748-0.476-3.285l-0.219-0.381c-0.735-1.286-3.326-1.858-7.303-1.618-1.888 0.116-3.576 0.384-4.661 0.591-2.211 0.418-5.010 1.689-7.455 2.88l-0.981 0.478c-1.449 0.714-2.368 1.159-2.91 1.316z"></path>
</svg>
