<?xml version="1.0" encoding="utf-8"?>
<!-- Generated by IcoMoon.io -->
<!DOCTYPE svg PUBLIC "-//W3C//DTD SVG 1.1//EN" "http://www.w3.org/Graphics/SVG/1.1/DTD/svg11.dtd">
<svg version="1.1" xmlns="http://www.w3.org/2000/svg" xmlns:xlink="http://www.w3.org/1999/xlink" width="56" height="60" viewBox="0 0 56 60">
<path fill="#444444" d="M33.467 49.151c-0.096 0-0.189-0.026-0.268-0.077-0.142-0.094-0.214-0.253-0.195-0.437 0.024-0.246 0.246-0.441 0.45-0.506 0.146-0.049 0.274-0.024 0.351 0.064 0.058 0.066 0.079 0.156 0.058 0.264 0.064 0.015 0.112 0.071 0.114 0.139 0.008 0.214-0.086 0.39-0.255 0.486-0.079 0.045-0.169 0.066-0.257 0.066zM33.572 48.409c-0.030 0.006-0.079 0.024-0.133 0.064-0.079 0.056-0.131 0.131-0.137 0.197-0.008 0.073 0.013 0.128 0.060 0.157 0.058 0.039 0.148 0.039 0.216 0 0.038-0.021 0.064-0.052 0.083-0.090-0.019-0.002-0.038-0.006-0.054-0.013-0.075-0.034-0.107-0.122-0.073-0.197 0.026-0.056 0.036-0.094 0.039-0.116z"></path>
<path fill="#444444" d="M31.641 47.925c-0.052 0-0.109-0.011-0.171-0.038-0.043-0.017-0.075-0.052-0.088-0.096-0.036-0.118-0.004-0.195 0.030-0.24 0.068-0.092 0.178-0.126 0.383-0.086 0.073 0.013 0.126 0.077 0.122 0.152-0.008 0.227-0.146 0.308-0.276 0.308z"></path>
<path fill="#444444" d="M33.651 41.934c-0.058 0-0.109-0.017-0.148-0.062-0.043-0.047-0.079-0.133-0.004-0.27 0.039-0.073 0.131-0.098 0.203-0.058 0.026 0.015 0.047 0.036 0.060 0.060 0.022-0.009 0.051-0.021 0.084-0.034 0.077-0.034 0.163 0.002 0.197 0.077s-0.002 0.163-0.077 0.197c-0.112 0.049-0.221 0.092-0.313 0.092z"></path>
<path fill="#444444" d="M28.832 45.709c-0.075 0-0.141-0.056-0.148-0.133-0.019-0.178 0.032-0.351 0.15-0.501 0.041-0.052 0.113-0.071 0.176-0.045 0.094 0.039 0.311 0.133 0.285 0.311-0.021 0.135-0.157 0.188-0.313 0.216 0.002 0.077-0.056 0.143-0.133 0.152-0.006 0-0.011 0-0.015 0z"></path>
<path fill="#444444" d="M30.328 36.859c-0.023 0-0.043-0.004-0.066-0.015-0.086-0.041-0.313-0.152-0.283-0.339 0.028-0.178 0.253-0.231 0.446-0.257 0.086-0.008 0.157 0.047 0.169 0.128 0.006 0.047-0.011 0.092-0.041 0.124 0.023 0.045 0.021 0.097-0.008 0.142l-0.092 0.146c-0.028 0.045-0.077 0.069-0.126 0.069z"></path>
<path fill="#444444" d="M7.343 10.854c-1.566 0-3.291-0.212-3.692-1.155-0.139-0.326-0.124-0.637 0.047-0.922 0.671-1.125 3.564-1.453 4.138-1.508 0.041-0.004 0.082 0.009 0.112 0.036 0.024-0.019 0.054-0.030 0.086-0.030 1.451-0.030 2.526 0.116 3.739 0.954 0.489 0.337 0.684 0.699 0.583 1.078-0.234 0.87-1.969 1.376-2.801 1.442-0.517 0.041-1.341 0.107-2.214 0.107zM7.941 7.539c-0.021 0.017-0.047 0.026-0.075 0.030-1.513 0.142-3.444 0.585-3.906 1.361-0.12 0.201-0.129 0.414-0.030 0.651 0.54 1.269 4.348 0.966 5.599 0.866 0.902-0.071 2.37-0.594 2.539-1.219 0.066-0.242-0.092-0.493-0.463-0.752-1.151-0.795-2.141-0.928-3.561-0.9-0.041 0.004-0.075-0.013-0.101-0.036z"></path>
<path fill="#444444" d="M6.021 14.518c-1.999 0-2.505-0.731-2.623-1.206-0.137-0.546 0.161-1.082 0.527-1.238 0.107-0.047 0.332-0.143 0.354-0.184 0.006-0.015-0.006-0.082-0.013-0.135-0.019-0.118-0.049-0.298-0.039-0.566 0.011-0.352-0.146-0.544-0.328-0.765-0.186-0.227-0.397-0.484-0.382-0.915 0.004-0.084 0.075-0.15 0.156-0.146 0.084 0.004 0.148 0.073 0.146 0.156-0.011 0.319 0.139 0.501 0.313 0.713 0.193 0.236 0.413 0.502 0.396 0.967-0.009 0.24 0.017 0.396 0.036 0.508 0.058 0.362-0.032 0.435-0.519 0.645-0.218 0.094-0.456 0.476-0.353 0.887 0.088 0.356 0.576 1.157 3.146 0.941 0.669-0.056 1.273-0.101 1.813-0.141 2.826-0.206 3.72-0.311 3.748-1.129 0.024-0.697-0.186-0.951-0.388-1.198-0.127-0.156-0.259-0.315-0.319-0.561-0.15-0.621 0.304-1.764 0.322-1.813 0.032-0.077 0.12-0.114 0.197-0.084s0.114 0.118 0.084 0.197c-0.122 0.304-0.416 1.191-0.309 1.629 0.043 0.18 0.142 0.3 0.259 0.441 0.217 0.262 0.486 0.589 0.457 1.401-0.039 1.127-1.207 1.213-4.028 1.419-0.54 0.039-1.142 0.084-1.809 0.141-0.306 0.026-0.585 0.037-0.84 0.037z"></path>
<path fill="#444444" d="M9.821 39.767c-1.594 0-3.201-0.156-4.729-0.465-2.325-0.471-4.215-1.256-4.817-2.001-0.808-0.999 0.294-9.092 1.605-17.687 0.18-1.177 0.309-2.029 0.353-2.383 0.229-1.933 0.283-2.393 1.627-3.437 0.066-0.051 0.161-0.039 0.212 0.026s0.039 0.161-0.026 0.212c-1.245 0.967-1.286 1.314-1.513 3.234-0.043 0.358-0.173 1.211-0.353 2.393-0.684 4.491-2.505 16.419-1.669 17.453 1.054 1.301 7.011 3.107 13.196 2.027 2.76-0.48 3.514-2.19 3.606-2.428-0.098-0.917-2.036-18.951-2.897-20.914-0.452-1.033-0.96-1.238-1.369-1.403-0.366-0.148-0.711-0.287-0.686-0.996 0.004-0.084 0.058-0.15 0.156-0.146 0.084 0.004 0.148 0.073 0.146 0.156-0.017 0.499 0.144 0.563 0.497 0.705 0.435 0.174 1.029 0.414 1.532 1.56 0.898 2.048 2.842 20.263 2.923 21.037 0.002 0.021 0 0.041-0.007 0.062-0.028 0.086-0.709 2.113-3.853 2.661-1.268 0.219-2.597 0.33-3.938 0.33z"></path>
<path fill="#444444" d="M2.212 36.289c-0.004 0-0.009 0-0.013 0-0.083-0.008-0.144-0.081-0.137-0.163 0.013-0.154 1.343-15.48 1.564-17.231 0.216-1.719 0.411-2.799 1.311-3.3 0.073-0.039 0.165-0.015 0.204 0.058s0.013 0.165-0.058 0.204c-0.748 0.416-0.936 1.299-1.159 3.073-0.219 1.746-1.549 17.066-1.562 17.22-0.007 0.079-0.073 0.137-0.15 0.137z"></path>
<path fill="#444444" d="M14.608 36.399c-0.075 0-0.141-0.056-0.15-0.133-0.015-0.128-1.494-12.846-2.166-16.376-0.651-3.426-0.651-3.426-1.65-3.966l-0.073-0.039c-0.073-0.039-0.101-0.131-0.060-0.204s0.131-0.101 0.204-0.060l0.073 0.039c1.103 0.596 1.136 0.675 1.802 4.174 0.673 3.54 2.154 16.269 2.169 16.399 0.009 0.083-0.051 0.157-0.133 0.167-0.006 0.002-0.011 0.002-0.019 0.002z"></path>
<path fill="#444444" d="M5.203 37.046c-0.002 0-0.002 0-0.004 0-0.084-0.002-0.15-0.071-0.148-0.154 0.167-7.371 0.641-19.888 1.929-20.889 0.066-0.053 0.161-0.039 0.212 0.026s0.039 0.161-0.026 0.212c-0.321 0.249-1.399 2.475-1.813 20.657-0.002 0.082-0.069 0.148-0.15 0.148z"></path>
<path fill="#444444" d="M5.526 8.792c-0.133 0-0.253-0.037-0.274-0.043-0.047-0.015-0.082-0.051-0.098-0.098-0.004-0.009-0.006-0.019-0.006-0.026-0.002-0.004-0.004-0.006-0.006-0.009-0.039-0.073-0.011-0.165 0.064-0.204 0.178-0.094 0.377-0.114 0.576-0.060 0.064 0.019 0.109 0.075 0.111 0.143 0.002 0.094-0.037 0.174-0.109 0.229s-0.167 0.071-0.257 0.071z"></path>
<path fill="#444444" d="M6.313 9.33c-0.064 0-0.128-0.017-0.184-0.036-0.051 0.024-0.111 0.021-0.158-0.015-0.066-0.051-0.079-0.146-0.028-0.212 0.032-0.043 0.071-0.079 0.113-0.105 0 0 0 0 0 0 0.022-0.022 0.077-0.049 0.143-0.052 0.092-0.015 0.195 0 0.306 0.045 0.075 0.032 0.113 0.116 0.084 0.193-0.028 0.073-0.079 0.129-0.148 0.159-0.041 0.019-0.084 0.024-0.127 0.024z"></path>
<path fill="#444444" d="M8.184 8.719c-0.041 0-0.081-0.004-0.118-0.015-0.049-0.013-0.086-0.049-0.103-0.092-0.039-0.019-0.069-0.052-0.081-0.097-0.026-0.101 0-0.199 0.073-0.264 0.18-0.163 0.581-0.071 0.671-0.039 0.077 0.028 0.118 0.113 0.092 0.189-0.066 0.195-0.319 0.317-0.532 0.317z"></path>
<path fill="#444444" d="M7.558 9.401c-0.047 0-0.090-0.021-0.118-0.058s-0.039-0.086-0.026-0.131c0.019-0.073 0.064-0.126 0.124-0.154 0.009-0.022 0.024-0.045 0.045-0.062 0.064-0.052 0.159-0.043 0.212 0.022 0.015 0.017 0.028 0.026 0.041 0.028 0.017-0.002 0.036-0.002 0.054 0 0.079 0.004 0.141 0.067 0.142 0.144s-0.054 0.146-0.131 0.156c-0.022 0.002-0.045 0.004-0.066 0.004-0.026 0.004-0.054 0.011-0.086 0.019-0.054 0.015-0.116 0.030-0.189 0.032-0.002 0-0.002 0-0.002 0z"></path>
<path fill="#444444" d="M9.229 9.557c-0.051 0-0.099-0.009-0.148-0.026-0.060-0.022-0.097-0.079-0.097-0.143 0-0.096 0.041-0.18 0.114-0.234 0.069-0.051 0.163-0.071 0.255-0.056 0.071-0.007 0.143 0.006 0.212 0.039 0.043 0.021 0.073 0.058 0.084 0.105s-0.002 0.094-0.034 0.129c-0.103 0.12-0.246 0.186-0.386 0.186z"></path>
<path fill="#444444" d="M10.397 8.955c-0.030 0-0.058-0.004-0.088-0.013s-0.054-0.026-0.073-0.047c-0.017 0.011-0.034 0.021-0.051 0.030-0.075 0.036-0.165 0.006-0.202-0.069s-0.006-0.165 0.069-0.202c0.013-0.006 0.039-0.028 0.062-0.045 0.090-0.071 0.257-0.206 0.439-0.088 0.124 0.079 0.139 0.199 0.101 0.283-0.043 0.094-0.148 0.15-0.259 0.15z"></path>
<path fill="#444444" d="M6.358 10.251c-0.118 0-0.208-0.073-0.231-0.191-0.013-0.064 0.017-0.129 0.073-0.161 0.122-0.069 0.354-0.137 0.514-0.047 0.049 0.026 0.077 0.079 0.077 0.135s-0.032 0.105-0.081 0.131l-0.037 0.021c-0.086 0.047-0.204 0.112-0.315 0.112z"></path>
<path fill="#444444" d="M4.596 9.551c-0.037 0-0.079-0.006-0.12-0.021-0.039-0.015-0.071-0.043-0.086-0.082s-0.017-0.081 0-0.12c0.056-0.129 0.174-0.204 0.353-0.223 0.060-0.008 0.122 0.026 0.148 0.079 0.071 0.009 0.126 0.069 0.129 0.142 0.004 0.081-0.056 0.148-0.135 0.158-0.028 0.004-0.060 0.015-0.094 0.026-0.053 0.019-0.12 0.041-0.195 0.041z"></path>
<path fill="#444444" d="M36.392 31.783c-1.296 0-3.161-0.996-3.581-1.228-0.037-0.021-0.062-0.054-0.073-0.094-0.030 0-0.062-0.006-0.088-0.024-1.211-0.797-2.016-1.526-2.541-2.904-0.212-0.555-0.169-0.966 0.129-1.219 0.686-0.583 2.402-0.019 3.126 0.399 1.26 0.726 4.59 2.644 4.273 4.209-0.071 0.347-0.259 0.594-0.563 0.733-0.195 0.090-0.428 0.128-0.682 0.128zM32.884 30.272c0.024 0 0.051 0.006 0.073 0.019 1.327 0.739 3.169 1.47 3.99 1.091 0.214-0.098 0.341-0.268 0.392-0.519 0.274-1.352-3.036-3.259-4.123-3.885-0.786-0.452-2.291-0.853-2.784-0.433-0.189 0.161-0.204 0.459-0.043 0.881 0.499 1.309 1.237 1.978 2.424 2.76 0.032 0.021 0.052 0.052 0.064 0.088 0.002 0 0.004 0 0.006 0z"></path>
<path fill="#444444" d="M37.519 31.219c-0.032 0-0.064-0.009-0.090-0.030-0.068-0.051-0.081-0.144-0.032-0.212 0.189-0.255 0.169-0.491 0.146-0.765-0.026-0.304-0.054-0.649 0.221-1.022 0.143-0.193 0.21-0.336 0.259-0.439 0.157-0.332 0.274-0.339 0.793-0.238 0.231 0.045 0.643-0.135 0.793-0.533 0.128-0.343 0.184-1.279-2.061-2.558-0.583-0.332-1.104-0.637-1.571-0.909-2.445-1.431-3.244-1.852-3.731-1.194-0.414 0.561-0.386 0.891-0.358 1.208 0.017 0.199 0.036 0.405-0.054 0.643-0.229 0.598-1.249 1.282-1.292 1.311-0.068 0.045-0.163 0.028-0.21-0.043s-0.028-0.163 0.043-0.21c0.274-0.182 1.016-0.746 1.177-1.166 0.066-0.173 0.052-0.328 0.036-0.508-0.030-0.339-0.068-0.761 0.416-1.414 0.671-0.906 1.682-0.315 4.125 1.114 0.467 0.272 0.986 0.576 1.567 0.908 2.357 1.342 2.385 2.409 2.194 2.925-0.197 0.527-0.744 0.801-1.134 0.722-0.114-0.023-0.354-0.069-0.396-0.049-0.013 0.009-0.043 0.071-0.066 0.12-0.051 0.109-0.128 0.272-0.289 0.489-0.21 0.283-0.188 0.531-0.163 0.818 0.024 0.292 0.052 0.623-0.204 0.969-0.030 0.041-0.075 0.062-0.122 0.062z"></path>
<path fill="#444444" d="M39.771 27.429c-0.079 0-0.146-0.062-0.152-0.143-0.006-0.084 0.058-0.154 0.142-0.159 1.573-0.092 1.804-0.354 3.081-1.809 0.238-0.272 0.829-0.902 1.648-1.774 3.107-3.313 11.362-12.113 11.259-13.434-0.131-1.669-4.020-6.531-9.727-9.144-2.522-1.155-4.519-0.465-4.847-0.336-0.514 1.026-8.559 17.076-8.959 19.17-0.212 1.108 0.090 1.564 0.334 1.929 0.218 0.328 0.424 0.639 0.002 1.211-0.051 0.068-0.144 0.081-0.212 0.032s-0.081-0.144-0.032-0.21c0.296-0.401 0.201-0.546-0.009-0.864-0.259-0.39-0.613-0.924-0.379-2.154 0.42-2.192 8.663-18.602 9.013-19.299 0.015-0.030 0.041-0.054 0.071-0.069 0.092-0.041 2.265-1.003 5.145 0.315 2.561 1.174 5.070 2.955 7.065 5.019 1.648 1.704 2.762 3.422 2.837 4.376 0.099 1.281-5.391 7.324-11.34 13.665-0.816 0.87-1.406 1.498-1.641 1.766-1.284 1.464-1.59 1.811-3.289 1.911-0.004 0-0.006 0-0.009 0z"></path>
<path fill="#444444" d="M40.084 25.343c-0.054 0-0.112-0.002-0.169-0.008-0.083-0.008-0.144-0.081-0.137-0.165s0.073-0.146 0.165-0.137c0.859 0.081 1.508-0.542 2.694-1.877 1.17-1.314 10.942-13.187 11.042-13.307 0.053-0.064 0.148-0.073 0.212-0.021s0.073 0.148 0.021 0.212c-0.099 0.12-9.874 11.996-11.049 13.316-1.086 1.222-1.837 1.986-2.781 1.986z"></path>
<path fill="#444444" d="M35.304 22.125c-0.054 0-0.107-0.030-0.135-0.082l-0.038-0.075c-0.572-1.116-0.555-1.2 0.878-4.461 1.449-3.3 7.44-14.629 7.5-14.741 0.039-0.073 0.131-0.101 0.204-0.064s0.101 0.129 0.064 0.204c-0.060 0.114-6.045 11.432-7.491 14.723-1.403 3.193-1.403 3.193-0.885 4.202l0.037 0.075c0.038 0.073 0.009 0.165-0.066 0.203-0.023 0.011-0.045 0.017-0.068 0.017z"></path>
<path fill="#444444" d="M38.453 23.841c-0.079 0-0.146-0.062-0.152-0.143-0.006-0.082 0.058-0.154 0.143-0.159 0.405-0.024 2.554-1.249 13.194-15.997 0.049-0.069 0.143-0.084 0.21-0.034s0.082 0.142 0.034 0.21c-4.314 5.979-11.794 16.027-13.421 16.123-0.002 0-0.006 0-0.008 0z"></path>
<path fill="#444444" d="M35.642 31.104c-0.006 0-0.011 0-0.019-0.002-0.201-0.024-0.377-0.12-0.508-0.277-0.043-0.051-0.047-0.124-0.009-0.18 0.053-0.079 0.129-0.124 0.219-0.128 0.229 0 0.429 0.249 0.452 0.279 0.030 0.039 0.039 0.090 0.024 0.137-0.004 0.009-0.006 0.017-0.011 0.024 0 0.004 0 0.008-0.002 0.011-0.009 0.077-0.073 0.133-0.15 0.133z"></path>
<path fill="#444444" d="M35.207 30.167c-0.036 0-0.079-0.009-0.124-0.045-0.083-0.039-0.157-0.109-0.219-0.204-0.045-0.069-0.026-0.159 0.041-0.206 0.064-0.045 0.137-0.060 0.212-0.045 0.109 0.023 0.191 0.105 0.249 0.184 0.054 0.007 0.103 0.047 0.122 0.101 0.026 0.079-0.017 0.165-0.096 0.191-0.051 0.017-0.098 0.024-0.146 0.021-0.002 0-0.004 0-0.008 0.002-0.009 0.002-0.019 0.002-0.028 0.002z"></path>
<path fill="#444444" d="M33.231 29.681c-0.232 0-0.484-0.277-0.536-0.351-0.049-0.067-0.034-0.159 0.032-0.21 0.195-0.146 0.553-0.056 0.707 0.12 0.034 0.037 0.043 0.088 0.032 0.135 0.023 0.037 0.028 0.082 0.011 0.126-0.036 0.099-0.112 0.163-0.208 0.176-0.013 0.002-0.024 0.002-0.038 0.002z"></path>
<path fill="#444444" d="M33.986 29.274c-0.079 0-0.144-0.060-0.15-0.139-0.002-0.023-0.008-0.036-0.015-0.045-0.015-0.009-0.032-0.021-0.047-0.032-0.062-0.047-0.077-0.133-0.036-0.199s0.126-0.092 0.195-0.056c0.021 0.011 0.041 0.023 0.060 0.036 0.023 0.011 0.051 0.021 0.079 0.032 0.053 0.019 0.114 0.041 0.174 0.081 0.039 0.026 0.064 0.069 0.068 0.116s-0.017 0.094-0.053 0.124c-0.056 0.049-0.12 0.069-0.188 0.056-0.021 0.015-0.045 0.023-0.073 0.024-0.004 0-0.008 0-0.011 0z"></path>
<path fill="#444444" d="M32.828 28.286c-0.083 0-0.165-0.036-0.233-0.097-0.060-0.034-0.114-0.086-0.154-0.152-0.024-0.041-0.028-0.090-0.009-0.133s0.054-0.077 0.101-0.088c0.206-0.054 0.42 0.013 0.531 0.171 0.036 0.052 0.038 0.12 0.002 0.172-0.054 0.079-0.137 0.126-0.227 0.127-0.004 0-0.008 0-0.011 0z"></path>
<path fill="#444444" d="M31.599 28.162c-0.114 0-0.257-0.026-0.323-0.18-0.058-0.133-0.002-0.242 0.077-0.291 0.111-0.067 0.274-0.030 0.366 0.083 0.019 0.024 0.030 0.052 0.032 0.081 0.019 0 0.039 0.002 0.058 0.004 0.082 0.011 0.139 0.088 0.128 0.171s-0.084 0.141-0.171 0.128c-0.015-0.002-0.049 0-0.077 0.002-0.026 0.002-0.056 0.004-0.090 0.004z"></path>
<path fill="#444444" d="M35.661 29.312c-0.004 0-0.009 0-0.013 0-0.219-0.019-0.381-0.109-0.45-0.253-0.024-0.051-0.019-0.109 0.013-0.154s0.086-0.069 0.141-0.062l0.041 0.004c0.135 0.013 0.321 0.032 0.397 0.163 0.038 0.064 0.039 0.137 0.009 0.212-0.024 0.056-0.079 0.092-0.139 0.092z"></path>
<path fill="#444444" d="M36.639 30.863c-0.073 0-0.154-0.023-0.236-0.069-0.056-0.030-0.084-0.092-0.079-0.15-0.053-0.049-0.066-0.129-0.026-0.191 0.043-0.068 0.131-0.090 0.201-0.052 0.024 0.013 0.058 0.023 0.094 0.032 0.081 0.023 0.191 0.054 0.268 0.161 0.024 0.034 0.034 0.077 0.024 0.116s-0.032 0.077-0.068 0.099c-0.054 0.036-0.114 0.052-0.18 0.052z"></path>
</svg>
