<?xml version="1.0" encoding="utf-8"?>
<!-- Generated by IcoMoon.io -->
<!DOCTYPE svg PUBLIC "-//W3C//DTD SVG 1.1//EN" "http://www.w3.org/Graphics/SVG/1.1/DTD/svg11.dtd">
<svg version="1.1" xmlns="http://www.w3.org/2000/svg" xmlns:xlink="http://www.w3.org/1999/xlink" width="118" height="60" viewBox="0 0 118 60">
<path fill="#444444" d="M42.801 60c-2.456 0-5.186-0.216-8.138-0.647-1.187-0.172-2.432-0.27-3.634-0.364-1.734-0.135-3.373-0.263-4.768-0.6-2.417-0.581-4.286-1.466-6.094-2.321-0.804-0.381-1.562-0.739-2.336-1.056-7.708-3.141-11.1-6.724-12.201-8.117-0.137-0.172-0.293-0.362-0.461-0.57-1.892-2.308-5.533-6.756-5.141-14.454-0.075-1.523 0.18-2.933 0.566-4.155 1.695-5.37 7.721-9.958 16.967-12.922 3.266-1.048 6.906-1.886 10.815-2.496 2.651-0.412 5.355-0.407 8.22-0.396 1.369 0.004 2.781 0.009 4.221-0.034 1.23-0.036 2.464-0.154 3.658-0.264 1.907-0.18 3.709-0.351 5.43-0.208 2.098 0.171 3.962 0.731 5.764 1.273 1.050 0.315 2.044 0.615 3.056 0.831 1.179 0.253 2.334 0.473 3.452 0.686 2.979 0.568 5.792 1.104 8.046 2.091 2.749 1.204 4.787 2.385 6.248 3.377 0.825-0.842 4.744-3.566 8.711-6.3l0.279-0.193c1.215-0.838 2.265-1.56 2.878-1.999 0.512-0.364 1.271-0.87 2.139-1.427 0.497-0.317 1.037-0.714 1.611-1.136 1.626-1.194 3.651-2.681 6.049-3.343 1.723-0.474 3.332-1.311 4.886-2.119 1.316-0.684 2.559-1.329 3.773-1.702 5.081-1.564 9.302-1.884 10.749-0.816 0.345 0.253 0.518 0.576 0.518 0.958 0 1.517-4.277 3.579-5.816 3.782-1.183 0.156-4.003 1.826-7.267 3.759-1.401 0.831-2.85 1.688-4.297 2.503-1.869 1.052-3.724 2.053-5.359 2.936-2.944 1.588-5.722 3.088-5.882 3.486-0.538 1.344-4.412 6.982-7.043 8.038 0.804 1.599 1.17 3.21 1.095 4.822l0.007 0.002c-0.004 0.019-0.006 0.037-0.009 0.056-0.015 0.277-0.043 0.555-0.084 0.832-0.064 0.437-0.161 0.872-0.289 1.305-0.641 3.364-2.091 8.944-6.231 13.674-0.15 0.172-0.368 0.443-0.619 0.754-0.606 0.75-1.359 1.684-1.869 2.13-2.072 1.817-4.515 2.944-7.896 4.504l-1.239 0.574c-3.949 1.836-8.145 3.206-12.471 4.078-2.479 0.499-5.389 1.041-8.565 1.159-0.465 0.017-0.941 0.026-1.429 0.026zM0.319 33.874c0.264 6.377 3.386 10.191 5.081 12.261 0.171 0.21 0.328 0.401 0.465 0.574 1.086 1.376 4.436 4.911 12.079 8.025 0.782 0.319 1.545 0.679 2.351 1.061 1.794 0.849 3.649 1.727 6.036 2.301 1.372 0.332 2.998 0.457 4.721 0.592 1.207 0.094 2.458 0.191 3.654 0.366 3.517 0.512 6.72 0.722 9.512 0.617 3.154-0.116 6.051-0.656 8.516-1.153 4.303-0.866 8.477-2.231 12.405-4.058l1.241-0.574c3.358-1.551 5.783-2.67 7.822-4.457 0.489-0.429 1.266-1.391 1.832-2.092 0.253-0.315 0.474-0.587 0.626-0.761 3.435-3.926 4.999-8.453 5.788-11.777-0.681 1.378-1.688 2.732-3.013 4.050-2.154 2.139-4.509 3.551-5.722 4.202-7.014 3.765-14.119 5.218-22.624 6.244-1.47 0.178-2.946 0.431-4.374 0.677-2.841 0.489-5.524 0.954-8.175 0.861-3.793-0.127-7.781-0.765-10.986-1.277-1.444-0.231-2.747-0.686-4.007-1.127-0.834-0.293-1.622-0.568-2.396-0.761-1.294-0.324-2.85-0.866-4.101-1.301-0.332-0.114-0.641-0.223-0.919-0.317-1.682-0.57-3.004-1.228-4.281-1.864-0.332-0.165-0.662-0.33-0.996-0.491-0.786-0.381-1.483-0.578-2.158-0.769-0.833-0.236-1.618-0.457-2.362-0.999-3.658-2.657-5.381-5.456-6.017-8.053zM0.33 31.851c0.15 3.043 1.654 6.544 6.182 9.834 0.701 0.51 1.427 0.716 2.267 0.952 0.654 0.186 1.397 0.396 2.207 0.788 0.336 0.163 0.667 0.326 0.999 0.493 1.269 0.632 2.582 1.284 4.243 1.849 0.277 0.094 0.587 0.203 0.921 0.317 1.245 0.433 2.796 0.971 4.076 1.292 0.789 0.197 1.582 0.474 2.422 0.769 1.249 0.437 2.539 0.889 3.924 1.11 3.227 0.514 7.204 1.149 10.978 1.277 2.616 0.084 5.289-0.371 8.115-0.857 1.432-0.246 2.912-0.501 4.389-0.679 8.473-1.022 15.544-2.467 22.519-6.212 6.63-3.557 8.676-7.898 9.296-9.983 0.096-0.516 0.172-0.973 0.236-1.361 0.032-0.191 0.060-0.362 0.086-0.512 0.082-1.624-0.3-3.249-1.14-4.866-1.367-2.138-3.216-4.131-5.655-6.094l-0.024-0.021c-1.451-0.992-3.495-2.183-6.272-3.399-2.222-0.973-5.019-1.506-7.98-2.070-1.119-0.214-2.276-0.433-3.458-0.686-1.026-0.219-2.023-0.519-3.079-0.838-1.789-0.538-3.638-1.093-5.704-1.262-1.693-0.139-3.484 0.030-5.377 0.208-1.198 0.112-2.438 0.229-3.677 0.266-1.446 0.043-2.861 0.039-4.23 0.034-2.852-0.009-5.546-0.019-8.173 0.392-3.894 0.607-7.519 1.444-10.77 2.486-9.146 2.933-15.103 7.449-16.77 12.72-0.311 1.442-0.488 2.79-0.551 4.050zM79.262 21.894c1.296 1.296 2.297 2.604 2.998 3.922 2.509-0.975 6.39-6.598 6.902-7.881 0.191-0.476 2.196-1.577 6.019-3.639 1.635-0.881 3.486-1.881 5.355-2.932 1.446-0.814 2.891-1.671 4.29-2.499 3.293-1.952 6.137-3.636 7.382-3.801 1.528-0.201 5.556-2.261 5.556-3.484 0-0.285-0.129-0.519-0.396-0.716-0.527-0.388-1.609-0.609-3.195-0.553 0.703 0.019 1.251 0.099 1.406 0.281 0.073 0.084 0.088 0.193 0.043 0.296v0c-0.264 0.602-0.538 0.938-1.457 1.331-0.934 0.401-3.628 0.249-4.249 0.002-0.386-0.154-0.791-0.493-0.769-0.874 0.006-0.084 0.032-0.182 0.105-0.279-0.744 0.182-1.534 0.399-2.368 0.656-1.185 0.366-2.417 1.005-3.722 1.682-1.569 0.816-3.191 1.657-4.944 2.141-2.346 0.647-4.344 2.117-5.951 3.296-0.576 0.424-1.121 0.823-1.626 1.146-0.866 0.555-1.622 1.058-2.128 1.419-0.617 0.439-1.667 1.162-2.882 2.001l-0.279 0.193c-2.91 2.006-7.689 5.299-8.629 6.225 1.314 0.915 2.124 1.65 2.541 2.068v0 0 0zM113.977 0.602c-1.303 0-3.169 0.156-3.964 0.373-0.354 0.098-0.555 0.236-0.564 0.392-0.011 0.189 0.244 0.441 0.581 0.576 0.574 0.229 3.157 0.371 4.020 0.002 0.868-0.373 1.073-0.658 1.299-1.176v0l0.137 0.062-0.137-0.064c-0.088-0.116-0.641-0.165-1.371-0.165z"></path>
<path fill="#444444" d="M40.243 50.627c-2.242 0-5.115-1.614-6.392-2.524-1.326-0.947-1.433-3.326-1.483-4.47-0.019-0.401-0.098-0.632-0.169-0.836-0.188-0.542-0.231-0.844 0.654-2.344 1.26-2.134 6.561-3.401 10.909-3.51 3.559-0.098 6.081 1.957 7.254 3.184v0c0.024 0.024 0.054 0.049 0.088 0.077 0.268 0.221 0.716 0.591 0.848 2.239 0.152 1.901-2.299 5.040-4.429 6.371-2.049 1.281-4.369 1.528-6.613 1.766l-0.217 0.023c-0.146 0.017-0.296 0.024-0.448 0.024zM43.988 37.241c-0.071 0-0.144 0-0.218 0.002-4.267 0.107-9.452 1.322-10.658 3.362-0.853 1.444-0.772 1.674-0.628 2.093 0.073 0.212 0.165 0.476 0.184 0.921 0.049 1.097 0.15 3.377 1.358 4.239 1.331 0.949 4.429 2.678 6.634 2.447l0.219-0.024c2.211-0.236 4.496-0.48 6.486-1.723 2.047-1.279 4.429-4.341 4.29-6.092-0.12-1.521-0.508-1.839-0.739-2.031-0.043-0.036-0.083-0.068-0.113-0.099v0c-1.117-1.166-3.471-3.096-6.814-3.096zM43.307 49.956c-0.047 0-0.094-0.022-0.122-0.064-0.049-0.068-0.032-0.161 0.036-0.21 0.21-0.148 0.339-0.448 0.465-0.739 0.051-0.116 0.099-0.232 0.154-0.337 0.133-0.259 0.204-0.396 0.238-0.63 0.017-0.122 0.008-0.257-0.002-0.399-0.015-0.223-0.032-0.454 0.053-0.668 0.030-0.077 0.118-0.114 0.195-0.084s0.114 0.118 0.084 0.195c-0.060 0.15-0.047 0.337-0.032 0.536 0.011 0.152 0.021 0.309 0 0.461-0.039 0.287-0.129 0.457-0.251 0.696-0.068 0.131-0.114 0.24-0.161 0.349-0.141 0.328-0.287 0.666-0.566 0.864-0.026 0.019-0.058 0.028-0.088 0.028zM38.002 49.037c-0.019 0-0.037-0.004-0.056-0.011-0.077-0.032-0.114-0.118-0.084-0.195 0.045-0.112 0.105-0.208 0.165-0.302 0.047-0.073 0.094-0.148 0.129-0.229 0.053-0.116 0.077-0.249 0.105-0.388 0.032-0.169 0.066-0.343 0.15-0.512 0.038-0.075 0.128-0.105 0.201-0.069s0.105 0.128 0.068 0.201c-0.066 0.133-0.094 0.279-0.124 0.435-0.028 0.15-0.058 0.306-0.126 0.454-0.041 0.094-0.096 0.182-0.15 0.266s-0.105 0.167-0.139 0.253c-0.023 0.060-0.081 0.096-0.141 0.096zM39.591 45.654c-0.011 0-0.023-0.002-0.032-0.004-0.081-0.017-0.133-0.098-0.114-0.178 0.075-0.337 0.238-0.441 0.371-0.525 0.062-0.039 0.114-0.071 0.161-0.128 0.056-0.068 0.083-0.131 0.113-0.201 0.052-0.122 0.111-0.261 0.309-0.373 0.248-0.137 0.431-0.148 0.578-0.156 0.178-0.009 0.276-0.015 0.454-0.268 0.264-0.373 0.384-0.632 0.478-1.028 0.019-0.081 0.103-0.131 0.182-0.112s0.129 0.099 0.111 0.18c-0.105 0.437-0.236 0.722-0.525 1.131-0.263 0.371-0.476 0.383-0.683 0.394-0.128 0.008-0.263 0.013-0.448 0.118-0.109 0.062-0.135 0.124-0.178 0.227-0.034 0.077-0.073 0.174-0.157 0.276-0.077 0.094-0.159 0.144-0.233 0.189-0.114 0.071-0.191 0.12-0.238 0.334-0.015 0.071-0.077 0.118-0.146 0.118zM37.251 41.061c-0.032 0-0.064-0.009-0.092-0.030-0.066-0.051-0.079-0.144-0.028-0.212 0.294-0.386 0.495-0.968 0.596-1.725 0.011-0.082 0.086-0.142 0.169-0.129 0.083 0.011 0.141 0.086 0.129 0.169-0.109 0.81-0.33 1.436-0.656 1.866-0.028 0.039-0.073 0.060-0.118 0.060zM56.066 40.847c-2.477 0-4.496-1.153-6.066-2.051-0.225-0.129-0.439-0.251-0.643-0.364-2.284-1.252-4.003-4.266-4.191-4.605-0.339-0.611-1.121-2.681-1.869-4.777 0.090 0.433 0.176 0.883 0.262 1.352 0.407 2.233-0.699 2.946-2.102 3.847-0.33 0.212-0.671 0.431-1.022 0.686-2.025 1.474-4.701 1.53-6.112 1.434-1.048-0.071-1.408-0.409-1.789-0.767-0.236-0.221-0.48-0.45-0.923-0.652-0.501-0.229-1.303-0.694-2.098-1.2-0.066 0.015-0.137-0.023-0.167-0.088-0.004-0.008-0.006-0.015-0.007-0.023-1.052-0.679-2.053-1.406-2.295-1.729-0.397-0.532-0.476-1.078-0.853-3.694l-0.122-0.84c-0.478-3.287 0.24-4.526 0.874-5.617l0.064-0.111c0.651-1.125 3.99-3.983 5.402-3.983 1.041 0 1.871 0.501 2.477 0.868 0.204 0.124 0.381 0.231 0.536 0.302 0.69 0.319 1.689 0.727 2.972 1.219 0.919 0.351 2.046 1.691 3.353 3.983-0.165-2.117 1.009-3.969 2.372-4.926 1.674-1.174 5.526 0.516 7.671 1.626 0.656 0.339 1.622 0.99 2.642 1.678 1.376 0.926 2.799 1.886 3.617 2.19 1.354 0.504 3.096 3.186 3.782 4.314 0.412 0.681 0.812 2.211 1.162 3.559l0.174 0.666c0.439 1.656-0.977 6.278-4.851 7.38-0.786 0.225-1.536 0.321-2.248 0.321zM44.276 30.863c0.491 1.32 0.926 2.415 1.151 2.82 0.184 0.332 1.862 3.276 4.073 4.489 0.204 0.112 0.42 0.236 0.647 0.366 1.974 1.127 4.68 2.672 8.083 1.703 3.834-1.093 4.98-5.739 4.641-7.014l-0.174-0.668c-0.345-1.329-0.739-2.835-1.129-3.478v0c-0.521-0.861-2.329-3.705-3.63-4.189-0.851-0.317-2.289-1.286-3.679-2.222-1.013-0.683-1.971-1.328-2.612-1.659-3.549-1.837-6.231-2.436-7.361-1.646-1.539 1.078-2.822 3.366-2.002 5.842 0.006 0.019 0.013 0.039 0.019 0.058 0.052 0.15 0.107 0.311 0.161 0.484 0.456 1.356 1.112 3.232 1.704 4.838 0.112-0.052 0.289-0.261 0.407-0.399 0.047-0.054 0.090-0.107 0.129-0.148 0.090-0.098 0.148-0.21 0.212-0.33 0.075-0.143 0.15-0.289 0.283-0.424 0.073-0.073 0.141-0.148 0.208-0.219 0.176-0.189 0.345-0.369 0.551-0.517 0.101-0.071 0.189-0.126 0.268-0.173 0.277-0.169 0.351-0.214 0.349-0.696 0-0.082 0.066-0.15 0.15-0.15 0.094-0.017 0.15 0.066 0.15 0.15 0.004 0.624-0.157 0.75-0.493 0.954-0.073 0.045-0.156 0.094-0.249 0.161-0.182 0.129-0.339 0.298-0.504 0.476-0.069 0.075-0.141 0.15-0.216 0.227-0.101 0.103-0.165 0.223-0.231 0.352-0.069 0.131-0.141 0.266-0.257 0.394-0.036 0.039-0.077 0.088-0.122 0.139-0.163 0.191-0.347 0.409-0.525 0.484-0.002 0-0.004 0-0.006 0.002zM29.882 33.63c0.699 0.439 1.389 0.834 1.854 1.046 0.488 0.221 0.761 0.48 1.003 0.707 0.369 0.347 0.662 0.621 1.603 0.686 1.372 0.092 3.967 0.039 5.916-1.376 0.358-0.261 0.703-0.484 1.037-0.697 1.41-0.906 2.34-1.506 1.969-3.54-0.345-1.884-0.737-3.534-1.104-4.686-0.043-0.127-0.084-0.251-0.122-0.367-0.141-0.403-0.277-0.726-0.403-0.954v0c-1.335-2.389-2.46-3.773-3.345-4.112-1.288-0.493-2.295-0.906-2.991-1.226-0.171-0.079-0.354-0.189-0.566-0.317-0.608-0.367-1.363-0.825-2.321-0.825-1.226 0-4.464 2.661-5.141 3.832l-0.064 0.111c-0.639 1.102-1.299 2.242-0.836 5.424l0.122 0.84c0.369 2.554 0.446 3.084 0.797 3.557 0.214 0.287 1.211 1.011 2.261 1.686 0.244-0.088 0.491-0.131 0.735-0.172 0.249-0.043 0.484-0.084 0.705-0.169 0.446-0.171 0.861-0.433 1.26-0.688l0.039-0.024c0.103-0.066 0.201-0.141 0.298-0.214 0.248-0.189 0.504-0.384 0.84-0.446 0.135-0.026 0.264-0.024 0.383-0.023 0.281 0.004 0.401 0.006 0.459-0.279 0.017-0.083 0.096-0.133 0.178-0.118s0.133 0.096 0.118 0.178c-0.107 0.531-0.471 0.525-0.759 0.519-0.107-0.002-0.216-0.004-0.322 0.017-0.266 0.051-0.484 0.216-0.714 0.39-0.105 0.079-0.208 0.157-0.319 0.229l-0.039 0.024c-0.412 0.263-0.84 0.534-1.314 0.716-0.249 0.094-0.51 0.141-0.761 0.184-0.156 0.028-0.306 0.054-0.45 0.092zM59.633 37.052c-0.062 0-0.12-0.039-0.143-0.101-0.026-0.079 0.015-0.163 0.094-0.191l0.184-0.060c0.435-0.143 0.722-0.236 1.007-0.643 0.143-0.203 0.308-0.339 0.454-0.459 0.255-0.212 0.441-0.364 0.426-0.778-0.004-0.083 0.062-0.152 0.144-0.156 0.101 0.006 0.152 0.062 0.156 0.144 0.019 0.563-0.263 0.795-0.534 1.020-0.139 0.114-0.281 0.232-0.399 0.401-0.343 0.489-0.703 0.606-1.159 0.756l-0.178 0.060c-0.017 0.006-0.034 0.008-0.049 0.008zM52.117 36.092c-0.058 0-0.112-0.034-0.137-0.090-0.034-0.075 0.002-0.165 0.077-0.199 0.819-0.358 1.509-0.799 1.669-1.048-0.465-0.008-0.827 0.178-1.23 0.398-0.216 0.118-0.439 0.242-0.699 0.343-0.077 0.032-0.165-0.009-0.195-0.084s0.008-0.165 0.084-0.195c0.242-0.094 0.456-0.212 0.664-0.326 0.474-0.261 0.921-0.502 1.575-0.418l0.109 0.015 0.019 0.109c0.097 0.555-1.281 1.223-1.877 1.483-0.021 0.009-0.041 0.013-0.062 0.013zM54.456 34.044c-0.060 0-0.116-0.036-0.141-0.096-0.030-0.077 0.008-0.165 0.084-0.195 0.135-0.052 0.255-0.054 0.351-0.056 0.15-0.004 0.182-0.004 0.231-0.144 0.023-0.064 0.006-0.141-0.015-0.231-0.028-0.129-0.064-0.291 0.023-0.458 0.038-0.073 0.128-0.103 0.203-0.064s0.103 0.129 0.064 0.203c-0.034 0.068-0.021 0.141 0.004 0.255 0.026 0.118 0.054 0.251 0.004 0.396-0.118 0.337-0.345 0.341-0.508 0.345-0.084 0.002-0.163 0.004-0.248 0.037-0.017 0.008-0.036 0.011-0.054 0.011zM58.059 33.33c-0.024 0-0.051-0.002-0.077-0.004-0.172-0.017-0.454-0.137-0.51-0.347-0.013-0.051-0.030-0.169 0.081-0.283 0.006-0.124 0.054-0.206 0.099-0.255 0.163-0.176 0.456-0.167 0.692-0.159l0.081 0.002c0.083 0.002 0.15 0.069 0.148 0.152s-0.066 0.141-0.152 0.148l-0.086-0.002c-0.146-0.004-0.39-0.011-0.461 0.064-0.006 0.008-0.026 0.028-0.019 0.099l0.009 0.086-0.071 0.052c-0.026 0.019-0.032 0.030-0.032 0.032 0.013 0.024 0.142 0.103 0.249 0.112 0.191 0.021 0.253-0.060 0.377-0.238 0.058-0.084 0.124-0.178 0.218-0.261 0.133-0.118 0.3-0.169 0.446-0.214 0.161-0.049 0.302-0.092 0.368-0.208 0.038-0.066 0.036-0.171 0.034-0.281-0.002-0.12-0.004-0.242 0.038-0.362 0.028-0.079 0.114-0.12 0.191-0.092s0.118 0.114 0.092 0.191c-0.024 0.068-0.023 0.157-0.021 0.255 0.002 0.139 0.006 0.296-0.073 0.433-0.126 0.221-0.347 0.289-0.542 0.347-0.129 0.039-0.249 0.077-0.334 0.15-0.066 0.058-0.116 0.129-0.169 0.206-0.114 0.165-0.257 0.369-0.576 0.369zM51.073 29.994c-0.039 0-0.081-0.015-0.109-0.047-0.056-0.060-0.054-0.156 0.006-0.212 0.054-0.052 0.128-0.103 0.201-0.156 0.081-0.056 0.163-0.113 0.204-0.163 0.064-0.077 0.111-0.159 0.157-0.246 0.073-0.131 0.146-0.268 0.289-0.39 0.077-0.067 0.186-0.113 0.289-0.157 0.081-0.034 0.229-0.099 0.248-0.141 0.023-0.053 0.015-0.073-0.024-0.148-0.036-0.069-0.084-0.163-0.075-0.294 0.006-0.082 0.082-0.142 0.159-0.141 0.083 0.006 0.146 0.077 0.141 0.159-0.004 0.047 0.013 0.081 0.043 0.137 0.045 0.086 0.112 0.219 0.032 0.405-0.066 0.152-0.238 0.227-0.403 0.298-0.084 0.036-0.171 0.073-0.212 0.111-0.101 0.086-0.157 0.189-0.221 0.308-0.052 0.096-0.107 0.195-0.191 0.294-0.068 0.081-0.167 0.15-0.262 0.218-0.062 0.043-0.122 0.084-0.167 0.126-0.028 0.028-0.066 0.041-0.103 0.041zM55.86 27.994c-0.060 0-0.122-0.006-0.186-0.017-0.083-0.013-0.137-0.092-0.122-0.174s0.090-0.141 0.174-0.122c0.176 0.030 0.319 0.004 0.435-0.081 0.219-0.159 0.313-0.499 0.351-0.756 0.013-0.082 0.092-0.137 0.171-0.126 0.083 0.013 0.139 0.090 0.126 0.171-0.068 0.45-0.231 0.78-0.472 0.954-0.137 0.099-0.296 0.148-0.476 0.148zM35.957 27.741c-0.082 0-0.15-0.068-0.15-0.15s0.068-0.15 0.15-0.15c0.476 0 0.684-0.084 1.149-0.289 0.18-0.079 0.364-0.133 0.544-0.184s0.349-0.101 0.514-0.172c0.071-0.032 0.137-0.069 0.201-0.107 0.112-0.064 0.227-0.131 0.366-0.165 0.135-0.032 0.259-0.024 0.368-0.019 0.133 0.008 0.238 0.013 0.349-0.045 0.253-0.135 0.534-0.489 0.626-0.791 0.024-0.081 0.109-0.124 0.188-0.099s0.124 0.109 0.099 0.188c-0.116 0.381-0.448 0.797-0.773 0.969-0.184 0.098-0.356 0.086-0.506 0.081-0.097-0.006-0.189-0.011-0.281 0.011s-0.182 0.073-0.283 0.131c-0.073 0.043-0.148 0.086-0.231 0.122-0.184 0.081-0.371 0.135-0.551 0.187-0.178 0.051-0.345 0.099-0.504 0.171-0.484 0.212-0.739 0.315-1.273 0.315zM46.352 26.124c-0.148 0-0.292-0.058-0.429-0.173-0.064-0.054-0.071-0.148-0.019-0.212s0.148-0.071 0.212-0.019c0.096 0.081 0.188 0.114 0.278 0.099 0.285-0.043 0.591-0.525 0.812-0.877 0.141-0.221 0.263-0.413 0.381-0.521 0.172-0.157 0.401-0.21 0.604-0.257 0.206-0.047 0.383-0.090 0.478-0.216 0.084-0.113 0.054-0.189-0.054-0.379-0.071-0.127-0.154-0.27-0.156-0.446 0-0.082 0.066-0.15 0.148-0.152 0.081 0.015 0.15 0.066 0.152 0.148 0.002 0.097 0.056 0.197 0.116 0.3 0.103 0.18 0.244 0.428 0.034 0.707-0.161 0.214-0.42 0.274-0.651 0.328-0.182 0.041-0.354 0.083-0.469 0.186-0.090 0.082-0.206 0.266-0.33 0.461-0.281 0.444-0.602 0.949-1.022 1.014-0.030 0.004-0.058 0.008-0.088 0.008zM28.442 25.903c-0.004 0-0.006 0-0.009 0-0.083-0.006-0.146-0.077-0.141-0.159 0.013-0.212 0.137-0.377 0.326-0.448 0-0.302 0.038-0.686 0.244-0.968 0.33-0.452 0.748-0.448 1.119-0.444 0.218 0.002 0.42 0.004 0.622-0.067 0.077-0.028 0.165 0.013 0.191 0.092s-0.013 0.165-0.092 0.191c-0.253 0.090-0.506 0.088-0.726 0.084-0.353-0.002-0.636-0.006-0.876 0.321-0.18 0.247-0.193 0.634-0.186 0.904l0.004 0.135-0.135 0.017c-0.084 0.011-0.188 0.054-0.197 0.201-0.004 0.081-0.069 0.141-0.148 0.141zM36.233 24.191l-0.090-0.079c-0.12-0.105-0.504-0.486-0.444-0.922l0.017-0.124 0.126-0.006c0.294-0.013 0.797-0.276 0.943-0.551 0.039-0.073 0.129-0.101 0.203-0.062s0.101 0.129 0.062 0.203c-0.178 0.336-0.673 0.621-1.054 0.694 0.024 0.163 0.137 0.332 0.261 0.463 0.111-0.077 0.212-0.156 0.302-0.246 0.058-0.060 0.154-0.062 0.212-0.004s0.062 0.154 0.004 0.212c-0.126 0.129-0.268 0.231-0.409 0.328l-0.135 0.096zM53.37 24.118c-0.045 0-0.094-0.004-0.148-0.011-0.083-0.013-0.139-0.090-0.126-0.171s0.092-0.137 0.171-0.126c0.276 0.043 0.306-0.052 0.392-0.307 0.039-0.12 0.086-0.255 0.171-0.381 0.047-0.069 0.141-0.086 0.208-0.039s0.086 0.141 0.039 0.208c-0.062 0.092-0.099 0.201-0.135 0.307-0.075 0.223-0.174 0.519-0.574 0.519zM31.948 21.894c-0.068 0-0.128-0.045-0.146-0.113-0.024-0.094-0.011-0.204-0.002-0.294l0.017-0.167 0.124-0.011c0.129-0.013 0.255 0 0.375 0.013 0.017 0.002 0.034 0.004 0.053 0.006 0.047-0.184 0.111-0.313 0.197-0.396s0.197-0.060 0.27-0.045c0.009 0.002 0.021 0.004 0.032 0.006 0.244-0.249 0.324-0.617 0.403-0.975l0.039-0.171c0.019-0.081 0.101-0.129 0.18-0.113 0.081 0.019 0.131 0.099 0.112 0.18l-0.038 0.167c-0.086 0.396-0.184 0.844-0.517 1.155-0.086 0.081-0.197 0.058-0.27 0.043-0.008-0.002-0.017-0.004-0.024-0.006-0.034 0.047-0.079 0.144-0.114 0.339l-0.024 0.127-0.131-0.006c-0.064-0.004-0.129-0.009-0.197-0.017s-0.129-0.013-0.191-0.017c-0.004 0.039-0.004 0.079 0.002 0.101 0.021 0.081-0.026 0.163-0.107 0.184-0.013 0.004-0.026 0.006-0.039 0.006z"></path>
</svg>
