<?xml version="1.0" encoding="utf-8"?>
<!-- Generated by IcoMoon.io -->
<!DOCTYPE svg PUBLIC "-//W3C//DTD SVG 1.1//EN" "http://www.w3.org/Graphics/SVG/1.1/DTD/svg11.dtd">
<svg version="1.1" xmlns="http://www.w3.org/2000/svg" xmlns:xlink="http://www.w3.org/1999/xlink" width="23" height="60" viewBox="0 0 23 60">
<path fill="#444444" d="M7.368 60c-0.017 0-0.034-0-0.051-0-1.429-0.010-2.791-0.698-4.062-1.402-1.358-0.752-2.332-1.412-2.961-2.359-0.136-0.137-0.225-0.299-0.266-0.486-0.136-0.608 0.228-1.468 1.18-2.787l0.137-0.19c0.649-0.901 1.456-2.022 2.356-2.837 1.027-0.931 2.834-1.947 4.397-2.471 1.747-0.587 3.172-0.688 3.686-0.705-0.199-0.599-0.798-2.509-0.935-4.23-0.014-0.176 0.065-0.485 0.184-0.951 0.138-0.541 0.328-1.281 0.467-2.186 0.101-0.657 0.177-1.418 0.257-2.223 0.124-1.239 0.264-2.644 0.537-4.168 0.172-0.957 0.425-1.946 0.692-2.992 0.261-1.018 0.53-2.072 0.735-3.145 0.238-1.249 0.427-2.557 0.61-3.821 0.213-1.47 0.432-2.99 0.736-4.483 0.391-1.924 0.775-3.77 1.141-5.488 0.218-1.019 0.433-2.015 0.645-2.976 0.564-2.557 1.074-4.744 1.517-6.5 0.28-1.11 0.534-2.049 0.753-2.793 0.12-0.408 0.642-0.491 1.247-0.588 0.279-0.044 0.567-0.090 0.835-0.171 0.999-0.299 1.466 0.873 1.746 1.573 0.313 0.783 0.478 2.147-0.044 2.564l-0.037 0.030-0.047 0.002c-0.025 0.001-0.597 0.018-0.887-0.368-0.236-0.315-0.689-1.222-0.689-1.699 0-0.205-0.057-0.37-0.146-0.42-0.066-0.038-0.156-0.006-0.229 0.032-0.066 0.148-0.353 1.072-1.564 6.597-0.171 0.779-0.283 1.608-0.401 2.487-0.126 0.93-0.255 1.893-0.468 2.898-0.174 0.823-0.359 1.672-0.547 2.538-0.278 1.278-0.567 2.599-0.837 3.922-0.178 0.868-0.418 1.749-0.651 2.601-0.241 0.883-0.489 1.795-0.668 2.689-0.441 2.21-0.853 4.312-1.223 6.249-0.187 0.981-0.282 1.926-0.373 2.841-0.079 0.783-0.152 1.523-0.279 2.233-0.258 1.447-0.539 2.745-0.765 3.788-0.264 1.221-0.473 2.186-0.494 2.7-0.048 1.179 0.492 2.362 0.926 3.312 0.246 0.537 0.458 1.001 0.515 1.362 0.664 1.679 1.245 3.322 1.082 4.97-0.114 1.149-0.669 2.368-1.748 3.838-0.121 0.164-0.222 0.331-0.32 0.491-0.205 0.336-0.417 0.684-0.807 1.014-1.267 1.072-3.089 1.709-4.882 1.71zM0.92 56.574c0.591 0.654 1.41 1.182 2.475 1.771 1.239 0.686 2.563 1.356 3.924 1.366 1.75 0.010 3.516-0.602 4.744-1.642 0.354-0.299 0.545-0.612 0.747-0.944 0.101-0.166 0.206-0.337 0.334-0.511 1.047-1.426 1.585-2.6 1.693-3.695 0.14-1.421-0.303-2.86-0.866-4.329-0.038 0.122-0.088 0.25-0.148 0.382 0.244 0.714 0.429 2.11 0.371 2.822l-0.287-0.024c0.048-0.586-0.085-1.702-0.272-2.422-0.076 0.138-0.159 0.278-0.247 0.42 0.229 0.729 0.229 1.737 0.229 2.552h-0.289c0-0.707 0-1.564-0.152-2.227-0.105 0.155-0.214 0.31-0.326 0.461 0.201 0.676 0.218 1.649 0.218 2.515h-0.289c0-0.757-0.013-1.595-0.151-2.219-0.073 0.096-0.146 0.188-0.218 0.279-0.668 0.842-1.369 1.593-1.578 1.76-0.159 0.127-0.266 0.675-0.361 1.159-0.122 0.625-0.249 1.271-0.537 1.559-0.457 0.457-1.385 0.203-2.13-0.001-0.174-0.048-0.339-0.093-0.484-0.125-0.343-0.077-1.768 0.162-3.547 0.594-0.245 0.059-0.489 0.125-0.728 0.19-0.801 0.216-1.564 0.422-2.126 0.312zM0.518 56.055c0.058 0.055 0.126 0.104 0.207 0.149 0.466 0.259 1.33 0.027 2.245-0.22 0.242-0.065 0.488-0.132 0.736-0.192 0.713-0.173 3.088-0.727 3.677-0.595 0.149 0.033 0.319 0.079 0.498 0.128 0.673 0.185 1.511 0.414 1.85 0.076 0.225-0.225 0.349-0.855 0.457-1.41 0.12-0.61 0.223-1.136 0.464-1.329 0.165-0.132 0.837-0.838 1.532-1.714 1.074-1.354 1.648-2.415 1.575-2.911-0.007-0.050-0.018-0.103-0.033-0.159l-0 0c-0.094-0.307-0.915-0.809-1.694-0.83l-0.051-0.001c-0.013-0.001-1.686-0.015-3.792 0.693-1.529 0.513-3.295 1.505-4.295 2.412-0.877 0.795-1.674 1.902-2.315 2.792l-0.137 0.19c-0.887 1.229-1.247 2.041-1.132 2.555 0.029 0.13 0.089 0.242 0.183 0.339l0.007-0.005c0.007 0.010 0.013 0.021 0.020 0.031zM12.086 46.762c0.48 0.025 1.013 0.214 1.398 0.464-0.067-0.154-0.142-0.319-0.221-0.491-0.447-0.978-1.003-2.196-0.953-3.444 0.022-0.538 0.223-1.466 0.501-2.749 0.225-1.041 0.506-2.336 0.763-3.777 0.125-0.699 0.199-1.433 0.276-2.211 0.092-0.92 0.187-1.872 0.377-2.866 0.37-1.937 0.782-4.041 1.223-6.251 0.18-0.904 0.43-1.821 0.672-2.709 0.231-0.847 0.47-1.724 0.646-2.583 0.271-1.325 0.56-2.647 0.838-3.926 0.188-0.865 0.373-1.714 0.547-2.536 0.21-0.994 0.339-1.951 0.464-2.877 0.119-0.884 0.232-1.719 0.405-2.51 1.454-6.638 1.584-6.716 1.67-6.767 0.256-0.154 0.438-0.113 0.546-0.051 0.186 0.105 0.293 0.35 0.293 0.671 0 0.365 0.394 1.209 0.631 1.526 0.158 0.21 0.472 0.246 0.595 0.252 0.282-0.307 0.249-1.381-0.078-2.199-0.343-0.857-0.706-1.61-1.395-1.403-0.286 0.086-0.584 0.133-0.872 0.179-0.487 0.078-0.946 0.151-1.016 0.385-0.219 0.74-0.471 1.676-0.751 2.782-0.442 1.753-0.952 3.937-1.515 6.491-0.212 0.96-0.427 1.955-0.644 2.974-0.366 1.717-0.75 3.562-1.14 5.485-0.302 1.484-0.521 3-0.733 4.466-0.184 1.268-0.373 2.579-0.612 3.834-0.206 1.081-0.476 2.139-0.739 3.162-0.266 1.041-0.518 2.025-0.688 2.972-0.272 1.513-0.411 2.912-0.534 4.146-0.081 0.809-0.157 1.574-0.259 2.239-0.141 0.919-0.332 1.667-0.472 2.214-0.104 0.407-0.186 0.728-0.176 0.857 0.144 1.793 0.799 3.801 0.953 4.252z"></path>
</svg>
