<?xml version="1.0" encoding="utf-8"?>
<!-- Generated by IcoMoon.io -->
<!DOCTYPE svg PUBLIC "-//W3C//DTD SVG 1.1//EN" "http://www.w3.org/Graphics/SVG/1.1/DTD/svg11.dtd">
<svg version="1.1" xmlns="http://www.w3.org/2000/svg" xmlns:xlink="http://www.w3.org/1999/xlink" width="32" height="32" viewBox="0 0 32 32">
<path fill="#444444" d="M13.149 26.299c-7.25 0-13.149-5.9-13.149-13.149s5.9-13.149 13.149-13.149 13.149 5.897 13.149 13.149-5.897 13.149-13.149 13.149zM13.149 1.271c-6.548 0-11.878 5.33-11.878 11.878s5.33 11.878 11.878 11.878c6.548 0 11.878-5.33 11.878-11.878s-5.327-11.878-11.878-11.878z"></path>
<path fill="#444444" d="M30.932 32c-0.163 0-0.326-0.061-0.45-0.186l-9.121-9.121c-0.249-0.249-0.249-0.651 0-0.9s0.651-0.249 0.9 0l9.121 9.121c0.249 0.249 0.249 0.651 0 0.9-0.125 0.125-0.287 0.186-0.45 0.186z"></path>
</svg>
