<?xml version="1.0" encoding="utf-8"?>
<!-- Generated by IcoMoon.io -->
<!DOCTYPE svg PUBLIC "-//W3C//DTD SVG 1.1//EN" "http://www.w3.org/Graphics/SVG/1.1/DTD/svg11.dtd">
<svg version="1.1" xmlns="http://www.w3.org/2000/svg" xmlns:xlink="http://www.w3.org/1999/xlink" width="1206" height="60" viewBox="0 0 1206 60">
<path fill="#444444" d="M12.634 13.269c-2.374-1.179-7.099-2.364-11.829-6.497-2.361 2.955 0.786 8.273 5.52 11.226-3.156 2.951-6.306 7.086-5.518 11.226 3.938-2.957 9.456-5.906 14.19-7.089 3.158-1.185 6.302-1.772 10.251-2.368h496.941v-2.951h-497.728c-3.951-0.593-7.886-1.77-11.826-3.546z"></path>
<path fill="#444444" d="M1199.722 18.587c3.176-2.961 6.354-7.087 5.58-11.227-3.986 2.957-9.563 5.91-14.364 7.097-3.174 1.17-6.379 1.764-10.369 2.357l-501.819 0.002v2.953h502.616c3.992 0.594 7.98 1.772 11.968 3.551 2.396 1.181 7.168 2.351 11.964 6.488 2.396-2.953-0.804-8.267-5.576-11.22z"></path>
<path fill="#444444" d="M639.679 7.879c-13.389 2.417-17.181 13.133-18.082 15.011-0.898 1.883-4.596 3.808-7.924 4.466-1.774 0.351-6.352 1.217-12.148 2.302-7.266-2.348-13.845-4.571-18.399-6.337-5.794-2.239-5.82-6.589-8.603-8.601-1.532-1.117-4.802-2.147-9.152-3.574-2.254-0.746-23.985-7.815-25.206-8.408-1.222-0.593-1.526 0.988-1.333 1.421 0.195 0.439 22.172 8.274 23.184 8.786 1.009 0.508 0.362 1.41-0.154 1.513-0.527 0.101-22.763-8.010-23.477-8.348-0.716-0.336-1.087 0.793-0.967 1.262 0.12 0.472 23.184 8.783 23.689 9.216 0.499 0.433 0.039 1.77-0.754 1.646-0.804-0.127-23.483-9.437-23.708-9.163-0.232 0.277-0.735 1.112-0.384 1.311 0.347 0.193 17.856 7.695 19.23 8.222 1.371 0.527 4.507 1.491 4.226 2.228-0.103 0.268-0.234 1.241-1.365 0.872-1.133-0.369-19.853-8.653-20.361-8.903-0.504-0.253-2.141-0.881-2.362-0.604-0.229 0.274-0.668 0.75-0.414 1.23 0.251 0.48 27.954 15.572 34.080 15.864 3.127 0.146 7.365-4.069 12.919-2.303 0.748 0.238 4.534 1.963 9.832 4.434-12.499 2.314-26.584 4.879-31.883 5.709-9.538 1.506-13.442 5.709-12.538 9.094 0.904 3.381 4.727 6.606 10.408 4.948 5.072-1.477 21.975-9.514 41.931-16.026 16.879 7.967 39.727 18.947 40.564 19.427 1.567 0.898 5.171 2.773 6.092 0.825 0.742-1.543 4.864-8.717 3.144-10.226-1.116-0.977-21.324-6.988-40.209-12.949 0.266-0.077 0.529-0.157 0.797-0.231 3.919-1.093 11.366-3.398 13.641-1.907 2.903 1.914 9.21 6.891 20.394 4.123 9.553-2.361 16.423-11.241 16.391-16.35v-0.049c-0.006-0.334-0.039-0.652-0.105-0.949-1.063-4.86-7.612-11.407-20.994-8.987z"></path>
</svg>
