<?xml version="1.0" encoding="utf-8"?>
<!-- Generated by IcoMoon.io -->
<!DOCTYPE svg PUBLIC "-//W3C//DTD SVG 1.1//EN" "http://www.w3.org/Graphics/SVG/1.1/DTD/svg11.dtd">
<svg version="1.1" xmlns="http://www.w3.org/2000/svg" xmlns:xlink="http://www.w3.org/1999/xlink" width="90" height="60" viewBox="0 0 90 60">
<path fill="#444444" d="M47.293 1.536c-4.027-2.741-10.632-1.518-14.273 1.344-2.18 1.714-3.53 4.443-3.61 7.299-0.063 2.221 0.669 4.192 2.012 5.432 0.004 0.070 0.034 0.138 0.091 0.188 1.076 0.937 2.438 0.909 4.043-0.083 0.503-0.31 0.646-0.58 0.785-0.841 0.023-0.043 0.046-0.085 0.070-0.128 0.085-0.041 0.139-0.125 0.145-0.221 0.031-0.040 0.066-0.082 0.105-0.125 0.006 0.001 0.011 0.003 0.017 0.003 0.066 0 0.131-0.025 0.181-0.072 0.081-0.077 0.153-0.162 0.226-0.245 0.178-0.099 0.38-0.189 0.581-0.271 0.077 1.613 0.464 7.858 1.867 8.269 0.612 0.179 1.37 0.286 2.183 0.286 1.956 0 4.229-0.619 5.548-2.333 0.739-0.963-1.263-4.791-2.184-6.151-0.37-0.546-0.561-0.938-0.591-1.21 0.085-0.035 0.152-0.111 0.165-0.208 0.010-0.071 0.011-0.147 0.010-0.229 0.045-0.039 0.098-0.079 0.159-0.118 0.108 0.018 0.219-0.030 0.275-0.132 0.003-0.005 0.003-0.011 0.005-0.016 0.277-0.129 0.631-0.255 1.043-0.395 1.526-0.518 4.366-1.481 4.568-4.199 0.17-2.314-1.595-4.602-3.422-5.845zM44.851 11.333c-0.030-0.092-0.058-0.186-0.078-0.256-0.107-0.376-0.21-0.73-0.485-0.852-0.075-0.033-0.163-0.029-0.236 0.011s-0.122 0.112-0.134 0.195c-0.043 0.289 0.030 0.671 0.106 1.075 0.036 0.188 0.072 0.379 0.093 0.546-0.101-0.078-0.179-0.186-0.271-0.315-0.187-0.262-0.42-0.588-0.945-0.651-0.128-0.014-0.248 0.063-0.286 0.186-0.138 0.45-0.152 0.895-0.127 1.336-0.224-0.182-0.39-0.353-0.48-0.543-0.002-0.028-0.004-0.056-0.006-0.083-0.013-0.189-0.027-0.371-0.031-0.538-0.004-0.134-0.106-0.244-0.238-0.257-0.127-0.013-0.255 0.073-0.286 0.203-0.074 0.309-0.049 0.573 0.038 0.803 0.027 0.386 0.046 0.792-0.015 1.127-0.497-0.394-0.631-1.078-0.666-1.487-0.006-0.078-0.047-0.148-0.11-0.194s-0.144-0.061-0.22-0.041c-0.581 0.147-0.64 0.635-0.63 1.062-0.029-0.115-0.061-0.237-0.101-0.368-0.043-0.139-0.188-0.218-0.328-0.179-0.587 0.168-0.586 0.686-0.585 0.995 0 0.045 0 0.085-0.001 0.121-0.114-0.531-0.336-1.166-1.234-1.122-0.129 0.006-0.235 0.103-0.252 0.231-0.063 0.484-0.286 0.958-0.613 1.351-0.052 0.031-0.103 0.059-0.151 0.093-0.193-0.168-0.163-0.463 0.001-1.087 0.077-0.294 0.156-0.597 0.155-0.881-0.001-0.147-0.119-0.265-0.266-0.265-0.001 0-0.001 0-0.001 0-0.147 0-0.266 0.12-0.265 0.267 0.001 0.215-0.070 0.485-0.138 0.745-0.134 0.51-0.297 1.168 0.124 1.581-0.032 0.038-0.061 0.076-0.088 0.112-0.843 0.024-1.393-0.388-1.551-1.18-0.295-1.482 0.935-4.135 3.929-5.059 3.062-0.944 6.063-0.038 6.844 1.364 0.355 0.64 0.188 1.313-0.471 1.957zM44.641 14.186c1.355 2.002 2.57 5.051 2.203 5.53-1.535 1.995-4.912 2.519-7.16 1.86-0.701-0.205-1.411-4.652-1.5-8.149-0.002-0.087-0.070-0.157-0.142-0.205-0.040-0.027-0.094-0.039-0.147-0.039-0.043 0-0.085 0.008-0.121 0.021-0.049 0.019-0.106 0.042-0.159 0.063 0.090-0.201 0.167-0.408 0.213-0.622 0.335 0.053 0.403 0.31 0.509 0.829 0.030 0.146 0.061 0.296 0.102 0.441 0.039 0.139 0.184 0.22 0.323 0.184 0.602-0.16 0.601-0.681 0.6-0.993 0-0.067 0.001-0.124 0.003-0.173 0.083 0.317 0.182 0.623 0.45 0.96 0.056 0.071 0.144 0.105 0.235 0.099 0.090-0.010 0.169-0.063 0.211-0.144 0.161-0.315 0.141-0.684 0.124-1.009-0.007-0.143-0.011-0.257-0.007-0.349 0.184 0.703 0.577 1.218 1.138 1.477 0.065 0.030 0.139 0.033 0.207 0.007 0.067-0.026 0.121-0.077 0.148-0.143 0.117-0.269 0.161-0.581 0.17-0.904 0.148 0.13 0.307 0.247 0.456 0.357l0.147 0.11c0.085 0.064 0.198 0.067 0.29 0.014 0.093-0.052 0.144-0.159 0.134-0.264-0.050-0.508-0.097-0.992-0.006-1.465 0.136 0.071 0.229 0.194 0.352 0.367 0.129 0.181 0.287 0.387 0.541 0.522-0.014 0.401 0.198 0.896 0.687 1.619zM50.183 7.342c-0.162 2.183-2.257 3.072-4.208 3.735-0.108 0.036-0.209 0.072-0.308 0.106 0.441-0.673 0.492-1.396 0.12-2.065-0.898-1.616-4.111-2.649-7.465-1.615-3.332 1.028-4.635 3.954-4.294 5.671 0.188 0.945 0.834 1.512 1.763 1.598-0.097 0.165-0.217 0.309-0.513 0.493-1.357 0.837-2.446 0.907-3.323 0.21-0.005-0.067-0.035-0.132-0.089-0.18-1.281-1.129-1.982-2.988-1.922-5.099 0.076-2.701 1.349-5.279 3.406-6.896 3.494-2.746 9.811-3.934 13.646-1.323 1.699 1.157 3.345 3.264 3.188 5.365z"></path>
<path fill="#444444" d="M49.644 44.853c-0.040-0.003-4.053-0.359-5.513-4.354-0.008-0.022-0.023-0.039-0.036-0.057 2.121-1.61 2.34-3.127 2.577-4.82l0.024-0.172c0.356-2.532-1.070-4.656-2.329-5.991-2.156-2.286-4.207-3.305-6.652-3.305-1.188 0-2.502 0.23-4.134 0.724-4.289 1.297-9.325 5.39-10.213 10.421-0.927 5.255 2.365 9.654 6.084 10.871 0.471 0.154 1.013 0.232 1.613 0.232v0c1.578 0 3.32-0.521 4.857-0.98l0.648-0.192c0.205-0.060 0.414-0.153 0.626-0.273 1.385 1.487 1.911 3.25 2.258 4.437 0.249 0.853 0.4 1.369 0.768 1.516 0.051 0.020 0.116 0.036 0.191 0.036 0.089 0 0.192-0.022 0.303-0.088 0.015-0.007 1.517-0.759 3.474-1.915 0.899-0.531 3.667-2.587 5.659-5.681 0.051-0.078 0.056-0.178 0.015-0.262-0.043-0.083-0.125-0.14-0.219-0.146zM36.419 46.718l-0.652 0.194c-1.501 0.449-3.203 0.958-4.704 0.958-0.543 0-1.030-0.069-1.448-0.206-3.503-1.146-6.602-5.302-5.726-10.272 0.851-4.822 5.707-8.754 9.844-10.005 1.582-0.478 2.846-0.701 3.98-0.701 2.317 0 4.191 0.939 6.264 3.138 1.18 1.251 2.517 3.23 2.19 5.553l-0.024 0.172c-0.299 2.142-0.535 3.834-4.797 5.918-0.088 0.043-0.121 0.091-0.431 0.546-0.662 0.971-2.245 3.288-3.689 4.289-0.079-0.011-0.162 0.011-0.223 0.071-0.032 0.032-0.051 0.070-0.062 0.11-0.177 0.102-0.353 0.187-0.522 0.236zM43.917 50.484c-1.94 1.146-3.426 1.89-3.456 1.906-0.029 0.017-0.046 0.021-0.047 0.023-0.13-0.070-0.309-0.679-0.452-1.169-0.356-1.218-0.896-3.021-2.319-4.583 1.29-0.942 2.627-2.753 3.713-4.348 0.129-0.188 0.221-0.326 0.27-0.389 0.809-0.397 1.476-0.785 2.034-1.167 1.299 3.442 4.375 4.344 5.511 4.562-1.909 2.803-4.476 4.705-5.255 5.166z"></path>
<path fill="#444444" d="M16.796 4.929c-2.291-1.564-5.3-2.031-8.049-1.248-2.136 0.608-3.795 1.899-4.574 3.552-0.065 0.025-0.121 0.074-0.152 0.144-0.044 0.102-0.072 0.204-0.104 0.306-0.076 0.045-0.129 0.122-0.131 0.217-0.003 0.122-0.133 0.659-0.219 1.014-0.106 0.437-0.172 0.712-0.185 0.844-0.035 0.35 0.57 1.868 1.508 2.82 0.087 0.088 0.271 0.195 0.616 0.394 0.153 0.088 0.387 0.223 0.562 0.335-2.192 0.895-5.385 2.373-5.617 3.472-0.227 0.239-0.38 0.639-0.432 1.166-0.18 1.828 0.854 5.194 4.44 6.976 0.267 0.132 0.537 0.186 0.799 0.186 0.829 0 1.581-0.534 1.913-0.769l0.092-0.064c0.292-0.199 1.138-0.8 1.402-1.038 0.485-0.435 1.138-1.089 1.517-1.617 0.152-0.212 0.268-0.343 0.375-0.463 0.087-0.098 0.17-0.192 0.262-0.315 0.594 1.060 1.177 1.702 2.161 2.413l0.095 0.069c1.159 0.839 2.357 1.707 3.924 1.34 2.446-0.572 4.030-2.915 4.898-5.299 0.193-0.409 0.352-0.822 0.474-1.227 1.403-4.665-1.75-10.595-5.575-13.206zM5.772 12.511c-0.19-0.11-0.452-0.26-0.503-0.307-0.87-0.883-1.349-2.225-1.357-2.392 0.006-0.055 0.034-0.188 0.071-0.346 0.235 0.59 0.673 1.172 1.334 1.741 0.447 0.386 0.747 0.441 1.037 0.495 0.041 0.008 0.083 0.019 0.125 0.027 0.067 0.079 0.173 0.112 0.276 0.081 0.046 0.016 0.089 0.029 0.141 0.053 0.015 0.077 0.053 0.146 0.122 0.185 0.113 0.063 0.23 0.112 0.348 0.161 0.136 0.134 0.271 0.286 0.398 0.44-0.261 0.096-0.654 0.244-1.12 0.428-0.147-0.14-0.416-0.303-0.871-0.565zM7.531 9.461c1.328-0.728 4.234-0.359 6.016 2.216 1.818 2.627 1.855 5.76 0.751 6.929-0.505 0.536-1.2 0.581-2.015 0.147 0.081-0.058 0.167-0.116 0.231-0.158 0.329-0.217 0.64-0.421 0.674-0.72 0.010-0.082-0.021-0.166-0.081-0.223-0.061-0.058-0.147-0.083-0.227-0.070-0.29 0.048-0.635 0.233-1 0.428-0.171 0.092-0.344 0.185-0.5 0.255 0.043-0.112 0.12-0.218 0.221-0.352 0.196-0.258 0.441-0.579 0.343-1.1-0.023-0.127-0.149-0.221-0.264-0.217-0.473 0.005-0.905 0.128-1.324 0.287 0.109-0.269 0.223-0.479 0.379-0.622 0.027-0.011 0.053-0.021 0.080-0.032 0.178-0.071 0.349-0.14 0.508-0.194 0.127-0.043 0.201-0.174 0.174-0.305-0.027-0.132-0.148-0.226-0.28-0.212-0.318 0.024-0.564 0.128-0.759 0.28-0.364 0.144-0.75 0.286-1.091 0.33 0.232-0.593 0.851-0.93 1.233-1.087 0.072-0.030 0.128-0.090 0.152-0.164s0.014-0.155-0.027-0.222c-0.315-0.508-0.8-0.417-1.208-0.278 0.101-0.063 0.209-0.129 0.322-0.207 0.12-0.082 0.152-0.246 0.071-0.367-0.337-0.508-0.835-0.349-1.131-0.254-0.041 0.013-0.079 0.025-0.113 0.035 0.475-0.271 1.020-0.658 0.706-1.517-0.044-0.121-0.172-0.193-0.297-0.171-0.465 0.083-0.965 0.024-1.425-0.148-0.060-0.055-0.122-0.106-0.185-0.155 0.12-0.236 0.44-0.282 1.041-0.315 0.305-0.016 0.621-0.033 0.894-0.12 0.14-0.045 0.217-0.195 0.173-0.334-0.045-0.14-0.195-0.218-0.334-0.173-0.208 0.067-0.489 0.081-0.761 0.096-0.525 0.028-1.198 0.072-1.473 0.585-0.051-0.021-0.1-0.039-0.147-0.054-0.265-0.788-0.036-1.431 0.67-1.817zM8.291 13.023c0.081-0.028 0.13-0.112 0.155-0.195s-0.008-0.19-0.062-0.257c-0.032-0.040-0.067-0.083-0.101-0.127 0.216 0.023 0.433 0.033 0.648 0.012 0.049 0.334-0.179 0.477-0.647 0.736-0.132 0.073-0.267 0.148-0.394 0.232-0.121 0.080-0.156 0.242-0.078 0.365 0.333 0.525 0.834 0.365 1.134 0.269 0.063-0.020 0.118-0.037 0.165-0.049-0.279 0.176-0.543 0.363-0.785 0.718-0.051 0.076-0.061 0.171-0.024 0.255s0.112 0.143 0.202 0.157c0.349 0.055 0.699-0.074 1.007-0.189 0.134-0.050 0.242-0.087 0.331-0.112-0.619 0.388-0.995 0.918-1.077 1.531-0.010 0.071 0.011 0.144 0.055 0.2 0.045 0.057 0.111 0.093 0.182 0.1 0.294 0.030 0.607-0.024 0.92-0.113-0.080 0.18-0.145 0.366-0.206 0.54l-0.062 0.175c-0.036 0.1-0.002 0.208 0.075 0.28s0.198 0.090 0.295 0.048c0.473-0.202 0.925-0.393 1.406-0.451-0.028 0.15-0.118 0.276-0.247 0.446-0.137 0.179-0.294 0.391-0.346 0.678-0.384 0.112-0.789 0.462-1.324 1.137-1.502 1.895-4.045 3.974-4.61 3.762-2.316-0.846-3.814-3.8-3.921-6.121 0.122-0.050 0.194-0.181 0.159-0.312-0.009-0.035-0.026-0.066-0.046-0.093 0.668-0.869 4.221-2.6 7.199-3.623zM16.878 24.143c-1.331 0.312-2.38-0.448-3.491-1.252l-0.095-0.070c-1.025-0.741-1.584-1.403-2.215-2.625-0.045-0.087-0.133-0.142-0.23-0.144-0.097 0.004-0.188 0.049-0.237 0.133-0.177 0.308-0.298 0.445-0.452 0.617-0.116 0.131-0.243 0.275-0.409 0.505-0.355 0.494-0.998 1.134-1.441 1.533-0.23 0.208-1.047 0.789-1.344 0.993l-0.101 0.072c-0.401 0.285-1.341 0.951-2.167 0.541-3.345-1.662-4.312-4.767-4.147-6.447 0.001-0.008 0.003-0.012 0.003-0.020 0.378 2.119 1.721 4.801 4.164 5.692 0.072 0.027 0.151 0.038 0.237 0.038 1.279 0 4.016-2.763 4.973-3.97 0.4-0.504 0.726-0.809 0.97-0.926 0.059 0.069 0.149 0.11 0.245 0.094 0.072-0.012 0.149-0.035 0.227-0.062 0.051 0.030 0.102 0.067 0.156 0.112 0.015 0.109 0.094 0.203 0.207 0.226 0.008 0.002 0.017 0.002 0.026 0.003 0.206 0.225 0.433 0.525 0.69 0.875 0.952 1.299 2.726 3.715 5.378 3.093 0.741-0.174 1.414-0.549 2.009-1.045-0.775 0.988-1.751 1.753-2.956 2.034zM22.172 15.712c-0.002 0.010-0.006 0.017-0.007 0.027-0.069 0.97-0.311 2.174-0.734 3.367-0.752 1.613-2.064 3.137-3.728 3.53-2.132 0.502-3.61-1.229-4.827-2.89-0.067-0.091-0.13-0.176-0.193-0.26 0.212 0.058 0.42 0.094 0.619 0.094 0.527 0 1.001-0.203 1.383-0.607 1.27-1.345 1.293-4.719-0.7-7.598-1.791-2.588-4.974-3.332-6.709-2.38-0.842 0.461-1.191 1.243-1.001 2.148-0.182-0.044-0.353-0.116-0.61-0.338-1.208-1.042-1.601-2.059-1.2-3.106 0.062-0.025 0.115-0.073 0.144-0.139 0.692-1.561 2.252-2.787 4.283-3.365 2.599-0.741 5.441-0.301 7.603 1.175 3.067 2.094 5.678 6.394 5.677 10.344z"></path>
<path fill="#444444" d="M87.85 33.455c-2.703-3.957-7.17-6.831-12.256-7.886-4.239-0.879-8.34-0.305-13.31 1.872-3.599 1.898-6.018 5.858-6.020 9.853-0.001 3.784 2.099 6.999 5.913 9.077-0.319 0.351-0.576 0.657-0.678 0.834-1.748 1.752-2.873 3.352-3.347 4.754-0.52 1.541-0.275 2.865 0.727 3.935 1.562 1.666 5.103 3.418 8.063 3.987 0.429 0.082 0.943 0.122 1.495 0.122 2.135 0 4.823-0.601 5.242-1.658 0.020-0.051 0.024-0.105 0.012-0.159-0.663-2.861 0.1-5.514 1.009-7.436 0.011 0.003 0.021 0.009 0.032 0.010 0.854 0.078 1.693 0.117 2.507 0.117 5.021 0 9.141-1.453 10.638-3.869 2.749-4.436 2.739-9.502-0.028-13.552zM73.153 58.212c-0.504 0.862-4.048 1.54-6.109 1.143-2.817-0.542-6.305-2.259-7.775-3.828-0.145-0.155-0.265-0.318-0.373-0.483 0.030-0.076 0.029-0.161-0.016-0.235-0.569-0.925-0.164-1.76 0.276-2.297 1.433-1.75 5.269-2.889 8.256-1.789 2.9 1.066 4.483 3.71 4.499 3.736 0.074 0.127 0.237 0.169 0.364 0.095s0.169-0.237 0.095-0.364c-0.068-0.115-1.69-2.832-4.774-3.967-3.286-1.208-7.302 0.059-8.852 1.952-0.061 0.074-0.11 0.149-0.163 0.225 0.026-0.090 0.046-0.18 0.078-0.273 0.45-1.331 1.541-2.87 3.245-4.574 0.034-0.034 0.052-0.055 0.063-0.103 0.124-0.264 1.714-1.906 2.753-2.92 0.399-0.389 0.486-0.841 0.564-1.24 0.060-0.31 0.112-0.578 0.291-0.809 0.069-0.089 0.157-0.152 0.255-0.203 0.336 0.165 0.683 0.275 0.976 0.31 0.011 0.001 0.021 0.002 0.032 0.002 0.12 0 0.221-0.083 0.253-0.198 0.007 0.148 0.018 0.293 0.012 0.452-0.006 0.146 0.109 0.27 0.255 0.277 0.004 0 0.007 0 0.011 0 0.143 0 0.26-0.112 0.266-0.255 0.007-0.169 0.004-0.331-0.004-0.491 0.174 0.053 0.35 0.111 0.525 0.172 0.002 0.103 0.005 0.198 0.007 0.313 0.003 0.145 0.121 0.261 0.266 0.261 0.002 0 0.003 0 0.005 0 0.147-0.003 0.264-0.123 0.261-0.271-0.001-0.039-0.002-0.070-0.003-0.108 0.046 0.017 0.092 0.034 0.137 0.051 0.144 0.054 0.285 0.106 0.422 0.156 0.038 0.1 0.134 0.172 0.247 0.172 0.001 0 0.002 0 0.003 0 0.048-0.001 0.091-0.017 0.13-0.040 0.225 0.074 0.435 0.135 0.619 0.168 0.642 0.116 1.455 0.2 1.993 0.255 0.22 0.022 0.386 0.038 0.459 0.050 0.076 0.043 0.173 0.103 0.285 0.178 0.010 0.079 0.026 0.163 0.051 0.255 0.002 0.006 0.008 0.009 0.010 0.014 0.014 0.040 0.040 0.076 0.072 0.106 0.011 0.011 0.021 0.019 0.034 0.028 0.007 0.005 0.011 0.012 0.019 0.016 0.035 0.019 0.073 0.026 0.111 0.028 0.004 0 0.007 0.004 0.011 0.004 0.001 0 0.002-0.001 0.003-0.001 0 0 0.001 0.001 0.001 0.001s0.002-0.001 0.004-0.001c0.021-0.001 0.043-0.003 0.063-0.008 0.014-0.004 0.025-0.013 0.038-0.019 0.015-0.007 0.029-0.012 0.043-0.022 0.019-0.013 0.033-0.030 0.048-0.047 0.555 0.4 1.219 0.911 1.635 1.259 0.009 0.073 0.011 0.142 0.028 0.221 0.028 0.124 0.138 0.209 0.26 0.209 0.001 0 0.001 0 0.001 0s0.001 0 0.001 0c0.013 0 0.026-0.001 0.038-0.003 0.034-0.005 0.070-0.014 0.105-0.021 0.243 0.267 0.464 0.535 0.658 0.799-0.006 0.081 0.021 0.164 0.087 0.221 0.030 0.025 0.063 0.040 0.098 0.051 0.006 0.008 0.011 0.016 0.016 0.024-0.029 0.007-0.055 0.018-0.080 0.034-0.096 0.040-0.164 0.135-0.164 0.246 0.001 0.128-0.002 0.258-0.003 0.388-0.002 0.118-0.003 0.236-0.003 0.353-0.332 0.195-0.667 0.41-0.926 0.812-1.174 1.816-2.995 5.459-2.090 9.534zM65.068 38.558c0.033 0.113 0.077 0.226 0.122 0.331 0.046 0.105 0.107 0.185 0.161 0.255 0.027 0.035 0.055 0.071 0.079 0.111 0.062 0.102 0.107 0.224 0.155 0.353 0.027 0.072 0.054 0.144 0.083 0.213 0.086 0.203 0.151 0.409 0.206 0.617-0.044-0.107-0.092-0.213-0.146-0.318-0.173-0.33-0.368-0.606-0.555-0.855l-0.084-0.109c-0.1-0.127-0.214-0.271-0.248-0.387-0.018-0.062-0.059-0.106-0.109-0.136 0.101-0.027 0.213-0.052 0.335-0.075zM66.164 38.409c0.041 0.238 0.11 0.475 0.18 0.705 0.064 0.211 0.125 0.411 0.159 0.6 0.002 0.011 0.002 0.019 0.004 0.030-0.012-0.011-0.026-0.023-0.037-0.033-0.145-0.122-0.259-0.219-0.324-0.378-0.089-0.221-0.075-0.489-0.059-0.772 0.003-0.048 0.005-0.096 0.007-0.144 0.023-0.003 0.045-0.006 0.070-0.008zM68.804 38.444c0.046 0.342 0.133 0.822 0.22 1.296 0.019 0.105 0.038 0.21 0.057 0.314-0.050 0.026-0.104 0.046-0.146 0.082-0.467-0.362-1.15-0.943-1.225-1.467-0.021-0.145-0.158-0.244-0.301-0.226-0.145 0.021-0.247 0.155-0.226 0.301 0.015 0.105 0.045 0.21 0.086 0.312-0.080 0.086-0.101 0.215-0.036 0.32 0.686 1.101 0.846 1.593 0.898 2.601-0.188-0.064-0.378-0.122-0.566-0.173-0.073-0.414-0.205-0.801-0.4-1.175-0.030-0.323-0.076-0.656-0.139-1.009-0.039-0.219-0.107-0.443-0.173-0.66-0.059-0.194-0.118-0.392-0.156-0.584 0.635-0.027 1.35-0.012 2.107 0.067zM72.987 39.617c-0.024 0.156-0.076 0.279-0.162 0.352-0.107 0.092-0.286 0.12-0.507 0.098-0.029-0.027-0.062-0.051-0.1-0.062-0.074-0.061-0.237-0.241-0.394-0.42 0.012-0.156 0.022-0.306 0.030-0.453 0.382 0.139 0.762 0.299 1.133 0.486zM80.278 45.353c0.014 0.191 0.039 0.41 0.094 0.646-0.437 0.094-0.869 0.215-1.295 0.337-0.367 0.105-0.74 0.208-1.116 0.295 0.064-0.164 0.114-0.321 0.156-0.475 0.231-0.056 0.46-0.118 0.66-0.211 0.358-0.166 0.637-0.367 0.883-0.545 0.205-0.148 0.388-0.277 0.584-0.37 0.015 0.105 0.025 0.21 0.034 0.321zM76.136 45.596c0.555-0.188 1.126-0.475 1.561-0.702 0.034 0.285 0.024 0.552-0.023 0.826-0.38 0.090-0.78 0.201-1.104 0.421-0.153-0.203-0.301-0.39-0.433-0.544zM72.962 43.092c0.099-0.113 0.206-0.231 0.32-0.355 0.123-0.134 0.251-0.275 0.378-0.42-0.079 0.141-0.173 0.254-0.277 0.369-0.119 0.134-0.243 0.277-0.324 0.462-0.036-0.022-0.067-0.039-0.097-0.056zM69.011 42.294c-0.111-0.041-0.224-0.083-0.338-0.126-0.028-0.745-0.098-1.253-0.324-1.818 0.171 0.142 0.335 0.265 0.469 0.367 0.047 0.035 0.103 0.054 0.161 0.054 0.020 0 0.040-0.002 0.061-0.007 0.061-0.014 0.11-0.054 0.147-0.103 0.026 0.153 0.048 0.296 0.061 0.407 0.040 0.337 0.021 0.722 0.002 1.095-0.004 0.074-0.004 0.144-0.007 0.218-0.077-0.029-0.152-0.056-0.231-0.086zM70.281 42.71c-0.001-0.059-0.001-0.118-0.002-0.181 0.044-0.035 0.078-0.085 0.092-0.144l0.061-0.257c0.681-0.255 0.62-1.441 0.57-2.409-0.005-0.097-0.010-0.193-0.014-0.285 0.083 0.095 0.168 0.192 0.24 0.276 0.017 0.020 0.030 0.035 0.047 0.054-0.082 0.937-0.222 1.987-0.327 2.765l-0.038 0.286c-0.197-0.028-0.39-0.056-0.569-0.089-0.019-0.004-0.041-0.011-0.060-0.015zM71.475 42.598c0.081-0.602 0.183-1.363 0.264-2.116 0.77 0.243 1.203 0.083 1.43-0.109 0.068-0.057 0.126-0.122 0.174-0.196 0.184 0.345 0.395 0.648 0.56 0.865-0.206 0.455-0.637 0.927-1.012 1.334-0.197 0.214-0.381 0.415-0.526 0.604-0.024-0.003-0.044-0.005-0.071-0.007-0.243-0.025-0.544-0.056-0.857-0.094l0.038-0.281zM74.626 42.124c0.069-0.103 0.146-0.185 0.227-0.256 0.319 0.131 0.616 0.128 0.908 0.12 0.041-0.001 0.083-0.002 0.125-0.002-0.046 0.025-0.093 0.051-0.132 0.074-0.684 0.398-1.469 1.075-1.768 1.724-0.078-0.056-0.153-0.111-0.228-0.164 0.293-0.541 0.615-1.115 0.87-1.495zM76.019 42.519c0.312-0.181 0.603-0.298 0.853-0.356 0.099 0.041 0.198 0.082 0.267 0.114-0.002 0.006-0.003 0.013-0.004 0.020-0.071 0.097-0.155 0.189-0.315 0.289-0.060 0.037-0.202 0.046-0.328 0.054-0.213 0.013-0.454 0.028-0.639 0.177-0.389 0.312-0.529 0.634-0.652 0.919-0.101 0.234-0.197 0.439-0.418 0.652-0.116-0.090-0.235-0.181-0.355-0.272 0.155-0.469 0.829-1.151 1.592-1.595zM76.503 43.171c-0.073 0.055-0.147 0.111-0.223 0.167-0.159 0.116-0.327 0.24-0.486 0.38 0.085-0.17 0.19-0.328 0.39-0.488 0.051-0.040 0.196-0.051 0.319-0.059zM76.594 43.768c0.213-0.156 0.427-0.317 0.614-0.501 0.053 0.171 0.111 0.327 0.171 0.469 0.043 0.101 0.083 0.202 0.121 0.307-0.19 0.060-0.346 0.070-0.489 0.078-0.482 0.026-0.822 0.119-1.322 1.005-0.017-0.015-0.035-0.031-0.053-0.047 0.007-0.609 0.434-0.928 0.958-1.312zM77.675 48.423c-0.001-0.005-0.003-0.011-0.003-0.015 0.363-0.002 0.739 0.028 1.127 0.062 0.293 0.026 0.588 0.047 0.884 0.057-0.698 0.039-1.51 0.048-2.008-0.103zM76.701 47.519c0.001-0.057 0.001-0.114 0.002-0.17 0.005-0.001 0.011-0.001 0.016-0.002 0.021 0.040 0.047 0.081 0.068 0.121-0.028 0.022-0.057 0.039-0.086 0.060 0-0.003 0-0.006 0-0.009zM77.009 46.795c-0.045-0.073-0.087-0.148-0.134-0.219 0.178-0.12 0.398-0.202 0.637-0.268-0.052 0.142-0.111 0.288-0.182 0.444-0.106 0.016-0.213 0.031-0.321 0.043zM76.991 44.655c-0.165 0.081-0.337 0.162-0.513 0.238 0.179-0.202 0.322-0.226 0.513-0.238zM76.791 48.5c0.018-0.004 0.036-0.005 0.054-0.009 0.008 0.011 0.014 0.026 0.022 0.035 0.083 0.106 0.193 0.193 0.323 0.265 0.027 0.127 0.139 0.224 0.271 0.212 0.053-0.003 0.098-0.026 0.138-0.055 0.357 0.097 0.796 0.133 1.287 0.133 0.168 0 0.348-0.008 0.526-0.015-0.563 0.18-1.174 0.342-1.446 0.375-0.436 0.053-0.744-0.004-0.936-0.176-0.149-0.134-0.231-0.347-0.277-0.599l0.037-0.165zM80.935 47.577c-0.016 0.026-0.031 0.055-0.038 0.087l-0.055 0.246c-0.61 0.151-1.284 0.092-1.996 0.029-0.433-0.038-0.875-0.071-1.309-0.060-0.033-0.096-0.069-0.191-0.108-0.286 0.057-0.065 0.112-0.138 0.164-0.214 0.152 0.003 0.305 0.004 0.456 0.007 0.351 0.008 0.704 0.016 1.058 0.016 0.588 0 1.175-0.025 1.747-0.109 0.034 0.097 0.063 0.192 0.082 0.282zM79.138 46.871c0.028-0.008 0.056-0.015 0.085-0.023 0.446-0.127 0.88-0.25 1.311-0.34 0.038 0.095 0.078 0.188 0.119 0.28-0.489 0.064-0.994 0.083-1.514 0.083zM79.349 44.97c-0.238 0.172-0.484 0.349-0.796 0.494-0.095 0.044-0.206 0.080-0.321 0.113 0.033-0.318 0.015-0.637-0.044-0.977 0.11-0.080 0.222-0.169 0.338-0.262 0.278-0.223 0.612-0.49 0.878-0.569 0.095 0.138 0.212 0.235 0.318 0.321 0.119 0.097 0.232 0.188 0.32 0.339 0.018 0.031 0.029 0.060 0.044 0.091-0.269 0.116-0.501 0.279-0.737 0.449zM78.602 43.241c-0.12 0.163-0.223 0.304-0.518 0.505-0.035 0.024-0.067 0.043-0.1 0.064-0.037-0.1-0.076-0.193-0.114-0.282-0.080-0.188-0.156-0.367-0.206-0.599-0.026-0.119-0.032-0.207-0.034-0.284 0.021-0.053 0.053-0.098 0.069-0.154 0.008-0.029 0.008-0.058 0.007-0.087 0.079-0.111 0.161-0.19 0.363-0.268 0.027-0.011 0.049-0.027 0.070-0.045 0.145 0.21 0.236 0.446 0.231 0.72-0.002 0.125 0.082 0.234 0.204 0.263l0.129 0.031c-0.038 0.047-0.071 0.092-0.103 0.135zM77.663 41.744c-0.033-0.052-0.081-0.093-0.144-0.112-0.191-0.057-0.4-0.054-0.61-0.021-0.466-0.17-0.853-0.166-1.167-0.155-0.142 0.004-0.268 0.006-0.389-0.006 0.171-0.179 0.298-0.422 0.279-0.829 0.234 0.093 0.476 0.19 0.729 0.3 0.435 0.188 0.985 0.433 1.401 0.773-0.034 0.016-0.070 0.032-0.099 0.049zM75.074 40.411c0.098 0.495-0.019 0.624-0.276 0.82-0.074-0.057-0.152-0.134-0.233-0.222 0.007-0.061 0.015-0.121 0.022-0.182 0.008-0.072 0.016-0.146 0.026-0.221l0.232-0.049c0.089-0.019 0.153-0.082 0.186-0.161 0.013 0.005 0.028 0.011 0.042 0.015zM74.086 40.101c-0.044 0.039-0.074 0.091-0.085 0.149-0.028-0.045-0.056-0.093-0.084-0.141 0.042 0.004 0.082-0.004 0.122-0.019 0.016 0.004 0.030 0.006 0.047 0.011zM71.328 39.016c-0.025-0.028-0.052-0.059-0.075-0.083 0.026 0.008 0.052 0.015 0.077 0.023-0.001 0.021-0.001 0.039-0.002 0.060zM70.47 39.745c0.033 0.644 0.082 1.679-0.216 1.86-0.010-0.274-0.020-0.555-0.030-0.836-0.029-0.763-0.059-1.551-0.059-2.065 0-0.020-0.007-0.037-0.011-0.055 0.109 0.022 0.218 0.051 0.326 0.077-0.008 0.022-0.024 0.040-0.027 0.065-0.019 0.259-0.002 0.596 0.016 0.954zM69.633 38.705c0 0.347 0.013 0.818 0.031 1.317-0.016-0.015-0.035-0.027-0.055-0.037-0.020-0.112-0.041-0.226-0.062-0.342-0.074-0.404-0.149-0.816-0.197-1.132 0.109 0.015 0.219 0.035 0.328 0.054-0.026 0.040-0.045 0.087-0.045 0.139zM67.082 42.236c-0.001-0.002-0.002-0.003-0.002-0.004 0.001 0 0.001 0 0.002 0 0 0.001 0 0.003 0 0.004zM66.674 41.579c0 0.019 0.007 0.036 0.011 0.055-0.041-0.004-0.083-0.008-0.124-0.010 0.003-0.015 0.009-0.031 0.009-0.047-0.006-0.395-0.059-0.78-0.149-1.154 0.085 0.122 0.152 0.245 0.22 0.367 0.020 0.266 0.035 0.528 0.034 0.789zM64.369 38.91l-0.036 0.011c0.002 0.006 0.004 0.012 0.005 0.018l-0.008 0.001c0.006 0.061 0.030 0.109 0.068 0.144 0.076 0.151 0.184 0.288 0.276 0.404l0.077 0.098c0.2 0.267 0.362 0.502 0.51 0.784 0.088 0.169 0.155 0.342 0.222 0.515 0.054 0.139 0.108 0.277 0.171 0.415 0.028 0.059 0.065 0.119 0.105 0.178 0.027 0.040 0.078 0.115 0.078 0.14-0.006 0.021-0.004 0.041-0.005 0.061-0.018-0.011-0.037-0.021-0.055-0.033-0.030-0.086-0.067-0.168-0.101-0.24-0.031-0.063-0.061-0.125-0.080-0.186-0.127-0.398-0.326-0.693-0.537-1.005l-0.011-0.015c-0.014-0.034-0.034-0.064-0.061-0.090l-0.035-0.052c-0.428-0.634-0.67-0.994-0.825-1.192 0.055-0.027 0.109-0.054 0.163-0.080 0.018-0.009 0.047-0.018 0.068-0.027-0.022 0.047-0.036 0.099-0.031 0.152h0.043zM63.66 39.102c0.044 0.060 0.217 0.31 0.851 1.25l0.013 0.020c-0.059 0.35 0.014 0.703 0.232 1.028 0.139 0.209 0.33 0.392 0.543 0.553 0 0.002 0.001 0.004 0.001 0.005-0.002 0.012 0.001 0.023 0.001 0.035-0.053 0.049-0.102 0.102-0.148 0.162-0.109 0.141-0.18 0.29-0.236 0.439-0.013 0.001-0.026-0.003-0.039-0.001-0.005 0.001-0.008 0.001-0.013 0.002 0.007-0.031 0.011-0.062 0.006-0.096-0.029-0.214-0.124-0.408-0.208-0.579l-0.127-0.272c-0.11-0.243-0.213-0.472-0.395-0.712-0.098-0.13-0.19-0.263-0.282-0.395-0.15-0.217-0.306-0.441-0.488-0.654-0.042-0.049-0.091-0.097-0.141-0.145-0.132-0.128-0.186-0.191-0.176-0.251 0.001-0.005-0.001-0.009-0.001-0.013 0.191-0.139 0.396-0.264 0.606-0.377zM62.62 39.844c0.070 0.114 0.164 0.206 0.239 0.279 0.038 0.037 0.076 0.073 0.106 0.109 0.165 0.193 0.306 0.397 0.455 0.612 0.096 0.138 0.192 0.276 0.295 0.412 0.146 0.193 0.233 0.386 0.335 0.61l0.134 0.287c0.070 0.142 0.142 0.288 0.159 0.417 0.001 0.006 0.005 0.011 0.006 0.018-0.289-0.068-0.507-0.247-0.758-0.456-0.297-0.248-0.628-0.526-1.121-0.614l-0.055-0.224c-0.035-0.143-0.179-0.23-0.321-0.195-0.143 0.035-0.23 0.179-0.195 0.321l0.099 0.404c0.028 0.112 0.125 0.194 0.24 0.202 0.432 0.029 0.701 0.254 1.012 0.515 0.346 0.29 0.732 0.612 1.353 0.612 0.052 0 0.112-0.011 0.168-0.016-0.004 0.017-0.008 0.035-0.011 0.053-0.057 0.298-0.115 0.561-0.28 0.796-0.043-0.014-0.089-0.022-0.138-0.012-0.236 0.049-0.679-0.115-1.142-0.428-0.667-0.453-1.244-1.108-1.313-1.492-0.027-0.145-0.168-0.238-0.309-0.214-0.144 0.026-0.24 0.165-0.214 0.309 0.040 0.223 0.166 0.464 0.34 0.703-0.251-0.206-0.481-0.43-0.575-0.671-0.070-0.182 0.028-0.321 0.267-0.593l0.081-0.094c0.32-0.375 0.556-0.772 0.764-1.145 0.104-0.187 0.233-0.352 0.38-0.502zM64.011 44.479c-0.007 0.007-0.014 0.014-0.021 0.021-0.017-0.008-0.036-0.019-0.060-0.032 0.027 0.007 0.053 0.007 0.080 0.012zM87.427 46.725c-1.621 2.615-6.621 4.021-12.475 3.515 0.259-0.498 0.519-0.938 0.754-1.302 0.126-0.196 0.295-0.335 0.485-0.461 0.007 0.071 0.014 0.14 0.025 0.209-0.001 0.036 0.006 0.071 0.020 0.103 0.066 0.345 0.192 0.651 0.439 0.873s0.576 0.331 1 0.331c0.112 0 0.231-0.008 0.356-0.023 0.496-0.060 2.386-0.592 2.83-0.939 0.024-0.019 0.044-0.038 0.066-0.057 0.086-0.005 0.165-0.008 0.23-0.008 0.147-0.001 0.265-0.12 0.265-0.267-0.001-0.079-0.037-0.148-0.093-0.197 0.24-0.432 0.19-0.882 0.054-1.306 0.319-0.071 0.632-0.163 0.935-0.289 0.136-0.056 0.2-0.212 0.144-0.347s-0.211-0.201-0.347-0.144c-0.299 0.123-0.608 0.214-0.924 0.281-0.015-0.036-0.031-0.072-0.046-0.107-0.027-0.061-0.050-0.119-0.075-0.177 0.372-0.049 0.743-0.063 1.116-0.020 0.144 0.014 0.278-0.088 0.295-0.234s-0.088-0.278-0.234-0.295c-0.456-0.051-0.908-0.025-1.353 0.040-0.052-0.206-0.071-0.395-0.085-0.591-0.010-0.138-0.024-0.279-0.048-0.424 0.138-0.011 0.289-0.008 0.462 0.018 0.149 0.018 0.28-0.079 0.302-0.224s-0.079-0.28-0.224-0.302c-0.265-0.038-0.493-0.035-0.697-0.007-0.031-0.070-0.060-0.139-0.103-0.213-0.136-0.234-0.306-0.372-0.443-0.483-0.103-0.083-0.182-0.149-0.235-0.24-0.006-0.035-0.018-0.067-0.036-0.096-0.027-0.080-0.043-0.173-0.038-0.311 0.004-0.102-0.053-0.192-0.138-0.24-0.008-0.039-0.022-0.077-0.048-0.111-0.090-0.117-0.257-0.138-0.373-0.048-0.015 0.012-0.026 0.022-0.041 0.034l-0.255-0.061c-0.125-1.218-1.487-1.809-2.319-2.171-0.864-0.375-1.912-0.777-2.657-0.908-0.119-0.072-0.238-0.14-0.36-0.207-0.009-0.030-0.020-0.059-0.028-0.088-0.011-0.128-0.031-0.265-0.061-0.41-0.028-0.135-0.148-0.232-0.292-0.21-0.137 0.016-0.239 0.134-0.235 0.272 0.002 0.044 0.014 0.088 0.018 0.132-0.361-0.169-0.725-0.323-1.094-0.452-0.018-0.128-0.122-0.23-0.255-0.231-0.001 0-0.002 0-0.003 0-0.078 0-0.146 0.035-0.195 0.089-1.713-0.52-3.434-0.641-4.803-0.574-0.055-0.084-0.152-0.134-0.258-0.116-0.088 0.013-0.158 0.070-0.196 0.145-0.025 0.002-0.052 0.003-0.077 0.005-0.010-0.073-0.024-0.147-0.045-0.221-0.040-0.142-0.187-0.223-0.328-0.184-0.142 0.040-0.224 0.187-0.184 0.328 0.008 0.030 0.007 0.064 0.012 0.095-0.008-0.010-0.013-0.022-0.023-0.031-0.108-0.098-0.277-0.089-0.376 0.020-0.035 0.039-0.059 0.083-0.078 0.129-0.451 0.083-0.796 0.186-1 0.285-0.789 0.384-1.771 0.862-2.283 1.783-0.194 0.349-0.413 0.719-0.703 1.058l-0.077 0.088c-0.235 0.268-0.556 0.634-0.364 1.135 0.182 0.471 0.651 0.834 1.028 1.126 0.075 0.057 0.146 0.113 0.212 0.167l0.184 0.148c0.247 0.2 0.495 0.4 0.73 0.613 0.032 0.030 0.071 0.051 0.113 0.061 0.074 0.037 0.245 0.138 0.415 0.239 0.119 0.070 0.208 0.122 0.285 0.165-0.321 0.323-0.698 0.708-1.049 1.078-3.71-1.978-5.753-5.057-5.752-8.676 0.002-3.802 2.306-7.572 5.718-9.373 4.844-2.121 8.844-2.686 12.971-1.829 4.952 1.027 9.299 3.821 11.924 7.665 2.643 3.873 2.649 8.722 0.014 12.972z"></path>
</svg>
