<?xml version="1.0" encoding="utf-8"?>
<!-- Generated by IcoMoon.io -->
<!DOCTYPE svg PUBLIC "-//W3C//DTD SVG 1.1//EN" "http://www.w3.org/Graphics/SVG/1.1/DTD/svg11.dtd">
<svg version="1.1" xmlns="http://www.w3.org/2000/svg" xmlns:xlink="http://www.w3.org/1999/xlink" width="96" height="60" viewBox="0 0 96 60">
<path fill="#444444" d="M47.644 60c-2.977 0-5.642-0.476-8.031-0.904-0.499-0.088-0.983-0.176-1.455-0.255-2.334-0.394-4.539-0.969-6.557-1.712-4.635-1.704-7.028-3.838-7.374-4.423-0.666-1.121-0.666-3.398-0.009-4.185 0.186-0.66 0.48-1.256 0.746-1.74 0.294-0.532 1.219-1.166 2.198-1.834 0.69-0.471 1.402-0.958 1.929-1.431 1.53-1.374 2.432-2.666 2.711-3.092-0.808-0.454-4.582-2.621-8.499-5.728-0.486-0.386-1.029-0.782-1.605-1.202-1.185-0.863-2.409-1.755-3.347-2.711-1.277-1.301-2.072-2.88-2.916-4.553-0.242-0.48-0.489-0.971-0.754-1.466-0.999-1.875-1.931-3.992-2.771-6.293-0.253-0.127-1.697-0.324-2.974-0.499-1.905-0.259-4.063-0.555-4.986-0.9-1.755-0.658-3.949-3.825-3.949-4.528 0-0.135 0.069-0.264 0.21-0.39 0.698-0.623 3.186-1.142 4.671-0.971 0.988 0.112 2.308 0.724 3.472 1.262 0.729 0.337 1.425 0.66 1.92 0.801-0.199-0.765-0.339-1.389-0.422-1.828-0.165-0.306-0.281-0.596-0.362-0.863-0.317-1.041-0.126-1.869 0.131-2.265v0c1.629-2.482 5.094-4.32 10.592-5.616 4.282-1.011 9.93-2.218 15.641-2.587 2.186-0.142 4.41-0.077 6.561-0.015 1.723 0.051 3.506 0.103 5.203 0.041 3.778-0.135 7.929-0.002 12.341 0.392 7.159 0.637 13.133 1.789 16.056 2.419 2.595 0.559 4.774 1.134 5.552 1.468 0.099 0.043 0.204 0.086 0.317 0.133 1.434-0.934 3.422-1.189 6.073-0.784 3.255 0.499 6.696 1.847 6.823 3.244 0.131 1.449-2.096 2.608-2.119 2.619-0.369 0.184-3.606 3.266-4.256 4.387l-0.341 0.587c-0.429 1.35-1.046 2.931-1.817 4.648l-0.216 0.478c-1.712 3.812-3.651 8.132-6.283 11.49-1.249 1.594-3.111 2.949-4.753 4.146-0.248 0.18-0.487 0.354-0.718 0.525-3.666 2.708-7.425 4.239-8.509 4.652 0.797 0.561 3.118 2.227 3.857 3.109 0.227 0.27 0.444 0.527 0.653 0.773 0.924 1.087 1.676 1.973 2.173 2.942 1.536 2.136 1.787 4.003 0.774 5.687-0.491 0.823-2.104 1.852-4.311 2.756-2.28 0.936-6.371 2.218-12.904 3.021-0.838 0.103-1.71 0.289-2.633 0.486-1.376 0.294-2.797 0.596-4.326 0.675-0.476 0.026-0.947 0.038-1.408 0.038zM24.067 50.381c-0.011 0.78 0.139 1.627 0.45 2.151 0.33 0.557 2.651 2.606 7.2 4.279 1.997 0.735 4.183 1.305 6.495 1.695 0.472 0.081 0.96 0.167 1.459 0.257 2.741 0.489 5.843 1.048 9.362 0.862 1.5-0.079 2.91-0.379 4.273-0.669 0.93-0.199 1.807-0.386 2.661-0.489 6.495-0.799 10.554-2.070 12.816-2.998 2.522-1.033 3.797-2.029 4.148-2.617 0.714-1.189 0.739-2.488 0.064-3.936 0.133 0.703 0.154 1.494 0.037 2.445-0.131 1.087-1.436 2.121-3.876 3.071-2.169 0.846-5.306 1.65-9.071 2.323-1.284 0.231-2.561 0.531-3.793 0.819-1.689 0.398-3.285 0.773-4.624 0.894-2.867 0.264-7.185 0.15-11.002-0.292-3.889-0.45-7.956-1.624-12.428-3.593-2.192-0.964-3.544-2.162-4.016-3.557-0.073-0.216-0.124-0.433-0.154-0.647zM12.461 18.983c0.771 2.042 1.616 3.93 2.518 5.619 0.266 0.499 0.514 0.99 0.758 1.474 0.831 1.648 1.616 3.204 2.854 4.468 0.919 0.936 2.132 1.821 3.306 2.676 0.579 0.422 1.125 0.819 1.616 1.209 4.374 3.471 8.567 5.762 8.608 5.784l0.156 0.084-0.090 0.152c-0.039 0.064-0.964 1.609-2.869 3.319-0.544 0.488-1.266 0.983-1.965 1.459-0.945 0.647-1.838 1.256-2.091 1.718-0.547 0.997-1.219 2.492-0.716 3.975 0.441 1.301 1.731 2.432 3.833 3.356 4.442 1.954 8.473 3.122 12.33 3.566 3.795 0.439 8.085 0.553 10.931 0.291 1.314-0.122 2.901-0.493 4.579-0.887 1.237-0.291 2.516-0.591 3.812-0.823 3.743-0.669 6.859-1.468 9.006-2.306 2.314-0.904 3.546-1.843 3.662-2.797 0.197-1.627-0.006-2.752-0.527-3.788-0.221-0.306-0.469-0.619-0.744-0.938l0.111-0.096c-0.416-0.585-0.928-1.187-1.519-1.883-0.208-0.246-0.428-0.502-0.654-0.774-0.846-1.011-4.024-3.212-4.056-3.234l-0.276-0.191 0.319-0.109c0.043-0.015 4.448-1.558 8.724-4.717 0.233-0.171 0.474-0.347 0.722-0.527 1.624-1.183 3.465-2.522 4.686-4.080 2.606-3.326 4.537-7.626 6.242-11.419l0.216-0.48c0.641-1.427 1.179-2.777 1.59-3.973-0.776 0.585-2.291 1.328-4.335 2.109-1.62 0.621-3.536 1.252-5.694 1.877-3.195 0.926-8.032 1.659-13.986 2.121-1.009 0.079-2.046 0.165-3.109 0.253-5.078 0.422-10.832 0.902-16.703 0.726-1.185-0.036-2.392-0.246-3.561-0.45-1.016-0.178-2.068-0.362-3.099-0.427-4.455-0.287-8.692-0.902-12.594-1.828-7.714-1.828-12.122-4.378-13.631-5.535 0.167 0.602 0.364 1.268 0.589 1.978 1.361 0.187 2.961 1.629 3.743 2.333 0.167 0.152 0.294 0.266 0.367 0.323 0.371 0.277 4.166 1.53 5.486 1.892 0.401 0.111 0.756 0.433 1.052 0.96 0.512 0.909 0.718 2.211 0.559 2.767-0.218 0.759-1.785 0.514-3.443 0.257-0.313-0.049-0.619-0.096-0.9-0.133-1.427-0.191-2.663-2.098-3.326-3.122-0.122-0.187-0.225-0.349-0.307-0.463-0.276-0.384-1.033-0.93-1.641-1.371-0.208-0.15-0.386-0.279-0.534-0.392zM4.254 11.488c-1.44 0-3.321 0.472-3.819 0.919-0.069 0.064-0.096 0.111-0.096 0.135 0 0.495 2.049 3.581 3.728 4.209 0.889 0.334 3.12 0.637 4.912 0.883 2.73 0.373 3.154 0.461 3.234 0.681 0.054 0.116 0.566 0.486 0.979 0.784 0.66 0.476 1.41 1.018 1.718 1.448 0.084 0.118 0.191 0.283 0.317 0.476 0.634 0.979 1.815 2.799 3.086 2.97 0.285 0.037 0.593 0.086 0.907 0.135 1.166 0.182 2.929 0.457 3.064-0.013 0.118-0.414-0.032-1.628-0.527-2.507-0.173-0.306-0.459-0.692-0.846-0.799-1.125-0.309-5.132-1.598-5.601-1.948-0.079-0.060-0.216-0.18-0.392-0.341-0.774-0.697-2.385-2.151-3.656-2.259-0.349-0.030-0.786-0.058-1.262-0.088l-0.397-0.026c-2.145-0.129-3.692-0.242-4.086-0.476-0.716-0.429-3.062-1.869-3.178-2.387-0.021-0.092 0.006-0.157 0.034-0.199 0.015-0.022 1.567-2.197 8.218 1.327-0.079-0.276-0.152-0.542-0.221-0.793-0.531-0.112-1.29-0.465-2.16-0.868-1.142-0.529-2.436-1.127-3.369-1.234-0.184-0.021-0.381-0.030-0.587-0.030zM10.661 13.384c0.951 0.9 5.376 3.765 13.864 5.777 3.883 0.921 8.102 1.534 12.538 1.819 1.050 0.067 2.109 0.253 3.135 0.433 1.155 0.203 2.351 0.411 3.512 0.446 5.85 0.174 11.595-0.302 16.663-0.724 1.063-0.088 2.102-0.174 3.111-0.253 5.931-0.457 10.744-1.187 13.916-2.108 2.149-0.623 4.056-1.251 5.668-1.869 3.414-1.307 4.545-2.186 4.688-2.498 0.146-0.463 0.27-0.896 0.369-1.298-1.011 1.271-3.525 2.503-7.5 3.675-4.084 1.202-9.572 2.274-15.457 3.017-1.937 0.246-3.904 0.319-5.805 0.39-2.428 0.090-4.721 0.176-6.829 0.596-4.057 0.808-8.557 0.199-12.909-0.392-1.153-0.156-2.346-0.319-3.501-0.448-8.76-0.99-16.957-2.707-20.884-4.373-2.571-1.089-4.041-2.289-4.873-3.367 0.081 0.343 0.178 0.739 0.294 1.178zM9.906 8.477c-0.236 0.36-0.354 1.11-0.092 1.98 0.39 1.283 1.671 3.159 5.559 4.806 3.898 1.654 12.058 3.36 20.788 4.346 1.159 0.131 2.353 0.294 3.508 0.45 4.324 0.585 8.794 1.192 12.797 0.394 2.136-0.426 4.442-0.512 6.883-0.604 1.894-0.071 3.853-0.142 5.775-0.386 5.867-0.741 11.338-1.809 15.405-3.006 4.663-1.374 7.331-2.856 7.717-4.282 1.144-4.232-3.598-6.161-6.146-7.198-0.247-0.101-0.472-0.191-0.669-0.276-0.578-0.247-2.361-0.774-5.49-1.447-2.916-0.628-8.873-1.776-16.014-2.411-4.399-0.392-8.535-0.523-12.298-0.39-1.708 0.062-3.497 0.009-5.226-0.041-2.143-0.062-4.361-0.128-6.529 0.015-5.683 0.369-11.314 1.573-15.585 2.582-5.409 1.275-8.807 3.066-10.386 5.471v0zM2.687 13.241c0.176 0.313 1.665 1.333 3.007 2.137 0.353 0.212 2.421 0.337 3.932 0.429l0.397 0.024c0.369 0.023 0.716 0.045 1.016 0.067-0.112-0.356-0.217-0.699-0.315-1.029-6.036-3.277-7.798-1.873-8.038-1.629zM88.768 10.504c0.013 0.276 0.037 1.256-0.201 2.681 1.117-1.384 3.512-3.671 3.941-3.885s2.027-1.239 1.931-2.286c-0.094-1.046-3.15-2.421-6.536-2.938-2.437-0.371-4.286-0.174-5.632 0.607 0.531 0.216 1.148 0.469 1.785 0.769 0.42-0.143 2.552-0.808 4.583-0.216 0.319 0.094 3.769 1.436 3.746 1.939-0.004 0.081-0.056 0.176-0.197 0.204-0.298 0.060-1.963 1.628-3.424 3.126zM84.508 5.67c1.868 0.939 3.791 2.314 4.187 4.423 0.731-0.746 2.557-2.571 3.257-2.972-0.525-0.379-2.621-1.329-3.405-1.558-1.588-0.463-3.283-0.103-4.039 0.107zM45.167 42.397c-0.384 0-1.466-0.186-1.59-0.632-0.039-0.143-0.006-0.351 0.379-0.544l0.094 0.189c0.021-0.002 0.039-0.002 0.060-0.002 0.424-0.015 0.906-0.034 1.307 0.139 0.253 0.109 0.54 0.264 0.501 0.506-0.032 0.197-0.257 0.307-0.688 0.341-0.019 0.002-0.039 0.002-0.064 0.002zM43.973 41.754c0.218 0.15 0.894 0.328 1.234 0.304 0.171-0.013 0.276-0.039 0.336-0.062-0.041-0.032-0.118-0.077-0.255-0.135-0.33-0.141-0.754-0.126-1.163-0.112-0.051 0.002-0.101 0.004-0.152 0.004zM49.646 41.852c-0.296 0-0.688-0.139-1.071-0.289-0.096-0.037-0.171-0.067-0.204-0.075l0.064-0.319-0.028-0.036c0.251-0.195 1.157-0.229 1.519-0.004 0.154 0.096 0.225 0.242 0.191 0.401-0.024 0.114-0.090 0.204-0.191 0.261-0.079 0.041-0.174 0.060-0.281 0.060zM48.909 41.327c0.292 0.107 0.712 0.244 0.855 0.165 0.021-0.036 0.023-0.047-0.019-0.073-0.174-0.109-0.561-0.122-0.836-0.092zM40.594 41.441c-0.309 0-0.791-0.146-1.515-0.448-0.051-0.021-0.088-0.038-0.103-0.041l0.047-0.137-0.017-0.197c0.234-0.248 0.922-0.257 1.313-0.186 0.356 0.066 0.587 0.203 0.668 0.394 0.112 0.268 0.041 0.418-0.038 0.497-0.077 0.079-0.191 0.118-0.354 0.118zM39.443 40.774c1.033 0.411 1.234 0.334 1.266 0.309-0.002-0.002 0.002-0.038-0.036-0.126-0.024-0.058-0.148-0.142-0.414-0.191-0.294-0.054-0.615-0.037-0.816 0.008zM44.797 40.419c-0.551 0-1.095-0.139-1.622-0.414l-0.002 0.047c-0.176-0.008-0.39-0.036-0.467-0.182-0.039-0.075-0.034-0.161 0.015-0.238 0.12-0.186 0.519-0.315 0.786-0.304 0.053 0.004 1.299 0.066 1.577 0.551 0.056 0.096 0.099 0.251-0.002 0.448l-0.045 0.086-0.098 0.004c-0.047 0.002-0.096 0.002-0.142 0.002zM43.301 39.686c0.488 0.263 0.99 0.394 1.498 0.394 0.002 0 0.004 0 0.004 0-0.002-0.015-0.009-0.026-0.013-0.034-0.124-0.216-0.834-0.36-1.299-0.381-0.062-0.004-0.129 0.006-0.191 0.021zM52.483 40.071c-0.233 0-0.488-0.032-0.735-0.071l-0.221-0.034 0.019-0.163c0.021-0.18 0.034-0.343 0.045-0.517l0.3 0.019-0.064-0.096c0.24-0.157 0.838-0.296 1.193-0.144 0.165 0.071 0.268 0.197 0.294 0.36 0.038 0.221-0.045 0.36-0.122 0.439-0.152 0.156-0.411 0.208-0.709 0.208zM51.902 39.679c0.579 0.082 0.932 0.064 1.050-0.054 0.013-0.013 0.045-0.047 0.028-0.143-0.006-0.036-0.021-0.075-0.094-0.107-0.225-0.097-0.701 0.004-0.87 0.114l-0.088-0.131c-0.008 0.109-0.017 0.212-0.026 0.321zM35.968 39.57c-0.028-0.028-0.159-0.116-0.266-0.186-0.538-0.354-0.889-0.609-0.832-0.881 0.028-0.135 0.142-0.223 0.341-0.259 0.246-0.045 0.531 0.052 0.769 0.263 0.253 0.223 0.396 0.517 0.379 0.791l-0.008 0.139-0.139 0.019c-0.043 0.006-0.090 0.011-0.137 0.015l-0.107 0.101zM35.226 38.589c0.099 0.139 0.487 0.396 0.664 0.512 0.023 0.015 0.045 0.030 0.066 0.043l0.002-0.017c0.013 0.002 0.028 0.004 0.045 0.004-0.036-0.128-0.124-0.261-0.248-0.369-0.157-0.139-0.341-0.21-0.482-0.184-0.019 0.004-0.036 0.008-0.049 0.011zM48.186 39.411c-0.373 0-0.844-0.204-1.102-0.403-0.116-0.030-0.178-0.107-0.188-0.229l-0.008-0.077 0.054-0.056c0.234-0.242 1.198-0.323 1.598-0.073 0.193 0.12 0.261 0.308 0.186 0.516-0.062 0.172-0.208 0.285-0.412 0.315-0.041 0.006-0.083 0.009-0.128 0.009zM47.385 38.803c0.238 0.144 0.634 0.294 0.877 0.263 0.116-0.017 0.135-0.071 0.143-0.094 0.017-0.047 0.017-0.073-0.043-0.112-0.212-0.133-0.694-0.12-0.977-0.056zM65.856 38.932c-0.156 0-0.296-0.041-0.409-0.126-0.182-0.139-0.219-0.3-0.219-0.411 0-0.324 0.309-0.587 0.405-0.66 0.142-0.109 0.401-0.176 0.75-0.259 0.129-0.032 0.309-0.073 0.351-0.097l0.073 0.127 0.111-0.071c0 0 0 0 0.002 0l0.069-0.045 0.009 0.088c0.133 0.088 0.206 0.217 0.208 0.369 0.004 0.351-0.388 0.733-0.774 0.93-0.203 0.103-0.398 0.156-0.572 0.156zM66.778 37.725c-0.081 0.026-0.184 0.051-0.317 0.083-0.208 0.051-0.525 0.124-0.623 0.199-0.159 0.122-0.272 0.283-0.27 0.39 0 0.032 0.009 0.083 0.084 0.139 0.126 0.096 0.358 0.073 0.623-0.060 0.349-0.176 0.591-0.469 0.589-0.623 0-0.021 0-0.066-0.094-0.111l0.009-0.017zM39.628 38.734c-0.332 0-0.697-0.064-0.848-0.268-0.066-0.088-0.146-0.278 0.052-0.551l0.137 0.099v-0.009c0.054 0 0.114-0.002 0.178-0.004 0.394-0.011 0.984-0.032 1.161 0.439l0.062 0.163-0.165 0.058c-0.107 0.038-0.334 0.071-0.578 0.071zM39.186 38.342c0.154 0.049 0.403 0.062 0.613 0.049-0.15-0.054-0.369-0.058-0.613-0.049zM43.95 38.081c-0.368 0-0.668-0.051-1.046-0.218-0.426-0.186-0.636-0.384-0.641-0.606-0.006-0.176 0.116-0.332 0.362-0.459l0.051 0.099c0.401-0.107 1.069 0.024 1.438 0.306 0.264 0.201 0.367 0.465 0.291 0.744l-0.034 0.118-0.124 0.006c-0.105 0.006-0.204 0.009-0.298 0.009zM42.641 37.191c-0.034 0.030-0.041 0.049-0.041 0.056 0 0.002 0.015 0.12 0.439 0.306 0.373 0.163 0.651 0.201 1.046 0.186-0.009-0.073-0.051-0.167-0.18-0.264-0.358-0.274-1.026-0.336-1.224-0.218l-0.039-0.066zM53.207 37.657c-0.142 0-0.283-0.019-0.412-0.056-0.362-0.105-0.598-0.343-0.666-0.671l0.107-0.021c0.225-0.341 0.913-0.587 1.41-0.572 0.356 0.011 0.598 0.152 0.682 0.398 0.069 0.204 0.021 0.409-0.137 0.574-0.208 0.221-0.6 0.351-0.983 0.351zM52.545 37.057c0.090 0.122 0.225 0.186 0.341 0.219 0.36 0.103 0.853 0.009 1.056-0.203 0.092-0.096 0.079-0.176 0.060-0.229-0.047-0.137-0.251-0.165-0.371-0.169-0.396-0.019-0.926 0.195-1.087 0.381zM70.007 37.179c-0.036 0-0.069-0.004-0.103-0.009-0.126-0.023-0.508-0.092-0.546-0.388-0.052-0.405 0.718-0.864 1.211-1.114l-0.002-0.058c0.039-0.002 0.082-0.002 0.12 0 0.028-0.013 0.056-0.026 0.081-0.037l0.023 0.047c0.201 0.028 0.337 0.107 0.409 0.242 0.096 0.178 0.045 0.416-0.143 0.673-0.246 0.336-0.688 0.649-1.050 0.649zM69.696 36.739c0.002 0 0.043 0.056 0.27 0.097 0.206 0.032 0.598-0.203 0.818-0.506 0.112-0.154 0.139-0.27 0.116-0.313-0.013-0.024-0.058-0.051-0.142-0.062-0.613 0.311-1.065 0.664-1.059 0.784v0zM47.511 36.842c-0.017 0-0.036 0-0.052-0.002-0.521-0.021-1.121-0.371-1.236-0.864l-0.066-0.011c0.047-0.296 0.242-0.519 0.549-0.63 0.448-0.165 1.087-0.052 1.423 0.242 0.197 0.172 0.276 0.396 0.225 0.624-0.090 0.403-0.403 0.639-0.844 0.639zM46.547 35.863c0.045 0.309 0.493 0.619 0.926 0.638 0.208 0.009 0.48-0.049 0.551-0.373 0.009-0.039 0.036-0.159-0.118-0.294-0.244-0.216-0.75-0.296-1.084-0.178-0.128 0.045-0.221 0.116-0.276 0.21zM34.502 36.819c-0.126 0-0.274-0.026-0.441-0.081-0.398-0.128-0.634-0.401-0.861-0.666l-0.045-0.051-0.090 0.051c-0.129-0.231-0.054-0.394 0.004-0.469 0.186-0.248 0.651-0.272 1.029-0.186 0.491 0.112 0.825 0.388 0.894 0.741 0.047 0.244 0.004 0.426-0.128 0.542-0.088 0.079-0.208 0.118-0.362 0.118zM33.388 35.773l0.069 0.081c0.216 0.249 0.401 0.465 0.707 0.563 0.278 0.088 0.428 0.071 0.476 0.032 0.034-0.030 0.041-0.111 0.019-0.223-0.049-0.253-0.36-0.411-0.636-0.472-0.292-0.068-0.532-0.034-0.636 0.021zM39.461 36.523c-0.165 0-0.366-0.039-0.608-0.118-0.398-0.131-0.767-0.274-0.896-0.581-0.071-0.167-0.056-0.354 0.043-0.561 0.096-0.197 0.246-0.326 0.437-0.375 0.274-0.071 0.559 0.038 0.737 0.163l-0.069 0.099c0.304 0.176 0.694 0.444 0.784 0.666 0.101 0.248 0.092 0.437-0.030 0.568-0.086 0.092-0.218 0.137-0.398 0.137zM38.614 35.209c-0.032 0-0.062 0.004-0.092 0.011-0.094 0.024-0.163 0.088-0.216 0.195-0.056 0.114-0.068 0.204-0.036 0.279 0.081 0.191 0.461 0.315 0.69 0.39 0.414 0.135 0.615 0.107 0.649 0.071 0.009-0.009 0.021-0.068-0.036-0.206-0.069-0.167-0.688-0.555-0.932-0.651l0.034-0.084c-0.021-0.004-0.039-0.004-0.060-0.004zM67.344 36.264c-0.043 0-0.088-0.002-0.131-0.004l-0.137-0.008-0.022-0.135c-0.124-0.741 0.523-1.155 0.996-1.457l0.141-0.092 0.075 0.114-0.004-0.034c0.407-0.056 0.684 0.030 0.789 0.238 0.069 0.139 0.082 0.379-0.259 0.731-0.437 0.452-0.863 0.643-1.446 0.643zM68.293 34.907l-0.064 0.041c-0.396 0.253-0.838 0.538-0.853 0.977 0.474-0.006 0.801-0.161 1.168-0.538 0.201-0.208 0.212-0.319 0.201-0.343-0.017-0.036-0.148-0.092-0.441-0.054l-0.011-0.081zM43.322 35.336c-0.197 0-0.426-0.047-0.679-0.141-0.054-0.021-0.525-0.206-0.699-0.373-0.105-0.101-0.157-0.229-0.203-0.341-0.038-0.090-0.071-0.176-0.129-0.244l0.176-0.154c0.043-0.242 0.216-0.414 0.487-0.484 0.525-0.135 1.301 0.128 1.629 0.553 0.203 0.264 0.225 0.57 0.062 0.859-0.122 0.214-0.347 0.322-0.647 0.322zM41.949 34.127c0.047 0.077 0.079 0.154 0.107 0.227 0.038 0.092 0.069 0.172 0.124 0.223 0.081 0.077 0.36 0.214 0.585 0.3 0.12 0.045 0.742 0.261 0.907-0.032 0.096-0.169 0.084-0.328-0.036-0.484-0.242-0.313-0.883-0.532-1.275-0.431-0.216 0.056-0.234 0.18-0.24 0.221l-0.172-0.026zM51.276 35.079c-0.249 0-0.488-0.041-0.645-0.12-0.593-0.3-0.474-0.733-0.379-1.082 0.023-0.084 0.047-0.171 0.062-0.259l0.336 0.058c-0.017 0.099-0.043 0.197-0.069 0.291-0.099 0.366-0.128 0.523 0.203 0.69 0.278 0.139 0.953 0.099 1.144-0.068 0.266-0.234 0.311-0.472 0.126-0.688-0.272-0.319-0.913-0.444-1.305-0.122l-0.218-0.263c0.544-0.448 1.403-0.279 1.779 0.163 0.24 0.283 0.324 0.737-0.161 1.164-0.184 0.159-0.538 0.234-0.876 0.234zM72.508 34.41c-0.086 0-0.174-0.011-0.262-0.034l-0.099-0.026-0.023-0.101c-0.129-0.579 0.264-0.983 0.579-1.307 0.135-0.137 0.263-0.268 0.339-0.398l0.032 0.021-0.002-0.047c0.465-0.024 0.669 0.161 0.752 0.323 0.135 0.264 0.045 0.647-0.234 0.994-0.231 0.287-0.63 0.578-1.080 0.578zM72.439 34.067c0.362 0.034 0.694-0.208 0.885-0.446 0.186-0.231 0.266-0.488 0.197-0.626-0.047-0.092-0.169-0.126-0.283-0.137-0.084 0.109-0.186 0.212-0.291 0.321-0.27 0.277-0.529 0.542-0.506 0.887zM34.753 33.956c-0.017 0-0.034 0-0.052-0.002-0.525-0.026-1.258-0.458-1.423-0.761l0.12-0.066c-0.036-0.178 0.032-0.341 0.195-0.452 0.366-0.248 1.269-0.201 1.656 0.186 0.229 0.229 0.24 0.54 0.028 0.851-0.077 0.112-0.229 0.244-0.523 0.244zM33.662 33.135c0.204 0.191 0.682 0.463 1.056 0.482 0.139 0.013 0.231-0.024 0.278-0.092 0.154-0.227 0.088-0.343 0.011-0.42-0.262-0.263-0.975-0.311-1.224-0.144-0.058 0.039-0.068 0.073-0.039 0.141l-0.081 0.034zM70.916 33.392c-0.009 0-0.019 0-0.026 0-0.398-0.017-0.593-0.208-0.684-0.367-0.161-0.277-0.141-0.683 0.054-1.056 0.266-0.508 0.954-0.924 1.545-0.891l-0.004 0.124c0.045 0.023 0.092 0.043 0.137 0.064 0.328 0.15 0.778 0.354 0.51 1.005-0.201 0.489-0.986 1.121-1.532 1.121zM71.531 31.444c-0.392 0.086-0.804 0.364-0.969 0.681-0.139 0.266-0.163 0.553-0.062 0.727 0.071 0.124 0.208 0.191 0.403 0.199 0.409 0.004 1.074-0.529 1.232-0.909 0.137-0.334 0.036-0.398-0.338-0.568-0.084-0.039-0.176-0.081-0.266-0.131zM47.593 32.921c-0.639 0-1.123-0.458-1.393-0.795l-0.041 0.009c-0.006-0.026-0.009-0.052-0.013-0.079-0.004-0.004-0.006-0.009-0.009-0.013l0.008-0.006c-0.051-0.448 0.195-0.806 0.671-0.969 0.583-0.199 1.421-0.039 1.691 0.508 0.131 0.264 0.126 0.57-0.015 0.834-0.146 0.274-0.414 0.461-0.718 0.501-0.062 0.008-0.12 0.011-0.18 0.011zM46.476 31.927c0.248 0.308 0.684 0.722 1.251 0.645 0.195-0.026 0.368-0.146 0.461-0.324 0.088-0.167 0.094-0.358 0.011-0.523-0.186-0.373-0.838-0.488-1.277-0.337-0.176 0.060-0.448 0.208-0.448 0.538zM37.517 32.426c-0.366 0-0.647-0.126-0.772-0.349l0.096-0.054c0.008-0.077-0.049-0.169-0.139-0.304-0.142-0.216-0.337-0.508-0.122-0.879 0.112-0.191 0.285-0.313 0.501-0.349 0.489-0.081 1.059 0.277 1.292 0.48 0.392 0.337 0.405 0.632 0.347 0.817-0.116 0.371-0.596 0.581-1.020 0.626-0.064 0.008-0.124 0.009-0.182 0.009zM37.181 32.025c0.118 0.052 0.291 0.075 0.484 0.052 0.36-0.038 0.673-0.204 0.731-0.39 0.051-0.161-0.105-0.339-0.244-0.459-0.268-0.232-0.711-0.452-1.014-0.401-0.118 0.021-0.203 0.079-0.262 0.184-0.103 0.178-0.028 0.308 0.112 0.519 0.096 0.146 0.203 0.306 0.195 0.495zM42.384 32.177c-0.572 0-0.922-0.416-1.207-0.758l-0.049-0.058-0.088 0.009-0.023-0.184c-0.068-0.529-0.137-1.076 0.682-1.282 0.634-0.161 1.221 0.090 1.534 0.654 0.197 0.356 0.221 0.774 0.064 1.095-0.139 0.277-0.399 0.458-0.735 0.506-0.062 0.009-0.122 0.013-0.178 0.013zM41.347 31.097l0.088 0.105c0.302 0.358 0.589 0.696 1.078 0.626 0.225-0.032 0.39-0.143 0.478-0.321 0.109-0.221 0.088-0.519-0.056-0.78-0.238-0.429-0.669-0.613-1.155-0.489-0.51 0.128-0.497 0.36-0.435 0.857zM76.048 31.783c-0.011 0-0.023 0-0.034 0l-0.143-0.004-0.021-0.141c-0.079-0.512 0.242-0.838 0.525-1.125 0.165-0.165 0.319-0.323 0.381-0.495l0.024 0.009c0.034-0.034 0.069-0.060 0.113-0.081 0.133-0.067 0.291-0.054 0.412 0.032 0.161 0.114 0.233 0.332 0.195 0.598-0.086 0.639-0.773 1.207-1.453 1.207zM76.935 30.398c-0.092 0.128-0.204 0.244-0.317 0.354-0.219 0.221-0.412 0.418-0.437 0.681 0.471-0.066 0.924-0.469 0.983-0.904 0.021-0.159-0.015-0.248-0.056-0.276-0.026-0.019-0.051-0.011-0.062-0.004-0.039 0.021-0.064 0.077-0.066 0.15l-0.045-0.002zM74.721 29.987c-0.077 0-0.152-0.008-0.227-0.021l-0.058-0.011-0.039-0.043c-0.294-0.33-0.332-0.791-0.097-1.236 0.261-0.497 0.78-0.799 1.252-0.742l-0.006 0.041c0.471 0.154 0.697 0.486 0.609 0.911-0.113 0.546-0.75 1.101-1.434 1.101zM74.614 29.642c0.536 0.062 1.119-0.392 1.209-0.823 0.071-0.339-0.218-0.484-0.478-0.546-0.289 0.036-0.579 0.247-0.744 0.563-0.154 0.294-0.148 0.591 0.013 0.806zM78.251 27.831c-0.088 0-0.165-0.021-0.229-0.066-0.084-0.058-0.18-0.176-0.156-0.418 0.034-0.356 0.337-0.904 0.684-1.185l-0.096-0.105c0.172-0.154 0.392-0.203 0.604-0.131 0.24 0.079 0.427 0.293 0.476 0.542 0.101 0.508-0.336 0.984-0.786 1.213-0.199 0.099-0.364 0.15-0.499 0.15zM78.857 26.233l0.045 0.107c-0.253 0.109-0.606 0.606-0.684 0.968-0.026 0.12-0.009 0.171-0.002 0.178 0 0.002 0.084 0.041 0.381-0.109 0.272-0.137 0.677-0.488 0.608-0.842-0.026-0.128-0.129-0.246-0.251-0.287-0.034-0.009-0.058-0.015-0.098-0.015zM79.987 27.664l-0.032-0.176c-0.105-0.568 0.203-0.904 0.474-1.2 0.133-0.146 0.259-0.283 0.33-0.439l0.039 0.019c0.225-0.105 0.356-0.023 0.414 0.036 0.206 0.204 0.067 0.654 0.002 0.795-0.161 0.356-0.636 0.825-1.054 0.924l-0.174 0.041zM80.972 26.162c-0.084 0.129-0.189 0.244-0.293 0.354-0.201 0.219-0.381 0.414-0.403 0.694 0.247-0.139 0.519-0.413 0.63-0.656 0.066-0.143 0.088-0.324 0.071-0.396-0.002 0.002-0.004 0.002-0.006 0.004zM53.499 20.047c-0.073 0-0.142-0.006-0.208-0.017-0.321-0.053-0.549-0.218-0.626-0.454l-0.165 0.034c-0.084-0.411 0.152-0.776 0.6-0.932 0.429-0.15 1.003-0.071 1.224 0.367 0.124 0.244 0.114 0.48-0.023 0.667-0.176 0.238-0.506 0.334-0.804 0.334zM52.989 19.472c0.036 0.109 0.169 0.193 0.356 0.225 0.276 0.045 0.576-0.036 0.684-0.184 0.023-0.030 0.088-0.122-0.008-0.313-0.129-0.257-0.512-0.304-0.81-0.201-0.105 0.036-0.439 0.18-0.383 0.523l0.159-0.051zM45.008 19.819c-0.277 0-0.553-0.107-0.767-0.302-0.203-0.186-0.317-0.424-0.328-0.688-0.015-0.364 0.163-0.786 0.476-1.127l0.049 0.045c0.051-0.030 0.107-0.054 0.169-0.073 0.366-0.109 0.874-0.004 1.119 0.163 0.531 0.36 0.484 1.033 0.163 1.515-0.171 0.255-0.446 0.422-0.752 0.459-0.043 0.004-0.088 0.008-0.131 0.008zM44.477 18.135c-0.133 0.197-0.236 0.442-0.227 0.677 0.008 0.178 0.079 0.324 0.218 0.452 0.176 0.159 0.403 0.236 0.628 0.208 0.208-0.026 0.396-0.139 0.512-0.311 0.227-0.341 0.278-0.808-0.071-1.044-0.174-0.118-0.574-0.195-0.831-0.118-0.101 0.030-0.167 0.081-0.195 0.148l-0.032-0.013zM61.837 19.669c-0.133 0-0.279-0.009-0.433-0.019-0.086-0.006-0.159-0.011-0.21-0.011v-0.159l-0.322 0.090c-0.082-0.3 0.058-0.583 0.379-0.759 0.341-0.187 0.846-0.214 1.097 0.066 0.071 0.079 0.291 0.323 0.178 0.551-0.094 0.191-0.353 0.244-0.688 0.244zM61.211 19.299c0.056 0.002 0.129 0.006 0.216 0.011 0.174 0.011 0.696 0.047 0.793-0.037-0.007-0.004-0.024-0.058-0.126-0.173-0.116-0.129-0.441-0.126-0.681 0.006-0.066 0.036-0.158 0.099-0.201 0.191zM57.527 18.827c-0.157 0-0.315-0.045-0.463-0.135-0.504-0.308-0.731-1.039-0.506-1.628l0.082 0.032c0.054-0.118 0.154-0.21 0.294-0.266 0.461-0.186 1.241 0.071 1.545 0.504 0.135 0.193 0.296 0.591-0.141 1.076-0.246 0.274-0.531 0.416-0.812 0.416zM56.822 17.383c-0.069 0.422 0.137 0.846 0.418 1.018 0.272 0.165 0.572 0.088 0.846-0.218 0.217-0.242 0.255-0.456 0.114-0.656-0.231-0.332-0.848-0.499-1.14-0.383-0.103 0.041-0.139 0.105-0.122 0.221l-0.114 0.017zM50.044 18.283c-0.201 0-0.463-0.034-0.636-0.186-0.392-0.351-0.227-0.836-0.107-1.192 0.019-0.053 0.036-0.105 0.051-0.156 0.008-0.047 0.019-0.090 0.036-0.131 0.008-0.034 0.013-0.066 0.015-0.096l0.036 0.004c0.053-0.075 0.128-0.135 0.221-0.174 0.383-0.167 1.009 0.026 1.337 0.416 0.279 0.33 0.294 0.743 0.041 1.131-0.172 0.264-0.583 0.347-0.752 0.369-0.047 0.006-0.137 0.015-0.244 0.015zM49.665 16.894c-0.013 0.039-0.026 0.081-0.039 0.122-0.133 0.392-0.199 0.643 0.009 0.829 0.097 0.086 0.349 0.122 0.609 0.086 0.279-0.038 0.461-0.139 0.514-0.218 0.172-0.264 0.167-0.508-0.017-0.726-0.244-0.289-0.724-0.42-0.943-0.323-0.032 0.013-0.064 0.034-0.084 0.069-0.008 0.028-0.015 0.058-0.024 0.086-0.002 0.021-0.002 0.045 0.002 0.071l-0.026 0.002zM30.060 17.537c-0.268 0-0.546-0.096-0.782-0.276-0.276-0.21-0.448-0.499-0.489-0.81l-0.090-0.054c0.064-0.105 0.090-0.182 0.116-0.257 0.060-0.178 0.118-0.304 0.375-0.441 0.294-0.156 0.776-0.214 1.089-0.011 0.598 0.39 0.548 1.166 0.191 1.731l-0.034 0.052-0.060 0.019c-0.101 0.030-0.208 0.047-0.315 0.047zM29.119 16.299c0 0.263 0.131 0.512 0.366 0.692 0.221 0.169 0.497 0.238 0.731 0.191 0.176-0.315 0.345-0.904-0.122-1.209-0.171-0.111-0.512-0.099-0.744 0.026-0.157 0.083-0.171 0.126-0.212 0.249-0.006 0.017-0.011 0.034-0.019 0.053zM61.264 16.808c-0.163 0-0.334-0.039-0.503-0.116-0.495-0.223-0.557-0.488-0.63-0.793-0.026-0.107-0.054-0.227-0.107-0.364l-0.030-0.077 0.041-0.071c0.343-0.587 1.311-0.765 1.864-0.493 0.435 0.212 0.57 0.651 0.362 1.174-0.129 0.326-0.345 0.557-0.623 0.669-0.118 0.049-0.244 0.073-0.373 0.073zM60.371 15.493c0.043 0.122 0.068 0.229 0.090 0.324 0.068 0.279 0.097 0.407 0.439 0.563 0.216 0.099 0.428 0.111 0.608 0.037 0.189-0.077 0.341-0.242 0.435-0.48 0.142-0.36 0.079-0.609-0.195-0.743-0.388-0.189-1.095-0.075-1.378 0.296zM20.683 16.699c-0.111 0-0.236-0.064-0.399-0.146l-0.043-0.021c-0.154-0.079-0.444-0.246-0.641-0.473l-0.201-0.002c0-0.107 0.004-0.218 0.017-0.324-0.008-0.026-0.013-0.053-0.015-0.081l0.028-0.004c0.034-0.201 0.107-0.384 0.259-0.506 0.172-0.137 0.407-0.172 0.718-0.105 0.486 0.105 0.656 0.623 0.611 1.089-0.024 0.255-0.054 0.456-0.204 0.538-0.043 0.024-0.086 0.034-0.131 0.034zM19.764 15.699c0.088 0.188 0.366 0.394 0.632 0.529l0.043 0.021c0.073 0.037 0.154 0.079 0.204 0.098 0.011-0.039 0.024-0.113 0.037-0.251 0.028-0.294-0.045-0.66-0.345-0.724-0.203-0.045-0.349-0.032-0.433 0.037-0.073 0.058-0.114 0.167-0.137 0.291zM54.054 16.506c-0.242 0-0.493-0.090-0.731-0.27-0.679-0.512-0.347-1.035-0.054-1.494l0.128 0.081c0.234-0.214 0.538-0.289 0.846-0.204 0.371 0.101 0.688 0.424 0.771 0.784 0.071 0.317-0.036 0.619-0.304 0.851-0.195 0.169-0.42 0.253-0.654 0.253zM53.496 15.021c-0.292 0.471-0.337 0.664 0.032 0.945 0.199 0.148 0.587 0.351 0.958 0.030 0.171-0.148 0.238-0.326 0.195-0.519-0.054-0.238-0.276-0.461-0.529-0.531-0.148-0.041-0.366-0.047-0.564 0.163l-0.094-0.088zM46.644 15.911c-0.172 0-0.352-0.064-0.536-0.193-0.366-0.255-0.401-0.647-0.431-0.992-0.011-0.129-0.023-0.261-0.051-0.39l0.131-0.028c0.021-0.116 0.047-0.229 0.075-0.345l0.034-0.139 0.064-0.036c0.448-0.259 0.939-0.202 1.282 0.148 0.328 0.334 0.493 0.945 0.176 1.464-0.174 0.283-0.377 0.452-0.606 0.499-0.045 0.009-0.090 0.013-0.137 0.013zM46.005 14.571c0.004 0.041 0.008 0.084 0.011 0.126 0.032 0.358 0.062 0.587 0.287 0.742 0.154 0.109 0.292 0.15 0.411 0.126 0.133-0.028 0.263-0.143 0.384-0.343 0.225-0.369 0.105-0.808-0.129-1.048-0.107-0.109-0.392-0.33-0.808-0.126-0.043 0.18-0.084 0.349-0.094 0.527l-0.064-0.004zM26.314 15.461c-0.347 0-0.428-0.304-0.478-0.495-0.011-0.041-0.021-0.081-0.034-0.12l-0.216-0.058c0.030-0.111 0.002-0.264-0.026-0.412-0.052-0.291-0.135-0.729 0.367-0.879 0.48-0.144 0.971 0.298 1.114 0.677 0.098 0.257 0.069 0.606-0.069 0.87-0.109 0.208-0.274 0.343-0.474 0.392-0.069 0.017-0.129 0.024-0.184 0.024zM25.92 14.389c0.154 0.143 0.204 0.336 0.246 0.491 0.066 0.248 0.075 0.268 0.253 0.227 0.131-0.032 0.21-0.137 0.255-0.221 0.094-0.178 0.116-0.428 0.053-0.593-0.094-0.247-0.429-0.553-0.698-0.472-0.178 0.054-0.199 0.127-0.131 0.493 0.006 0.026 0.009 0.054 0.015 0.082l0.009-0.009zM22.847 15.251c-0.004 0-0.009 0-0.013 0-0.083-0.002-0.259-0.037-0.349-0.268l-0.199 0.056c-0.021-0.075-0.067-0.184-0.122-0.313-0.21-0.501-0.471-1.123-0.186-1.433 0.159-0.172 0.435-0.195 0.842-0.064 0.476 0.154 0.817 0.821 0.705 1.376-0.062 0.296-0.375 0.645-0.677 0.645zM22.776 14.756c0.013 0.090 0.041 0.154 0.069 0.156 0 0 0.002 0 0.002 0 0.096 0 0.304-0.186 0.343-0.373 0.079-0.386-0.161-0.883-0.476-0.984-0.293-0.094-0.444-0.077-0.488-0.030-0.137 0.148 0.133 0.795 0.249 1.071 0.028 0.069 0.056 0.135 0.079 0.191l0.219-0.032zM58.545 13.626c-0.225 0-0.452-0.069-0.634-0.201-0.339-0.244-0.36-0.566-0.381-0.851-0.009-0.142-0.019-0.277-0.066-0.399l0.028-0.011-0.060-0.045c0.403-0.542 1.17-0.525 1.65-0.197 0.458 0.313 0.561 0.816 0.268 1.283-0.131 0.208-0.343 0.351-0.602 0.401-0.068 0.013-0.137 0.021-0.204 0.021zM57.825 12.197c0.028 0.12 0.036 0.238 0.045 0.354 0.017 0.249 0.030 0.448 0.24 0.598 0.163 0.116 0.379 0.161 0.576 0.124 0.165-0.032 0.298-0.12 0.379-0.248 0.279-0.444-0.028-0.722-0.172-0.821-0.306-0.21-0.765-0.253-1.065-0.006zM50.436 13.305c-0.484 0-0.896-0.24-1.149-0.671-0.246-0.42-0.264-0.932-0.049-1.247 0.133-0.193 0.339-0.3 0.591-0.306l-0.004-0.039c0.521-0.056 1.357 0.152 1.566 0.694 0.139 0.364 0.101 0.789-0.099 1.11-0.169 0.27-0.426 0.431-0.724 0.457-0.045 0.004-0.088 0.006-0.129 0.006zM49.854 11.419c-0.15 0-0.263 0.053-0.336 0.159-0.142 0.206-0.116 0.577 0.062 0.883 0.097 0.167 0.384 0.547 0.954 0.499 0.189-0.015 0.354-0.122 0.465-0.298 0.144-0.232 0.172-0.542 0.069-0.808-0.122-0.319-0.673-0.484-1.074-0.484-0.004 0-0.008 0-0.009 0l-0.009 0.058c-0.043-0.006-0.083-0.009-0.122-0.009zM54.508 12.287c-0.422 0-0.836-0.191-1.027-0.497-0.086-0.135-0.184-0.384-0.069-0.713 0.045-0.33 0.238-0.581 0.547-0.714 0.409-0.176 0.956-0.101 1.305 0.176 0.281 0.225 0.399 0.546 0.332 0.904-0.083 0.437-0.388 0.737-0.836 0.821-0.083 0.015-0.167 0.022-0.251 0.022zM53.739 11.169c-0.052 0.139-0.066 0.294 0.028 0.441 0.157 0.249 0.564 0.39 0.928 0.321 0.178-0.034 0.491-0.152 0.566-0.551 0.054-0.292-0.084-0.473-0.21-0.574-0.251-0.201-0.664-0.257-0.958-0.129-0.092 0.039-0.197 0.109-0.27 0.227l0.047 0.034c-0.047 0.066-0.094 0.142-0.128 0.225 0 0.004 0 0.006-0.002 0.009h-0.002z"></path>
</svg>
