<?xml version="1.0" encoding="utf-8"?>
<!-- Generated by IcoMoon.io -->
<!DOCTYPE svg PUBLIC "-//W3C//DTD SVG 1.1//EN" "http://www.w3.org/Graphics/SVG/1.1/DTD/svg11.dtd">
<svg version="1.1" xmlns="http://www.w3.org/2000/svg" xmlns:xlink="http://www.w3.org/1999/xlink" width="118" height="60" viewBox="0 0 118 60">
<path fill="#444444" d="M118.779 3.287c-0.392-1.44-2.428-3.188-3.514-3.285-0.951-0.086-2.484 1.605-4.003 3.452-0.439-0.388-0.909-0.705-1.372-0.908-1.464-0.638-2.767 0.152-4.273 1.067-0.454 0.276-0.922 0.563-1.427 0.829-2.139 1.134-14.031 5.351-14.871 5.625-0.773 0.253-2.876 1.648-3.649 2.239-0.030-0.011-0.054-0.028-0.086-0.036-0.486-0.101-1.311 0.247-1.463 0.546-0.006 0.011-0.002 0.021-0.006 0.032-0.885 0.195-2.244 0.428-4.341 0.697l-0.105 0.013c-0.457 0.058-0.907 0.534-1.206 0.922-0.621 0.81-1.23 2.123-1.134 2.828 0.017 0.12 0.034 0.234 0.051 0.345-1.399 0.238-3.334 0.514-5.231 0.784-2.698 0.384-5.248 0.746-6.174 0.988-3.968 1.039-10.757 1.562-18.159 1.402-3.053-0.066-6.060-0.332-8.97-0.589-2.561-0.227-4.982-0.441-7.335-0.516-5.181-0.163-10.161 0.289-12.216 0.799-5.344 1.324-9.951 4.672-12.842 9.216-2.222 2.091-3.592 4.768-4.088 7.991-1.012 1.262-1.704 2.462-2.066 3.578-0.576 1.777-0.328 3.334 0.735 4.626 0.666 0.808 1.579 1.425 2.588 1.877 0.679 1.455 1.596 2.852 2.766 4.23 2.865 3.375 6.57 6.069 9.671 7.035 0.652 0.203 1.299 0.371 1.941 0.508 2.383 0.502 4.708 0.546 7.054 0.131 4.342-0.767 8.023-3.812 11.923-7.033l0.42-0.347c0.855-0.707 1.751-1.333 2.698-1.997 1.521-1.063 3.092-2.164 4.515-3.636 1.166-1.209 4.343-3.975 8.942-7.789 3.583-2.97 7.684-6.285 10.446-8.443 1.442-1.127 2.383-1.834 2.721-2.042 1.029-0.636 5.501-3.285 9.096-5.411 1.2-0.711 2.323-1.376 3.221-1.909 0.019 0.026 0.038 0.053 0.054 0.077 0.574 0.836 1.626 1.886 4.127 1.365 0.649-0.135 1.952-1.058 3.101-1.871 0.403-0.285 0.786-0.555 1.104-0.765 0.021 0.011 0.032 0.026 0.062 0.032 0.227 0.049 1.003-0.062 1.326-0.407 0.084-0.090 0.129-0.191 0.141-0.298 0.563-0.157 1.226-0.309 1.849-0.45 0.885-0.199 1.721-0.388 2.198-0.576 0.727-0.285 4.054-1.956 6.726-3.296 1.314-0.66 2.452-1.232 2.994-1.494 0.825-0.399 2.426-0.808 3.977-1.204 1.5-0.382 2.917-0.744 3.639-1.093 1.35-0.651 2.316-1.772 2.754-3.188 0.371 0.352 1.089 0.559 1.455 0.645 1.187 0.281 3.103 0.352 3.598-0.587 0.364-0.694 1.013-3.324 0.634-4.716zM19.384 20.872c1.62-0.401 6.345-0.971 12.118-0.787 2.344 0.073 4.757 0.287 7.314 0.514 2.914 0.259 5.929 0.525 8.994 0.591 7.434 0.161 14.259-0.369 18.257-1.416 0.907-0.236 3.446-0.598 6.133-0.981 1.896-0.27 3.832-0.546 5.242-0.786 0.006 0.028 0.011 0.056 0.017 0.084-4.905 1.168-14.88 3.188-16.781 3.229-3.874 0.086-7.755 0.225-11.535 0.411-3.694 0.182-7.386 0.416-10.971 0.694-3.443 0.268-6.861 0.581-10.159 0.934-2.981 0.319-5.389 0.615-7.153 0.838-5.863 0.743-10.209 2.246-13.288 4.596-0.030 0.023-0.058 0.043-0.086 0.067 2.857-3.919 7.072-6.795 11.897-7.989zM6.737 29.963c0.33-0.306 0.681-0.602 1.052-0.885 3.026-2.312 7.316-3.791 13.116-4.526 1.762-0.223 4.168-0.519 7.147-0.838 3.296-0.353 6.711-0.668 10.149-0.934 3.583-0.277 7.271-0.512 10.961-0.694 3.776-0.186 7.654-0.323 11.524-0.411 1.909-0.041 11.888-2.063 16.849-3.244 0.047 0.199 0.099 0.379 0.152 0.544-6 1.566-18.519 3.442-28.905 5.001-4.667 0.699-9.075 1.361-12.328 1.909-1.766 0.296-3.262 0.934-4.252 1.354-0.488 0.206-0.872 0.369-1.119 0.426-2.261 0.506-4.588 1.271-6.883 2.227-0.954 0.069-1.911 0.122-2.852 0.172-3.219 0.176-6.549 0.358-9.533 1.211-3.079 0.881-5.828 2.859-7.522 4.401 0.204-0.883 0.491-1.802 0.885-2.736 0.439-1.041 0.962-2.036 1.56-2.979zM30.808 50.076c-2.466 0.986-4.762 1.635-6.829 1.926-0.446 0.064-0.938 0.231-1.459 0.407-0.673 0.229-1.371 0.465-1.958 0.461-2.734-0.019-5.409-0.857-7.768-1.598-0.78-0.246-1.519-0.476-2.224-0.669-1.693-0.461-2.966-1.352-3.675-1.886 1.012 0.137 1.967 0.146 2.728 0.054 1.882-0.227 5.496-1.331 10.74-3.281 3.043-1.132 6.664-2.559 10.764-4.243 4.819-1.98 10.258-4.294 16.166-6.876 6.921-3.026 11.814-5.254 12.021-5.347 2.477-1.129 11.173-4.961 16.781-7.427-3.362 2.068-7.586 4.612-9.564 5.582-0.758 0.371-2.647 1.605-5.779 3.774-0.617 0.428-1.26 0.761-1.939 1.114-0.789 0.409-1.607 0.834-2.479 1.451-1.168 0.827-2.293 1.864-3.486 2.961-1.207 1.112-2.454 2.261-3.793 3.221-0.857 0.613-1.731 1.232-2.61 1.847-5.001 3.45-10.627 6.521-15.637 8.527zM39.866 46.076c-0.529 0.358-1.048 0.712-1.56 1.059-2.539 1.725-4.939 3.354-6.891 4.734-1.101 0.778-2.008 1.714-2.811 2.539-0.607 0.626-1.132 1.166-1.584 1.466-2.258 1.5-5.623 1.986-10.003 1.442-3.454-0.426-6.39-2.462-8.976-6.219l-0.064-0.092c-0.45-0.654-0.917-1.331-1.369-2.057 0.713 0.54 2.051 1.504 3.866 1.999 0.699 0.189 1.434 0.42 2.211 0.664 2.385 0.75 5.087 1.596 7.873 1.614 0.647 0.006 1.372-0.242 2.074-0.48 0.504-0.172 0.981-0.334 1.393-0.392 2.094-0.296 4.419-0.952 6.911-1.95 2.852-1.142 5.902-2.627 8.925-4.329zM59.166 28.701c-0.206 0.092-5.096 2.321-12.015 5.346-5.906 2.584-11.344 4.894-16.159 6.872-4.097 1.682-7.714 3.107-10.753 4.237-5.218 1.942-8.803 3.039-10.658 3.262-0.924 0.112-2.145 0.069-3.396-0.174-0.364-0.628-0.711-1.29-1.020-2.001 0.128-0.446 0.306-0.906 0.527-1.378 0.045-0.096 0.092-0.193 0.141-0.289-0.004 0.017-0.006 0.032-0.006 0.047-0.004 0.084 0.032 0.161 0.101 0.216 0.669 0.534 7.854-1.294 20.878-4.856 2.018-0.551 3.758-1.027 4.873-1.32 5.497-1.436 27.519-10.183 31.68-12.296 3.448-1.751 11.558-5.1 14.767-6.405 0.060 0.098 0.118 0.188 0.18 0.27-0.004 0.002-0.007 0.006-0.013 0.008-5.196 2.282-16.556 7.29-19.127 8.464zM27.791 29.871c2.439-0.366 4.959-0.744 6.973-1.144 0.304-0.060 1.164-0.172 2.076-0.293 1.142-0.15 2.323-0.304 2.646-0.386 0.186-0.049 0.411-0.12 0.712-0.217 1.024-0.332 2.929-0.945 7.301-1.877 2.869-0.611 6.069-1.29 9.313-1.978 10.123-2.149 17.676-3.754 21.060-4.506 0.013 0.026 0.024 0.053 0.036 0.079-3.202 1.234-8.884 3.253-12.101 4.397l-1.836 0.654c-1.236 0.441-5.477 1.688-12.264 3.602-4.089 1.153-9.004 2.524-14.211 3.96-1.911 0.529-3.778 1.043-5.544 1.524-6.107 1.674-10.907 2.972-12.227 3.306-3.362 0.848-12.435 5.58-13.74 7.296 2.736-5.057 10.299-10.708 18.293-14.044 1.185-0.086 2.368-0.201 3.516-0.373zM25.389 29.796c1.931-0.75 3.876-1.358 5.771-1.783 0.281-0.062 0.679-0.233 1.181-0.444 1.033-0.439 2.447-1.041 4.172-1.329 3.249-0.547 7.656-1.207 12.321-1.907 5.582-0.836 11.779-1.766 17.256-2.691-3.021 0.643-6.247 1.328-9.352 1.986-3.242 0.688-6.444 1.367-9.313 1.978-4.391 0.936-6.308 1.554-7.337 1.886-0.294 0.096-0.512 0.165-0.692 0.212-0.302 0.077-1.524 0.236-2.604 0.379-0.917 0.12-1.781 0.234-2.098 0.296-2.006 0.397-4.523 0.774-6.956 1.14-0.769 0.114-1.556 0.204-2.349 0.277zM72.079 22.080c-3.283 1.386-6.87 2.947-8.88 3.969-4.153 2.109-26.126 10.838-31.609 12.27-1.116 0.292-2.859 0.769-4.877 1.32-6.733 1.843-19.133 5.233-20.486 4.946-0.009-0.002-0.019-0.004-0.028-0.006 0.413-1.011 9.386-6.176 13.614-7.241 1.322-0.334 6.124-1.631 12.234-3.306 1.766-0.484 3.634-0.998 5.544-1.524 5.209-1.436 10.123-2.807 14.212-3.96 4.74-1.337 10.718-3.049 12.289-3.609l1.836-0.652c2.432-0.864 4.461-1.59 6.154-2.201zM5.368 44.713c-0.163 0.347-0.302 0.686-0.416 1.020-0.356-0.898-0.651-1.869-0.848-2.934-0.206-1.121-0.508-3.583 0.062-6.516 1.614-1.549 4.496-3.733 7.749-4.665 2.946-0.844 6.253-1.024 9.452-1.198 0.611-0.034 1.228-0.066 1.847-0.105-8.027 3.547-15.454 9.328-17.844 14.398zM78.034 18.887c-0.054-0.161-0.103-0.337-0.152-0.534 0.188-0.045 0.366-0.090 0.536-0.131 0.024 0.167 0.062 0.345 0.107 0.527-0.161 0.045-0.321 0.092-0.493 0.139zM78.874 19.659c0.030 0.054 0.060 0.109 0.092 0.161-0.116 0.073-0.233 0.144-0.356 0.221-0.049-0.067-0.099-0.139-0.146-0.216 0.156-0.064 0.289-0.116 0.411-0.165zM78.379 17.869c-0.182 0.045-0.367 0.092-0.572 0.141-0.004-0.021-0.008-0.041-0.013-0.062 0.21-0.037 0.401-0.075 0.581-0.109 0 0.009 0.002 0.021 0.002 0.030zM5.687 31.054c-0.306 0.568-0.585 1.151-0.836 1.747-0.478 1.133-0.801 2.248-1.014 3.304-0.249 0.242-0.469 0.469-0.652 0.671-0.126 0.139-0.246 0.276-0.364 0.412 0.452-2.392 1.401-4.425 2.867-6.135zM1.313 45.712c-0.981-1.191-1.208-2.634-0.671-4.29 0.302-0.934 0.849-1.933 1.633-2.985-0.015 0.129-0.028 0.261-0.039 0.392-0.285 3.176 0.081 5.931 1.17 8.492-0.814-0.411-1.543-0.941-2.093-1.609zM2.589 38.861c0.030-0.332 0.067-0.658 0.114-0.977 0.232-0.285 0.48-0.576 0.744-0.866 0.084-0.094 0.176-0.191 0.276-0.294-0.456 2.766-0.171 5.063 0.030 6.141 0.232 1.254 0.594 2.379 1.033 3.407-0.143 0.527-0.223 1.039-0.242 1.532-0.218-0.077-0.435-0.161-0.645-0.251-1.191-2.614-1.601-5.424-1.309-8.691zM4.121 48.022c0.139 0.054 0.279 0.105 0.422 0.152 0.008 0.266 0.034 0.527 0.081 0.782-0.18-0.309-0.347-0.621-0.502-0.934zM5.025 46.806c0.218 0.465 0.45 0.909 0.69 1.337-0.272-0.064-0.546-0.139-0.816-0.223 0.006-0.36 0.049-0.733 0.126-1.116zM75.636 22.712c-3.594 2.128-8.068 4.777-9.101 5.415-0.439 0.272-1.74 1.273-2.753 2.064-2.766 2.162-6.868 5.479-10.453 8.451-2.67 2.212-7.386 6.172-8.972 7.815-1.399 1.449-2.957 2.539-4.464 3.593-0.954 0.668-1.854 1.297-2.722 2.014l-0.42 0.347c-3.862 3.193-7.509 6.208-11.758 6.958-2.921 0.516-5.811 0.311-8.828-0.628-3.039-0.945-6.682-3.598-9.506-6.924-0.457-0.538-0.874-1.080-1.254-1.626-0.298-0.593-0.467-1.226-0.503-1.899 0.347 0.105 0.688 0.182 1.048 0.266 0.561 0.953 1.162 1.824 1.733 2.655l0.064 0.092c2.648 3.846 5.668 5.927 9.225 6.371 4.468 0.553 7.914 0.049 10.245-1.5 0.482-0.321 1.020-0.874 1.642-1.515 0.791-0.814 1.688-1.738 2.76-2.496 1.948-1.378 4.346-3.008 6.885-4.731 2.561-1.74 5.381-3.656 8.143-5.587 0.424-0.292 0.844-0.589 1.26-0.887v0c0.456-0.323 0.908-0.643 1.356-0.966 1.356-0.971 2.612-2.128 3.827-3.248 1.183-1.089 2.301-2.119 3.45-2.932 0.853-0.604 1.659-1.022 2.438-1.427 0.69-0.358 1.342-0.697 1.976-1.138 3.116-2.16 4.991-3.384 5.732-3.748 2.449-1.198 8.299-4.785 11.749-6.93 0.034-0.015 0.069-0.030 0.103-0.045 0.062 0.071 0.122 0.141 0.182 0.208 0.030 0.034 0.058 0.066 0.088 0.099-0.887 0.527-1.993 1.181-3.172 1.881zM79.121 20.646c-0.043-0.051-0.088-0.101-0.135-0.152-0.036-0.039-0.071-0.079-0.107-0.12 0.139-0.062 0.27-0.118 0.398-0.174 0.049 0.045 0.097 0.086 0.15 0.124 0.038 0.026 0.082 0.043 0.124 0.067-0.137 0.081-0.278 0.163-0.431 0.255zM86.117 20.389c-1.065 0.754-2.391 1.693-2.968 1.813-2.269 0.474-3.201-0.401-3.761-1.217-0.013-0.019-0.028-0.039-0.041-0.058 0.223-0.133 0.429-0.255 0.617-0.366 0.041 0.011 0.077 0.028 0.12 0.038 0.452 0.096 0.956 0.034 1.226-0.15 0.392-0.266 0.371-1.035 0.324-1.47-0.030-0.279-0.154-1.232-0.489-1.815-0.152-0.264-0.384-0.422-0.727-0.495-0.188-0.039-0.394-0.051-0.594-0.060-0.101-0.006-0.206-0.011-0.309-0.021-0.697-0.062-0.857 0.090-1.119 0.727-0.013 0.030-0.021 0.088-0.026 0.161-0.193 0.039-0.401 0.079-0.636 0.12-0.017-0.107-0.034-0.218-0.049-0.332-0.073-0.531 0.426-1.729 1.063-2.563 0.356-0.467 0.711-0.754 0.969-0.788l0.105-0.013c1.944-0.251 3.403-0.487 4.412-0.714 1.307 1.239 2.571 4.656 3.024 6.412-0.324 0.214-0.713 0.486-1.14 0.789zM88.556 19.297c-0.191 0.204-0.716 0.308-0.93 0.308-0.403-1.607-1.686-5.284-3.142-6.673 0.167-0.142 0.703-0.377 1.026-0.309 0.038 0.007 0.069 0.021 0.094 0.036 0.892 0.591 2.925 6.233 2.998 6.497 0.009 0.038 0.011 0.079-0.047 0.141zM110.184 10.809c-0.69 0.334-2.089 0.69-3.572 1.069-1.567 0.399-3.188 0.814-4.044 1.228-0.544 0.262-1.682 0.834-3 1.496-2.666 1.339-5.985 3.004-6.698 3.283-0.452 0.176-1.275 0.364-2.145 0.561-0.639 0.144-1.284 0.293-1.839 0.446-0.311-0.889-1.918-5.321-2.91-6.369 0.853-0.639 2.799-1.901 3.452-2.115 0.844-0.274 12.773-4.506 14.929-5.647 0.514-0.272 0.988-0.561 1.446-0.84 1.481-0.9 2.649-1.609 3.947-1.046 1.796 0.784 3.426 3.171 3.111 4.56-0.341 1.509-1.29 2.709-2.676 3.375zM117.831 7.836c-0.341 0.649-1.899 0.713-3.199 0.407-0.904-0.214-1.391-0.538-1.418-0.756 0.246-1.164-0.578-2.694-1.689-3.787 0.772-0.941 2.813-3.422 3.709-3.341 0.934 0.090 2.858 1.749 3.203 3.022 0.352 1.296-0.308 3.885-0.606 4.453z"></path>
</svg>
