<?xml version="1.0" standalone="no"?>
<!DOCTYPE svg PUBLIC "-//W3C//DTD SVG 1.1//EN" "http://www.w3.org/Graphics/SVG/1.1/DTD/svg11.dtd" >
<svg xmlns="http://www.w3.org/2000/svg" xmlns:xlink="http://www.w3.org/1999/xlink" version="1.1">
<metadata></metadata>
<defs>
<font id="neff_sansregular" horiz-adv-x="1188" vert-adv-y="2048" >
<font-face units-per-em="2048" ascent="1638" descent="-410" />
<missing-glyph horiz-adv-x="512" />
<glyph unicode="&#xfb01;" horiz-adv-x="1231" vert-adv-y="2457" d="M30 842v143h193v141q0 201 75 293q84 105 265 105q107 0 200 -30v-145q-89 36 -171 36q-124 0 -162 -84q-25 -55 -25 -177v-139h285v-143h-285v-842h-182v842h-193zM851 1278q0 54 39 87q33 28 83 28q52 0 87 -37q30 -31 30 -79q0 -56 -39 -89q-33 -28 -81 -28 q-55 0 -89 37q-30 32 -30 81zM879 0v985h182v-985h-182z" />
<glyph unicode="&#xfb02;" horiz-adv-x="1227" vert-adv-y="2457" d="M30 842v143h193v141q0 201 75 293q84 105 265 105q107 0 200 -30v-145q-89 36 -171 36q-124 0 -162 -84q-25 -55 -25 -177v-139h285v-143h-285v-842h-182v842h-193zM877 0v1495h182v-1495h-182z" />
<glyph horiz-adv-x="0" vert-adv-y="0" />
<glyph horiz-adv-x="682" />
<glyph unicode=" " horiz-adv-x="512" vert-adv-y="2457" />
<glyph unicode="!" horiz-adv-x="709" vert-adv-y="2457" d="M265 99q0 59 43 96q36 30 90 30q57 0 95 -40q33 -35 33 -87q0 -60 -43 -96q-36 -31 -87 -31q-61 0 -98 40q-33 36 -33 88zM293 1495h202l-28 -1067h-146z" />
<glyph unicode="&#x22;" horiz-adv-x="592" vert-adv-y="2457" d="M36 1434h180l-27 -558h-127zM377 1434h179l-26 -558h-127z" />
<glyph unicode="#" horiz-adv-x="1184" vert-adv-y="2457" d="M75 468l20 125h216l35 244h-213l20 125h213l49 331h150l-49 -331h225l49 331h150l-49 -331h213l-20 -125h-213l-35 -244h210l-21 -125h-210l-47 -330h-150l47 330h-225l-47 -330h-150l47 330h-215zM461 593h225l35 244h-225z" />
<glyph unicode="$" vert-adv-y="2457" d="M120 63v176q91 -60 205 -90q87 -23 215 -24v551q-135 56 -221 113q-93 61 -129 141q-29 63 -29 144q0 238 208 326q71 30 171 39v178h122v-178q157 -10 299 -74v-169q-135 89 -299 102v-491q141 -57 229 -111q172 -106 172 -317q0 -157 -96 -258q-97 -102 -305 -130v-190 h-122v181q-242 3 -420 81zM329 1081q0 -74 35 -117q37 -46 178 -110v443q-213 -35 -213 -216zM662 137q91 18 137 47q96 62 96 186q0 120 -92 186q-43 32 -141 73v-492z" />
<glyph unicode="%" horiz-adv-x="1823" vert-adv-y="2457" d="M91 1075q0 177 83 276q86 102 253 102q157 0 243 -102q83 -99 83 -275t-83 -275q-85 -102 -248 -102t-248 102q-83 99 -83 274zM255 1075q0 -127 40 -196q36 -63 127 -63t127 63q40 69 40 197q0 130 -40 197q-37 63 -124 63q-94 0 -130 -63q-40 -68 -40 -198zM467 0 l728 1423h162l-728 -1423h-162zM1071 347q0 177 83 276q86 102 252 102q157 0 243 -102q83 -99 83 -275q0 -175 -83 -275q-85 -102 -247 -102q-163 0 -248 102q-83 99 -83 274zM1235 346q0 -126 39 -195q36 -63 128 -63q91 0 127 63q39 69 39 197q0 130 -39 197 q-37 63 -125 63q-93 0 -130 -63q-39 -68 -39 -199z" />
<glyph unicode="&#x26;" horiz-adv-x="1572" vert-adv-y="2457" d="M162 371q0 219 185 346q45 31 164 83q-43 58 -69 101q-63 106 -63 224q0 146 93 236q97 92 270 92q184 0 280 -101q78 -82 78 -204q0 -169 -156 -282q-65 -47 -202 -107l368 -406q76 111 118 219q45 118 81 285h161q-43 -195 -103 -334q-49 -112 -122 -211 q-12 -16 -42 -55l237 -257h-239l-119 131q-84 -58 -138 -87q-138 -74 -312 -74q-192 0 -320 93q-150 109 -150 308zM346 395q0 -148 98 -226q87 -70 226 -70q129 0 237 71q37 24 85 63l-407 469q-14 -8 -71 -37q-82 -42 -130 -120q-38 -62 -38 -150zM543 1133q0 -95 60 -194 q17 -27 41 -57l20 -26q121 53 170 91q102 78 102 209q0 83 -52 127q-52 43 -144 43q-197 0 -197 -193z" />
<glyph unicode="'" horiz-adv-x="292" vert-adv-y="2457" d="M56 1434h180l-27 -558h-127z" />
<glyph unicode="(" horiz-adv-x="836" vert-adv-y="2457" d="M267 602q0 366 136 684q76 175 168 300l112 -57q-86 -150 -137 -317q-93 -304 -93 -610q0 -330 107 -655q46 -137 123 -272l-112 -57q-104 142 -183 337q-121 301 -121 647z" />
<glyph unicode=")" horiz-adv-x="836" vert-adv-y="2457" d="M153 -325q86 149 137 316q93 303 93 611q0 331 -107 654q-46 137 -123 273l112 57q104 -141 183 -338q121 -301 121 -646q0 -365 -137 -684q-74 -173 -167 -300z" />
<glyph unicode="*" horiz-adv-x="1181" vert-adv-y="2457" d="M157 1233l50 163l319 -124l-23 350h174l-23 -350l320 124l49 -163l-337 -77l244 -293l-142 -102l-198 317l-197 -317l-142 102l244 293z" />
<glyph unicode="+" vert-adv-y="2457" d="M120 583v142h398v404h156v-404h395v-142h-395v-404h-156v404h-398z" />
<glyph unicode="," horiz-adv-x="594" vert-adv-y="2457" d="M138 -369l99 353q-70 33 -70 114q0 61 43 98q34 29 87 29q60 0 96 -38q34 -35 34 -86q0 -49 -37 -144l-126 -326h-126z" />
<glyph unicode="-" horiz-adv-x="750" vert-adv-y="2457" d="M88 524v147h574v-147h-574z" />
<glyph unicode="." horiz-adv-x="594" vert-adv-y="2457" d="M167 99q0 59 43 96q36 30 90 30q57 0 95 -40q33 -35 33 -87q0 -60 -43 -96q-36 -31 -87 -31q-61 0 -98 40q-33 36 -33 88z" />
<glyph unicode="/" horiz-adv-x="980" vert-adv-y="2457" d="M-4 -69l804 1564h180l-804 -1564h-180z" />
<glyph unicode="0" vert-adv-y="2457" d="M102 714q0 367 96 531q121 208 403 208q176 0 294 -94q124 -98 166 -320q26 -135 26 -327q0 -368 -96 -533q-120 -208 -396 -208q-183 0 -301 94q-124 99 -166 320q-26 136 -26 329zM288 714q0 -326 57 -450q70 -151 249 -151q194 0 260 178q47 126 47 421q0 322 -58 448 q-69 151 -244 151q-199 0 -265 -178q-46 -124 -46 -419z" />
<glyph unicode="1" vert-adv-y="2457" d="M227 1147v148l384 141h135v-1436h-180v1266z" />
<glyph unicode="2" vert-adv-y="2457" d="M127 0v122l432 496q103 119 164 216q73 115 73 230q0 106 -51 168q-65 79 -202 79q-179 0 -351 -132v168q179 106 376 106q200 0 309 -97q109 -98 109 -273q0 -150 -86 -290q-65 -104 -195 -252l-352 -398h657v-143h-883z" />
<glyph unicode="3" vert-adv-y="2457" d="M85 40v169q58 -33 102 -51q111 -45 248 -45q373 0 373 307q0 157 -126 221q-95 48 -301 48h-108v141h109q189 0 297 76q93 66 93 183q0 222 -277 222q-174 0 -345 -92v163q185 71 374 71q426 0 426 -350q0 -157 -112 -250q-43 -36 -129 -72q102 -29 162 -75 q65 -50 95 -119q28 -67 28 -168q0 -448 -530 -448q-202 0 -379 69z" />
<glyph unicode="4" vert-adv-y="2457" d="M62 331v123l507 969h184l-499 -953h500v469h174v-469h225v-139h-225v-331h-174v331h-692z" />
<glyph unicode="5" vert-adv-y="2457" d="M155 37v167q168 -91 338 -91q386 0 386 336q0 299 -282 299q-104 0 -194 -42q-35 -16 -88 -50l-100 22l29 745h730v-141h-570l-22 -460q130 63 271 63q193 0 299 -103q113 -111 113 -327q0 -242 -129 -359q-137 -125 -416 -125q-194 0 -365 66z" />
<glyph unicode="6" vert-adv-y="2457" d="M128 581q0 263 80 471q149 385 569 385q71 0 144 -13v-140q-80 14 -140 14q-243 0 -356 -171q-68 -102 -95 -251q-10 -55 -19 -158q48 76 107 115q100 65 242 65q223 0 335 -149q86 -114 86 -293q0 -181 -90 -306q-128 -180 -392 -180q-272 0 -386 194q-85 143 -85 417z M314 440q0 -332 291 -332q290 0 290 339q0 131 -52 213q-67 107 -220 107q-137 0 -218 -76q-91 -86 -91 -251z" />
<glyph unicode="7" vert-adv-y="2457" d="M140 1282v141h912v-91l-579 -1332h-197l580 1282h-716z" />
<glyph unicode="8" vert-adv-y="2457" d="M89 372q0 175 102 277q60 59 168 100q-93 47 -136 97q-78 89 -78 225q0 178 114 279q115 103 334 103q220 0 335 -103q114 -101 114 -279q0 -136 -78 -225q-44 -50 -137 -97q108 -41 168 -100q102 -102 102 -276q0 -213 -147 -313q-129 -89 -357 -89t-357 89 q-147 100 -147 312zM273 392q0 -150 83 -218q80 -65 237 -65t237 65q83 68 83 217q0 285 -315 285q-161 0 -241 -67q-84 -69 -84 -217zM324 1070q0 -117 64 -184q66 -68 200 -68q274 0 274 251q0 246 -269 246t-269 -245z" />
<glyph unicode="9" vert-adv-y="2457" d="M108 980q0 212 119 341q120 132 353 132q283 0 395 -187q84 -141 84 -421q0 -269 -80 -476q-149 -384 -599 -384q-76 0 -157 14v139q91 -14 158 -14q190 0 303 92q131 105 174 337q12 62 21 170q-46 -65 -90 -98q-97 -72 -255 -72q-214 0 -324 124q-102 115 -102 303z M294 991q0 -307 277 -307q131 0 211 73q91 83 91 240q0 133 -56 217q-69 102 -226 102q-297 0 -297 -325z" />
<glyph unicode=":" horiz-adv-x="594" vert-adv-y="2457" d="M208 104q0 59 43 96q36 30 90 30q57 0 95 -40q33 -35 33 -87q0 -60 -43 -96q-36 -31 -87 -31q-61 0 -98 40q-33 36 -33 88zM208 826q0 59 43 96q36 30 90 30q57 0 95 -40q33 -35 33 -87q0 -60 -43 -96q-36 -31 -87 -31q-61 0 -98 40q-33 36 -33 88z" />
<glyph unicode=";" horiz-adv-x="594" vert-adv-y="2457" d="M179 -364l99 353q-70 33 -70 114q0 60 43 97q34 30 87 30q60 0 96 -38q34 -34 34 -86q0 -49 -37 -144l-126 -326h-126zM208 826q0 59 43 96q35 30 90 30q57 0 95 -40q33 -35 33 -87q0 -60 -43 -97q-36 -30 -88 -30q-60 0 -97 40q-33 36 -33 88z" />
<glyph unicode="&#x3c;" vert-adv-y="2457" d="M117 615v78l954 464v-166l-731 -337l731 -334v-166z" />
<glyph unicode="=" vert-adv-y="2457" d="M132 421v142h925v-142h-925zM132 745v142h925v-142h-925z" />
<glyph unicode="&#x3e;" vert-adv-y="2457" d="M117 154v166l731 338l-731 333v166l954 -460v-79z" />
<glyph unicode="?" horiz-adv-x="950" vert-adv-y="2457" d="M151 1441q158 65 318 65q201 0 304 -100q92 -89 92 -245q0 -100 -46 -184q-45 -83 -246 -281q-49 -50 -65 -91q-14 -41 -14 -113v-64h-149v99q0 86 15 129q18 51 98 131q110 111 156 176q65 91 65 188q0 215 -227 215q-143 0 -297 -81zM290 99q0 59 43 96q35 30 90 30 q57 0 95 -40q33 -35 33 -87q0 -60 -43 -96q-36 -31 -88 -31q-61 0 -98 40q-32 36 -32 88z" />
<glyph unicode="@" horiz-adv-x="1850" vert-adv-y="2457" d="M128 575q0 403 239 647q223 227 583 227q257 0 445 -109q168 -97 254 -276q72 -148 72 -316q0 -201 -99 -343q-74 -108 -183 -156q-74 -34 -159 -34q-122 0 -164 74q-12 21 -25 94q-57 -66 -89 -92q-94 -77 -207 -77q-104 0 -168 63q-75 75 -75 205q0 146 63 286 q67 149 180 216q79 47 166 47q105 0 168 -61q19 -18 55 -70l25 110h128l-108 -495q-14 -64 -14 -105t15 -60q17 -20 65 -20q94 0 162 73q121 127 121 339q0 153 -64 293q-71 156 -230 229q-148 69 -334 69q-302 0 -481 -190q-196 -208 -196 -562q0 -341 188 -490 q177 -140 501 -140q263 0 485 92l37 -108q-243 -110 -531 -110q-389 0 -603 181q-222 189 -222 569zM701 500q0 -165 132 -165q126 0 212 137q89 142 89 287q0 72 -37 114q-42 46 -118 46q-87 0 -148 -65q-61 -66 -97 -168q-33 -95 -33 -186z" />
<glyph unicode="A" horiz-adv-x="1342" vert-adv-y="2457" d="M-2 0l589 1434h166l590 -1434h-194l-155 393h-651l-154 -393h-191zM395 534h547l-274 708z" />
<glyph unicode="B" horiz-adv-x="1297" vert-adv-y="2457" d="M179 0v1434h466q259 0 370 -69q135 -83 135 -270q0 -161 -95 -253q-45 -43 -139 -77q130 -30 191 -89q95 -90 95 -278q0 -144 -67 -241t-219 -133q-100 -24 -266 -24h-471zM363 141h242q219 0 298 45q109 61 109 217q0 178 -117 239q-81 42 -307 42h-225v-543zM363 819 h220q204 0 274 40q105 58 105 216q0 131 -86 180q-65 38 -249 38h-264v-474z" />
<glyph unicode="C" horiz-adv-x="1267" vert-adv-y="2457" d="M118 708q0 395 201 591q167 164 470 164q206 0 388 -87v-169q-59 37 -103 57q-121 54 -264 54q-268 0 -384 -160q-118 -161 -118 -449q0 -272 108 -427q115 -166 394 -166q145 0 271 52q46 20 106 54v-169q-189 -82 -398 -82q-354 0 -521 208q-150 186 -150 529z" />
<glyph unicode="D" horiz-adv-x="1425" vert-adv-y="2457" d="M179 0v1434h422q328 0 490 -138q115 -99 172 -276q44 -138 44 -303q0 -235 -89 -411q-89 -178 -277 -252q-138 -54 -353 -54h-409zM363 143h211q253 0 382 114q161 142 161 468q0 231 -88 380q-78 133 -244 168q-87 18 -242 18h-180v-1148z" />
<glyph unicode="E" horiz-adv-x="1165" vert-adv-y="2457" d="M179 0v1434h897v-147h-713v-452h572v-141h-572v-547h713v-147h-897z" />
<glyph unicode="F" horiz-adv-x="1079" vert-adv-y="2457" d="M179 0v1434h847v-147h-663v-469h556v-144h-556v-674h-184z" />
<glyph unicode="G" horiz-adv-x="1441" vert-adv-y="2457" d="M118 697q0 385 202 592q170 174 481 174q220 0 421 -87v-169q-67 38 -112 57q-131 54 -289 54q-266 0 -386 -162q-127 -170 -127 -456q0 -265 105 -420q111 -164 384 -164q178 0 323 76v362h-307v139h489v-604q-236 -118 -516 -118q-347 0 -510 192q-158 185 -158 534z " />
<glyph unicode="H" horiz-adv-x="1455" vert-adv-y="2457" d="M179 0v1434h184v-610h729v610h184v-1434h-184v677h-729v-677h-184z" />
<glyph unicode="I" horiz-adv-x="558" vert-adv-y="2457" d="M187 0v1434h184v-1434h-184z" />
<glyph unicode="J" horiz-adv-x="564" vert-adv-y="2457" d="M-41 -287q78 9 120 34q83 49 109 200q14 83 14 246v1241h184v-1210q0 -251 -30 -354q-58 -195 -233 -257q-52 -19 -164 -29v129z" />
<glyph unicode="K" horiz-adv-x="1254" vert-adv-y="2457" d="M179 0v1434h184v-626l633 626h216l-674 -651l745 -783h-240l-680 725v-725h-184z" />
<glyph unicode="L" horiz-adv-x="1051" vert-adv-y="2457" d="M179 0v1434h184v-1287h661v-147h-845z" />
<glyph unicode="M" horiz-adv-x="1697" vert-adv-y="2457" d="M131 0l92 1434h175l452 -934l451 934h173l92 -1434h-172l-63 1148l-426 -867h-114l-425 867l-64 -1148h-171z" />
<glyph unicode="N" horiz-adv-x="1467" vert-adv-y="2457" d="M179 0v1434h178l767 -1135v1135h165v-1434h-157l-788 1171v-1171h-165z" />
<glyph unicode="O" horiz-adv-x="1550" vert-adv-y="2457" d="M118 714q0 343 154 539q167 210 514 210q324 0 493 -210q154 -194 154 -536q0 -341 -154 -536q-167 -210 -503 -210q-337 0 -504 210q-154 195 -154 533zM308 714q0 -274 99 -429q108 -169 369 -169q260 0 368 169q99 155 99 432q0 601 -459 601q-268 0 -377 -169 q-99 -154 -99 -435z" />
<glyph unicode="P" horiz-adv-x="1197" vert-adv-y="2457" d="M179 0v1434h371q286 0 416 -83q170 -109 170 -353q0 -256 -185 -370q-124 -76 -372 -76h-216v-552h-184zM363 693h184q139 0 209 18q192 50 192 281q0 179 -109 249q-82 52 -293 52h-183v-600z" />
<glyph unicode="Q" horiz-adv-x="1550" vert-adv-y="2457" d="M118 717q0 341 154 536q167 210 503 210q337 0 504 -210q154 -195 154 -538q0 -415 -232 -612l354 -164l-58 -136l-456 218q-142 -50 -273 -50q-328 0 -495 210q-155 195 -155 536zM308 714q0 -274 99 -429q108 -169 369 -169q260 0 368 169q99 155 99 432 q0 601 -459 601q-268 0 -377 -169q-99 -154 -99 -435z" />
<glyph unicode="R" horiz-adv-x="1263" vert-adv-y="2457" d="M179 0v1434h408q296 0 420 -84q148 -100 148 -314q0 -216 -156 -314q-62 -40 -216 -75q39 -28 66 -58q31 -36 87 -114l342 -475h-222l-282 418q-82 122 -144 172q-40 33 -127 33h-140v-623h-184zM363 764h234q212 0 290 65q80 66 80 206q0 147 -95 208q-79 50 -275 50 h-234v-529z" />
<glyph unicode="S" horiz-adv-x="1141" vert-adv-y="2457" d="M77 53v174q200 -112 441 -112q363 0 363 257q0 96 -50 155q-41 49 -108 80q-60 27 -153 61q-228 83 -324 159q-121 96 -121 265q0 198 136 290q118 81 319 81q198 0 373 -82v-167q-172 106 -367 106q-289 0 -289 -214q0 -106 72 -161q47 -37 113 -63q69 -28 160 -61 q170 -63 239 -108q172 -115 172 -331q0 -146 -74 -246q-122 -165 -453 -165q-255 0 -449 82z" />
<glyph unicode="T" horiz-adv-x="1153" vert-adv-y="2457" d="M26 1287v147h1100v-147h-458v-1287h-184v1287h-458z" />
<glyph unicode="U" horiz-adv-x="1391" vert-adv-y="2457" d="M169 557v877h184v-832q0 -260 47 -349q73 -137 295 -137q243 0 310 162q36 89 36 324v832h181v-877q0 -136 -12 -209q-32 -204 -172 -294q-128 -83 -344 -83q-371 0 -476 238q-49 112 -49 348z" />
<glyph unicode="V" horiz-adv-x="1211" vert-adv-y="2457" d="M-10 1434h194l421 -1206l422 1206h193l-537 -1434h-163z" />
<glyph unicode="W" horiz-adv-x="1955" vert-adv-y="2457" d="M18 1434h191l331 -1206l362 1206h153l361 -1206l331 1206h191l-441 -1434h-163l-356 1176l-363 -1176h-163z" />
<glyph unicode="X" horiz-adv-x="1278" vert-adv-y="2457" d="M-35 0l563 768l-457 666h206l377 -558l370 558h203l-481 -683l516 -751h-207l-433 646l-453 -646h-204z" />
<glyph unicode="Y" horiz-adv-x="1181" vert-adv-y="2457" d="M-16 1434h204l406 -770l407 770h196l-516 -926v-508h-184v508z" />
<glyph unicode="Z" horiz-adv-x="1150" vert-adv-y="2457" d="M24 0v120l827 1167h-739v147h957v-116l-828 -1171h865v-147h-1082z" />
<glyph unicode="[" horiz-adv-x="840" vert-adv-y="2457" d="M306 -360v1941h315v-113h-143v-1715h143v-113h-315z" />
<glyph unicode="\" horiz-adv-x="980" vert-adv-y="2457" d="M0 1495h180l804 -1564h-180z" />
<glyph unicode="]" horiz-adv-x="840" vert-adv-y="2457" d="M220 -247h143v1715h-143v113h315v-1941h-315v113z" />
<glyph unicode="^" horiz-adv-x="1167" vert-adv-y="2457" d="M86 734l465 713h66l465 -713h-193l-305 492l-305 -492h-193z" />
<glyph unicode="_" horiz-adv-x="1024" vert-adv-y="2457" d="M-103 -307h1230v-123h-1230v123z" />
<glyph unicode="`" horiz-adv-x="995" vert-adv-y="2457" d="M238 1417h230l173 -279h-133z" />
<glyph unicode="a" horiz-adv-x="1133" vert-adv-y="2457" d="M75 267q0 221 179 282q123 43 423 43h118v59q0 103 -34 152q-51 73 -218 73q-186 0 -363 -87v153q178 72 381 72q260 0 358 -118q48 -58 57 -166q3 -41 3 -121v-609h-147l-17 74q-69 -40 -108 -56q-113 -46 -278 -46q-157 0 -244 54q-110 70 -110 241zM259 273 q0 -95 53 -133q49 -36 160 -36q198 0 325 96v273h-114q-233 0 -319 -31q-105 -37 -105 -169z" />
<glyph unicode="b" horiz-adv-x="1206" vert-adv-y="2457" d="M161 42v1453h182v-594q160 113 340 113q229 0 331 -152q92 -136 92 -350q0 -230 -101 -373q-116 -166 -407 -166q-228 0 -437 69zM343 151q126 -36 248 -36q186 0 258 112q69 107 69 284q0 161 -58 258q-60 101 -216 101q-160 0 -301 -108v-611z" />
<glyph unicode="c" horiz-adv-x="998" vert-adv-y="2457" d="M101 474q0 274 153 420q124 120 341 120q159 0 302 -65v-158q-58 32 -85 43q-88 38 -196 38q-165 0 -244 -103q-83 -108 -83 -291q0 -170 80 -266q82 -99 255 -99q108 0 196 37q26 11 94 48v-160q-151 -67 -316 -67q-232 0 -358 117q-139 128 -139 386z" />
<glyph unicode="d" horiz-adv-x="1208" vert-adv-y="2457" d="M101 470q0 248 123 395q125 149 355 149q160 0 285 -72v553h182v-1495h-144l-18 72q-61 -39 -101 -55q-103 -44 -237 -44q-231 0 -345 148q-100 129 -100 349zM289 475q0 -168 68 -261q72 -99 225 -99q156 0 282 89v603q-108 65 -239 65q-186 0 -267 -126 q-69 -107 -69 -271z" />
<glyph unicode="e" horiz-adv-x="1121" vert-adv-y="2457" d="M101 487q0 240 114 379q122 148 362 148q323 0 412 -257q32 -94 33 -275h-735q1 -147 46 -233q44 -86 125 -118q60 -24 152 -24q131 0 248 39q45 15 123 49v-153q-195 -71 -396 -71q-232 0 -349 119q-135 139 -135 397zM287 607h562q-9 103 -40 159q-65 116 -230 116 q-254 0 -292 -275z" />
<glyph unicode="f" horiz-adv-x="709" vert-adv-y="2457" d="M30 842v143h193v141q0 201 75 293q84 105 265 105q107 0 200 -30v-145q-89 36 -171 36q-124 0 -162 -84q-25 -55 -25 -177v-139h285v-143h-285v-842h-182v842h-193z" />
<glyph unicode="g" horiz-adv-x="1189" vert-adv-y="2457" d="M101 472q0 255 125 400q75 86 183 116q96 26 213 26q180 0 406 -66v-870q0 -171 -17 -246q-66 -291 -487 -291q-201 0 -346 51v154q154 -68 340 -68q227 0 291 123q37 71 37 179v82q-149 -84 -320 -84q-145 0 -250 70q-175 116 -175 424zM289 480q0 -363 277 -363 q155 0 280 87v631q-103 42 -222 42q-183 0 -260 -109q-75 -106 -75 -288z" />
<glyph unicode="h" horiz-adv-x="1222" vert-adv-y="2457" d="M162 0v1495h182v-575q166 94 353 94q251 0 331 -149q40 -75 40 -254v-611h-182v623q0 130 -40 182q-50 64 -193 64q-174 0 -309 -97v-772h-182z" />
<glyph unicode="i" horiz-adv-x="522" vert-adv-y="2457" d="M141 1278q0 54 39 87q33 28 83 28q52 0 87 -37q30 -31 30 -79q0 -56 -39 -89q-33 -28 -81 -28q-55 0 -89 37q-30 32 -30 81zM169 0v985h182v-985h-182z" />
<glyph unicode="j" horiz-adv-x="529" vert-adv-y="2457" d="M-57 -304q143 20 185 105q48 97 48 339v845h182v-801q0 -229 -24 -324q-47 -191 -208 -258q-66 -28 -183 -38v132zM148 1278q0 54 39 87q33 28 83 28q52 0 87 -37q30 -31 30 -79q0 -56 -39 -89q-33 -28 -80 -28q-56 0 -90 37q-30 32 -30 81z" />
<glyph unicode="k" horiz-adv-x="1078" vert-adv-y="2457" d="M162 0v1495h182v-885l472 375h228l-523 -403l573 -582h-226l-524 546v-546h-182z" />
<glyph unicode="l" horiz-adv-x="517" vert-adv-y="2457" d="M168 0v1495h182v-1495h-182z" />
<glyph unicode="m" horiz-adv-x="1813" vert-adv-y="2457" d="M161 0v985h145l17 -78q161 107 342 107q200 0 287 -125q63 43 110 65q123 60 260 60q227 0 299 -149q37 -76 37 -254v-611h-182v624q0 129 -34 181q-42 64 -165 64q-145 0 -276 -96v-773h-182v627q0 126 -34 178q-42 64 -166 64q-146 0 -276 -96v-773h-182z" />
<glyph unicode="n" horiz-adv-x="1213" vert-adv-y="2457" d="M161 0v985h145l17 -78q175 107 372 107q246 0 325 -149q40 -75 40 -254v-611h-182v624q0 129 -40 181q-48 64 -189 64q-163 0 -306 -96v-773h-182z" />
<glyph unicode="o" horiz-adv-x="1218" vert-adv-y="2457" d="M101 491q0 523 516 523q248 0 379 -142q121 -130 121 -380q0 -248 -121 -379q-131 -142 -387 -142t-387 142q-121 131 -121 378zM289 491q0 -378 320 -378t320 379q0 380 -315 380q-163 0 -243 -91q-82 -94 -82 -290z" />
<glyph unicode="p" horiz-adv-x="1208" vert-adv-y="2457" d="M162 -430v1415h141l18 -77q161 104 344 104q232 0 344 -151q98 -130 98 -357q0 -229 -91 -366q-57 -86 -157 -126q-94 -39 -204 -39q-173 0 -311 83v-486h-182zM344 204q110 -89 271 -89q175 0 242 112q62 103 62 277q0 169 -63 263q-67 100 -236 100q-152 0 -276 -92 v-571z" />
<glyph unicode="q" horiz-adv-x="1186" vert-adv-y="2457" d="M101 469q0 257 126 403q75 86 185 116q95 26 212 26q179 0 399 -66v-1378h-182v492q-147 -91 -319 -91q-143 0 -247 71q-174 117 -174 427zM289 479q0 -172 61 -268q64 -101 215 -101q155 0 276 93v632q-101 42 -217 42q-182 0 -259 -109q-76 -106 -76 -289z" />
<glyph unicode="r" horiz-adv-x="776" vert-adv-y="2457" d="M161 0v985h145l16 -85q59 42 107 63q80 37 192 37q76 0 142 -15v-168q-82 35 -169 35q-137 0 -250 -91l-1 -761h-182z" />
<glyph unicode="s" horiz-adv-x="945" vert-adv-y="2457" d="M71 46v165q158 -105 354 -105q266 0 266 163q0 66 -47 98q-31 21 -76 35q-38 11 -119 34q-173 49 -245 99q-100 70 -100 206q0 132 92 203q93 70 268 70t327 -62v-156q-147 83 -313 83q-200 0 -200 -126q0 -59 51 -93q49 -33 187 -72q176 -51 240 -93q109 -72 109 -222 q0 -95 -52 -169q-94 -133 -377 -133q-211 0 -365 75z" />
<glyph unicode="t" horiz-adv-x="773" vert-adv-y="2457" d="M30 842v143h200l22 298l153 14v-312h339v-143h-339v-464q0 -161 17 -203q26 -62 133 -62q93 0 188 38v-148q-118 -32 -234 -32q-188 0 -247 107q-39 69 -39 235v529h-193z" />
<glyph unicode="u" horiz-adv-x="1161" vert-adv-y="2457" d="M153 375v610h182v-630q0 -125 32 -176q40 -63 162 -63q165 0 289 92v777h182v-985h-148l-14 76q-69 -41 -108 -58q-113 -47 -250 -47q-219 0 -291 149q-36 76 -36 255z" />
<glyph unicode="v" horiz-adv-x="1034" vert-adv-y="2457" d="M11 985h193l314 -802l313 802h191l-427 -985h-165z" />
<glyph unicode="w" horiz-adv-x="1643" vert-adv-y="2457" d="M37 985h193l226 -800l295 800h146l296 -800l225 800h188l-328 -985h-172l-283 766l-286 -766h-177z" />
<glyph unicode="x" horiz-adv-x="1060" vert-adv-y="2457" d="M3 0l429 517l-379 468h216l280 -361l262 361h209l-386 -467l415 -518h-216l-317 414l-303 -414h-210z" />
<glyph unicode="y" horiz-adv-x="1034" vert-adv-y="2457" d="M11 985h193l315 -813l314 813h191l-458 -1052q-64 -148 -93 -198q-73 -131 -208 -157q-52 -10 -149 -14v135q121 8 166 43q49 37 103 159l44 99z" />
<glyph unicode="z" horiz-adv-x="995" vert-adv-y="2457" d="M35 0v114l623 728h-546v143h782v-114l-629 -728h679v-143h-909z" />
<glyph unicode="{" horiz-adv-x="783" vert-adv-y="2457" d="M123 614v87q97 9 127 67q20 38 20 204v195q0 194 20 255q37 116 151 144q60 15 174 15h97v-102h-20q-153 0 -201 -57q-33 -40 -40 -147q-3 -63 -3 -138v-161q0 -128 -5 -162q-16 -108 -147 -157q88 -32 122 -90q25 -41 29 -107q1 -24 1 -121v-255q0 -163 13 -217 q19 -82 86 -106q54 -19 145 -19h20v-102h-97q-129 0 -190 20q-112 35 -140 157q-15 63 -15 237v289q0 166 -20 204q-30 57 -127 67z" />
<glyph unicode="|" horiz-adv-x="1024" vert-adv-y="2457" d="M425 -430v1925h176v-1925h-176z" />
<glyph unicode="}" horiz-adv-x="783" vert-adv-y="2457" d="M72 -258h20q153 0 201 57q33 40 40 147q3 63 3 138v255q0 128 5 162q16 108 147 156q-88 33 -122 90q-25 42 -29 108q-1 24 -1 121v161q0 163 -13 217q-19 82 -86 106q-54 19 -145 19h-20v102h97q129 0 190 -20q112 -35 140 -157q15 -63 15 -237v-195q0 -166 20 -204 q30 -58 127 -67v-87q-97 -10 -127 -67q-20 -38 -20 -204v-289q0 -194 -20 -255q-37 -116 -151 -144q-60 -15 -174 -15h-97v102z" />
<glyph unicode="~" vert-adv-y="2457" d="M156 541q37 112 77 168q74 104 195 104q62 0 115 -27q29 -15 89 -63q49 -39 75 -53q31 -15 65 -15q61 0 103 64q23 35 46 93l111 -48q-35 -96 -72 -148q-78 -109 -200 -109q-70 0 -130 35q-22 13 -79 58q-47 37 -73 50q-29 15 -62 15q-61 0 -102 -65q-21 -33 -44 -94z " />
<glyph unicode="&#xa0;" horiz-adv-x="512" vert-adv-y="2457" />
<glyph unicode="&#xa1;" horiz-adv-x="709" vert-adv-y="2457" d="M224 925q0 59 43 96q36 30 90 30q57 0 95 -40q33 -36 33 -87q0 -60 -43 -97q-36 -30 -87 -30q-61 0 -99 40q-32 35 -32 88zM255 -430l28 1025h146l28 -1025h-202z" />
<glyph unicode="&#xa2;" vert-adv-y="2457" d="M181 768q0 345 235 477q81 45 198 56v185h122v-186q129 -10 242 -60v-159q-83 47 -128 60q-47 15 -114 20v-750q82 6 139 26q34 13 120 59v-158q-121 -57 -259 -67v-206h-122v206q-433 40 -433 497zM367 772q0 -212 122 -305q48 -37 125 -50v739q-95 -23 -142 -71 q-105 -107 -105 -313z" />
<glyph unicode="&#xa3;" vert-adv-y="2457" d="M100 646v139h199v169q0 114 16 203q30 164 171 240q102 55 255 55q179 0 335 -79v-166q-149 104 -313 104q-176 0 -242 -115q-42 -73 -42 -238v-173h293v-139h-293v-505h639v-141h-983v141h164v505h-199z" />
<glyph unicode="&#xa4;" vert-adv-y="2457" d="M79 228l172 184q-87 118 -87 271q0 154 87 272l-172 184l86 82l169 -183q111 83 260 83q148 0 260 -83l170 183l85 -82l-172 -184q86 -118 86 -272q0 -153 -86 -271l172 -184l-85 -82l-170 183q-113 -83 -260 -83q-148 0 -260 83l-169 -183zM330 683q0 -122 60 -205 q73 -99 204 -99q130 0 203 100q60 82 60 205q0 125 -60 205q-74 100 -199 100q-134 0 -208 -99q-60 -81 -60 -207z" />
<glyph unicode="&#xa5;" horiz-adv-x="1199" vert-adv-y="2457" d="M3 1424h202l395 -757l395 757h194l-442 -798h314v-115h-375v-128h375v-115h-375v-268h-182v268h-366v115h366v128h-366v115h305z" />
<glyph unicode="&#xa6;" horiz-adv-x="1024" vert-adv-y="2457" d="M425 0v515h176v-515h-176zM425 884v550h176v-550h-176z" />
<glyph unicode="&#xa7;" horiz-adv-x="1182" vert-adv-y="2457" d="M182 628q0 128 101 212q30 25 85 58q-135 82 -135 243q0 162 103 248q99 82 281 82q124 0 262 -37v-152q-123 54 -251 54q-221 0 -221 -180q0 -75 41 -116q37 -37 94 -58q55 -21 127 -41q140 -40 195 -69q149 -80 149 -248q0 -79 -36 -139q-40 -68 -146 -128 q135 -82 135 -245q0 -171 -126 -259q-105 -73 -291 -73q-159 0 -330 61v151q154 -77 319 -77q254 0 254 181q0 74 -45 118q-36 35 -87 54q-54 21 -132 43q-196 55 -264 116q-82 72 -82 201zM346 659q0 -78 41 -122q31 -34 84 -52q30 -10 107 -34q55 -16 130 -43q10 6 16 9 q63 37 83 58q42 46 42 119q0 76 -40 120q-31 34 -88 53q-23 8 -104 33q-52 17 -129 45q-66 -35 -86 -53q-56 -52 -56 -133z" />
<glyph unicode="&#xa8;" horiz-adv-x="1024" vert-adv-y="2457" d="M200 1277q0 52 38 84q31 27 80 27q52 0 85 -36q29 -30 29 -76q0 -54 -38 -86q-32 -27 -78 -27q-54 0 -87 36q-29 30 -29 78zM591 1277q0 52 38 84q31 27 80 27q52 0 85 -36q29 -30 29 -76q0 -54 -38 -86q-32 -27 -78 -27q-54 0 -87 36q-29 30 -29 78z" />
<glyph unicode="&#xa9;" horiz-adv-x="1791" vert-adv-y="2457" d="M104 720q0 233 119 422q108 171 296 266q169 85 388 85q228 0 417 -113q176 -107 273 -287q91 -172 91 -371q0 -231 -120 -420q-110 -173 -295 -266q-169 -85 -377 -85q-341 0 -565 219q-102 100 -161 232q-66 150 -66 318zM206 720q0 -291 186 -482q195 -200 504 -200 t504 200q186 191 186 484q0 298 -186 484q-200 200 -494 200q-318 0 -514 -200q-186 -190 -186 -486zM542 717q0 194 112 296q95 86 270 86q117 0 229 -50v-110q-54 30 -76 39q-60 25 -134 25q-246 0 -246 -287q0 -128 52 -202q56 -79 190 -79q79 0 143 26q19 8 77 39v-112 q-120 -49 -238 -49q-198 0 -292 106q-87 99 -87 272z" />
<glyph unicode="&#xaa;" horiz-adv-x="769" vert-adv-y="2457" d="M84 988q0 117 106 170q69 34 230 47q8 1 66 4q5 1 23 2v28q0 59 -20 86q-29 40 -119 40q-107 0 -220 -58v104q114 47 239 47q163 0 223 -81q26 -34 31 -96q2 -31 2 -79v-379h-108l-12 41q-94 -55 -218 -55q-223 0 -223 179zM217 996q0 -94 119 -94q96 0 176 49v184 q-131 -10 -184 -23q-111 -29 -111 -116z" />
<glyph unicode="&#xab;" horiz-adv-x="1016" vert-adv-y="2457" d="M59 568v26l398 378l82 -70l-262 -321l262 -321l-82 -70zM485 568v26l398 378l82 -70l-262 -321l262 -321l-82 -70z" />
<glyph unicode="&#xac;" vert-adv-y="2457" d="M129 589v139h898v-558h-169v419h-729z" />
<glyph unicode="&#xad;" horiz-adv-x="750" vert-adv-y="2457" d="M88 524v147h574v-147h-574z" />
<glyph unicode="&#xae;" horiz-adv-x="1311" vert-adv-y="2457" d="M79 1038q0 261 171 418q159 146 413 146q241 0 398 -146q171 -159 171 -416q0 -258 -171 -417q-157 -146 -405 -146q-250 0 -406 146q-171 159 -171 415zM174 1038q0 -222 133 -354q129 -129 348 -129q220 0 349 129q133 133 133 356q0 224 -133 355q-131 129 -342 129 q-225 0 -355 -129q-133 -132 -133 -357zM484 764v551h183q116 0 164 -34q60 -42 60 -121q0 -76 -53 -120q-25 -20 -83 -35q32 -27 66 -87l89 -154h-101l-76 139q-35 63 -48 75q-15 14 -51 14h-56v-228h-94zM578 1054h85q73 0 102 26q30 26 30 77q0 56 -35 80q-28 20 -104 20 h-78v-203z" />
<glyph unicode="&#xaf;" horiz-adv-x="1029" vert-adv-y="2457" d="M214 1204v133h600v-133h-600z" />
<glyph unicode="&#xb0;" horiz-adv-x="647" vert-adv-y="2457" d="M36 1235q0 131 76 204q78 74 215 74q130 0 208 -74q76 -73 76 -203q0 -129 -76 -203q-77 -74 -212 -74q-134 0 -211 74q-76 74 -76 202zM154 1235q0 -178 170 -178q169 0 169 179t-167 179q-172 0 -172 -180z" />
<glyph unicode="&#xb1;" vert-adv-y="2457" d="M117 0v139h954v-139h-954zM119 657v142h398v403h156v-403h395v-142h-395v-398h-156v398h-398z" />
<glyph unicode="&#xb2;" horiz-adv-x="654" vert-adv-y="2457" d="M-6 770v94l280 295q69 73 105 126q45 66 45 125q0 54 -31 89q-39 44 -118 44q-112 0 -241 -84v130q55 27 77 35q80 31 181 31q138 0 211 -60t73 -173q0 -99 -58 -182q-42 -61 -127 -149l-201 -210h401v-111h-597z" />
<glyph unicode="&#xb3;" horiz-adv-x="665" vert-adv-y="2457" d="M7 796v131q122 -62 231 -62t168 45q57 43 57 126q0 81 -76 116q-57 25 -178 25h-71v111h72q113 0 175 42q55 37 55 99q0 114 -158 114q-98 0 -229 -54v122q120 44 248 44q283 0 283 -218q0 -83 -48 -135q-27 -29 -75 -54q58 -24 90 -53q61 -56 61 -158q0 -144 -83 -212 q-89 -72 -271 -72q-126 0 -251 43z" />
<glyph unicode="&#xb4;" horiz-adv-x="995" vert-adv-y="2457" d="M415 1138l173 279h230l-270 -279h-133z" />
<glyph unicode="&#xb5;" horiz-adv-x="1208" vert-adv-y="2457" d="M177 -430v1415h182v-630q0 -126 34 -176q42 -63 167 -63q169 0 287 92v777h182v-985h-147l-15 76q-72 -45 -98 -58q-100 -47 -225 -47q-111 0 -189 40v-441h-178z" />
<glyph unicode="&#xb6;" horiz-adv-x="1369" vert-adv-y="2457" d="M118 1063q0 121 52 213q59 106 185 141q61 17 195 17h523v-1843h-116v1720h-231v-1720h-116v1100h-60q-134 0 -195 17q-125 35 -185 142q-52 92 -52 213z" />
<glyph unicode="&#xb7;" horiz-adv-x="594" vert-adv-y="2457" d="M167 597q0 59 43 96q36 30 90 30q57 0 95 -40q33 -35 33 -87q0 -60 -43 -96q-36 -31 -87 -31q-61 0 -98 40q-33 36 -33 88z" />
<glyph unicode="&#xb8;" horiz-adv-x="1019" vert-adv-y="2457" d="M310 -410l12 103q81 -26 155 -26q127 0 127 74q0 41 -33 57q-49 22 -181 23l-10 38l94 141h99l-68 -103q104 -6 161 -26q90 -33 90 -128q0 -82 -60 -127q-66 -50 -189 -50q-101 0 -197 24z" />
<glyph unicode="&#xb9;" horiz-adv-x="522" vert-adv-y="2457" d="M12 1439v120l249 86h111v-875h-147v739z" />
<glyph unicode="&#xba;" horiz-adv-x="768" vert-adv-y="2457" d="M63 1133q0 153 80 236q86 89 250 89q154 0 240 -89q80 -83 80 -235t-80 -235q-85 -89 -245 -89t-245 88q-80 84 -80 235zM196 1133q0 -228 192 -228t192 229t-189 229q-195 0 -195 -230z" />
<glyph unicode="&#xbb;" horiz-adv-x="1016" vert-adv-y="2457" d="M51 260l262 321l-262 321l82 70l398 -378v-26l-398 -378zM477 260l262 321l-262 321l82 70l398 -378v-26l-398 -378z" />
<glyph unicode="&#xbc;" horiz-adv-x="1762" vert-adv-y="2457" d="M114 1224v119l250 87h110v-876h-147v740zM384 0l729 1423h161l-728 -1423h-162zM970 196v93l322 579h156l-314 -563h277v324h137v-324h142v-109h-142v-196h-137v196h-441z" />
<glyph unicode="&#xbd;" horiz-adv-x="1762" vert-adv-y="2457" d="M123 1224v119l250 87h110v-876h-147v740zM340 0l728 1423h161l-728 -1423h-161zM995 0v94l281 295q68 72 105 126q45 66 45 125q0 54 -31 89q-39 44 -118 44q-111 0 -241 -84v130q55 27 77 35q80 31 181 31q138 0 211 -60t73 -173q0 -99 -58 -182q-43 -62 -127 -149 l-201 -210h401v-111h-598z" />
<glyph unicode="&#xbe;" horiz-adv-x="1762" vert-adv-y="2457" d="M53 581v131q121 -62 231 -62q109 0 168 45q57 44 57 126q0 80 -77 115q-56 26 -177 26h-71v111h72q111 0 172 42q54 38 54 98q0 116 -157 116q-95 0 -226 -54v122q118 44 249 44q284 0 284 -219q0 -83 -49 -135q-26 -29 -76 -54q58 -24 90 -53q61 -57 61 -158 q0 -144 -83 -212q-89 -72 -272 -72q-126 0 -250 43zM437 0l728 1423h161l-728 -1423h-161zM986 196v93l322 579h156l-314 -563h277v324h137v-324h141v-109h-141v-196h-137v196h-441z" />
<glyph unicode="&#xbf;" horiz-adv-x="950" vert-adv-y="2457" d="M85 -110q0 99 46 184q43 81 245 282q50 49 65 91q15 41 15 112v36h149v-71q0 -85 -15 -129q-18 -50 -98 -131q-112 -114 -156 -177q-65 -91 -65 -187q0 -215 227 -215q141 0 297 82l4 -157q-164 -65 -318 -65q-201 0 -304 100q-92 89 -92 245zM399 925q0 59 43 96 q36 30 90 30q57 0 95 -40q33 -36 33 -87q0 -60 -43 -97q-36 -30 -87 -30q-61 0 -99 40q-32 35 -32 88z" />
<glyph unicode="&#xc0;" horiz-adv-x="1342" vert-adv-y="2457" d="M-2 0l589 1434h166l590 -1434h-194l-155 393h-651l-154 -393h-191zM367 1863h230l173 -280h-133zM395 534h547l-274 708z" />
<glyph unicode="&#xc1;" horiz-adv-x="1342" vert-adv-y="2457" d="M-2 0l589 1434h166l590 -1434h-194l-155 393h-651l-154 -393h-191zM395 534h547l-274 708zM582 1583l173 280h230l-270 -280h-133z" />
<glyph unicode="&#xc2;" horiz-adv-x="1342" vert-adv-y="2457" d="M-2 0l589 1434h166l590 -1434h-194l-155 393h-651l-154 -393h-191zM320 1583l245 280h210l246 -280h-155l-196 186l-196 -186h-154zM395 534h547l-274 708z" />
<glyph unicode="&#xc3;" horiz-adv-x="1342" vert-adv-y="2457" d="M-2 0l589 1434h166l590 -1434h-194l-155 393h-651l-154 -393h-191zM308 1597q25 117 59 176q59 100 163 100q58 0 114 -36q26 -17 72 -60q39 -36 54 -46q24 -16 50 -16q76 0 101 148h111q-35 -280 -218 -280q-54 0 -102 30q-26 17 -73 60q-46 42 -66 53q-26 15 -53 15 q-49 0 -77 -63q-10 -24 -24 -81h-111zM395 534h547l-274 708z" />
<glyph unicode="&#xc4;" horiz-adv-x="1342" vert-adv-y="2457" d="M-2 0l589 1434h166l590 -1434h-194l-155 393h-651l-154 -393h-191zM345 1706q0 52 38 84q31 27 80 27q52 0 85 -36q29 -30 29 -76q0 -54 -38 -86q-32 -27 -78 -27q-54 0 -87 36q-29 30 -29 78zM395 534h547l-274 708zM763 1706q0 52 38 84q31 27 80 27q52 0 85 -36 q29 -30 29 -76q0 -54 -38 -86q-32 -27 -78 -27q-54 0 -87 36q-29 30 -29 78z" />
<glyph unicode="&#xc5;" horiz-adv-x="1342" vert-adv-y="2457" d="M-2 0l589 1434h166l590 -1434h-194l-155 393h-651l-154 -393h-191zM395 534h547l-274 708zM452 1770q0 88 57 141q62 59 164 59q97 0 159 -59q56 -54 56 -141q0 -86 -56 -139q-61 -57 -162 -57t-162 57q-56 53 -56 139zM560 1771q0 -115 110 -115t110 116t-108 116 q-112 0 -112 -117z" />
<glyph unicode="&#xc6;" horiz-adv-x="1834" vert-adv-y="2457" d="M-102 0l833 1434h1013v-147h-672v-452h530v-141h-530v-547h672v-147h-856v417h-563l-232 -417h-195zM411 564h477v723h-70z" />
<glyph unicode="&#xc7;" horiz-adv-x="1267" vert-adv-y="2457" d="M118 708q0 395 201 591q167 164 470 164q206 0 388 -87v-169q-59 37 -103 57q-121 54 -264 54q-268 0 -384 -160q-118 -161 -118 -449q0 -272 108 -427q115 -166 394 -166q145 0 271 52q46 20 106 54v-169q-189 -82 -389 -82q-27 0 -71 2l-50 -76q104 -6 161 -26 q90 -33 90 -128q0 -82 -60 -127q-66 -50 -190 -50q-100 0 -196 24l11 103q82 -26 157 -26q126 0 126 74q0 41 -33 57q-50 23 -181 23l-10 38l83 125q-517 88 -517 724z" />
<glyph unicode="&#xc8;" horiz-adv-x="1165" vert-adv-y="2457" d="M179 0v1434h897v-147h-713v-452h572v-141h-572v-547h713v-147h-897zM377 1863h230l173 -280h-133z" />
<glyph unicode="&#xc9;" horiz-adv-x="1165" vert-adv-y="2457" d="M179 0v1434h897v-147h-713v-452h572v-141h-572v-547h713v-147h-897zM550 1583l173 280h230l-270 -280h-133z" />
<glyph unicode="&#xca;" horiz-adv-x="1165" vert-adv-y="2457" d="M179 0v1434h897v-147h-713v-452h572v-141h-572v-547h713v-147h-897zM277 1583l245 280h210l246 -280h-155l-196 186l-196 -186h-154z" />
<glyph unicode="&#xcb;" horiz-adv-x="1165" vert-adv-y="2457" d="M179 0v1434h897v-147h-713v-452h572v-141h-572v-547h713v-147h-897zM309 1706q0 52 38 84q31 27 80 27q52 0 85 -36q29 -30 29 -76q0 -54 -38 -86q-32 -27 -78 -27q-54 0 -87 36q-29 30 -29 78zM727 1706q0 52 38 84q31 27 80 27q52 0 85 -36q29 -30 29 -76 q0 -54 -38 -86q-32 -27 -78 -27q-54 0 -87 36q-29 30 -29 78z" />
<glyph unicode="&#xcc;" horiz-adv-x="558" vert-adv-y="2457" d="M-1 1863h230l173 -280h-133zM187 0v1434h184v-1434h-184z" />
<glyph unicode="&#xcd;" horiz-adv-x="558" vert-adv-y="2457" d="M186 0v1434h184v-1434h-184zM186 1583l173 280h230l-270 -280h-133z" />
<glyph unicode="&#xce;" horiz-adv-x="558" vert-adv-y="2457" d="M-71 1583l245 280h210l246 -280h-155l-196 186l-196 -186h-154zM187 0v1434h184v-1434h-184z" />
<glyph unicode="&#xcf;" horiz-adv-x="558" vert-adv-y="2457" d="M-49 1706q0 52 38 84q31 27 80 27q52 0 85 -36q29 -30 29 -76q0 -54 -38 -86q-32 -27 -78 -27q-54 0 -87 36q-29 30 -29 78zM187 0v1434h184v-1434h-184zM369 1706q0 52 38 84q31 27 80 27q52 0 85 -36q29 -30 29 -76q0 -54 -38 -86q-32 -27 -78 -27q-54 0 -87 36 q-29 30 -29 78z" />
<glyph unicode="&#xd0;" horiz-adv-x="1424" vert-adv-y="2457" d="M14 669v132h164v633h422q329 0 491 -138q115 -99 172 -276q44 -139 44 -304q0 -235 -89 -411q-89 -177 -277 -251q-138 -54 -353 -54h-410v669h-164zM362 143h211q254 0 383 113q161 142 161 467q0 233 -88 382q-78 133 -244 168q-88 18 -243 18h-180v-490h408v-132h-408 v-526z" />
<glyph unicode="&#xd1;" horiz-adv-x="1467" vert-adv-y="2457" d="M179 0v1434h178l767 -1135v1135h165v-1434h-157l-788 1171v-1171h-165zM400 1597q25 117 59 176q59 100 163 100q58 0 114 -36q26 -17 72 -60q39 -36 54 -46q24 -16 50 -16q76 0 101 148h111q-35 -280 -218 -280q-54 0 -102 30q-26 17 -73 60q-46 42 -66 53 q-26 15 -53 15q-49 0 -77 -63q-10 -24 -24 -81h-111z" />
<glyph unicode="&#xd2;" horiz-adv-x="1550" vert-adv-y="2457" d="M118 714q0 343 154 539q167 210 514 210q324 0 493 -210q154 -194 154 -536q0 -341 -154 -536q-167 -210 -503 -210q-337 0 -504 210q-154 195 -154 533zM308 714q0 -274 99 -429q108 -169 369 -169q260 0 368 169q99 155 99 432q0 601 -459 601q-268 0 -377 -169 q-99 -154 -99 -435zM517 1863h230l173 -280h-133z" />
<glyph unicode="&#xd3;" horiz-adv-x="1550" vert-adv-y="2457" d="M118 714q0 343 154 539q167 210 514 210q324 0 493 -210q154 -194 154 -536q0 -341 -154 -536q-167 -210 -503 -210q-337 0 -504 210q-154 195 -154 533zM308 714q0 -274 99 -429q108 -169 369 -169q260 0 368 169q99 155 99 432q0 601 -459 601q-268 0 -377 -169 q-99 -154 -99 -435zM658 1583l173 280h230l-270 -280h-133z" />
<glyph unicode="&#xd4;" horiz-adv-x="1550" vert-adv-y="2457" d="M118 714q0 343 154 539q167 210 514 210q324 0 493 -210q154 -194 154 -536q0 -341 -154 -536q-167 -210 -503 -210q-337 0 -504 210q-154 195 -154 533zM308 714q0 -274 99 -429q108 -169 369 -169q260 0 368 169q99 155 99 432q0 601 -459 601q-268 0 -377 -169 q-99 -154 -99 -435zM425 1583l245 280h210l246 -280h-155l-196 186l-196 -186h-154z" />
<glyph unicode="&#xd5;" horiz-adv-x="1550" vert-adv-y="2457" d="M118 714q0 343 154 539q167 210 514 210q324 0 493 -210q154 -194 154 -536q0 -341 -154 -536q-167 -210 -503 -210q-337 0 -504 210q-154 195 -154 533zM308 714q0 -274 99 -429q108 -169 369 -169q260 0 368 169q99 155 99 432q0 601 -459 601q-268 0 -377 -169 q-99 -154 -99 -435zM413 1597q25 117 59 176q59 100 163 100q58 0 114 -36q26 -17 72 -60q39 -36 54 -46q24 -16 50 -16q76 0 101 148h111q-35 -280 -218 -280q-54 0 -102 30q-26 17 -73 60q-46 42 -66 53q-26 15 -53 15q-49 0 -77 -63q-10 -24 -24 -81h-111z" />
<glyph unicode="&#xd6;" horiz-adv-x="1550" vert-adv-y="2457" d="M118 714q0 343 154 539q167 210 514 210q324 0 493 -210q154 -194 154 -536q0 -341 -154 -536q-167 -210 -503 -210q-337 0 -504 210q-154 195 -154 533zM308 714q0 -274 99 -429q108 -169 369 -169q260 0 368 169q99 155 99 432q0 601 -459 601q-268 0 -377 -169 q-99 -154 -99 -435zM450 1706q0 52 38 84q31 27 80 27q52 0 85 -36q29 -30 29 -76q0 -54 -38 -86q-32 -27 -78 -27q-54 0 -87 36q-29 30 -29 78zM868 1706q0 52 38 84q31 27 80 27q52 0 85 -36q29 -30 29 -76q0 -54 -38 -86q-32 -27 -78 -27q-54 0 -87 36q-29 30 -29 78z " />
<glyph unicode="&#xd7;" vert-adv-y="2457" d="M203 362l291 290l-291 290l103 104l290 -290l291 290l99 -100l-291 -290l291 -290l-103 -105l-290 290l-291 -290z" />
<glyph unicode="&#xd8;" horiz-adv-x="1550" vert-adv-y="2457" d="M118 717q0 341 154 536q167 210 501 210q264 0 432 -136l105 125l96 -81l-114 -137q141 -204 141 -516q0 -342 -154 -537q-168 -210 -500 -210q-266 0 -429 133l-107 -129l-98 81l117 140q-144 197 -144 521zM308 711q0 -157 44 -280q12 -32 33 -84l717 854 q-116 117 -327 117q-259 0 -368 -169q-99 -155 -99 -438zM452 228q117 -112 325 -112q259 0 367 169q99 155 99 436q0 158 -42 278q-13 36 -34 83z" />
<glyph unicode="&#xd9;" horiz-adv-x="1391" vert-adv-y="2457" d="M169 557v877h184v-832q0 -260 47 -349q73 -137 295 -137q243 0 310 162q36 89 36 324v832h181v-877q0 -136 -12 -209q-32 -204 -172 -294q-128 -83 -344 -83q-371 0 -476 238q-49 112 -49 348zM431 1863h230l173 -280h-133z" />
<glyph unicode="&#xda;" horiz-adv-x="1391" vert-adv-y="2457" d="M169 557v877h184v-832q0 -260 47 -349q73 -137 295 -137q243 0 310 162q36 89 36 324v832h181v-877q0 -136 -12 -209q-32 -204 -172 -294q-128 -83 -344 -83q-371 0 -476 238q-49 112 -49 348zM597 1583l173 280h230l-270 -280h-133z" />
<glyph unicode="&#xdb;" horiz-adv-x="1391" vert-adv-y="2457" d="M169 557v877h184v-832q0 -260 47 -349q73 -137 295 -137q243 0 310 162q36 89 36 324v832h181v-877q0 -136 -12 -209q-32 -204 -172 -294q-128 -83 -344 -83q-371 0 -476 238q-49 112 -49 348zM345 1583l245 280h210l246 -280h-155l-196 186l-196 -186h-154z" />
<glyph unicode="&#xdc;" horiz-adv-x="1391" vert-adv-y="2457" d="M169 557v877h184v-832q0 -260 47 -349q73 -137 295 -137q243 0 310 162q36 89 36 324v832h181v-877q0 -136 -12 -209q-32 -204 -172 -294q-128 -83 -344 -83q-371 0 -476 238q-49 112 -49 348zM370 1706q0 52 38 84q31 27 80 27q52 0 85 -36q29 -30 29 -76q0 -54 -38 -86 q-32 -27 -78 -27q-54 0 -87 36q-29 30 -29 78zM788 1706q0 52 38 84q31 27 80 27q52 0 85 -36q29 -30 29 -76q0 -54 -38 -86q-32 -27 -78 -27q-54 0 -87 36q-29 30 -29 78z" />
<glyph unicode="&#xdd;" horiz-adv-x="1181" vert-adv-y="2457" d="M-16 1434h204l406 -770l407 770h196l-516 -926v-508h-184v508zM509 1583l173 280h230l-270 -280h-133z" />
<glyph unicode="&#xde;" horiz-adv-x="1180" vert-adv-y="2457" d="M179 0v1434h184v-228h171q286 0 416 -83q170 -109 170 -353q0 -256 -185 -370q-124 -76 -372 -76h-200v-324h-184zM363 465h167q140 0 210 18q192 50 192 281q0 179 -110 249q-82 52 -292 52h-167v-600z" />
<glyph unicode="&#xdf;" horiz-adv-x="1227" vert-adv-y="2457" d="M161 0v921q0 169 19 264q29 145 148 222q114 74 290 74q220 0 328 -113q81 -86 81 -239q0 -89 -41 -140q-34 -44 -114 -97q-58 -38 -72 -52q-28 -29 -28 -67q0 -53 54 -98q20 -16 120 -74q123 -70 171 -139q55 -78 55 -186q0 -300 -369 -300q-135 0 -249 34v151 q122 -46 258 -46q184 0 184 150q0 65 -33 106q-31 38 -130 95q-122 70 -169 120q-62 67 -62 156q0 67 34 113q26 36 103 87q71 47 94 76q29 36 29 106q0 94 -53 152q-61 66 -187 66q-204 0 -252 -149q-27 -85 -27 -276v-917h-182z" />
<glyph unicode="&#xe0;" horiz-adv-x="1133" vert-adv-y="2457" d="M75 267q0 221 179 282q123 43 423 43h118v59q0 103 -34 152q-51 73 -218 73q-186 0 -363 -87v153q178 72 381 72q260 0 358 -118q48 -58 57 -166q3 -41 3 -121v-609h-147l-17 74q-69 -40 -108 -56q-113 -46 -278 -46q-157 0 -244 54q-110 70 -110 241zM259 273 q0 -95 53 -133q49 -36 160 -36q198 0 325 96v273h-114q-233 0 -319 -31q-105 -37 -105 -169zM302 1417h230l173 -279h-133z" />
<glyph unicode="&#xe1;" horiz-adv-x="1133" vert-adv-y="2457" d="M75 267q0 221 179 282q123 43 423 43h118v59q0 103 -34 152q-51 73 -218 73q-186 0 -363 -87v153q178 72 381 72q260 0 358 -118q48 -58 57 -166q3 -41 3 -121v-609h-147l-17 74q-69 -40 -108 -56q-113 -46 -278 -46q-157 0 -244 54q-110 70 -110 241zM259 273 q0 -95 53 -133q49 -36 160 -36q198 0 325 96v273h-114q-233 0 -319 -31q-105 -37 -105 -169zM491 1138l173 279h230l-270 -279h-133z" />
<glyph unicode="&#xe2;" horiz-adv-x="1133" vert-adv-y="2457" d="M75 267q0 221 179 282q123 43 423 43h118v59q0 103 -34 152q-51 73 -218 73q-186 0 -363 -87v153q178 72 381 72q260 0 358 -118q48 -58 57 -166q3 -41 3 -121v-609h-147l-17 74q-69 -40 -108 -56q-113 -46 -278 -46q-157 0 -244 54q-110 70 -110 241zM223 1138l245 279 h210l246 -279h-155l-196 185l-196 -185h-154zM259 273q0 -95 53 -133q49 -36 160 -36q198 0 325 96v273h-114q-233 0 -319 -31q-105 -37 -105 -169z" />
<glyph unicode="&#xe3;" horiz-adv-x="1133" vert-adv-y="2457" d="M75 267q0 221 179 282q123 43 423 43h118v59q0 103 -34 152q-51 73 -218 73q-186 0 -363 -87v153q178 72 381 72q260 0 358 -118q48 -58 57 -166q3 -41 3 -121v-609h-147l-17 74q-69 -40 -108 -56q-113 -46 -278 -46q-157 0 -244 54q-110 70 -110 241zM206 1153 q25 117 59 176q59 100 163 100q58 0 114 -36q25 -16 72 -60q38 -36 54 -46q24 -16 51 -16q75 0 100 148h111q-34 -280 -218 -280q-54 0 -102 30q-26 17 -73 60q-46 42 -66 54q-26 14 -53 14q-49 0 -77 -63q-10 -23 -24 -81h-111zM259 273q0 -95 53 -133q49 -36 160 -36 q198 0 325 96v273h-114q-233 0 -319 -31q-105 -37 -105 -169z" />
<glyph unicode="&#xe4;" horiz-adv-x="1133" vert-adv-y="2457" d="M75 267q0 221 179 282q123 43 423 43h118v59q0 103 -34 152q-51 73 -218 73q-186 0 -363 -87v153q178 72 381 72q260 0 358 -118q48 -58 57 -166q3 -41 3 -121v-609h-147l-17 74q-69 -40 -108 -56q-113 -46 -278 -46q-157 0 -244 54q-110 70 -110 241zM259 273 q0 -95 53 -133q49 -36 160 -36q198 0 325 96v273h-114q-233 0 -319 -31q-105 -37 -105 -169zM261 1277q0 52 38 84q31 27 80 27q52 0 85 -36q29 -30 29 -76q0 -54 -38 -86q-32 -27 -78 -27q-54 0 -87 36q-29 30 -29 78zM652 1277q0 52 38 84q31 27 80 27q52 0 85 -36 q29 -30 29 -76q0 -54 -38 -86q-32 -27 -78 -27q-54 0 -87 36q-29 30 -29 78z" />
<glyph unicode="&#xe5;" horiz-adv-x="1133" vert-adv-y="2457" d="M75 267q0 221 179 282q123 43 423 43h118v59q0 103 -34 152q-51 73 -218 73q-186 0 -363 -87v153q178 72 381 72q260 0 358 -118q48 -58 57 -166q3 -41 3 -121v-609h-147l-17 74q-69 -40 -108 -56q-113 -46 -278 -46q-157 0 -244 54q-110 70 -110 241zM259 273 q0 -95 53 -133q49 -36 160 -36q198 0 325 96v273h-114q-233 0 -319 -31q-105 -37 -105 -169zM363 1307q0 88 56 140q61 58 162 58q96 0 156 -58q56 -53 56 -139q0 -85 -55 -137q-61 -57 -160 -57t-159 57q-56 52 -56 136zM471 1309q0 -113 107 -113t107 114q0 113 -105 113 q-109 0 -109 -114z" />
<glyph unicode="&#xe6;" horiz-adv-x="1816" vert-adv-y="2457" d="M75 282q0 226 215 289q145 42 409 42h83v38q0 103 -35 152q-51 73 -220 73q-179 0 -347 -88v154q171 72 364 72q189 0 284 -68q37 -27 73 -95q131 163 363 163q319 0 414 -257q39 -105 41 -275h-757q0 -147 46 -234q46 -85 130 -117q62 -24 157 -24q134 0 254 39 q47 14 127 49v-153q-199 -71 -402 -71q-197 0 -308 83q-35 27 -70 70q-174 -151 -458 -151q-363 0 -363 309zM259 288q0 -183 215 -183q148 0 260 60q38 21 95 69q-45 107 -45 241v18h-82q-155 1 -254 -16q-111 -20 -152 -70q-37 -46 -37 -119zM962 607h582 q-29 275 -280 275q-264 0 -302 -275z" />
<glyph unicode="&#xe7;" horiz-adv-x="998" vert-adv-y="2457" d="M101 475q0 273 153 420q124 119 341 119q159 0 302 -65v-158q-58 32 -85 43q-88 38 -196 38q-165 0 -244 -103q-83 -108 -83 -291q0 -170 80 -266q82 -99 255 -99q108 0 196 37q26 11 94 48v-160q-151 -67 -316 -67q-17 0 -32 1l-49 -75q104 -6 161 -26q90 -33 90 -128 q0 -82 -60 -127q-66 -50 -189 -50q-101 0 -197 24l12 103q80 -26 155 -26q127 0 127 74q0 41 -33 57q-49 22 -181 23l-10 38l82 123q-373 68 -373 493z" />
<glyph unicode="&#xe8;" horiz-adv-x="1121" vert-adv-y="2457" d="M101 487q0 240 114 379q122 148 362 148q323 0 412 -257q32 -94 33 -275h-735q1 -147 46 -233q44 -86 125 -118q60 -24 152 -24q131 0 248 39q45 15 123 49v-153q-195 -71 -396 -71q-232 0 -349 119q-135 139 -135 397zM287 607h562q-9 103 -40 159q-65 116 -230 116 q-254 0 -292 -275zM318 1417h230l173 -279h-133z" />
<glyph unicode="&#xe9;" horiz-adv-x="1121" vert-adv-y="2457" d="M101 487q0 240 114 379q122 148 362 148q323 0 412 -257q32 -94 33 -275h-735q1 -147 46 -233q44 -86 125 -118q60 -24 152 -24q131 0 248 39q45 15 123 49v-153q-195 -71 -396 -71q-232 0 -349 119q-135 139 -135 397zM287 607h562q-9 103 -40 159q-65 116 -230 116 q-254 0 -292 -275zM487 1138l173 279h230l-270 -279h-133z" />
<glyph unicode="&#xea;" horiz-adv-x="1121" vert-adv-y="2457" d="M101 487q0 240 114 379q122 148 362 148q323 0 412 -257q32 -94 33 -275h-735q1 -147 46 -233q44 -86 125 -118q60 -24 152 -24q131 0 248 39q45 15 123 49v-153q-195 -71 -396 -71q-232 0 -349 119q-135 139 -135 397zM235 1138l245 279h210l246 -279h-155l-196 185 l-196 -185h-154zM287 607h562q-9 103 -40 159q-65 116 -230 116q-254 0 -292 -275z" />
<glyph unicode="&#xeb;" horiz-adv-x="1121" vert-adv-y="2457" d="M101 487q0 240 114 379q122 148 362 148q323 0 412 -257q32 -94 33 -275h-735q1 -147 46 -233q44 -86 125 -118q60 -24 152 -24q131 0 248 39q45 15 123 49v-153q-195 -71 -396 -71q-232 0 -349 119q-135 139 -135 397zM273 1277q0 52 38 84q31 27 80 27q52 0 85 -36 q29 -30 29 -76q0 -54 -38 -86q-32 -27 -78 -27q-54 0 -87 36q-29 30 -29 78zM287 607h562q-9 103 -40 159q-65 116 -230 116q-254 0 -292 -275zM664 1277q0 52 38 84q31 27 80 27q52 0 85 -36q29 -30 29 -76q0 -54 -38 -86q-32 -27 -78 -27q-54 0 -87 36q-29 30 -29 78z" />
<glyph unicode="&#xec;" horiz-adv-x="522" vert-adv-y="2457" d="M-12 1417h230l173 -279h-133zM170 0v985h182v-985h-182z" />
<glyph unicode="&#xed;" horiz-adv-x="522" vert-adv-y="2457" d="M170 0v985h182v-985h-182zM184 1138l173 279h230l-270 -279h-133z" />
<glyph unicode="&#xee;" horiz-adv-x="522" vert-adv-y="2457" d="M-90 1138l245 279h210l246 -279h-155l-196 185l-196 -185h-154zM170 0v985h182v-985h-182z" />
<glyph unicode="&#xef;" horiz-adv-x="522" vert-adv-y="2457" d="M-43 1277q0 52 38 84q31 27 80 27q52 0 85 -36q29 -30 29 -76q0 -54 -38 -86q-32 -27 -78 -27q-54 0 -87 36q-29 30 -29 78zM170 0v985h182v-985h-182zM348 1277q0 52 38 84q31 27 80 27q52 0 85 -36q29 -30 29 -76q0 -54 -38 -86q-32 -27 -78 -27q-54 0 -87 36 q-29 30 -29 78z" />
<glyph unicode="&#xf0;" horiz-adv-x="1191" vert-adv-y="2457" d="M101 478q0 248 126 388q121 134 340 134q105 0 189 -37q29 -13 73 -39q-67 138 -131 208q-43 47 -99 86l-253 -133l-57 91l193 102q-117 40 -226 50l17 134q223 -26 356 -92l168 94l59 -91l-123 -70q121 -94 205 -238q152 -261 152 -572q0 -244 -120 -379 q-127 -143 -373 -143q-264 0 -391 156q-105 129 -105 351zM286 483q0 -167 61 -259q69 -106 249 -106q131 0 207 61q102 81 102 308q0 156 -54 248q-33 56 -91 83q-74 35 -162 35q-163 0 -234 -86q-78 -93 -78 -284z" />
<glyph unicode="&#xf1;" horiz-adv-x="1213" vert-adv-y="2457" d="M161 0v985h145l17 -78q175 107 372 107q246 0 325 -149q40 -75 40 -254v-611h-182v624q0 129 -40 181q-48 64 -189 64q-163 0 -306 -96v-773h-182zM245 1153q25 117 59 176q59 100 163 100q58 0 114 -36q25 -16 72 -60q38 -36 54 -46q24 -16 51 -16q75 0 100 148h111 q-34 -280 -218 -280q-54 0 -102 30q-26 17 -73 60q-46 42 -66 54q-26 14 -53 14q-49 0 -77 -63q-10 -23 -24 -81h-111z" />
<glyph unicode="&#xf2;" horiz-adv-x="1218" vert-adv-y="2457" d="M101 491q0 523 516 523q248 0 379 -142q121 -130 121 -380q0 -248 -121 -379q-131 -142 -387 -142t-387 142q-121 131 -121 378zM289 491q0 -378 320 -378t320 379q0 380 -315 380q-163 0 -243 -91q-82 -94 -82 -290zM350 1417h230l173 -279h-133z" />
<glyph unicode="&#xf3;" horiz-adv-x="1218" vert-adv-y="2457" d="M101 491q0 523 516 523q248 0 379 -142q121 -130 121 -380q0 -248 -121 -379q-131 -142 -387 -142t-387 142q-121 131 -121 378zM289 491q0 -378 320 -378t320 379q0 380 -315 380q-163 0 -243 -91q-82 -94 -82 -290zM527 1138l173 279h230l-270 -279h-133z" />
<glyph unicode="&#xf4;" horiz-adv-x="1218" vert-adv-y="2457" d="M101 491q0 523 516 523q248 0 379 -142q121 -130 121 -380q0 -248 -121 -379q-131 -142 -387 -142t-387 142q-121 131 -121 378zM259 1138l245 279h210l246 -279h-155l-196 185l-196 -185h-154zM289 491q0 -378 320 -378t320 379q0 380 -315 380q-163 0 -243 -91 q-82 -94 -82 -290z" />
<glyph unicode="&#xf5;" horiz-adv-x="1218" vert-adv-y="2457" d="M101 491q0 523 516 523q248 0 379 -142q121 -130 121 -380q0 -248 -121 -379q-131 -142 -387 -142t-387 142q-121 131 -121 378zM247 1153q25 117 59 176q59 100 163 100q58 0 114 -36q25 -16 72 -60q38 -36 54 -46q24 -16 51 -16q75 0 100 148h111q-34 -280 -218 -280 q-54 0 -102 30q-26 17 -73 60q-46 42 -66 54q-26 14 -53 14q-49 0 -77 -63q-10 -23 -24 -81h-111zM289 491q0 -378 320 -378t320 379q0 380 -315 380q-163 0 -243 -91q-82 -94 -82 -290z" />
<glyph unicode="&#xf6;" horiz-adv-x="1218" vert-adv-y="2457" d="M101 491q0 523 516 523q248 0 379 -142q121 -130 121 -380q0 -248 -121 -379q-131 -142 -387 -142t-387 142q-121 131 -121 378zM289 491q0 -378 320 -378t320 379q0 380 -315 380q-163 0 -243 -91q-82 -94 -82 -290zM297 1277q0 52 38 84q31 27 80 27q52 0 85 -36 q29 -30 29 -76q0 -54 -38 -86q-32 -27 -78 -27q-54 0 -87 36q-29 30 -29 78zM688 1277q0 52 38 84q31 27 80 27q52 0 85 -36q29 -30 29 -76q0 -54 -38 -86q-32 -27 -78 -27q-54 0 -87 36q-29 30 -29 78z" />
<glyph unicode="&#xf7;" vert-adv-y="2457" d="M120 583v142h949v-142h-949zM475 326q0 49 40 84q35 30 80 30q48 0 85 -39q31 -33 31 -75q0 -50 -40 -85q-35 -30 -78 -30q-50 0 -87 39q-31 32 -31 76zM475 985q0 48 40 83q36 30 80 30q47 0 85 -39q31 -33 31 -75q0 -50 -40 -85q-35 -30 -78 -30q-50 0 -87 39 q-31 33 -31 77z" />
<glyph unicode="&#xf8;" horiz-adv-x="1218" vert-adv-y="2457" d="M82 28l109 114q-97 130 -97 353q0 246 121 377q131 142 384 142q200 0 329 -92l104 110l90 -80l-106 -112q95 -132 95 -349q0 -247 -121 -378q-131 -142 -384 -142q-197 0 -325 90l-107 -113zM279 494q0 -112 41 -214l501 523q-90 72 -219 72q-323 0 -323 -381zM387 179 q90 -69 215 -69q324 0 324 378q0 112 -41 212z" />
<glyph unicode="&#xf9;" horiz-adv-x="1161" vert-adv-y="2457" d="M153 375v610h182v-630q0 -125 32 -176q40 -63 162 -63q165 0 289 92v777h182v-985h-148l-14 76q-69 -41 -108 -58q-113 -47 -250 -47q-219 0 -291 149q-36 76 -36 255zM314 1417h230l173 -279h-133z" />
<glyph unicode="&#xfa;" horiz-adv-x="1161" vert-adv-y="2457" d="M153 375v610h182v-630q0 -125 32 -176q40 -63 162 -63q165 0 289 92v777h182v-985h-148l-14 76q-69 -41 -108 -58q-113 -47 -250 -47q-219 0 -291 149q-36 76 -36 255zM502 1138l173 279h230l-270 -279h-133z" />
<glyph unicode="&#xfb;" horiz-adv-x="1161" vert-adv-y="2457" d="M153 375v610h182v-630q0 -125 32 -176q40 -63 162 -63q165 0 289 92v777h182v-985h-148l-14 76q-69 -41 -108 -58q-113 -47 -250 -47q-219 0 -291 149q-36 76 -36 255zM230 1138l245 279h210l246 -279h-155l-196 185l-196 -185h-154z" />
<glyph unicode="&#xfc;" horiz-adv-x="1161" vert-adv-y="2457" d="M153 375v610h182v-630q0 -125 32 -176q40 -63 162 -63q165 0 289 92v777h182v-985h-148l-14 76q-69 -41 -108 -58q-113 -47 -250 -47q-219 0 -291 149q-36 76 -36 255zM268 1277q0 52 38 84q31 27 80 27q52 0 85 -36q29 -30 29 -76q0 -54 -38 -86q-32 -27 -78 -27 q-54 0 -87 36q-29 30 -29 78zM659 1277q0 52 38 84q31 27 80 27q52 0 85 -36q29 -30 29 -76q0 -54 -38 -86q-32 -27 -78 -27q-54 0 -87 36q-29 30 -29 78z" />
<glyph unicode="&#xfd;" horiz-adv-x="1034" vert-adv-y="2457" d="M11 985h193l315 -813l314 813h191l-458 -1052q-64 -148 -93 -198q-73 -131 -208 -157q-52 -10 -149 -14v135q121 8 166 43q49 37 103 159l44 99zM424 1138l173 279h230l-270 -279h-133z" />
<glyph unicode="&#xfe;" horiz-adv-x="1201" vert-adv-y="2457" d="M165 -430v1925h179v-572q157 89 322 89q232 0 345 -151q97 -130 97 -357q0 -229 -91 -366q-57 -86 -157 -126q-94 -39 -204 -39q-173 0 -311 83v-486h-180zM345 204q110 -89 271 -89q175 0 242 112q62 104 62 277q0 169 -63 263q-67 100 -236 100q-151 0 -276 -92v-571z " />
<glyph unicode="&#xff;" horiz-adv-x="1034" vert-adv-y="2457" d="M11 985h193l315 -813l314 813h191l-458 -1052q-64 -148 -93 -198q-73 -131 -208 -157q-52 -10 -149 -14v135q121 8 166 43q49 37 103 159l44 99zM205 1277q0 52 38 84q31 27 80 27q52 0 85 -36q29 -30 29 -76q0 -54 -38 -86q-32 -27 -78 -27q-54 0 -87 36q-29 30 -29 78z M596 1277q0 52 38 84q31 27 80 27q52 0 85 -36q29 -30 29 -76q0 -54 -38 -86q-32 -27 -78 -27q-54 0 -87 36q-29 30 -29 78z" />
<glyph unicode="&#x152;" horiz-adv-x="1945" vert-adv-y="2457" d="M118 717q0 292 129 487q116 176 336 211q120 19 384 19h889v-147h-690v-452h550v-141h-550v-547h690v-147h-889q-265 0 -384 19q-220 35 -336 211q-129 195 -129 487zM308 716q0 -218 73 -357q77 -150 228 -188q96 -25 269 -25h104v1142h-104q-173 0 -269 -25 q-151 -39 -228 -188q-73 -140 -73 -359z" />
<glyph unicode="&#x153;" horiz-adv-x="1972" vert-adv-y="2457" d="M101 493q0 249 121 379q131 142 385 142q295 0 418 -216q119 216 395 216q318 0 414 -257q40 -107 41 -275h-757q0 -147 46 -234q46 -85 130 -117q62 -24 157 -24q134 0 254 39q48 15 127 49v-153q-199 -71 -403 -71q-223 0 -336 114q-37 37 -72 98q-47 -68 -79 -99 q-116 -113 -334 -113q-255 0 -386 142q-121 131 -121 380zM289 491q0 -378 320 -378q321 0 321 379q0 380 -316 380q-163 0 -243 -91q-82 -94 -82 -290zM1117 607h583q-28 275 -280 275q-263 0 -303 -275z" />
<glyph unicode="&#x178;" horiz-adv-x="1181" vert-adv-y="2457" d="M-16 1434h204l406 -770l407 770h196l-516 -926v-508h-184v508zM265 1706q0 52 38 84q31 27 80 27q52 0 85 -36q29 -30 29 -76q0 -54 -38 -86q-32 -27 -78 -27q-54 0 -87 36q-29 30 -29 78zM683 1706q0 52 38 84q31 27 80 27q52 0 85 -36q29 -30 29 -76q0 -54 -38 -86 q-32 -27 -78 -27q-54 0 -87 36q-29 30 -29 78z" />
<glyph unicode="&#x2c6;" horiz-adv-x="1006" vert-adv-y="2457" d="M153 1138l245 279h210l246 -279h-155l-196 185l-196 -185h-154z" />
<glyph unicode="&#x2dc;" horiz-adv-x="1032" vert-adv-y="2457" d="M154 1153q25 117 59 176q59 100 163 100q58 0 114 -36q25 -16 72 -60q38 -36 54 -46q24 -16 51 -16q75 0 100 148h111q-34 -280 -218 -280q-54 0 -102 30q-26 17 -73 60q-46 42 -66 54q-26 14 -53 14q-49 0 -77 -63q-10 -23 -24 -81h-111z" />
<glyph unicode="&#x2000;" horiz-adv-x="985" vert-adv-y="0" />
<glyph unicode="&#x2001;" horiz-adv-x="1970" vert-adv-y="0" />
<glyph unicode="&#x2002;" horiz-adv-x="985" vert-adv-y="0" />
<glyph unicode="&#x2003;" horiz-adv-x="1970" vert-adv-y="0" />
<glyph unicode="&#x2004;" horiz-adv-x="656" vert-adv-y="0" />
<glyph unicode="&#x2005;" horiz-adv-x="492" vert-adv-y="0" />
<glyph unicode="&#x2006;" horiz-adv-x="328" vert-adv-y="0" />
<glyph unicode="&#x2007;" horiz-adv-x="328" vert-adv-y="0" />
<glyph unicode="&#x2008;" horiz-adv-x="246" vert-adv-y="0" />
<glyph unicode="&#x2009;" horiz-adv-x="394" vert-adv-y="0" />
<glyph unicode="&#x200a;" horiz-adv-x="109" vert-adv-y="0" />
<glyph unicode="&#x2010;" horiz-adv-x="750" vert-adv-y="2457" d="M88 524v147h574v-147h-574z" />
<glyph unicode="&#x2011;" horiz-adv-x="750" vert-adv-y="2457" d="M88 524v147h574v-147h-574z" />
<glyph unicode="&#x2012;" horiz-adv-x="750" vert-adv-y="2457" d="M88 524v147h574v-147h-574z" />
<glyph unicode="&#x2013;" vert-adv-y="2457" d="M105 524v147h979v-147h-979z" />
<glyph unicode="&#x2014;" horiz-adv-x="1072" vert-adv-y="2457" d="M-55 524v147h1183v-147h-1183z" />
<glyph unicode="&#x2018;" horiz-adv-x="387" vert-adv-y="2457" d="M65 1121q0 41 34 124l109 265h117l-84 -289q64 -29 64 -97q0 -53 -40 -86q-31 -26 -80 -26q-55 0 -89 33q-31 31 -31 76z" />
<glyph unicode="&#x2019;" horiz-adv-x="387" vert-adv-y="2457" d="M62 1012l84 288q-64 28 -64 98q0 53 40 86q32 26 80 26q56 0 89 -34q31 -30 31 -75q0 -42 -34 -124l-109 -265h-117z" />
<glyph unicode="&#x201a;" horiz-adv-x="387" vert-adv-y="2457" d="M62 -273l84 288q-64 29 -64 98q0 53 40 86q31 26 80 26q56 0 89 -33q31 -31 31 -76q0 -42 -34 -124l-109 -265h-117z" />
<glyph unicode="&#x201c;" horiz-adv-x="734" vert-adv-y="2457" d="M65 1121q0 41 34 124l109 265h117l-84 -289q64 -29 64 -97q0 -53 -40 -86q-31 -26 -80 -26q-55 0 -89 33q-31 31 -31 76zM412 1121q0 43 33 124l109 265h118l-85 -289q65 -28 65 -97q0 -54 -40 -86q-31 -26 -80 -26q-56 0 -89 33q-31 31 -31 76z" />
<glyph unicode="&#x201d;" horiz-adv-x="734" vert-adv-y="2457" d="M62 1012l84 288q-64 28 -64 98q0 53 40 86q32 26 80 26q56 0 89 -34q31 -30 31 -75q0 -42 -34 -124l-109 -265h-117zM409 1012l84 288q-65 29 -65 98q0 53 40 86q32 26 81 26q55 0 89 -34q31 -30 31 -75q0 -41 -34 -124l-109 -265h-117z" />
<glyph unicode="&#x201e;" horiz-adv-x="734" vert-adv-y="2457" d="M62 -273l84 288q-64 29 -64 98q0 53 40 86q31 26 80 26q56 0 89 -33q31 -31 31 -76q0 -42 -34 -124l-109 -265h-117zM409 -273l84 288q-65 29 -65 98q0 53 40 86q32 26 81 26q55 0 89 -33q31 -31 31 -76q0 -41 -34 -124l-109 -265h-117z" />
<glyph unicode="&#x2022;" vert-adv-y="2457" d="M303 664q0 125 76 203q84 86 215 86q133 0 215 -86q76 -80 76 -206t-76 -207q-82 -86 -214 -86q-135 0 -216 86q-76 81 -76 210z" />
<glyph unicode="&#x2026;" horiz-adv-x="1703" vert-adv-y="2457" d="M154 99q0 59 43 96q36 30 90 30q57 0 95 -40q33 -35 33 -87q0 -60 -43 -96q-36 -31 -87 -31q-61 0 -98 40q-33 36 -33 88zM722 99q0 59 43 96q36 30 90 30q57 0 95 -40q33 -35 33 -87q0 -60 -43 -96q-36 -31 -87 -31q-61 0 -98 40q-33 36 -33 88zM1290 99q0 59 43 96 q35 30 90 30q57 0 95 -40q33 -35 33 -87q0 -60 -43 -96q-36 -31 -88 -31q-60 0 -97 40q-33 36 -33 88z" />
<glyph unicode="&#x202f;" horiz-adv-x="394" vert-adv-y="0" />
<glyph unicode="&#x2039;" horiz-adv-x="590" vert-adv-y="2457" d="M59 568v26l398 378l82 -70l-262 -321l262 -321l-82 -70z" />
<glyph unicode="&#x203a;" horiz-adv-x="590" vert-adv-y="2457" d="M51 260l262 321l-262 321l82 70l398 -378v-26l-398 -378z" />
<glyph unicode="&#x205f;" horiz-adv-x="492" vert-adv-y="0" />
<glyph unicode="&#x20ac;" vert-adv-y="2457" d="M2 752l44 116h137q79 585 589 585q191 0 349 -90v-171q-51 39 -93 62q-108 57 -238 57q-234 0 -337 -170q-60 -101 -84 -273h599l-44 -116h-564q-1 -47 -1 -61q0 -31 3 -74h518l-41 -116h-461q24 -137 76 -225q98 -164 337 -164q133 0 244 56q40 20 96 59v-170 q-168 -86 -360 -86q-498 0 -583 530h-185l44 116h128q-2 40 -2 86q0 25 1 49h-172z" />
<glyph unicode="&#x2122;" horiz-adv-x="1837" vert-adv-y="2457" d="M-1 1327v107h683v-107h-271v-757h-138v757h-274zM768 570l67 864h160l276 -692l275 692h154l68 -864h-130l-50 659l-266 -659h-110l-267 658l-49 -658h-128z" />
<glyph unicode="&#x25fc;" horiz-adv-x="985" vert-adv-y="1970" d="M0 0v985h985v-985h-985z" />
</font>
</defs>
</svg>
